<svg width="255" height="433" viewBox="0 0 255 433" fill="none" xmlns="http://www.w3.org/2000/svg">
<path d="M91.0252 268.434C80.8042 278.575 75.7614 290.694 75.7614 305.054C75.7614 319.333 80.8031 331.613 91.0271 341.756C101.155 351.803 113.029 357.096 127.564 357.096C142.003 357.096 154.678 351.815 164.818 341.756C175.042 331.613 180.083 319.333 180.083 305.054C180.083 290.694 175.04 278.575 164.819 268.434C154.693 258.308 142.059 253.683 127.716 253.65H127.713L127.564 253.65L127.415 253.65H127.411C112.979 253.683 101.141 258.318 91.0252 268.434ZM91.0252 268.434C91.0258 268.434 91.0265 268.433 91.0271 268.432L91.7314 269.142M91.0252 268.434C91.0249 268.434 91.0246 268.435 91.0243 268.435L91.7314 269.142M91.7314 269.142C101.65 259.224 113.229 254.682 127.414 254.65H127.714C141.825 254.682 154.195 259.224 164.113 269.142C174.146 279.096 179.083 290.96 179.083 305.054C179.083 319.069 174.146 331.093 164.113 341.046C154.16 350.92 141.738 356.096 127.564 356.096C113.311 356.096 101.685 350.92 91.7314 341.046C81.6983 331.093 76.7614 319.069 76.7614 305.054C76.7614 290.96 81.6983 279.096 91.7314 269.142ZM217.663 215.532L216.971 216.232L217.66 216.935C240.982 240.734 252.869 268.958 253.65 301.881V305.214C253.65 306.239 253.613 307.268 253.574 308.345L253.574 308.354C253.534 309.474 253.492 310.643 253.491 311.878C251.906 343.947 239.907 371.256 216.599 394.485L216.596 394.487C192.018 419.144 162.412 431.539 127.564 431.539C92.713 431.539 62.7082 419.142 37.9719 394.485C13.2368 369.749 1 340.144 1 305.214C1 270.706 12.8887 241.45 36.9126 216.933L37.6004 216.231L36.9105 215.531C12.8898 191.162 1 161.678 1 127.325C1 92.3145 13.2374 62.7085 37.973 37.973C62.7859 13.1601 92.7094 1 127.564 1C162.417 1 192.02 13.1586 216.594 37.9696L216.598 37.973C240.621 61.9968 252.857 90.5741 253.65 124.072V127.325C253.65 128.36 253.613 129.417 253.573 130.514L253.573 130.523C253.533 131.644 253.492 132.805 253.491 133.989C251.93 165.337 240.269 192.679 217.663 215.532ZM180.083 127.166C180.083 112.806 175.041 100.687 164.82 90.5465C154.671 80.3173 141.99 75.2836 127.564 75.2836C113.041 75.2836 101.162 80.3289 91.0234 90.5474C80.8866 100.685 75.7613 112.802 75.7613 127.166C75.7613 141.442 80.881 153.882 91.0271 163.868C101.167 173.927 113.046 178.889 127.564 178.889C141.985 178.889 154.664 173.938 164.815 163.87C175.046 153.882 180.083 141.438 180.083 127.166Z" stroke="white" stroke-width="2"/>
</svg>
