<svg width="128" height="73" viewBox="0 0 128 73" fill="none" xmlns="http://www.w3.org/2000/svg">
<path d="M42.6809 22.5392L42.6808 22.5392L42.6805 22.5467C42.4625 27.7284 40.5045 32.2231 36.7857 35.9936L36.5725 36.2098L36.785 36.4267C40.6308 40.3516 42.5775 45.0024 42.7066 50.4321V50.9838C42.7066 51.3416 42.7065 51.6888 42.6809 52.0738L42.6808 52.0738L42.6805 52.0806C42.4461 57.3692 40.4435 61.8709 36.61 65.7045C32.5158 69.7723 27.6494 71.8145 21.8759 71.8145C16.1026 71.8145 11.2363 69.7724 7.1421 65.7047C3.08759 61.6239 1.04521 56.7443 1.04521 50.9838C1.04521 45.2924 3.02972 40.4704 6.96868 36.4259L7.17919 36.2098L6.96804 35.9943C3.03007 31.9746 1.04521 27.115 1.04521 21.4492C1.04521 15.6753 3.08772 10.7957 7.14227 6.71486C11.2353 2.62201 16.101 0.618456 21.8759 0.618456C27.6511 0.618456 32.5169 2.62212 36.6099 6.71519C40.5593 10.6777 42.5755 15.387 42.7066 20.8975V21.4492C42.7066 21.807 42.7065 22.1542 42.6809 22.5392ZM28.2155 15.2419L28.2146 15.241C26.4884 13.5285 24.2805 12.6659 21.8759 12.6659C19.4631 12.6659 17.4692 13.5343 15.7488 15.241L15.748 15.2419C14.0386 16.9513 13.172 18.9992 13.172 21.4227C13.172 23.8308 14.037 25.9333 15.7497 27.6186C17.4716 29.3132 19.4658 30.1531 21.8759 30.1531C24.2779 30.1531 26.486 29.3188 28.2137 27.6186C29.9264 25.9333 30.7914 23.8308 30.7914 21.4227C30.7914 18.9992 29.9248 16.9513 28.2155 15.2419ZM28.2155 44.7765L28.2146 44.7756C26.4912 43.0659 24.3904 42.2005 21.9817 42.2005C19.573 42.2005 17.4722 43.0659 15.7488 44.7756L15.748 44.7765C14.0386 46.4859 13.172 48.5338 13.172 50.9573C13.172 53.3668 14.038 55.4415 15.7479 57.1514L15.7497 57.1532C17.4679 58.8441 19.4608 59.7406 21.8759 59.7406C24.2829 59.7406 26.4895 58.85 28.2137 57.1532L28.2155 57.1514C29.9254 55.4415 30.7914 53.3668 30.7914 50.9573C30.7914 48.5338 29.9248 46.4859 28.2155 44.7765Z" fill="black" stroke="black" stroke-width="0.617772"/>
<path d="M79.2766 35.9939L79.0638 36.2097L79.2756 36.4266C83.1096 40.3519 85.0687 45.0029 85.1978 50.4321V50.9838C85.1978 51.1511 85.1918 51.3193 85.1854 51.4986L85.1853 51.501C85.1786 51.6854 85.1716 51.8805 85.1714 52.0867C84.9093 57.3741 82.9321 61.8736 79.1011 65.7046C75.0334 69.7723 70.1803 71.8145 64.4333 71.8145C58.6841 71.8145 53.6995 69.7709 49.6332 65.7046C45.5531 61.6245 43.5364 56.7454 43.5364 50.9838C43.5364 45.2915 45.4958 40.4702 49.4581 36.4266L49.6706 36.2098L49.4575 35.9936C45.4962 31.9749 43.5364 27.1159 43.5364 21.4492C43.5364 15.6742 45.5532 10.7951 49.6332 6.71519L49.6339 6.71449C53.6989 2.62338 58.6827 0.618456 64.4333 0.618456C70.1817 0.618456 75.0339 2.62191 79.1004 6.71449L79.1008 6.71483C83.0504 10.6775 85.0667 15.3869 85.1978 20.8975V21.4492C85.1978 21.6165 85.1918 21.7847 85.1854 21.964L85.1853 21.9664C85.1786 22.1507 85.1716 22.3458 85.1714 22.5519C84.9133 27.7338 82.9915 32.2263 79.2766 35.9939ZM64.4084 42.2006L64.4074 42.2006C61.9688 42.2067 59.9424 43.0732 58.2392 44.7765C56.5298 46.4859 55.6632 48.5338 55.6632 50.9573C55.6632 53.3668 56.5292 55.4415 58.2392 57.1514L58.24 57.1523C59.9473 58.8459 61.981 59.7406 64.4333 59.7406C66.8695 59.7406 68.9832 58.848 70.6926 57.1523L70.475 56.933L70.6926 57.1523C72.4173 55.4412 73.2694 53.3658 73.2694 50.9573C73.2694 48.5349 72.4168 46.4861 70.6926 44.7756C68.9874 43.0709 66.8817 42.2067 64.459 42.2006H64.458L64.4333 42.2006L64.4084 42.2006ZM70.6929 15.2414C68.9816 13.5303 66.8669 12.6659 64.4333 12.6659C61.9833 12.6659 59.9485 13.5325 58.2392 15.2419C56.5298 16.9513 55.6632 18.9992 55.6632 21.4227C55.6632 23.8306 56.5281 25.933 58.2405 27.6182C59.9513 29.3151 61.9862 30.1531 64.4333 30.1531C66.864 30.1531 68.9789 29.3172 70.6916 27.6187C72.4186 25.9324 73.2694 23.8293 73.2694 21.4227C73.2694 19.0005 72.4169 16.9518 70.6929 15.2414Z" fill="black" stroke="black" stroke-width="0.617772"/>
<path d="M121.756 35.9935L121.542 36.2097L121.754 36.4269C125.601 40.3522 127.56 45.003 127.689 50.4321V50.9838C127.689 51.1511 127.683 51.3193 127.677 51.4986L127.676 51.501C127.67 51.6854 127.663 51.8805 127.663 52.0867C127.401 57.3741 125.423 61.8733 121.58 65.7042L121.579 65.7049C117.525 69.772 112.646 71.8145 106.898 71.8145C101.15 71.8145 96.2042 69.7713 92.124 65.7042C88.0442 61.6243 86.0276 56.7453 86.0276 50.9838C86.0276 45.2915 87.987 40.4702 91.9493 36.4266L92.1618 36.2098L91.9487 35.9936C87.9874 31.9749 86.0276 27.1159 86.0276 21.4492C86.0276 15.6742 88.0444 10.7951 92.1244 6.71519C96.2168 2.62271 101.149 0.618456 106.898 0.618456C112.647 0.618456 117.525 2.62225 121.578 6.71414L121.579 6.71519C125.542 10.6776 127.558 15.3868 127.689 20.9107V21.4492C127.689 21.618 127.683 21.7909 127.676 21.9736L127.676 21.9766C127.67 22.1607 127.663 22.3542 127.663 22.552C127.404 27.7208 125.483 32.2257 121.756 35.9935ZM106.873 42.2799L106.872 42.2799C104.441 42.2854 102.439 43.0684 100.731 44.7758C99.007 46.4863 98.1544 48.535 98.1544 50.9573C98.1544 53.3658 99.0065 55.4412 100.731 57.1523L100.949 56.933L100.731 57.1523C102.438 58.8452 104.445 59.7406 106.898 59.7406C109.333 59.7406 111.474 58.8487 113.184 57.1523L112.966 56.933L113.184 57.1523C114.909 55.4412 115.761 53.3658 115.761 50.9573C115.761 48.5349 114.908 46.4861 113.184 44.7756C111.473 43.065 109.338 42.2854 106.924 42.2799L106.922 42.2799L106.898 42.2799L106.873 42.2799ZM115.761 21.4227C115.761 19.0008 114.908 16.9523 113.185 15.2419C111.472 13.5155 109.329 12.6659 106.898 12.6659C104.448 12.6659 102.44 13.5192 100.73 15.2424C99.0208 16.9517 98.1544 18.9995 98.1544 21.4227C98.1544 23.8306 99.0194 25.9331 100.732 27.6183C102.442 29.3144 104.45 30.1531 106.898 30.1531C109.328 30.1531 111.469 29.3179 113.183 27.6186C114.91 25.9323 115.761 23.8292 115.761 21.4227Z" fill="black" stroke="black" stroke-width="0.617772"/>
</svg>
