<svg width="178" height="146" viewBox="0 0 178 146" fill="none" xmlns="http://www.w3.org/2000/svg">
<g clip-path="url(#clip0_2275_6388)">
<path d="M160.984 115.036C166.261 111.294 170.467 106.675 173.373 101.406C176.394 95.946 178 89.7227 178 82.8503C178 82.1249 178 81.4377 177.962 80.7122C177.579 73.1144 175.285 65.4785 171.461 58.0716C171.461 58.0716 171.385 57.957 171.385 57.9188C171.346 57.8425 171.308 57.7661 171.27 57.6898C167.79 51.1992 162.934 44.5177 157.313 38.638C143.853 24.5114 124.81 12.6756 103.473 5.91779C99.1522 4.54332 94.7165 3.39792 90.2808 2.4816C85.8069 1.56528 81.4478 0.916224 77.2033 0.534425C73.7236 0.190806 70.3204 0.0380859 67.0319 0.0380859C50.2452 0.0380859 35.791 4.1997 25.4284 11.5684C20.1897 15.3101 15.9835 19.8916 13.0774 25.1605C9.78889 31.1929 8.1064 38.1416 8.48878 45.854C8.87117 53.5663 11.242 61.355 15.2187 68.9146C18.6984 75.5198 23.44 81.9722 29.214 87.9664C42.674 102.093 61.7167 113.929 83.0538 120.687C87.3747 122.061 91.8104 123.206 96.246 124.123C100.72 125.039 105.079 125.688 109.324 126.07C130.469 128.094 148.709 123.894 161.06 115.074" fill="url(#paint0_linear_2275_6388)"/>
<path d="M153.221 58.9497C150.545 53.8718 146.912 48.9466 142.476 44.2887C141.788 43.6014 141.1 42.876 140.412 42.1888L157.237 38.5999C162.972 44.5941 167.714 51.0083 171.194 57.6516L154.33 61.2405C153.986 60.4769 153.604 59.7133 153.183 58.9497H153.221Z" fill="url(#paint1_linear_2275_6388)"/>
<path d="M77.0886 0.496188C81.3713 0.877987 85.7305 1.52705 90.2044 2.44336C94.6783 3.35968 99.0757 4.50508 103.397 5.87956L104.085 20.1207C103.091 19.777 102.058 19.4334 101.026 19.0898C97.6992 18.0208 94.3342 17.1426 90.8927 16.4554C87.4512 15.7682 84.0863 15.2336 80.7978 14.9282C79.8036 14.8137 78.7711 14.7373 77.7769 14.6991L77.0886 0.458008V0.496188Z" fill="url(#paint2_linear_2275_6388)"/>
<path d="M31.432 33.9419C31.0878 34.5528 30.7819 35.1636 30.476 35.8127L12.9246 25.1605C15.8307 19.8535 20.0369 15.2719 25.3138 11.5303L42.8653 22.1825C42.2152 22.6024 41.5652 23.0224 40.9533 23.4424C36.9001 26.3441 33.6498 29.8566 31.432 33.9419Z" fill="url(#paint3_linear_2275_6388)"/>
<path d="M154.866 92.6245C155.21 92.0136 155.516 91.4027 155.821 90.7537L173.373 101.406C170.467 106.713 166.261 111.294 160.984 115.036L143.47 104.384C144.121 103.964 144.771 103.544 145.382 103.124C149.436 100.222 152.648 96.7097 154.904 92.6245H154.866Z" fill="url(#paint4_linear_2275_6388)"/>
<path d="M33.0761 67.6165C35.7528 72.6944 39.4237 77.6578 43.8211 82.2776C44.5094 82.9648 45.1977 83.6902 45.886 84.3775L29.061 87.9664C23.3253 81.9721 18.5837 75.5579 15.104 68.9146L31.9672 65.3257C32.3113 66.0893 32.6937 66.8529 33.1143 67.6165H33.0761Z" fill="url(#paint5_linear_2275_6388)"/>
<path d="M95.4049 110.073C98.8464 110.798 102.211 111.294 105.5 111.6C106.494 111.676 107.526 111.753 108.521 111.829L109.209 126.07C104.926 125.688 100.567 125.039 96.0932 124.123C91.6193 123.207 87.2219 122.061 82.9009 120.687L82.2126 106.446C83.2068 106.789 84.2393 107.133 85.2717 107.476C88.5985 108.545 91.9635 109.424 95.4049 110.111V110.073Z" fill="url(#paint6_linear_2275_6388)"/>
<path d="M173.335 101.406L164.999 120.878C164.616 121.603 164.196 122.29 163.775 122.977C163.622 123.206 163.469 123.436 163.316 123.665C163.01 124.123 162.705 124.543 162.399 125.001C162.36 125.077 162.284 125.154 162.246 125.23C162.131 125.345 162.054 125.497 161.94 125.612C161.481 126.223 160.984 126.834 160.487 127.406C160.334 127.597 160.181 127.788 159.99 127.979C159.34 128.704 158.651 129.392 157.963 130.079C157.848 130.193 157.695 130.308 157.581 130.422C156.969 130.995 156.357 131.568 155.707 132.102C155.477 132.293 155.286 132.446 155.057 132.637C154.254 133.286 153.489 133.897 152.61 134.508C152.533 134.546 152.457 134.622 152.418 134.66C151.768 135.119 151.08 135.577 150.392 135.997C150.201 136.111 149.971 136.264 149.78 136.379C149.206 136.722 148.671 137.066 148.059 137.371C147.792 137.524 147.562 137.677 147.294 137.791C146.683 138.097 146.071 138.44 145.459 138.746C145.268 138.86 145.077 138.937 144.847 139.051C144.044 139.433 143.203 139.815 142.362 140.197C142.209 140.273 142.018 140.349 141.826 140.426C141.138 140.693 140.45 140.998 139.723 141.227C139.456 141.342 139.15 141.418 138.92 141.533C138.232 141.8 137.544 142.029 136.817 142.258C136.588 142.335 136.358 142.411 136.129 142.487C136.014 142.526 135.899 142.564 135.785 142.602C135.517 142.678 135.211 142.755 134.943 142.831C134.14 143.098 133.299 143.289 132.458 143.518C132.037 143.633 131.578 143.709 131.12 143.824C130.317 144.015 129.514 144.167 128.711 144.358C128.252 144.435 127.793 144.549 127.334 144.625C126.416 144.778 125.498 144.931 124.543 145.084C124.198 145.122 123.816 145.198 123.472 145.236C122.172 145.427 120.872 145.58 119.533 145.694C119.227 145.694 118.921 145.733 118.616 145.771C117.545 145.847 116.512 145.924 115.442 145.962C114.945 145.962 114.448 146 113.95 146C113.033 146 112.115 146.038 111.159 146.038C110.662 146.038 110.127 146.038 109.591 146.038C108.635 146.038 107.641 146 106.647 145.962C106.188 145.962 105.691 145.962 105.232 145.924C103.779 145.847 102.288 145.733 100.796 145.618C96.5137 145.198 92.1546 144.587 87.6807 143.633C85.9217 143.289 84.1627 142.869 82.442 142.449C82.2508 142.411 82.0596 142.373 81.8684 142.296C81.7155 142.296 81.5625 142.22 81.4096 142.182C80.683 141.991 79.9182 141.762 79.1917 141.571C78.7711 141.456 78.3887 141.342 77.9681 141.227C76.7827 140.884 75.6355 140.54 74.4884 140.158C73.15 139.738 71.8117 139.28 70.5116 138.822C70.2057 138.708 69.938 138.631 69.6321 138.517C68.5997 138.173 67.6055 137.791 66.573 137.409C66.2671 137.295 65.9612 137.142 65.6553 137.066C64.6611 136.684 63.6669 136.264 62.7109 135.882C62.5962 135.844 62.5197 135.768 62.405 135.729C59.8048 134.622 57.2428 133.439 54.7573 132.179C54.3367 131.988 53.9543 131.759 53.572 131.568C52.5778 131.072 51.6218 130.575 50.6658 130.041C50.207 129.773 49.7481 129.544 49.2892 129.277C48.3715 128.781 47.4538 128.246 46.5743 127.712C46.1537 127.444 45.7331 127.215 45.3125 126.948C44.28 126.337 43.2858 125.688 42.2534 125.039C42.0622 124.925 41.8328 124.772 41.6033 124.619C41.5651 124.619 41.5268 124.581 41.4504 124.543C40.112 123.665 38.8502 122.787 37.55 121.908C37.2441 121.679 36.9 121.45 36.5941 121.221C35.6381 120.534 34.7204 119.847 33.7644 119.121C33.3821 118.816 32.9997 118.51 32.6173 118.243C31.6613 117.518 30.7436 116.754 29.8259 115.99C29.5582 115.761 29.2905 115.571 29.0229 115.341C27.8757 114.349 26.7668 113.356 25.6579 112.363C25.6196 112.325 25.5432 112.249 25.4667 112.211C24.9314 111.714 24.4343 111.218 23.8989 110.722C23.6312 110.454 23.3253 110.225 23.0959 109.958C22.2164 109.118 21.4134 108.278 20.6104 107.438C14.8746 101.444 10.1331 94.9915 6.61513 88.4246C2.79129 80.8268 0.420505 73.0381 0.0381202 65.3257C-0.267787 58.9879 0.802889 53.1082 3.02072 47.8775C5.0856 42.9905 7.18871 38.1416 9.25359 33.2928C9.94188 31.6511 10.6302 30.0475 11.3185 28.4058C9.10063 33.6364 8.02996 39.4779 8.33587 45.854C8.71825 53.5663 11.089 61.355 15.0658 68.9146C18.5455 75.5198 23.2871 81.934 29.0229 87.9282C29.8259 88.8064 30.6671 89.6463 31.5466 90.4863C31.776 90.7154 32.0055 90.9445 32.2731 91.1735C32.885 91.7462 33.4968 92.3571 34.1086 92.9298C35.2175 93.9225 36.3264 94.9152 37.4736 95.8697C37.7412 96.0988 38.0471 96.3278 38.3148 96.5951C39.1943 97.3205 40.112 98.0841 41.0297 98.7713C41.4121 99.0768 41.7945 99.3822 42.2151 99.6877C43.1329 100.375 44.0506 101.062 44.9683 101.749C45.3125 101.978 45.6184 102.246 46.0007 102.475C47.2626 103.353 48.5245 104.231 49.8628 105.109C50.1305 105.3 50.4364 105.453 50.7423 105.644C51.6983 106.255 52.6925 106.865 53.6867 107.476C54.1455 107.744 54.5662 108.011 55.025 108.278C55.9045 108.774 56.784 109.309 57.6635 109.805C58.1223 110.073 58.6194 110.34 59.0783 110.569C59.996 111.065 60.952 111.562 61.9079 112.058C62.3286 112.287 62.7492 112.516 63.1698 112.707C64.5082 113.394 65.8847 114.043 67.2613 114.692C67.2613 114.692 67.2996 114.692 67.3378 114.692C71.0852 116.41 74.9472 117.976 78.924 119.35C80.2624 119.808 81.5625 120.267 82.9391 120.687C84.0862 121.03 85.2716 121.412 86.4188 121.717C86.7629 121.832 87.1453 121.908 87.4895 122.023C88.2925 122.252 89.1337 122.481 89.9367 122.672C90.2426 122.748 90.5103 122.825 90.8162 122.863C92.5752 123.321 94.3341 123.741 96.1313 124.085C100.605 125.001 104.964 125.65 109.247 126.07C110.738 126.223 112.23 126.337 113.683 126.375C114.142 126.375 114.601 126.414 115.059 126.414C116.092 126.452 117.086 126.49 118.08 126.528H119.61C120.566 126.528 121.522 126.528 122.439 126.49C122.898 126.49 123.395 126.49 123.854 126.452C124.963 126.414 126.034 126.337 127.105 126.261C127.372 126.261 127.678 126.223 127.946 126.185C129.284 126.07 130.584 125.917 131.923 125.765C132.267 125.726 132.649 125.65 132.993 125.612C133.949 125.459 134.867 125.306 135.785 125.154C136.243 125.077 136.702 125.001 137.123 124.886C137.964 124.734 138.767 124.543 139.57 124.352C140.029 124.237 140.45 124.161 140.909 124.046C141.75 123.817 142.591 123.588 143.394 123.359C143.776 123.245 144.159 123.13 144.579 123.016C144.809 122.939 145.038 122.863 145.268 122.787C145.956 122.557 146.683 122.328 147.333 122.061C147.6 121.947 147.868 121.87 148.136 121.756C148.862 121.488 149.55 121.183 150.239 120.916C150.43 120.839 150.583 120.763 150.774 120.687C151.615 120.343 152.457 119.923 153.26 119.541C153.451 119.427 153.642 119.35 153.833 119.236C154.445 118.93 155.057 118.587 155.669 118.281C155.936 118.129 156.166 118.014 156.433 117.861C157.007 117.518 157.581 117.212 158.154 116.83C158.345 116.716 158.575 116.601 158.766 116.487C159.531 115.99 160.295 115.494 161.022 114.998C161.863 114.387 162.666 113.776 163.431 113.127C163.66 112.936 163.852 112.783 164.081 112.592C164.731 112.058 165.343 111.485 165.955 110.913C166.07 110.798 166.222 110.683 166.337 110.569C167.064 109.882 167.714 109.194 168.364 108.469C168.517 108.278 168.67 108.087 168.823 107.896C169.32 107.285 169.817 106.713 170.314 106.064C170.467 105.873 170.62 105.644 170.773 105.453C171.079 105.033 171.385 104.575 171.691 104.117C171.844 103.887 171.996 103.658 172.149 103.429C172.57 102.742 172.991 102.055 173.373 101.329L173.335 101.406Z" fill="url(#paint7_linear_2275_6388)"/>
<path d="M163.775 122.977C164.196 122.29 164.616 121.603 164.999 120.878L173.297 101.406C172.914 102.131 172.494 102.818 172.073 103.506C171.92 103.735 171.767 103.964 171.614 104.193C171.308 104.651 171.002 105.071 170.696 105.529C170.543 105.72 170.39 105.949 170.237 106.14C169.779 106.751 169.282 107.362 168.784 107.935C168.631 108.125 168.479 108.316 168.326 108.507C167.676 109.233 167.025 109.958 166.299 110.607C166.184 110.722 166.031 110.836 165.917 110.951C165.305 111.523 164.693 112.096 164.043 112.631C163.852 112.822 163.622 112.974 163.393 113.165C162.59 113.814 161.825 114.425 160.984 115.036L152.686 134.508C153.527 133.897 154.33 133.286 155.095 132.637C155.324 132.446 155.516 132.293 155.745 132.102C156.395 131.568 157.007 130.995 157.619 130.422C157.734 130.308 157.886 130.193 158.001 130.079C158.689 129.392 159.378 128.704 160.028 127.979C160.181 127.788 160.334 127.597 160.525 127.406C161.022 126.834 161.519 126.223 161.978 125.612C162.093 125.497 162.169 125.383 162.284 125.23C162.36 125.154 162.399 125.077 162.437 125.001C162.743 124.581 163.049 124.123 163.355 123.665C163.508 123.436 163.66 123.206 163.813 122.977H163.775Z" fill="url(#paint8_linear_2275_6388)"/>
<path d="M15.1041 68.9146L6.8064 88.3863C10.2861 94.9914 15.0277 101.406 20.7634 107.438L29.0612 87.9663C23.3254 81.9721 18.5838 75.5579 15.1041 68.9146Z" fill="url(#paint9_linear_2275_6388)"/>
<path d="M96.093 124.123C94.2958 123.741 92.5369 123.359 90.7779 122.901C90.5102 122.825 90.2043 122.748 89.8984 122.672C89.0572 122.443 88.2542 122.252 87.4511 122.023C87.107 121.908 86.7629 121.832 86.3805 121.717C85.1951 121.374 84.0479 121.03 82.9008 120.648L74.603 140.12C75.7502 140.502 76.8973 140.846 78.0827 141.151C78.5033 141.266 78.924 141.38 79.3064 141.495C80.0329 141.686 80.7977 141.915 81.5624 142.106C81.7154 142.106 81.8683 142.182 81.983 142.22C82.1742 142.258 82.3654 142.296 82.5566 142.335C84.2774 142.755 86.0363 143.175 87.7953 143.518C92.2692 144.435 96.6284 145.084 100.911 145.465L109.209 125.994C104.926 125.612 100.567 124.963 96.093 124.046V124.123Z" fill="url(#paint10_linear_2275_6388)"/>
<path d="M158.422 76.7034C158.154 71.5491 156.777 66.3566 154.368 61.2787C154.139 60.7823 153.91 60.3242 153.68 59.8279C153.527 59.5224 153.374 59.2552 153.221 58.9497C152.571 57.728 151.883 56.5062 151.118 55.3226C150.889 54.979 150.659 54.5972 150.43 54.2536C148.174 50.8174 145.535 47.4957 142.476 44.3268C141.788 43.6396 141.1 42.9142 140.411 42.2269C130.89 32.9492 118.233 25.0841 104.085 20.1589C103.091 19.8153 102.058 19.4717 101.026 19.1281C97.699 18.059 94.3341 17.1809 90.8926 16.4937C87.4511 15.8064 84.0862 15.2719 80.7976 14.9665C79.8034 14.8519 78.771 14.7756 77.7768 14.7374C63.8198 13.8974 51.66 16.6464 42.8651 22.1825C42.2151 22.6024 41.565 23.0224 40.9532 23.4424C36.8999 26.3441 33.6496 29.8566 31.4318 33.9419C31.0877 34.5527 30.7818 35.1636 30.4758 35.8127C28.5639 40.0125 27.6462 44.7468 27.8756 49.9011C28.1433 55.0554 29.5199 60.2478 31.8907 65.3639C32.2348 66.1275 32.6172 66.8911 33.0378 67.6547C35.7145 72.7327 39.3854 77.6961 43.7828 82.3158C44.4711 83.0031 45.1594 83.7285 45.8477 84.4157C55.3691 93.6934 68.026 101.559 82.1742 106.484C83.1684 106.827 84.2009 107.171 85.2333 107.515C88.5601 108.584 91.925 109.462 95.3665 110.149C98.808 110.874 102.173 111.371 105.461 111.676C106.456 111.753 107.488 111.829 108.482 111.905C122.439 112.745 134.561 109.996 143.394 104.46C144.044 104.04 144.694 103.62 145.306 103.2C149.359 100.299 152.571 96.786 154.827 92.7008C155.171 92.0899 155.477 91.479 155.783 90.8299C157.695 86.6302 158.651 81.8958 158.383 76.7416L158.422 76.7034Z" fill="url(#paint11_linear_2275_6388)"/>
<path d="M91.1222 20.5407C94.2195 21.1898 97.2786 21.9534 100.261 22.9079C115.021 27.5658 128.175 35.7745 137.505 45.5486C141.482 49.7102 144.771 54.139 147.18 58.7206C149.933 63.9513 151.577 69.3347 151.845 74.6417C152.113 79.9868 150.965 84.7975 148.671 88.9591C146.683 92.6244 143.777 95.7933 140.106 98.3896C131.54 104.498 118.96 107.4 104.314 106.026C101.37 105.758 98.3492 105.3 95.2519 104.651C92.1546 104.002 89.1338 103.238 86.1512 102.284C71.3911 97.626 58.2371 89.4173 48.9069 79.6432C44.9301 75.4816 41.6416 71.0527 39.2326 66.4712C36.4794 61.2405 34.8352 55.8571 34.5675 50.5501C34.2998 45.2049 35.447 40.3943 37.7413 36.2327C39.7679 32.5674 42.6741 29.3985 46.3067 26.8022C54.8721 20.6934 67.4908 17.7918 82.0979 19.1662C85.0423 19.4335 88.0631 19.8917 91.1604 20.5407H91.1222Z" fill="url(#paint12_linear_2275_6388)"/>
<path d="M131.846 37.7982C131.846 37.7982 132.229 37.6455 132.458 37.6455C132.535 37.6455 132.649 37.6455 132.726 37.6455C132.764 37.6455 132.802 37.6455 132.879 37.6455C132.917 37.6455 132.955 37.6455 132.993 37.6455C133.185 37.6837 133.376 37.76 133.567 37.8746C133.643 37.9128 133.758 37.9891 133.835 38.0655C135.135 39.1345 136.397 40.2417 137.582 41.349C138.806 42.4562 139.953 43.6016 141.062 44.7852C141.75 45.5106 142.4 46.1978 143.05 46.9232C143.088 46.9614 143.127 47.0378 143.165 47.0759C143.165 47.0759 143.165 47.1141 143.203 47.1523C143.28 47.2668 143.318 47.3814 143.318 47.4959C143.318 47.8014 143.165 48.1068 142.782 48.2213C142.629 48.2595 142.477 48.2977 142.285 48.2977C142.171 48.2977 142.056 48.2977 141.979 48.2595C141.712 48.2213 141.444 48.1068 141.215 47.9541C141.062 47.8777 140.947 47.7632 140.832 47.6486C140.603 47.3814 140.373 47.1141 140.106 46.8469C139.723 46.4269 139.303 46.0069 138.92 45.5869C138.385 45.0142 137.85 44.4797 137.276 43.9452C135.632 42.3035 133.835 40.6999 131.961 39.1727C131.387 38.6764 131.311 38.0273 131.77 37.7219L131.846 37.7982Z" fill="url(#paint13_linear_2275_6388)"/>
<path d="M151.96 93.6933C150.316 96.2514 148.212 98.5422 145.727 100.566C145.459 100.795 145.039 100.833 144.618 100.757C144.35 100.68 144.044 100.566 143.777 100.375C143.127 99.9167 142.974 99.2676 143.394 98.924C145.765 96.9768 147.754 94.8005 149.36 92.357C149.589 92.0134 150.086 91.8989 150.583 92.0134C150.774 92.0516 150.966 92.1279 151.157 92.2043C151.883 92.5861 152.228 93.2352 151.922 93.6933H151.96Z" fill="url(#paint14_linear_2275_6388)"/>
<path d="M152.571 67.0439C152.571 67.0439 152.418 66.9294 152.342 66.853C152.189 66.7003 152.074 66.5094 151.998 66.3185C151.615 65.0968 151.118 63.875 150.621 62.6532C150.124 61.5078 149.589 60.3624 148.977 59.2552C148.786 58.8734 148.556 58.4534 148.327 58.0716C148.097 57.6899 147.868 57.2699 147.639 56.8881C147.333 56.3536 147.562 55.8572 148.136 55.7427C148.174 55.7427 148.212 55.7427 148.25 55.7427C148.289 55.7427 148.327 55.7427 148.403 55.7427C148.403 55.7427 148.595 55.7427 148.671 55.7427C148.709 55.7427 148.786 55.7427 148.824 55.7427C148.977 55.7427 149.168 55.819 149.321 55.8954C149.398 55.8954 149.436 55.9718 149.512 55.9718C149.551 55.9718 149.627 56.0481 149.665 56.0863C149.742 56.1245 149.78 56.2008 149.856 56.239C149.971 56.3536 150.048 56.4299 150.124 56.5826C150.315 56.9263 150.507 57.2699 150.736 57.6135C151.004 58.1098 151.271 58.6062 151.539 59.1025C152.265 60.5152 152.954 61.8896 153.527 63.3023C153.948 64.3713 154.369 65.4022 154.713 66.4712C154.713 66.4712 154.713 66.5476 154.713 66.5858C154.827 67.1203 154.369 67.4639 153.68 67.4639C153.604 67.4639 153.489 67.4639 153.413 67.4639C153.145 67.4257 152.877 67.3112 152.648 67.1585C152.648 67.1585 152.61 67.1585 152.571 67.1203V67.0439Z" fill="url(#paint15_linear_2275_6388)"/>
<path d="M155.63 85.4849C155.516 85.9431 154.942 86.134 154.292 85.9813C154.216 85.9813 154.101 85.9431 154.024 85.9049C153.26 85.6376 152.763 84.9886 152.877 84.4922C153.604 81.7815 153.91 78.8416 153.757 75.7109V75.5963C153.757 75.0618 154.33 74.7182 155.095 74.8709C155.86 75.0236 156.51 75.5963 156.548 76.169V76.2836C156.701 79.5289 156.395 82.5833 155.63 85.4467V85.4849Z" fill="url(#paint16_linear_2275_6388)"/>
<path d="M109.744 25.7332C109.018 25.4278 108.559 24.7787 108.788 24.2824C108.941 23.9006 109.477 23.7479 110.089 23.8624C110.242 23.8624 110.356 23.9388 110.509 24.0151C114.83 25.8859 118.922 28.024 122.822 30.353C123.51 30.773 123.74 31.422 123.396 31.842C123.166 32.1093 122.707 32.1856 122.21 32.1093C121.981 32.0711 121.713 31.9565 121.522 31.842C117.813 29.5894 113.874 27.5658 109.783 25.7714L109.744 25.7332Z" fill="url(#paint17_linear_2275_6388)"/>
<path d="M97.4316 21.3425C97.4316 21.3425 97.3551 21.3425 97.3169 21.3425C95.252 20.7698 93.1871 20.2734 91.084 19.8153C88.9044 19.3571 86.763 19.0135 84.6599 18.7462C84.6217 18.7462 84.5452 18.7462 84.507 18.7462C83.8187 18.5935 83.1686 18.0972 83.0921 17.5627C82.9774 16.99 83.5128 16.6082 84.2775 16.7227C86.4571 16.99 88.7132 17.3718 91.0075 17.8299C93.2253 18.2881 95.4049 18.8226 97.5463 19.3953C98.3111 19.6244 98.8846 20.1971 98.8464 20.7316C98.8082 21.2279 98.1963 21.4952 97.508 21.3425H97.4316Z" fill="url(#paint18_linear_2275_6388)"/>
<path d="M60.2256 19.3954C59.7667 19.2809 59.2696 19.0136 59.002 18.6318C58.5813 18.0591 58.8108 17.4864 59.4608 17.3719C63.1699 16.5701 67.185 16.1119 71.353 15.9592C71.5059 15.9592 71.6589 15.9592 71.7736 15.9974C72.3472 16.1119 72.9208 16.4937 73.1119 16.9519C73.3796 17.5246 72.9972 18.0209 72.3089 18.0209C68.2939 18.1355 64.4701 18.5936 60.9139 19.3572C60.6844 19.3954 60.455 19.3954 60.2256 19.3572V19.3954Z" fill="url(#paint19_linear_2275_6388)"/>
<path d="M51.0101 21.2663C51.5454 21.8008 51.5072 22.4117 51.0101 22.6789C48.7157 23.7098 46.6509 24.9316 44.7007 26.306C44.0506 26.7642 43.4771 27.2224 42.8653 27.7187C42.5976 27.9478 42.177 27.986 41.7563 27.9096C41.4887 27.8332 41.1828 27.7187 40.9533 27.566C40.3033 27.1078 40.1503 26.4588 40.571 26.1151C41.1828 25.6188 41.8328 25.1225 42.4829 24.6261C44.4713 23.2135 46.6891 21.9535 49.0599 20.8463C49.3276 20.7318 49.6717 20.6936 49.9776 20.77C50.36 20.8463 50.7424 21.0372 51.0483 21.3045L51.0101 21.2663Z" fill="url(#paint20_linear_2275_6388)"/>
<path d="M31.8145 42.5325C31.0497 42.2653 30.5526 41.6544 30.6673 41.1199C31.2409 38.8673 32.1204 36.7674 33.191 34.7438C33.5352 34.1329 33.9176 33.5221 34.3 32.9112C34.5294 32.6058 34.9882 32.453 35.5236 32.5676C35.7148 32.6057 35.906 32.6821 36.0972 32.7585C36.8237 33.1403 37.1678 33.7893 36.8619 34.2093C36.4796 34.782 36.1354 35.3929 35.8295 35.9656C34.7588 37.8746 33.9558 39.8981 33.4205 42.0362C33.3058 42.4943 32.7322 42.6852 32.0821 42.5325C32.0057 42.5325 31.8909 42.4943 31.8145 42.4562V42.5325Z" fill="url(#paint21_linear_2275_6388)"/>
<path d="M32.5409 50.8938C32.6939 53.9864 33.3057 57.1171 34.2999 60.2097C34.4911 60.7824 34.0322 61.2024 33.2674 61.1642C33.191 61.1642 33.0763 61.1642 32.9998 61.1642C32.3497 61.0496 31.7379 60.5915 31.585 60.0951C30.5143 56.8498 29.9025 53.6045 29.7495 50.3593C29.7495 49.7866 30.3231 49.4811 31.0879 49.6338C31.8526 49.7866 32.5027 50.3593 32.5409 50.932V50.8938Z" fill="url(#paint22_linear_2275_6388)"/>
<path d="M136.206 103.85C136.588 103.926 136.97 104.117 137.276 104.384C137.812 104.919 137.812 105.53 137.276 105.759C134.102 107.209 130.584 108.355 126.837 109.157C126.608 109.195 126.378 109.157 126.149 109.157C125.652 109.042 125.193 108.775 124.925 108.393C124.505 107.82 124.696 107.248 125.346 107.133C128.94 106.37 132.305 105.262 135.326 103.888C135.594 103.773 135.9 103.735 136.244 103.811L136.206 103.85Z" fill="url(#paint23_linear_2275_6388)"/>
<path d="M38.6591 69.6402C40.5327 72.7709 42.7888 75.8635 45.389 78.8034C45.8479 79.3379 45.7714 79.9488 45.1596 80.1397C44.9302 80.216 44.6243 80.216 44.3566 80.1397C43.936 80.0633 43.4771 79.8342 43.2094 79.4906C40.4945 76.398 38.1237 73.1909 36.1736 69.9075C35.8294 69.3348 36.1353 68.8002 36.8236 68.7239C37.0148 68.7239 37.206 68.7239 37.3972 68.7239C37.9325 68.8384 38.4679 69.182 38.6973 69.602L38.6591 69.6402Z" fill="url(#paint24_linear_2275_6388)"/>
<path d="M114.371 108.507C114.945 108.622 115.518 109.004 115.71 109.462C115.977 110.035 115.595 110.531 114.868 110.531C111.733 110.607 108.482 110.531 105.156 110.187C104.123 110.073 103.053 109.958 101.982 109.844C101.944 109.844 101.867 109.844 101.829 109.844C101.141 109.691 100.491 109.195 100.414 108.66C100.299 108.087 100.835 107.706 101.6 107.82C102.594 107.935 103.588 108.049 104.62 108.164C107.794 108.469 110.892 108.584 113.912 108.469C114.065 108.469 114.18 108.469 114.333 108.469L114.371 108.507Z" fill="url(#paint25_linear_2275_6388)"/>
<path d="M64.7376 94.7244C65.4259 95.1444 65.6936 95.7935 65.3112 96.2135C65.0817 96.4807 64.6229 96.5571 64.1258 96.4807C63.8963 96.4425 63.6287 96.328 63.4375 96.2135C59.4989 93.8081 55.828 91.2119 52.463 88.4247C51.8895 87.9284 51.813 87.2794 52.3101 87.0121C52.5778 86.8594 52.9601 86.8212 53.3425 86.8976C53.6867 86.9739 53.9926 87.1266 54.2985 87.3557C57.5488 90.0283 61.0667 92.5482 64.8141 94.8008L64.7376 94.7244Z" fill="url(#paint26_linear_2275_6388)"/>
<path d="M88.9426 105.224C89.7074 105.415 90.2809 106.026 90.2427 106.56C90.2045 107.056 89.5927 107.324 88.8661 107.171C88.8279 107.171 88.7896 107.171 88.7514 107.171C87.6807 106.866 86.5718 106.522 85.5011 106.178C82.1362 105.109 78.8859 103.887 75.7121 102.513C74.9473 102.208 74.5267 101.558 74.7561 101.062C74.9091 100.68 75.4444 100.528 76.0562 100.642C76.2092 100.642 76.3621 100.719 76.4769 100.795C79.4977 102.093 82.6333 103.277 85.8453 104.307C86.8777 104.613 87.9102 104.957 88.9426 105.224Z" fill="url(#paint27_linear_2275_6388)"/>
<g style="mix-blend-mode:overlay">
<path d="M12.9628 25.1604C12.5422 26.0385 12.1216 26.8785 11.7392 27.7566C11.395 28.6348 11.0126 29.5129 10.745 30.4292C10.4773 31.3455 10.1332 32.2237 9.94197 33.14C9.71254 34.0563 9.48311 34.9726 9.33015 35.9271C9.1772 36.8435 8.98601 37.7979 8.90953 38.7524C8.79482 39.7069 8.71834 40.6233 8.71834 41.5778C8.6801 42.5323 8.64186 43.4486 8.71834 44.4031C8.71834 45.3576 8.79482 46.2739 8.90953 47.2284C8.98601 48.1829 9.10072 49.1374 9.25368 50.0537C9.40663 50.97 9.55958 51.9245 9.78902 52.8408C9.98021 53.7572 10.1714 54.6735 10.4391 55.5898C10.7067 56.5061 10.9362 57.4224 11.2421 58.3006C11.548 59.1787 11.8157 60.095 12.198 60.9732C12.5422 61.8513 12.8481 62.7294 13.2687 63.6076C13.6511 64.4475 14.0335 65.3257 14.4541 66.1656L15.7542 68.6855L16.1366 69.4109L15.3336 69.64L15.7542 68.6855L17.2455 71.2054L18.0103 72.4653C18.278 72.8853 18.5074 73.3053 18.7751 73.7252L20.4575 76.1306L21.2988 77.3523C21.6047 77.7341 21.8341 78.1541 22.14 78.5359L23.9755 80.8267C24.5873 81.5903 25.1991 82.3539 25.8109 83.1175L29.7495 87.47L29.0994 87.2028H29.4818L29.7495 87.47L32.5791 90.219C33.5351 91.1353 34.4528 92.0898 35.447 92.9297L38.4679 95.4878C39.5003 96.3278 40.4563 97.2441 41.5269 98.0077L44.7007 100.375C45.7714 101.138 46.7656 101.978 47.9128 102.666L51.2395 104.804C52.3484 105.491 53.4191 106.293 54.5662 106.904L58.0077 108.851C59.1549 109.462 60.2638 110.187 61.4874 110.76L65.0436 112.478C66.229 113.051 67.3761 113.661 68.5998 114.158L72.2324 115.685C73.456 116.181 74.6414 116.754 75.8651 117.212L83.3216 119.847L82.0215 120.801V119.465L83.3216 119.847L89.7074 121.717L96.2079 123.245C96.705 123.359 97.2786 123.435 97.8139 123.55L99.4582 123.855L102.747 124.466C104.926 124.772 107.144 125.001 109.324 125.306L110.127 125.421V126.223L109.324 125.344L116.015 125.764C117.124 125.879 118.233 125.803 119.342 125.841H122.707H124.39L126.072 125.726L129.399 125.459C130.508 125.383 131.617 125.306 132.726 125.115L136.014 124.581C137.123 124.39 138.232 124.275 139.303 123.97L142.553 123.13C143.624 122.863 144.732 122.596 145.765 122.214L148.9 121.107L150.468 120.534L151.998 119.808L155.019 118.396C156.051 117.976 156.969 117.289 157.925 116.754L160.793 114.998L160.716 115.494L160.525 115.227L160.793 115.036L164.464 112.249C165.037 111.752 165.572 111.18 166.146 110.683L167.829 109.08C168.096 108.813 168.326 108.507 168.593 108.202L169.32 107.324L170.811 105.567C171.27 104.956 171.652 104.269 172.111 103.658L173.373 101.711L172.188 103.696C171.767 104.346 171.385 105.033 170.964 105.682L169.549 107.514L168.823 108.431C168.593 108.736 168.364 109.042 168.096 109.347L166.452 110.989C165.917 111.523 165.381 112.096 164.808 112.631L161.175 115.57L161.252 115.074L161.481 115.38L161.175 115.57L158.345 117.441C157.389 118.052 156.472 118.739 155.439 119.198L152.418 120.725L150.889 121.488L149.283 122.099L146.109 123.321C145.077 123.779 143.968 124.046 142.859 124.352L139.57 125.268C138.5 125.612 137.352 125.764 136.244 125.955L132.879 126.566C131.77 126.795 130.623 126.872 129.514 126.986L126.11 127.33L124.428 127.483H122.745L119.342 127.597C118.195 127.597 117.086 127.712 115.939 127.597L109.133 127.215H108.33V126.337L109.133 127.215C106.876 126.948 104.62 126.681 102.403 126.414L99.0758 125.841L97.4315 125.535C96.858 125.421 96.3609 125.344 95.7491 125.23L89.1338 123.703L82.6333 121.832L83.9334 120.877V122.252L82.6333 121.794L75.062 119.159C73.8002 118.701 72.5766 118.128 71.3529 117.632L67.6438 116.105C66.4202 115.609 65.2348 114.96 64.0494 114.349L60.455 112.554C59.2313 111.982 58.1224 111.256 56.937 110.607L53.4573 108.622C52.2719 107.973 51.2013 107.171 50.0923 106.484L46.7274 104.269C45.5802 103.582 44.586 102.704 43.4771 101.902L40.2651 99.4967C39.1944 98.7331 38.2002 97.7786 37.206 96.9386L34.1469 94.3424C33.1527 93.4643 32.235 92.4716 31.279 91.5553L28.4111 88.73L29.0612 88.9972H28.6406L28.4111 88.73L24.4343 84.2629C23.7843 83.4993 23.2107 82.6975 22.5989 81.8958L20.7634 79.5286C20.4575 79.1468 20.1899 78.6886 19.9222 78.3068L19.081 77.0469L17.4367 74.5652C17.169 74.1452 16.9396 73.6871 16.6719 73.2671L15.9454 71.969L14.4923 69.3727L14.0717 68.6473L14.913 68.4182L14.4923 69.3727L13.2305 66.7765C12.8099 65.8984 12.4657 65.0202 12.0833 64.1421C11.7009 63.264 11.395 62.3476 11.0509 61.4695C10.7067 60.5914 10.4391 59.6369 10.1332 58.7205C9.82725 57.8042 9.59782 56.8879 9.36839 55.9334C9.10072 55.0171 8.94777 54.0626 8.75658 53.1081C8.56538 52.1536 8.41243 51.1991 8.33595 50.2446C8.183 49.2901 8.10652 48.3356 8.06828 47.3811C7.99181 46.4266 7.95357 45.4721 7.99181 44.5176C7.99181 43.5631 7.99181 42.6086 8.10652 41.6541C8.14476 40.6996 8.25948 39.7451 8.41243 38.7906C8.52715 37.8361 8.71834 36.8816 8.90953 35.9653C9.06248 35.0108 9.36839 34.0945 9.59782 33.1782C9.82725 32.2619 10.2096 31.3837 10.5155 30.4674C10.8215 29.5511 11.2803 28.7111 11.6627 27.833C12.0833 26.993 12.5422 26.1531 13.001 25.3131L12.9628 25.1604Z" fill="#DBDBDB"/>
</g>
<path fill-rule="evenodd" clip-rule="evenodd" d="M100.97 53.4955L100.973 53.4989C103.208 55.8753 106.196 57.6327 109.936 58.7502L110.15 58.8143L110.112 58.9518C109.423 61.441 110.157 63.9421 112.286 66.4937L112.51 66.7506C112.655 66.9173 112.797 67.0791 112.968 67.254L112.971 67.2571C115.259 69.6804 118.276 71.4334 122.11 72.5606C126.193 73.7522 129.912 73.8674 133.34 72.8754C136.768 71.8834 138.828 70.0958 139.606 67.4973C140.356 64.8997 139.586 62.2757 137.246 59.5922C134.934 56.941 131.797 55.0357 127.815 53.8283L127.602 53.7638L127.64 53.6272C128.345 51.078 127.549 48.4731 125.248 45.8337C122.902 43.144 119.707 41.2218 115.642 40.0174C111.549 38.8141 107.846 38.7168 104.418 39.7091C100.989 40.7014 98.9136 42.4708 98.1462 45.0808C97.4111 47.6054 98.1271 50.1456 100.288 52.7352L100.512 52.9921C100.657 53.1588 100.798 53.3205 100.97 53.4955ZM106.594 47.6106L106.594 47.61C106.924 46.5156 107.884 45.7345 109.312 45.3213C110.744 44.9067 112.281 44.9687 113.996 45.4681L113.997 45.4684C115.706 45.9709 117.052 46.7761 118.037 47.9051C119.015 49.0269 119.356 50.1549 119.023 51.2343C118.689 52.3196 117.847 53.0535 116.416 53.4676C114.99 53.8803 113.34 53.8711 111.623 53.3759C109.922 52.8851 108.554 52.0543 107.576 50.9325C106.591 49.8035 106.274 48.7006 106.594 47.6106ZM118.592 61.3691L118.592 61.3685C118.921 60.276 119.817 59.5119 121.247 59.098C122.677 58.6841 124.276 58.7263 125.994 59.2266L125.995 59.2269C127.704 59.7295 129.05 60.5346 130.035 61.6636C131.014 62.786 131.342 63.9013 131.022 64.9917L131.022 64.9928C130.688 66.0757 129.869 66.8357 128.435 67.2507C127.006 67.6643 125.334 67.6286 123.621 67.1344L123.619 67.1339C121.91 66.6311 120.553 65.8134 119.574 64.691C118.589 63.562 118.272 62.4591 118.592 61.3691Z" fill="black"/>
<path fill-rule="evenodd" clip-rule="evenodd" d="M84.8843 66.2526C84.2026 68.74 84.929 71.2432 87.0579 73.7946L87.2819 74.0515C87.3499 74.1294 87.4215 74.2068 87.4984 74.2892L87.4994 74.2903C87.5783 74.375 87.6616 74.4648 87.7454 74.5608C90.0492 76.9788 93.0508 78.7352 96.8819 79.8614C100.949 81.0576 104.661 81.1752 108.073 80.1877C111.486 79.1999 113.615 77.3911 114.378 74.7982C115.143 72.1966 114.358 69.5772 112.018 66.8932C109.705 64.2415 106.583 62.3322 102.588 61.1293L102.374 61.0648L102.412 60.9275C103.132 58.3747 102.321 55.7745 100.019 53.1347C97.6734 50.4444 94.4939 48.5181 90.414 47.3185L90.4133 47.3183C86.3378 46.1109 82.5642 46.0333 79.1501 47.0213C75.7371 48.009 73.6698 49.7761 72.9182 52.3813L72.918 52.3815C72.1829 54.9061 72.8988 57.4464 75.0597 60.0361L75.2838 60.293C75.3517 60.3709 75.4234 60.4483 75.5002 60.5307L75.5012 60.5318C75.5801 60.6165 75.6635 60.7063 75.7472 60.8023C78.0056 63.1718 80.9717 64.9344 84.7077 66.0512L84.922 66.1152L84.8843 66.2526ZM96.0578 66.3876C97.508 65.9715 99.0631 66.027 100.766 66.5278C102.476 67.0304 103.822 67.8355 104.807 68.9645C105.786 70.087 106.114 71.2022 105.794 72.2926L105.793 72.2931C105.468 73.3755 104.624 74.1416 103.168 74.563C101.721 74.9816 100.104 74.929 98.4001 74.4327C96.6809 73.932 95.3319 73.1115 94.3535 71.9896C93.3696 70.8613 93.0432 69.7606 93.372 68.6675C93.6917 67.5802 94.5909 66.8157 96.027 66.3966L96.0578 66.3876ZM81.3738 54.9089C81.6947 53.8178 82.5991 53.0518 84.0443 52.6336C85.4988 52.2126 87.0589 52.2667 88.7682 52.7693C90.4775 53.2719 91.824 54.077 92.8085 55.206C93.7867 56.3277 94.1273 57.4557 93.7952 58.5349C93.4688 59.6194 92.601 60.3594 91.1482 60.7798C89.7049 61.1975 88.1098 61.1715 86.4027 60.6746C84.6925 60.1858 83.3331 59.3522 82.3554 58.2311C81.3714 57.1027 81.045 56.002 81.3738 54.9089Z" fill="black"/>
<path fill-rule="evenodd" clip-rule="evenodd" d="M61.8296 81.0955C59.7007 78.5442 58.9745 76.041 59.6635 73.5516L59.7018 73.4137L59.4871 73.3498C55.7436 72.235 52.7724 70.4666 50.5193 68.1031C50.4423 68.0153 50.3635 67.9302 50.2883 67.849L50.2774 67.8373L50.2759 67.8361L50.2637 67.8229C50.1903 67.7437 50.1205 67.6684 50.0555 67.5939L49.8368 67.3431C47.6706 64.7474 46.9547 62.2071 47.6976 59.6804L47.6979 59.6797C48.4417 57.0772 50.5243 55.3055 53.9376 54.3177C57.3513 53.3298 61.0936 53.4161 65.1858 54.6194C69.2659 55.8189 72.4452 57.7453 74.7912 60.4356C77.0932 63.0754 77.9037 65.6756 77.1844 68.2283L77.1457 68.3656L77.3599 68.4301C81.3552 69.633 84.4769 71.5424 86.7893 74.1941C89.1299 76.8781 89.9148 79.4974 89.1496 82.0991C88.3794 84.6946 86.2734 86.4963 82.8604 87.484C79.4478 88.4716 75.7209 88.3583 71.662 87.1603L71.6613 87.1601C67.8225 86.036 64.821 84.2797 62.5175 81.8616C62.4333 81.7657 62.35 81.6759 62.2711 81.5912L62.2701 81.5901L62.2565 81.5755C62.1851 81.4984 62.1176 81.4257 62.0537 81.3524L61.8296 81.0955ZM75.5379 73.8286C73.8304 73.3265 72.3231 73.3058 70.8768 73.7212L70.8475 73.7296L70.8468 73.7299C69.4156 74.1472 68.4647 74.8774 68.1438 75.9684C67.8153 77.0614 68.1413 78.1622 69.1253 79.2905C70.1037 80.4125 71.4526 81.2329 73.1718 81.7336C74.8763 82.2301 76.5095 82.2778 77.9554 81.8593C79.4119 81.4378 80.2399 80.6758 80.5652 79.594C80.8942 78.5006 80.5569 77.3874 79.5785 76.2654C78.5945 75.1371 77.2565 74.3291 75.5379 73.8286ZM56.1457 62.21C55.8172 63.3029 56.1432 64.4037 57.1272 65.532C58.1048 66.6531 59.4643 67.4867 61.1748 67.9754C62.8822 68.4726 64.4932 68.4937 65.9358 68.0762C67.3893 67.6555 68.2407 66.9199 68.5669 65.8359C68.8991 64.7566 68.5585 63.6286 67.5803 62.5069C66.5959 61.378 65.2497 60.5729 63.5404 60.0703C61.8255 59.5613 60.2861 59.509 58.8318 59.9299C57.3881 60.3477 56.4615 61.1115 56.1457 62.21Z" fill="black"/>
<path d="M98.4001 74.4327C100.104 74.929 101.721 74.9816 103.168 74.563C104.624 74.1416 105.468 73.3755 105.793 72.2931L105.794 72.2926C106.114 71.2022 105.786 70.087 104.807 68.9645C103.822 67.8355 102.476 67.0304 100.766 66.5278C99.0631 66.027 97.508 65.9715 96.0578 66.3876L96.027 66.3966C94.5909 66.8157 93.6917 67.5802 93.372 68.6675C93.0432 69.7606 93.3696 70.8613 94.3535 71.9896C95.3319 73.1115 96.6809 73.932 98.4001 74.4327ZM98.4001 74.4327L98.4401 74.2932M73.1718 81.7336C71.4526 81.2329 70.1037 80.4125 69.1253 79.2905C68.1413 78.1622 67.8153 77.0614 68.1438 75.9684C68.4647 74.8774 69.4156 74.1472 70.8468 73.7299L70.8475 73.7296L70.8768 73.7212C72.3231 73.3058 73.8304 73.3265 75.5379 73.8286C77.2565 74.3291 78.5945 75.1371 79.5785 76.2654C80.5569 77.3874 80.8942 78.5006 80.5652 79.594M73.1718 81.7336C74.8763 82.2301 76.5095 82.2778 77.9554 81.8593C79.4119 81.4378 80.2399 80.6758 80.5652 79.594M73.1718 81.7336L73.2119 81.5941M80.5652 79.594L80.347 79.5293M106.594 47.61L106.594 47.6106C106.274 48.7006 106.591 49.8035 107.576 50.9325C108.554 52.0543 109.922 52.8851 111.623 53.3759C113.34 53.8711 114.99 53.8803 116.416 53.4676C117.847 53.0535 118.689 52.3195 119.023 51.2343C119.356 50.1549 119.015 49.0269 118.037 47.9051C117.052 46.7761 115.706 45.9709 113.997 45.4684L113.996 45.4681C112.281 44.9687 110.744 44.9067 109.312 45.3213C107.884 45.7345 106.924 46.5156 106.594 47.61ZM100.973 53.4989L100.97 53.4955C100.798 53.3205 100.657 53.1588 100.512 52.9921L100.288 52.7352C98.1271 50.1456 97.4111 47.6054 98.1462 45.0808C98.9136 42.4708 100.989 40.7014 104.418 39.7091C107.846 38.7168 111.549 38.8141 115.642 40.0174C119.707 41.2218 122.902 43.144 125.248 45.8337C127.549 48.4731 128.345 51.078 127.64 53.6272L127.602 53.7638L127.815 53.8283C131.797 55.0357 134.934 56.941 137.246 59.5922C139.586 62.2757 140.356 64.8997 139.606 67.4973C138.828 70.0958 136.768 71.8834 133.34 72.8754C129.912 73.8674 126.193 73.7522 122.11 72.5606C118.276 71.4334 115.259 69.6804 112.971 67.2571L112.968 67.254C112.797 67.0791 112.655 66.9173 112.51 66.7506L112.286 66.4937C110.157 63.9421 109.423 61.441 110.112 58.9518L110.15 58.8143L109.936 58.7502C106.196 57.6327 103.208 55.8753 100.973 53.4989ZM118.592 61.3685L118.592 61.3691C118.272 62.4591 118.589 63.562 119.574 64.691C120.553 65.8134 121.91 66.6311 123.619 67.1339L123.621 67.1344C125.334 67.6286 127.006 67.6643 128.435 67.2507C129.869 66.8357 130.688 66.0757 131.022 64.9928L131.022 64.9917C131.342 63.9013 131.014 62.786 130.035 61.6636C129.05 60.5346 127.704 59.7295 125.995 59.2269L125.994 59.2266C124.276 58.7263 122.677 58.6841 121.247 59.098C119.817 59.5119 118.921 60.276 118.592 61.3685ZM87.0579 73.7946C84.929 71.2432 84.2026 68.74 84.8843 66.2526L84.922 66.1152L84.7077 66.0512C80.9717 64.9344 78.0056 63.1718 75.7472 60.8023C75.6635 60.7063 75.5801 60.6165 75.5012 60.5318L75.5002 60.5307C75.4234 60.4483 75.3517 60.3709 75.2838 60.293L75.0597 60.0361C72.8988 57.4464 72.1829 54.9061 72.918 52.3815L72.9182 52.3813C73.6698 49.7761 75.7371 48.009 79.1501 47.0213C82.5642 46.0333 86.3378 46.1109 90.4133 47.3183L90.414 47.3185C94.4939 48.5181 97.6734 50.4444 100.019 53.1347C102.321 55.7745 103.132 58.3747 102.412 60.9275L102.374 61.0648L102.588 61.1293C106.583 62.3322 109.705 64.2415 112.018 66.8932C114.358 69.5772 115.143 72.1966 114.378 74.7982C113.615 77.3911 111.486 79.1999 108.073 80.1877C104.661 81.1752 100.949 81.0576 96.8819 79.8614C93.0508 78.7352 90.0492 76.9788 87.7454 74.5608C87.6616 74.4648 87.5783 74.375 87.4994 74.2903L87.4984 74.2892C87.4215 74.2068 87.3499 74.1294 87.2819 74.0515L87.0579 73.7946ZM84.0443 52.6336C82.5991 53.0518 81.6947 53.8178 81.3738 54.9089C81.045 56.002 81.3714 57.1027 82.3554 58.2311C83.3331 59.3522 84.6925 60.1858 86.4027 60.6746C88.1098 61.1715 89.7049 61.1975 91.1482 60.7798C92.601 60.3594 93.4688 59.6194 93.7952 58.5349C94.1273 57.4557 93.7867 56.3277 92.8085 55.206C91.824 54.077 90.4775 53.2719 88.7682 52.7693C87.0589 52.2667 85.4988 52.2126 84.0443 52.6336ZM59.6635 73.5516C58.9745 76.041 59.7007 78.5442 61.8296 81.0955L62.0537 81.3524C62.1176 81.4257 62.1851 81.4984 62.2565 81.5755L62.2701 81.5901L62.2711 81.5912C62.35 81.6759 62.4333 81.7657 62.5175 81.8616C64.821 84.2797 67.8225 86.036 71.6613 87.1601L71.662 87.1603C75.7209 88.3583 79.4478 88.4716 82.8604 87.484C86.2734 86.4963 88.3794 84.6946 89.1496 82.0991C89.9148 79.4974 89.1299 76.8781 86.7893 74.1941C84.4769 71.5424 81.3552 69.633 77.3599 68.4301L77.1457 68.3656L77.1844 68.2283C77.9037 65.6756 77.0932 63.0754 74.7912 60.4356C72.4452 57.7453 69.2659 55.8189 65.1858 54.6194C61.0936 53.4161 57.3513 53.3298 53.9376 54.3177C50.5243 55.3055 48.4417 57.0772 47.6979 59.6797L47.6976 59.6804C46.9547 62.2071 47.6706 64.7474 49.8368 67.3431L50.0555 67.5939C50.1205 67.6684 50.1903 67.7437 50.2637 67.8229L50.2759 67.8361L50.2774 67.8373L50.2883 67.849C50.3635 67.9302 50.4423 68.0153 50.5193 68.1031C52.7724 70.4666 55.7436 72.235 59.4871 73.3498L59.7018 73.4137L59.6635 73.5516ZM57.1272 65.532C56.1432 64.4037 55.8172 63.3029 56.1457 62.21C56.4616 61.1115 57.3881 60.3477 58.8318 59.9299C60.2861 59.509 61.8255 59.5613 63.5404 60.0703C65.2497 60.5729 66.5959 61.378 67.5803 62.5069C68.5585 63.6286 68.8991 64.7566 68.5669 65.8359C68.2407 66.9199 67.3893 67.6555 65.9358 68.0762C64.4932 68.4937 62.8822 68.4726 61.1748 67.9754C59.4643 67.4867 58.1048 66.6531 57.1272 65.532Z" stroke="black"/>
<path fill-rule="evenodd" clip-rule="evenodd" d="M101.527 51.8305L101.53 51.8339C103.765 54.2103 106.753 55.9676 110.493 57.0851L110.707 57.1492L110.669 57.2868C109.98 59.776 110.714 62.277 112.843 64.8286L113.067 65.0856C113.212 65.2523 113.353 65.414 113.525 65.5889L113.528 65.5921C115.816 68.0153 118.833 69.7684 122.667 70.8956C126.75 72.0872 130.469 72.2024 133.897 71.2104C137.325 70.2184 139.385 68.4308 140.163 65.8322C140.912 63.2346 140.143 60.6106 137.803 57.9272C135.491 55.2759 132.354 53.3706 128.372 52.1633L128.159 52.0988L128.197 51.9621C128.902 49.413 128.106 46.8081 125.805 44.1687C123.459 41.4789 120.264 39.5567 116.199 38.3524C112.106 37.1491 108.403 37.0518 104.974 38.044C101.546 39.0363 99.4705 40.8058 98.7031 43.4158C97.968 45.9403 98.684 48.4806 100.845 51.0701L101.069 51.3271C101.214 51.4938 101.355 51.6555 101.527 51.8305ZM107.151 45.9455L107.151 45.945C107.48 44.8506 108.441 44.0694 109.869 43.6563C111.301 43.2417 112.838 43.3036 114.553 43.8031L114.553 43.8033C116.263 44.3059 117.609 45.1111 118.594 46.24C119.572 47.3618 119.913 48.4899 119.58 49.5693C119.246 50.6545 118.404 51.3884 116.973 51.8025C115.546 52.2153 113.896 52.206 112.18 51.7108C110.479 51.22 109.111 50.3892 108.133 49.2675C107.148 48.1385 106.831 47.0355 107.151 45.9455ZM119.149 59.704L119.149 59.7035C119.478 58.6109 120.374 57.8468 121.804 57.4329C123.234 57.0191 124.833 57.0612 126.551 57.5616L126.552 57.5618C128.261 58.0644 129.607 58.8696 130.592 59.9985C131.571 61.121 131.899 62.2362 131.579 63.3266L131.578 63.3277C131.245 64.4107 130.426 65.1707 128.992 65.5857C127.563 65.9992 125.891 65.9635 124.178 65.4693L124.176 65.4688C122.466 64.9661 121.11 64.1484 120.131 63.0259C119.146 61.897 118.829 60.794 119.149 59.704Z" fill="url(#paint28_linear_2275_6388)"/>
<path fill-rule="evenodd" clip-rule="evenodd" d="M85.4412 64.5876C84.7595 67.0749 85.4858 69.5782 87.6147 72.1295L87.8388 72.3865C87.9068 72.4644 87.9784 72.5418 88.0553 72.6242L88.0562 72.6253C88.1352 72.71 88.2185 72.7997 88.3022 72.8958C90.6061 75.3138 93.6077 77.0702 97.4388 78.1964C101.506 79.3926 105.218 79.5101 108.63 78.5226C112.043 77.5348 114.172 75.7261 114.935 73.1332C115.7 70.5316 114.915 67.9121 112.574 65.2281C110.262 62.5764 107.14 60.6671 103.145 59.4642L102.931 59.3997L102.969 59.2624C103.689 56.7097 102.878 54.1094 100.576 51.4696C98.2303 48.7794 95.0508 46.853 90.9709 45.6534L90.9702 45.6533C86.8947 44.4459 83.1211 44.3683 79.707 45.3563C76.294 46.344 74.2267 48.1111 73.4751 50.7162L73.4748 50.7165C72.7398 53.2411 73.4557 55.7814 75.6166 58.371L75.8407 58.628C75.9086 58.7059 75.9803 58.7833 76.0571 58.8657L76.0581 58.8668C76.137 58.9515 76.2203 59.0412 76.3041 59.1373C78.5625 61.5068 81.5286 63.2693 85.2646 64.3862L85.4788 64.4501L85.4412 64.5876ZM96.6147 64.7226C98.0649 64.3065 99.62 64.362 101.323 64.8628C103.033 65.3654 104.379 66.1705 105.364 67.2995C106.342 68.4219 106.671 69.5372 106.35 70.6275L106.35 70.6281C106.025 71.7104 105.181 72.4766 103.725 72.8979C102.278 73.3166 100.661 73.2639 98.9569 72.7677C97.2378 72.267 95.8888 71.4465 94.9104 70.3246C93.9265 69.1962 93.6001 68.0955 93.9289 67.0025C94.2486 65.9152 95.1478 65.1507 96.5839 64.7315L96.6147 64.7226ZM81.9307 53.2439C82.2516 52.1528 83.156 51.3868 84.6011 50.9685C86.0556 50.5476 87.6158 50.6017 89.3251 51.1043C91.0344 51.6068 92.3809 52.412 93.3654 53.541C94.3436 54.6627 94.6841 55.7906 94.3521 56.8699C94.0256 57.9544 93.1579 58.6944 91.7051 59.1148C90.2618 59.5325 88.6667 59.5065 86.9596 59.0096C85.2494 58.5207 83.8899 57.6871 82.9123 56.566C81.9283 55.4377 81.6019 54.337 81.9307 53.2439Z" fill="url(#paint29_linear_2275_6388)"/>
<path fill-rule="evenodd" clip-rule="evenodd" d="M62.3865 79.4304C60.2576 76.8791 59.5314 74.376 60.2204 71.8865L60.2587 71.7487L60.044 71.6847C56.3005 70.5699 53.3293 68.8016 51.0762 66.438C50.9992 66.3502 50.9204 66.2652 50.8451 66.184L50.8343 66.1722L50.8328 66.1711L50.8206 66.1579C50.7472 66.0787 50.6774 66.0034 50.6124 65.9289L50.3937 65.6781C48.2274 63.0823 47.5116 60.5421 48.2544 58.0154L48.2547 58.0147C48.9986 55.4122 51.0811 53.6405 54.4945 52.6526C57.9082 51.6647 61.6505 51.751 65.7427 52.9544C69.8228 54.1539 73.0021 56.0803 75.3481 58.7705C77.6501 61.4103 78.4606 64.0106 77.7413 66.5633L77.7025 66.7006L77.9168 66.7651C81.9121 67.968 85.0338 69.8773 87.3462 72.529C89.6868 75.213 90.4717 77.8324 89.7065 80.4341C88.9363 83.0296 86.8303 84.8313 83.4173 85.819C80.0047 86.8066 76.2778 86.6932 72.2188 85.4953L72.2182 85.4951C68.3794 84.371 65.3778 82.6147 63.0744 80.1966C62.9902 80.1006 62.9069 80.0109 62.828 79.9262L62.827 79.9251L62.8134 79.9104C62.742 79.8334 62.6745 79.7607 62.6106 79.6874L62.3865 79.4304ZM76.0948 72.1636C74.3872 71.6614 72.88 71.6408 71.4337 72.0561L71.4044 72.0646L71.4036 72.0648C69.9724 72.4822 69.0216 73.2123 68.7007 74.3034C68.3722 75.3963 68.6982 76.4971 69.6822 77.6255C70.6606 78.7474 72.0095 79.5679 73.7287 80.0686C75.4331 80.5651 77.0664 80.6127 78.5123 80.1943C79.9688 79.7728 80.7967 79.0108 81.1221 77.929C81.4511 76.8356 81.1138 75.7223 80.1354 74.6004C79.1514 73.4721 77.8134 72.6641 76.0948 72.1636ZM56.7026 60.545C56.3741 61.6379 56.7001 62.7387 57.684 63.867C58.6617 64.9881 60.0211 65.8216 61.7317 66.3104C63.4391 66.8076 65.05 66.8286 66.4926 66.4112C67.9462 65.9905 68.7976 65.2548 69.1238 64.1708C69.4559 63.0915 69.1154 61.9636 68.1372 60.8419C67.1528 59.713 65.8066 58.9078 64.0973 58.4053C62.3824 57.8963 60.843 57.844 59.3887 58.2649C57.945 58.6827 57.0184 59.4465 56.7026 60.545Z" fill="url(#paint30_linear_2275_6388)"/>
</g>
<defs>
<linearGradient id="paint0_linear_2275_6388" x1="286.482" y1="62.3477" x2="-66.3821" y2="64.0711" gradientUnits="userSpaceOnUse">
<stop/>
<stop offset="1" stop-color="#454545"/>
</linearGradient>
<linearGradient id="paint1_linear_2275_6388" x1="169.626" y1="43.6014" x2="134.924" y2="59.5628" gradientUnits="userSpaceOnUse">
<stop stop-color="#D9D9D9"/>
<stop offset="1" stop-color="white"/>
</linearGradient>
<linearGradient id="paint2_linear_2275_6388" x1="90.3574" y1="2.29064" x2="90.8148" y2="18.2499" gradientUnits="userSpaceOnUse">
<stop stop-color="#D9D9D9"/>
<stop offset="1" stop-color="white"/>
</linearGradient>
<linearGradient id="paint3_linear_2275_6388" x1="17.6661" y1="15.8446" x2="39.1701" y2="32.2938" gradientUnits="userSpaceOnUse">
<stop stop-color="#D9D9D9"/>
<stop offset="1" stop-color="white"/>
</linearGradient>
<linearGradient id="paint4_linear_2275_6388" x1="169.549" y1="110.684" x2="139.677" y2="89.8326" gradientUnits="userSpaceOnUse">
<stop stop-color="#D9D9D9"/>
<stop offset="1" stop-color="white"/>
</linearGradient>
<linearGradient id="paint5_linear_2275_6388" x1="18.9278" y1="80.4831" x2="58.4925" y2="67.2747" gradientUnits="userSpaceOnUse">
<stop stop-color="#D9D9D9"/>
<stop offset="1" stop-color="white"/>
</linearGradient>
<linearGradient id="paint6_linear_2275_6388" x1="93.6459" y1="125.497" x2="102.453" y2="86.1663" gradientUnits="userSpaceOnUse">
<stop stop-color="#D9D9D9"/>
<stop offset="1" stop-color="white"/>
</linearGradient>
<linearGradient id="paint7_linear_2275_6388" x1="56.4398" y1="164.899" x2="89.0065" y2="71.9379" gradientUnits="userSpaceOnUse">
<stop stop-color="#454545"/>
<stop offset="1"/>
</linearGradient>
<linearGradient id="paint8_linear_2275_6388" x1="157.428" y1="133.286" x2="167.572" y2="105.328" gradientUnits="userSpaceOnUse">
<stop stop-color="#858585"/>
<stop offset="1" stop-color="#D9D9D9"/>
</linearGradient>
<linearGradient id="paint9_linear_2275_6388" x1="9.63604" y1="102.513" x2="29.4743" y2="68.0483" gradientUnits="userSpaceOnUse">
<stop stop-color="#858585"/>
<stop offset="1" stop-color="#D9D9D9"/>
</linearGradient>
<linearGradient id="paint10_linear_2275_6388" x1="86.6099" y1="148.672" x2="100.91" y2="106.585" gradientUnits="userSpaceOnUse">
<stop stop-color="#858585"/>
<stop offset="1" stop-color="#D9D9D9"/>
</linearGradient>
<linearGradient id="paint11_linear_2275_6388" x1="-15.9456" y1="28.4058" x2="317.054" y2="135.186" gradientUnits="userSpaceOnUse">
<stop/>
<stop offset="1" stop-color="#454545"/>
</linearGradient>
<linearGradient id="paint12_linear_2275_6388" x1="206.143" y1="99.3059" x2="-6.01757" y2="30.1234" gradientUnits="userSpaceOnUse">
<stop stop-color="#D9D9D9"/>
<stop offset="1" stop-color="white"/>
</linearGradient>
<linearGradient id="paint13_linear_2275_6388" x1="202.129" y1="75.94" x2="-27.9978" y2="-41.5578" gradientUnits="userSpaceOnUse">
<stop stop-color="#D9D9D9"/>
<stop offset="1" stop-color="white"/>
</linearGradient>
<linearGradient id="paint14_linear_2275_6388" x1="182.589" y1="114.158" x2="-47.4992" y2="-3.33991" gradientUnits="userSpaceOnUse">
<stop stop-color="#D9D9D9"/>
<stop offset="1" stop-color="white"/>
</linearGradient>
<linearGradient id="paint15_linear_2275_6388" x1="197.425" y1="85.1412" x2="-32.7393" y2="-32.3563" gradientUnits="userSpaceOnUse">
<stop stop-color="#D9D9D9"/>
<stop offset="1" stop-color="white"/>
</linearGradient>
<linearGradient id="paint16_linear_2275_6388" x1="190.504" y1="98.6952" x2="-39.6223" y2="-18.8024" gradientUnits="userSpaceOnUse">
<stop stop-color="#D9D9D9"/>
<stop offset="1" stop-color="white"/>
</linearGradient>
<linearGradient id="paint17_linear_2275_6388" x1="203.888" y1="72.5036" x2="-26.2388" y2="-44.994" gradientUnits="userSpaceOnUse">
<stop stop-color="#D9D9D9"/>
<stop offset="1" stop-color="white"/>
</linearGradient>
<linearGradient id="paint18_linear_2275_6388" x1="202.243" y1="75.7107" x2="-27.8831" y2="-41.787" gradientUnits="userSpaceOnUse">
<stop stop-color="#D9D9D9"/>
<stop offset="1" stop-color="white"/>
</linearGradient>
<linearGradient id="paint19_linear_2275_6388" x1="197.655" y1="84.7213" x2="-32.4717" y2="-32.7764" gradientUnits="userSpaceOnUse">
<stop stop-color="#D9D9D9"/>
<stop offset="1" stop-color="white"/>
</linearGradient>
<linearGradient id="paint20_linear_2275_6388" x1="190.81" y1="98.1225" x2="-39.3164" y2="-19.4135" gradientUnits="userSpaceOnUse">
<stop stop-color="#D9D9D9"/>
<stop offset="1" stop-color="white"/>
</linearGradient>
<linearGradient id="paint21_linear_2275_6388" x1="182.933" y1="113.509" x2="-47.1935" y2="-3.9886" gradientUnits="userSpaceOnUse">
<stop stop-color="#D9D9D9"/>
<stop offset="1" stop-color="white"/>
</linearGradient>
<linearGradient id="paint22_linear_2275_6388" x1="175.362" y1="128.323" x2="-54.7265" y2="10.825" gradientUnits="userSpaceOnUse">
<stop stop-color="#D9D9D9"/>
<stop offset="1" stop-color="white"/>
</linearGradient>
<linearGradient id="paint23_linear_2275_6388" x1="175.094" y1="128.896" x2="-55.0323" y2="11.3978" gradientUnits="userSpaceOnUse">
<stop stop-color="#D9D9D9"/>
<stop offset="1" stop-color="white"/>
</linearGradient>
<linearGradient id="paint24_linear_2275_6388" x1="169.435" y1="139.929" x2="-60.6535" y2="22.4317" gradientUnits="userSpaceOnUse">
<stop stop-color="#D9D9D9"/>
<stop offset="1" stop-color="white"/>
</linearGradient>
<linearGradient id="paint25_linear_2275_6388" x1="169.243" y1="140.311" x2="-60.883" y2="22.8137" gradientUnits="userSpaceOnUse">
<stop stop-color="#D9D9D9"/>
<stop offset="1" stop-color="white"/>
</linearGradient>
<linearGradient id="paint26_linear_2275_6388" x1="166.146" y1="146.344" x2="-63.9421" y2="28.8843" gradientUnits="userSpaceOnUse">
<stop stop-color="#D9D9D9"/>
<stop offset="1" stop-color="white"/>
</linearGradient>
<linearGradient id="paint27_linear_2275_6388" x1="166.108" y1="146.496" x2="-64.0185" y2="28.9985" gradientUnits="userSpaceOnUse">
<stop stop-color="#D9D9D9"/>
<stop offset="1" stop-color="white"/>
</linearGradient>
<linearGradient id="paint28_linear_2275_6388" x1="103" y1="32" x2="104.333" y2="100.884" gradientUnits="userSpaceOnUse">
<stop/>
<stop offset="1" stop-color="#454545"/>
</linearGradient>
<linearGradient id="paint29_linear_2275_6388" x1="103" y1="32" x2="104.333" y2="100.884" gradientUnits="userSpaceOnUse">
<stop/>
<stop offset="1" stop-color="#454545"/>
</linearGradient>
<linearGradient id="paint30_linear_2275_6388" x1="103" y1="32" x2="104.333" y2="100.884" gradientUnits="userSpaceOnUse">
<stop/>
<stop offset="1" stop-color="#454545"/>
</linearGradient>
<clipPath id="clip0_2275_6388">
<rect width="178" height="146" fill="white"/>
</clipPath>
</defs>
</svg>
