<svg width="24" height="28" viewBox="0 0 24 28" fill="none" xmlns="http://www.w3.org/2000/svg">
<path d="M8.1189 13.4146C8.1189 12.5841 8.73532 11.904 9.51774 11.904C10.2988 11.904 10.931 12.5827 10.9152 13.4146C10.9152 14.2415 10.2988 14.9244 9.51774 14.9244C8.74977 14.9244 8.1189 14.2415 8.1189 13.4146Z" fill="white"/>
<path d="M13.1254 13.4146C13.1254 12.5841 13.7418 11.904 14.5242 11.904C15.3052 11.904 15.9201 12.5827 15.9216 13.4146C15.9216 14.2415 15.3052 14.9244 14.5242 14.9244C13.7562 14.9244 13.1254 14.2415 13.1254 13.4146Z" fill="white"/>
<path fill-rule="evenodd" clip-rule="evenodd" d="M2.81075 0.492615H21.1893C21.5593 0.493314 21.9256 0.56671 22.2671 0.707911C22.4675 0.790394 22.657 0.895945 22.8321 1.02107C22.9555 1.10984 23.0718 1.2084 23.1798 1.31605C23.4408 1.57609 23.6475 1.88505 23.7883 2.22407C23.929 2.56379 24.001 2.92728 24 3.29426V27.6926L21.0492 25.107L19.3906 23.5838L17.6337 21.9649L18.3627 24.4827H2.81075C1.26176 24.4827 1.07954e-05 23.2315 1.07954e-05 21.6811V3.29426C-0.00060598 3.07407 0.0252105 2.85458 0.0763148 2.64138C0.110326 2.49948 0.155526 2.35968 0.211741 2.22407C0.352454 1.88505 0.55925 1.57609 0.820234 1.31605C1.08122 1.05602 1.39137 0.849111 1.73289 0.707911C2.0744 0.56671 2.44068 0.493314 2.81075 0.492615ZM14.9905 17.1508C15.4005 17.6702 15.8941 18.2545 15.8941 18.2545C18.9257 18.1581 20.0907 16.1883 20.0907 16.1883C20.0907 11.8089 18.1159 8.26005 18.1159 8.26005C16.1424 6.79002 14.2629 6.83197 14.2629 6.83197L14.0709 7.04936C16.4023 7.75676 17.4865 8.77592 17.4865 8.77592C15.3848 7.62744 12.9668 7.17937 10.5889 7.49743C10.5189 7.49743 10.4583 7.50721 10.3912 7.5184L10.3551 7.52469C9.87433 7.56593 8.70933 7.74348 7.24263 8.38238C6.73591 8.61235 6.43272 8.77592 6.43272 8.77592C6.43272 8.77592 7.57173 7.70224 10.0403 6.99344L9.90314 6.82987C9.90314 6.82987 8.02506 6.78863 6.05014 8.25865C6.05014 8.25865 4.07531 11.8075 4.07531 16.1869C4.07531 16.1869 5.22586 18.1581 8.256 18.2545C8.256 18.2545 8.76413 17.6401 9.17561 17.1249C7.43313 16.6077 6.77485 15.52 6.77485 15.52C6.77485 15.52 6.81944 15.5508 6.90349 15.6025C6.96693 15.6409 7.05275 15.6913 7.15884 15.7493C7.17435 15.7668 7.19356 15.7814 7.21514 15.7919C7.25559 15.8192 7.29603 15.8304 7.33788 15.8604C7.66001 16.0373 7.99431 16.1904 8.33829 16.3204C8.99058 16.5762 9.66515 16.7733 10.3536 16.9068C12.2168 17.2619 14.144 17.0634 15.8941 16.3371C16.1556 16.2407 16.4328 16.1198 16.7219 15.9709C16.9643 15.8457 17.2152 15.7003 17.472 15.5326C17.472 15.5326 16.7863 16.6468 14.9905 17.1508Z" fill="white"/>
</svg>
