<svg width="20" height="20" viewBox="0 0 20 20" fill="none" xmlns="http://www.w3.org/2000/svg">
<path id="Vector" d="M10.7983 0.00123035C11.5128 -0.00156977 12.2273 0.00576409 12.9415 0.0232297L13.1315 0.0302294C13.3508 0.0382291 13.5672 0.0482288 13.8286 0.0602284C14.8704 0.110227 15.5812 0.278221 16.2049 0.525213C16.8512 0.779204 17.3955 1.12319 17.9399 1.67917C18.4377 2.17876 18.8229 2.78308 19.0689 3.45011C19.3107 4.08709 19.4752 4.81407 19.5241 5.87803C19.5359 6.14402 19.5457 6.36601 19.5535 6.59001L19.5594 6.784C19.5768 7.51317 19.5843 8.24255 19.5819 8.97193L19.5829 9.7179V11.0279C19.5853 11.7576 19.5778 12.4873 19.5604 13.2168L19.5545 13.4108C19.5467 13.6348 19.5369 13.8558 19.5251 14.1227C19.4762 15.1867 19.3097 15.9127 19.0689 16.5497C18.8237 17.2174 18.4384 17.8222 17.9399 18.3216C17.4503 18.8299 16.8583 19.2233 16.2049 19.4746C15.5812 19.7216 14.8704 19.8896 13.8286 19.9396C13.5672 19.9516 13.3508 19.9615 13.1315 19.9696L12.9415 19.9756C12.2273 19.9933 11.5128 20.001 10.7983 19.9986L10.0678 19.9995H8.78618C8.07168 20.002 7.35718 19.9943 6.64289 19.9766L6.45294 19.9706C6.22051 19.9619 5.98813 19.9519 5.75581 19.9406C4.71403 19.8906 4.00319 19.7206 3.37852 19.4746C2.72514 19.2239 2.13331 18.8304 1.6445 18.3216C1.14618 17.8219 0.760579 17.2172 0.514601 16.5497C0.272759 15.9127 0.108268 15.1867 0.0593119 14.1227C0.0484074 13.8855 0.0386161 13.6481 0.0299384 13.4108L0.025043 13.2168C0.00699156 12.4873 -0.00116862 11.7576 0.000564951 11.0279L0.000564951 8.97193C-0.00216773 8.24255 0.00501322 7.51317 0.0221056 6.784L0.0289594 6.59001C0.0367923 6.36601 0.0465834 6.14402 0.0583328 5.87803C0.107289 4.81307 0.27178 4.08809 0.513622 3.45011C0.759745 2.78276 1.1461 2.1786 1.64548 1.68017C2.13396 1.17094 2.72541 0.776777 3.37852 0.525213C4.00319 0.278221 4.71305 0.110227 5.75581 0.0602284L6.45294 0.0302294L6.64289 0.0252297C7.35685 0.00680315 8.07102 -0.0015308 8.7852 0.00023046L10.7983 0.00123035ZM9.79173 5.00106C9.14307 4.99169 8.49906 5.11408 7.89712 5.36112C7.29518 5.60815 6.74731 5.97491 6.28536 6.44007C5.82341 6.90523 5.45659 7.45951 5.20622 8.07072C4.95585 8.68192 4.82691 9.33785 4.82691 10.0004C4.82691 10.6629 4.95585 11.3189 5.20622 11.9301C5.45659 12.5413 5.82341 13.0956 6.28536 13.5607C6.74731 14.0259 7.29518 14.3926 7.89712 14.6397C8.49906 14.8867 9.14307 15.0091 9.79173 14.9997C11.0901 14.9997 12.3353 14.473 13.2534 13.5353C14.1715 12.5977 14.6873 11.3259 14.6873 9.99989C14.6873 8.67385 14.1715 7.40213 13.2534 6.46448C12.3353 5.52683 11.0901 5.00106 9.79173 5.00106ZM9.79173 7.00099C10.1819 6.99365 10.5696 7.06579 10.9322 7.21319C11.2948 7.3606 11.625 7.58031 11.9035 7.85951C12.182 8.1387 12.4032 8.47177 12.5543 8.83927C12.7053 9.20677 12.7831 9.60132 12.7832 9.99988C12.7833 10.3984 12.7056 10.793 12.5546 11.1606C12.4037 11.5281 12.1826 11.8613 11.9042 12.1406C11.6258 12.4198 11.2956 12.6397 10.9331 12.7872C10.5706 12.9347 10.1829 13.007 9.79271 12.9998C9.01368 12.9998 8.26655 12.6837 7.71569 12.1211C7.16483 11.5585 6.85536 10.7955 6.85536 9.99989C6.85536 9.20427 7.16483 8.44123 7.71569 7.87864C8.26655 7.31605 9.01368 6.99999 9.79271 6.99999L9.79173 7.00099ZM14.9321 3.50111C14.6162 3.51402 14.3175 3.65126 14.0985 3.88407C13.8795 4.11688 13.7571 4.42721 13.7571 4.75007C13.7571 5.07292 13.8795 5.38326 14.0985 5.61607C14.3175 5.84888 14.6162 5.98611 14.9321 5.99903C15.2567 5.99903 15.568 5.86733 15.7975 5.63292C16.027 5.39851 16.156 5.08058 16.156 4.74907C16.156 4.41756 16.027 4.09963 15.7975 3.86522C15.568 3.6308 15.2567 3.49911 14.9321 3.49911V3.50111Z" fill="#412285"/>
</svg>
