<svg width="128" height="40" viewBox="0 0 128 40" fill="none" xmlns="http://www.w3.org/2000/svg">
<path d="M18.2441 39.2879L0.711695 21.6987C0.255847 21.2405 0 20.6208 0 19.9749C0 19.329 0.255847 18.7094 0.711695 18.2512L18.2441 0.712141C18.7014 0.256126 19.3213 0 19.9676 0C20.6138 0 21.2337 0.256126 21.6911 0.712141L39.2241 18.2505C39.6799 18.7087 39.9358 19.3284 39.9358 19.9743C39.9358 20.6202 39.6799 21.2398 39.2241 21.698L21.6904 39.2885C21.2331 39.7441 20.6135 40 19.9676 40C19.3216 40 18.702 39.7441 18.2447 39.2885L18.2441 39.2879ZM21.1418 38.738L38.6742 21.1996C38.8287 21.0454 38.9513 20.8623 39.035 20.6608C39.1186 20.4593 39.1617 20.2432 39.1617 20.0251C39.1617 19.8069 39.1186 19.5909 39.035 19.3893C38.9513 19.1878 38.8287 19.0047 38.6742 18.8505L21.1418 1.26323C20.9879 1.1088 20.805 0.986249 20.6035 0.902627C20.4021 0.819006 20.186 0.775958 19.9679 0.775958C19.7497 0.775958 19.5337 0.819006 19.3323 0.902627C19.1308 0.986249 18.9479 1.1088 18.794 1.26323L1.21075 18.801C1.0562 18.9552 0.933598 19.1383 0.849949 19.3398C0.7663 19.5414 0.723245 19.7574 0.723245 19.9756C0.723245 20.1937 0.7663 20.4097 0.849949 20.6113C0.933598 20.8128 1.0562 20.9959 1.21075 21.1501L18.7444 38.6879C19.4437 39.3875 20.4927 39.3875 21.1411 38.738H21.1418Z" fill="#EC314D"/>
<path d="M18.8929 35.9903L12.2991 29.4445L12.4987 29.3448L22.8885 13.1054C23.5879 12.0566 22.7887 10.6573 21.5401 10.6573H12.2991L18.8929 4.01178C19.542 3.36228 20.6412 3.36228 21.3405 4.01178L27.984 10.6573L27.8339 10.7074L17.4441 26.9963C16.7448 28.0458 17.5439 29.4445 18.7925 29.4445H27.8339L21.2903 35.9903C20.6412 36.6398 19.542 36.6398 18.8929 35.9903ZM10.0511 27.1963L4.10693 21.2004C3.45785 20.5509 3.45785 19.4512 4.10693 18.7516L9.05234 13.8051H18.5929L10.0511 27.1963ZM21.7398 26.2472L30.2313 12.9556L36.0757 18.8017C36.7254 19.4512 36.7254 20.5509 36.0757 21.2499L31.0807 26.2465H21.7398V26.2472Z" fill="#EC314D"/>
<path d="M59.6035 0C61.499 0 63.3945 0.376916 65.0371 1.13141V4.77691C63.7105 3.89678 61.8778 3.39422 60.1088 3.39422C56.9496 3.39422 53.854 5.02819 53.854 9.17624C53.854 13.8282 57.3284 15.0221 59.9194 15.0221C60.5852 15.025 61.2469 14.9188 61.8779 14.7076V8.42241H65.4795V17.1592C63.7105 17.9137 61.6884 18.3531 59.73 18.3531C54.8017 18.3531 50 15.6509 50 9.1769C50 2.76537 54.7382 0 59.6035 0ZM73.5034 0.376917V17.9762H69.7123V0.376917H73.5034ZM85.1289 3.70865H82.0955V8.86247H85.1289C87.0873 8.86247 88.7298 8.35926 88.7298 6.28523C88.7298 4.2112 87.0873 3.70865 85.1289 3.70865ZM84.9395 0.376917C89.2352 0.376917 92.5838 1.7596 92.5838 6.28523C92.5838 10.8109 89.2352 12.1935 84.9388 12.1935H82.0326V17.9762H78.2422V0.376917H84.9395ZM101.808 0C103.893 0 106.042 0.502555 107.558 1.38268V4.90255C106.041 3.83429 104.084 3.33107 102.124 3.33107C100.229 3.33107 99.2182 3.89678 99.2182 4.9657C99.2182 7.98234 108.885 6.85094 108.885 13.1368C108.885 17.0968 105.726 18.2907 101.998 18.2907C99.5341 18.2907 97.2597 17.7249 95.4278 16.7192V13.1362C97.4491 14.4564 99.6599 15.0221 101.683 15.0221C103.704 15.0221 104.968 14.582 104.968 13.325C104.968 10.0564 95.3006 11.2509 95.3006 5.02819C95.3642 1.63396 98.334 0 101.808 0ZM116.909 17.9762V11.7535L109.959 0.376917H114.255L118.804 8.29677L123.354 0.376917H127.65L120.764 11.7535V17.9762H116.909ZM64.7168 22.4007V25.7949H59.2832V40H55.4921V25.7949H50.0585V22.4007H64.7168ZM80.385 22.4007V25.7324H71.7293V29.5036H79.6273V32.7721H71.7306V36.6689H80.5758V40H67.9389V22.4007H80.385ZM89.1672 33.5891H94.8545L92.3894 27.3032C92.2635 26.9263 92.1377 26.6126 92.0105 25.9205C91.8847 26.6119 91.7588 26.927 91.6317 27.3032L89.1672 33.5891ZM82.723 40L89.9885 22.4007H94.0955L101.298 40H97.3819L96.1175 36.7314H88.0307L86.7034 40H82.723ZM123.412 22.4007V40H119.621V29.1891L114.946 36.2289H112.734L108.059 29.126V40H104.268V22.4007H107.807L113.871 31.5776L119.937 22.4013L123.412 22.4007Z" fill="black"/>
</svg>
