<svg width="189" height="34" viewBox="0 0 189 34" fill="none" xmlns="http://www.w3.org/2000/svg">
<path d="M51.7156 9.06348C53.5352 9.06348 55.3547 9.42729 56.9314 10.1555V13.6743C55.658 12.8247 53.8988 12.3397 52.2007 12.3397C49.1681 12.3397 46.1966 13.9168 46.1966 17.9206C46.1966 22.4108 49.5318 23.5632 52.0189 23.5632C52.658 23.566 53.2932 23.4635 53.8988 23.2597V17.193H57.3561V25.626C55.658 26.3543 53.717 26.7784 51.837 26.7784C47.1063 26.7784 42.4971 24.1701 42.4971 17.9213C42.4971 11.7327 47.0453 9.06348 51.7156 9.06348ZM65.0583 9.42729V26.4146H61.4192V9.42729H65.0583ZM76.2179 12.6432H73.3061V17.6178H76.2179C78.0978 17.6178 79.6745 17.132 79.6745 15.1301C79.6745 13.1282 78.0978 12.6432 76.2179 12.6432ZM76.036 9.42729C80.1596 9.42729 83.374 10.7619 83.374 15.1301C83.374 19.4984 80.1596 20.833 76.0354 20.833H73.2457V26.4146H69.6072V9.42729H76.0354H76.036ZM92.2289 9.06348C94.2303 9.06348 96.2927 9.54856 97.7479 10.3981V13.7955C96.292 12.7644 94.4127 12.2787 92.5321 12.2787C90.7126 12.2787 89.7424 12.8247 89.7424 13.8565C89.7424 16.7682 99.022 15.6762 99.022 21.7435C99.022 25.5657 95.9894 26.7181 92.4107 26.7181C90.0457 26.7181 87.8625 26.172 86.104 25.2013V21.7428C88.0443 23.0171 90.1665 23.5632 92.1081 23.5632C94.0484 23.5632 95.2615 23.1384 95.2615 21.9251C95.2615 18.7701 85.9819 19.9232 85.9819 13.9168C86.0429 10.6406 88.8937 9.06348 92.2289 9.06348ZM106.724 26.4146V20.4082L100.053 9.42729H104.177L108.543 17.0717L112.911 9.42729H117.034L110.424 20.4082V26.4146H106.724ZM132.379 9.42729V12.7035H127.163V26.4146H123.524V12.7035H118.308V9.42729H132.379ZM147.419 9.42729V12.6432H139.111V16.2832H146.692V19.4381H139.112V23.1993H147.602V26.4146H135.472V9.42729H147.42H147.419ZM155.85 20.2267H161.309L158.943 14.1593C158.822 13.7955 158.701 13.4927 158.579 12.8247C158.458 13.492 158.337 13.7962 158.215 14.1593L155.85 20.2267H155.85ZM149.664 26.4146L156.638 9.42729H160.58L167.494 26.4146H163.735L162.521 23.2597H154.759L153.485 26.4146H149.664ZM188.722 9.42729V26.4146H185.083V15.9797L180.595 22.7746H178.472L173.984 15.9187V26.4146H170.345V9.42729H173.742L179.563 18.2851L185.386 9.42792H188.722L188.722 9.42729Z" fill="black"/>
<path d="M15.8945 32.9903L9.30035 26.4442L9.49998 26.3445L19.8902 10.1045C20.5896 9.05566 19.7904 7.6563 18.5418 7.6563H9.30035L15.8945 1.01058C16.5436 0.361057 17.6428 0.361057 18.3422 1.01058L24.9859 7.6563L24.8358 7.70645L14.4456 23.996C13.7462 25.0455 14.5454 26.4442 15.794 26.4442H24.8358L18.2919 32.9903C17.6428 33.6398 16.5436 33.6398 15.8945 32.9903ZM7.0523 24.196L1.10793 18.1998C0.458816 17.5503 0.458816 16.4506 1.10793 15.7509L6.05352 10.8042H15.5944L7.0523 24.196ZM18.7414 23.2468L27.2333 9.95471L33.0778 15.8011C33.7276 16.4506 33.7276 17.5503 33.0778 18.2493L28.0827 23.2461H18.7414V23.2468Z" fill="#EC314D"/>
</svg>
