<svg width="14" height="12" viewBox="0 0 14 12" fill="none" xmlns="http://www.w3.org/2000/svg">
<path d="M12.3337 0.666992H3.00033C2.26499 0.666992 1.66699 1.26499 1.66699 2.00033V5.33366H3.00033V3.33366L7.26699 6.53366C7.38243 6.6201 7.52277 6.66683 7.66699 6.66683C7.81121 6.66683 7.95155 6.6201 8.06699 6.53366L12.3337 3.33366V9.33366H7.00033V10.667H12.3337C13.069 10.667 13.667 10.069 13.667 9.33366V2.00033C13.667 1.26499 13.069 0.666992 12.3337 0.666992ZM7.66699 5.16699L3.44433 2.00033H11.8897L7.66699 5.16699Z" fill="black"/>
<path d="M0.333008 6H4.99967V7.33333H0.333008V6ZM1.66634 8H5.66634V9.33333H1.66634V8ZM3.66634 10H6.33301V11.3333H3.66634V10Z" fill="black"/>
</svg>
