<svg width="214" height="215" viewBox="0 0 214 215" fill="none" xmlns="http://www.w3.org/2000/svg">
<path d="M195.246 107.495C195.246 116.319 181.25 122.804 178.668 130.768C175.983 139.008 183.402 152.476 178.393 159.339C173.349 166.271 158.217 163.364 151.279 168.404C144.411 173.392 142.534 188.701 134.271 191.384C126.318 193.965 115.817 182.767 106.985 182.767C98.1541 182.767 87.6703 193.965 79.6998 191.384C71.4538 188.701 69.5602 173.409 62.6914 168.404C55.7538 163.364 40.622 166.271 35.578 159.339C30.5857 152.476 37.9881 139.025 35.3026 130.768C32.7203 122.821 18.7246 116.319 18.7246 107.495C18.7246 98.6713 32.7203 92.1865 35.3026 84.2225C37.9881 75.9832 30.5685 62.5148 35.578 55.6517C40.622 48.7197 55.7538 51.6266 62.6914 46.5868C69.5602 41.5985 71.4366 26.2896 79.6998 23.6063C87.653 21.0261 98.1541 32.2239 106.985 32.2239C115.817 32.2239 126.318 21.0261 134.288 23.6063C142.534 26.2896 144.428 41.5813 151.297 46.5868C158.234 51.6266 173.366 48.7197 178.41 55.6517C183.402 62.5148 176 75.966 178.685 84.2225C181.268 92.1693 195.263 98.6713 195.263 107.495H195.246Z" stroke="white" stroke-width="2.30043" stroke-linecap="round" stroke-linejoin="round"/>
<path d="M159.197 36.4254C166.281 41.6655 163.221 56.7833 168.084 63.5936C173.128 70.6412 188.317 72.6679 190.884 80.7745C193.47 88.9542 182.179 99.4161 182.125 107.997C182.07 116.487 193.27 127.095 190.538 135.33C187.898 143.272 172.71 145.08 167.483 152.182C162.256 159.285 165.043 174.384 158.268 179.259C151.238 184.317 137.817 176.739 129.749 179.314C121.59 181.906 114.98 195.819 106.42 195.764C97.9521 195.71 91.5235 181.76 83.3102 179.022C75.3883 176.374 61.8937 183.787 54.7913 178.565C47.7071 173.325 50.7666 158.207 45.9042 151.397C40.8596 144.349 25.6714 142.323 23.1036 134.216C20.5176 126.036 31.8086 115.575 31.8632 106.993C31.9179 98.5032 20.7179 87.8952 23.4496 79.6608C26.0903 71.7185 41.2785 69.9109 46.5051 62.8085C51.7318 55.706 48.9455 40.6065 55.7201 35.7316C62.7496 30.6741 76.1714 38.2512 84.239 35.6768C92.3976 33.0842 99.0084 19.1715 107.568 19.2262C116.036 19.281 122.465 33.2302 130.678 35.969C138.6 38.6164 152.094 31.2036 159.197 36.4254Z" stroke="white" stroke-width="1.15022" stroke-linecap="round" stroke-linejoin="round"/>
<path d="M143.632 177.992C182.495 157.761 197.599 109.856 177.368 70.9924C157.137 32.129 109.232 17.0245 70.3685 37.2555C31.505 57.4865 16.4005 105.392 36.6315 144.255C56.8625 183.119 104.768 198.223 143.632 177.992Z" stroke="white" stroke-width="1.15022" stroke-linecap="round" stroke-linejoin="round"/>
<path d="M107 181.968C148.059 181.968 181.344 148.683 181.344 107.624C181.344 66.5647 148.059 33.2798 107 33.2798C65.9412 33.2798 32.6562 66.5647 32.6562 107.624C32.6562 148.683 65.9412 181.968 107 181.968Z" stroke="white" stroke-width="4.60086" stroke-linejoin="round"/>
<path d="M107.008 176.853C145.243 176.853 176.238 145.857 176.238 107.622C176.238 69.3874 145.243 38.3918 107.008 38.3918C68.7729 38.3918 37.7773 69.3874 37.7773 107.622C37.7773 145.857 68.7729 176.853 107.008 176.853Z" fill="#FFD42E" stroke="#FFD42E" stroke-width="0.575108" stroke-linecap="round" stroke-linejoin="round"/>
<path d="M76.9279 67.3364V76.6662H72.0925V67.3364H76.9279ZM76.251 118.635V127.148H71.4155V118.635H76.251ZM78.0562 108.3C78.0562 107.148 77.895 106.163 77.5726 105.347C77.2503 104.53 76.7452 103.797 76.0575 103.148C75.3698 102.499 74.4457 101.881 73.2852 101.294C70.9213 100.247 68.8367 99.1268 67.0314 97.9331C65.2262 96.7394 63.8186 95.263 62.8085 93.5038C61.8199 91.7237 61.3256 89.4619 61.3256 86.7185C61.3256 84.1217 61.8629 81.8704 62.9374 79.9646C64.0335 78.0589 65.5486 76.5824 67.4827 75.5353C69.4384 74.4882 71.6842 73.9647 74.2201 73.9647C76.1543 73.9647 77.9165 74.2997 79.5068 74.9699C81.0971 75.6191 82.4618 76.5824 83.6008 77.8599C84.7398 79.1165 85.6102 80.6662 86.2119 82.5091C86.8351 84.3311 87.1468 86.4148 87.1468 88.7604H78.1207C78.1207 87.5248 78.0239 86.4358 77.8305 85.4934C77.6371 84.551 77.3577 83.7656 76.9924 83.1374C76.627 82.5091 76.1972 82.0379 75.7029 81.7238C75.2087 81.4096 74.6714 81.2526 74.0911 81.2526C73.2315 81.2526 72.5223 81.4934 71.9636 81.9751C71.4048 82.4568 70.9965 83.1164 70.7386 83.9541C70.4807 84.7709 70.3518 85.6923 70.3518 86.7185C70.3518 87.7656 70.5022 88.6766 70.8031 89.4515C71.1254 90.2263 71.6412 90.9384 72.3504 91.5876C73.0811 92.2368 74.0374 92.8965 75.2194 93.5666C77.5619 94.6347 79.625 95.7865 81.4087 97.0221C83.1925 98.2368 84.5786 99.7341 85.5672 101.514C86.5773 103.273 87.0823 105.514 87.0823 108.237C87.0823 110.959 86.5235 113.273 85.406 115.179C84.2885 117.085 82.7304 118.54 80.7318 119.546C78.7546 120.53 76.4336 121.022 73.7688 121.022C72.071 121.022 70.3947 120.771 68.7399 120.268C67.1067 119.744 65.613 118.907 64.2591 117.755C62.9052 116.582 61.8199 115.043 61.0033 113.137C60.2081 111.21 59.8105 108.823 59.8105 105.975H68.8367C68.8367 107.483 68.9656 108.739 69.2235 109.745C69.5029 110.729 69.879 111.514 70.3518 112.101C70.8245 112.687 71.3511 113.106 71.9313 113.357C72.5116 113.608 73.1348 113.734 73.801 113.734C74.7681 113.734 75.5633 113.493 76.1865 113.012C76.8097 112.53 77.2718 111.881 77.5726 111.064C77.895 110.247 78.0562 109.326 78.0562 108.3Z" fill="black"/>
<path d="M99.1064 113.231H99.5577C101.621 113.231 103.383 112.938 104.844 112.352C106.327 111.765 107.531 110.907 108.455 109.776C109.4 108.624 110.088 107.211 110.518 105.535C110.948 103.86 111.163 101.954 111.163 99.8179V90.9907C111.163 89.3572 111.044 87.9436 110.808 86.7499C110.572 85.5353 110.239 84.53 109.809 83.7342C109.379 82.9175 108.895 82.3102 108.358 81.9123C107.821 81.5143 107.241 81.3154 106.617 81.3154C105.887 81.3154 105.242 81.5562 104.683 82.0379C104.124 82.5196 103.652 83.1793 103.265 84.0169C102.899 84.8337 102.62 85.7656 102.427 86.8127C102.233 87.8599 102.137 88.9384 102.137 90.0483C102.137 91.2211 102.233 92.3206 102.427 93.3467C102.62 94.3729 102.91 95.2839 103.297 96.0797C103.684 96.8755 104.178 97.4933 104.78 97.9331C105.382 98.3729 106.102 98.5928 106.94 98.5928C107.627 98.5928 108.261 98.4043 108.842 98.0273C109.422 97.6294 109.927 97.1059 110.357 96.4567C110.787 95.8075 111.13 95.0954 111.388 94.3205C111.646 93.5457 111.786 92.7499 111.807 91.9331L114.741 93.7237C114.741 95.1478 114.472 96.5614 113.935 97.9645C113.419 99.3676 112.699 100.645 111.775 101.797C110.851 102.949 109.777 103.87 108.552 104.561C107.348 105.231 106.048 105.567 104.651 105.567C102.781 105.567 101.126 105.179 99.6866 104.404C98.2467 103.629 97.0325 102.551 96.0439 101.169C95.0768 99.7655 94.3462 98.132 93.8519 96.2682C93.3576 94.3834 93.1104 92.352 93.1104 90.174C93.1104 87.9541 93.4221 85.8703 94.0453 83.9227C94.69 81.9541 95.6034 80.2264 96.7854 78.7395C97.9673 77.2526 99.3965 76.0903 101.073 75.2526C102.749 74.394 104.619 73.9647 106.682 73.9647C108.723 73.9647 110.572 74.4044 112.226 75.284C113.881 76.1636 115.3 77.4306 116.482 79.085C117.664 80.7185 118.566 82.6871 119.189 84.9908C119.834 87.2735 120.157 89.8284 120.157 92.6556V95.8284C120.157 98.8231 119.888 101.608 119.351 104.184C118.813 106.739 117.997 109.043 116.901 111.095C115.805 113.148 114.44 114.907 112.807 116.373C111.173 117.818 109.261 118.928 107.069 119.703C104.898 120.457 102.437 120.833 99.6866 120.833H99.1064V113.231Z" fill="black"/>
<path d="M132.503 113.231H132.954C135.017 113.231 136.78 112.938 138.241 112.352C139.724 111.765 140.927 110.907 141.851 109.776C142.797 108.624 143.485 107.211 143.915 105.535C144.344 103.86 144.559 101.954 144.559 99.8179V90.9907C144.559 89.3572 144.441 87.9436 144.205 86.7499C143.968 85.5353 143.635 84.53 143.205 83.7342C142.776 82.9175 142.292 82.3102 141.755 81.9123C141.217 81.5143 140.637 81.3154 140.014 81.3154C139.283 81.3154 138.639 81.5562 138.08 82.0379C137.521 82.5196 137.048 83.1793 136.661 84.0169C136.296 84.8337 136.017 85.7656 135.823 86.8127C135.63 87.8599 135.533 88.9384 135.533 90.0483C135.533 91.2211 135.63 92.3206 135.823 93.3467C136.017 94.3729 136.307 95.2839 136.694 96.0797C137.08 96.8755 137.575 97.4933 138.177 97.9331C138.778 98.3729 139.498 98.5928 140.336 98.5928C141.024 98.5928 141.658 98.4043 142.238 98.0273C142.819 97.6294 143.324 97.1059 143.753 96.4567C144.183 95.8075 144.527 95.0954 144.785 94.3205C145.043 93.5457 145.182 92.7499 145.204 91.9331L148.137 93.7237C148.137 95.1478 147.869 96.5614 147.332 97.9645C146.816 99.3676 146.096 100.645 145.172 101.797C144.248 102.949 143.173 103.87 141.948 104.561C140.745 105.231 139.444 105.567 138.048 105.567C136.178 105.567 134.523 105.179 133.083 104.404C131.643 103.629 130.429 102.551 129.441 101.169C128.473 99.7655 127.743 98.132 127.248 96.2682C126.754 94.3834 126.507 92.352 126.507 90.174C126.507 87.9541 126.819 85.8703 127.442 83.9227C128.087 81.9541 129 80.2264 130.182 78.7395C131.364 77.2526 132.793 76.0903 134.469 75.2526C136.146 74.394 138.015 73.9647 140.078 73.9647C142.12 73.9647 143.968 74.4044 145.623 75.284C147.278 76.1636 148.696 77.4306 149.878 79.085C151.06 80.7185 151.963 82.6871 152.586 84.9908C153.231 87.2735 153.553 89.8284 153.553 92.6556V95.8284C153.553 98.8231 153.284 101.608 152.747 104.184C152.21 106.739 151.393 109.043 150.297 111.095C149.201 113.148 147.837 114.907 146.203 116.373C144.57 117.818 142.657 118.928 140.465 119.703C138.295 120.457 135.834 120.833 133.083 120.833H132.503V113.231Z" fill="black"/>
<path d="M92.5793 129.816V131.498C92.5793 132.208 92.489 132.831 92.3084 133.366C92.1326 133.897 91.8807 134.342 91.5528 134.702C91.2296 135.057 90.8375 135.325 90.3765 135.504C89.9202 135.684 89.4141 135.774 88.858 135.774C88.3019 135.774 87.7934 135.684 87.3324 135.504C86.8761 135.325 86.4816 135.057 86.1489 134.702C85.821 134.342 85.5667 133.897 85.3861 133.366C85.2055 132.831 85.1152 132.208 85.1152 131.498V129.816C85.1152 129.088 85.2032 128.451 85.379 127.907C85.5549 127.358 85.8091 126.901 86.1418 126.536C86.4745 126.167 86.869 125.891 87.3252 125.706C87.7815 125.517 88.2877 125.422 88.8437 125.422C89.3998 125.422 89.906 125.517 90.3622 125.706C90.8185 125.891 91.2129 126.167 91.5456 126.536C91.8783 126.901 92.1326 127.358 92.3084 127.907C92.489 128.451 92.5793 129.088 92.5793 129.816ZM90.5048 131.498V129.803C90.5048 129.323 90.4692 128.915 90.3979 128.578C90.3266 128.236 90.2196 127.957 90.0771 127.74C89.9345 127.524 89.761 127.365 89.5566 127.263C89.3523 127.162 89.1146 127.111 88.8437 127.111C88.5728 127.111 88.3328 127.162 88.1237 127.263C87.9193 127.365 87.7459 127.524 87.6033 127.74C87.4654 127.957 87.3609 128.236 87.2896 128.578C87.2231 128.915 87.1898 129.323 87.1898 129.803V131.498C87.1898 131.959 87.2254 132.354 87.2967 132.681C87.368 133.009 87.4749 133.276 87.6175 133.484C87.7601 133.691 87.9336 133.846 88.138 133.947C88.3471 134.044 88.5871 134.093 88.858 134.093C89.1241 134.093 89.3594 134.044 89.5638 133.947C89.7729 133.846 89.9464 133.691 90.0842 133.484C90.222 133.276 90.3266 133.009 90.3979 132.681C90.4692 132.354 90.5048 131.959 90.5048 131.498Z" fill="black"/>
<path d="M101.355 125.561V135.636H99.3377L96.0797 129.332V135.636H94.0978V125.561H96.0868L99.3733 131.934V125.561H101.355Z" fill="black"/>
<path d="M110.11 125.561V135.636H108.035V125.561H110.11ZM112.69 125.561V127.242H105.504V125.561H112.69Z" fill="black"/>
<path d="M119.655 129.643V131.318H115.399V129.643H119.655ZM115.991 125.561V135.636H113.902V125.561H115.991ZM121.167 125.561V135.636H119.099V125.561H121.167Z" fill="black"/>
<path d="M128.823 133.961V135.636H124.311V133.961H128.823ZM124.959 125.561V135.636H122.871V125.561H124.959ZM128.217 129.643V131.27H124.311V129.643H128.217ZM128.809 125.561V127.242H124.311V125.561H128.809Z" fill="black"/>
<path d="M84.217 150.138V159.819C83.8827 160.174 83.392 160.588 82.7449 161.062C82.1086 161.524 81.2728 161.933 80.2375 162.288C79.213 162.632 77.962 162.804 76.4845 162.804C75.1796 162.804 73.9933 162.6 72.9256 162.191C71.8688 161.782 70.9575 161.164 70.1918 160.335C69.4368 159.496 68.8599 158.453 68.4608 157.205C68.0618 155.947 67.8623 154.457 67.8623 152.736V148.734C67.8623 147.035 68.051 145.556 68.4285 144.297C68.8167 143.028 69.3775 141.974 70.1109 141.134C70.8442 140.295 71.7178 139.672 72.7315 139.263C73.756 138.854 74.91 138.65 76.1933 138.65C77.962 138.65 79.4125 138.945 80.5449 139.537C81.688 140.129 82.5508 141.005 83.1332 142.167C83.7263 143.329 84.0822 144.754 84.2008 146.443H79.6228C79.5473 145.453 79.3802 144.679 79.1213 144.12C78.8733 143.56 78.5228 143.162 78.0698 142.926C77.6169 142.678 77.0291 142.554 76.3066 142.554C75.6811 142.554 75.1365 142.667 74.6727 142.893C74.209 143.108 73.8207 143.463 73.508 143.958C73.1952 144.453 72.9634 145.088 72.8124 145.862C72.6614 146.637 72.5859 147.583 72.5859 148.702V152.736C72.5859 153.844 72.6722 154.79 72.8447 155.576C73.0173 156.361 73.2707 157.001 73.6051 157.496C73.9502 157.99 74.3815 158.351 74.8992 158.577C75.4276 158.792 76.0477 158.899 76.7595 158.899C77.3311 158.899 77.7894 158.84 78.1346 158.722C78.4797 158.604 78.7547 158.48 78.9596 158.351C79.1753 158.211 79.3532 158.103 79.4934 158.028V153.704H76.1125V150.138H84.217Z" fill="black"/>
<path d="M96.1555 143.184L91.0921 162.481H86.0935L93.454 138.988H96.5761L96.1555 143.184ZM100.151 162.481L95.0555 143.184L94.5863 138.988H97.757L105.182 162.481H100.151ZM100.329 153.72V157.641H89.7009V153.72H100.329Z" fill="black"/>
<path d="M109.113 138.988H113.27L118.075 155.059L122.863 138.988H126.535L119.838 162.481H116.296L109.113 138.988ZM107.431 138.988H111.394L112.009 154.478V162.481H107.431V138.988ZM124.724 138.988H128.703V162.481H124.141V154.478L124.724 138.988Z" fill="black"/>
<path d="M146.077 158.577V162.481H135.837V158.577H146.077ZM137.309 138.988V162.481H132.569V138.988H137.309ZM144.702 148.508V152.3H135.837V148.508H144.702ZM146.045 138.988V142.909H135.837V138.988H146.045Z" fill="black"/>
<path d="M90.089 66.7703L93.2296 50.0833H95.3054L95.9255 52.6712L92.5557 69.7088H90.3047L90.089 66.7703ZM89.0107 50.0833L91.5448 66.8108L91.1134 69.7088H88.6333L85.1152 50.0833H89.0107ZM98.2034 66.7434L100.724 50.0833H104.606L101.115 69.7088H98.6213L98.2034 66.7434ZM96.5051 50.0833L99.6727 66.8647L99.4165 69.7088H97.1655L93.8092 52.6443L94.4428 50.0833H96.5051Z" fill="black"/>
<path d="M110.887 50.0833V69.7088H106.965V50.0833H110.887Z" fill="black"/>
<path d="M127.979 50.0833V69.7088H124.164L118.004 57.4293V69.7088H114.257V50.0833H118.018L124.232 62.4975V50.0833H127.979Z" fill="black"/>
</svg>
