<svg width="215" height="215" viewBox="0 0 215 215" fill="none" xmlns="http://www.w3.org/2000/svg">
<path d="M195.937 107.249C195.937 116.105 181.892 122.612 179.3 130.605C176.605 138.873 184.051 152.389 179.024 159.276C173.962 166.233 158.777 163.316 151.814 168.373C144.921 173.379 143.038 188.742 134.746 191.435C126.765 194.025 116.226 182.787 107.364 182.787C98.5014 182.787 87.9805 194.025 79.9818 191.435C71.7067 188.742 69.8064 173.397 62.9134 168.373C55.9512 163.316 40.7658 166.233 35.704 159.276C30.694 152.389 38.1226 138.89 35.4276 130.605C32.8362 122.63 18.791 116.105 18.791 107.249C18.791 98.394 32.8362 91.8863 35.4276 83.8941C38.1226 75.6257 30.6767 62.1097 35.704 55.2222C40.7658 48.2657 55.9512 51.1829 62.9134 46.1252C69.8064 41.1193 71.6894 25.7563 79.9818 23.0634C87.9632 20.4742 98.5014 31.7116 107.364 31.7116C116.226 31.7116 126.765 20.4742 134.763 23.0634C143.038 25.7563 144.939 41.102 151.832 46.1252C158.794 51.1829 173.979 48.2657 179.041 55.2222C184.051 62.1097 176.623 75.6084 179.318 83.8941C181.909 91.8691 195.954 98.394 195.954 107.249H195.937Z" stroke="white" stroke-width="1.93494" stroke-linecap="round" stroke-linejoin="round"/>
<path d="M159.759 35.9282C166.869 41.1868 163.798 56.358 168.678 63.1924C173.74 70.265 188.982 72.2989 191.559 80.4342C194.154 88.6428 182.823 99.1417 182.769 107.753C182.714 116.273 193.953 126.919 191.212 135.183C188.562 143.153 173.32 144.967 168.075 152.094C162.83 159.222 165.626 174.375 158.827 179.267C151.773 184.343 138.304 176.739 130.208 179.322C122.02 181.924 115.386 195.886 106.796 195.831C98.2982 195.776 91.8469 181.777 83.6046 179.029C75.6546 176.372 62.1123 183.811 54.9848 178.571C47.8755 173.312 50.9459 158.141 46.0662 151.307C41.0039 144.234 25.7619 142.2 23.185 134.065C20.5899 125.856 31.9208 115.357 31.9757 106.746C32.0305 98.2256 20.7909 87.58 23.5323 79.3165C26.1823 71.3461 41.4242 69.5321 46.6693 62.4046C51.9145 55.277 49.1183 40.1241 55.9169 35.2319C62.9713 30.1565 76.4405 37.7604 84.5366 35.1769C92.7242 32.5751 99.3582 18.6132 107.948 18.6681C116.446 18.7231 122.897 32.7217 131.14 35.4701C139.09 38.1269 152.632 30.6879 159.759 35.9282Z" stroke="white" stroke-width="0.967471" stroke-linecap="round" stroke-linejoin="round"/>
<path d="M144.139 177.996C183.14 157.693 198.298 109.618 177.996 70.6172C157.693 31.6163 109.618 16.4583 70.6173 36.7609C31.6165 57.0635 16.4585 105.138 36.7611 144.139C57.0636 183.14 105.139 198.298 144.139 177.996Z" stroke="white" stroke-width="0.967471" stroke-linecap="round" stroke-linejoin="round"/>
<path d="M107.378 181.985C148.583 181.985 181.986 148.582 181.986 107.378C181.986 66.1737 148.583 32.771 107.378 32.771C66.1742 32.771 32.7715 66.1737 32.7715 107.378C32.7715 148.582 66.1742 181.985 107.378 181.985Z" stroke="white" stroke-width="3.86988" stroke-linejoin="round"/>
<path d="M107.387 176.852C145.757 176.852 176.862 145.747 176.862 107.377C176.862 69.0066 145.757 37.9014 107.387 37.9014C69.0163 37.9014 37.9111 69.0066 37.9111 107.377C37.9111 145.747 69.0163 176.852 107.387 176.852Z" fill="#FFD42E" stroke="#FFD42E" stroke-width="0.483736" stroke-linecap="round" stroke-linejoin="round"/>
<path d="M77.2013 78.4912V87.854H72.3488V78.4912H77.2013ZM76.522 129.971V138.514H71.6695V129.971H76.522ZM78.3336 119.599C78.3336 118.443 78.1719 117.456 77.8483 116.636C77.5248 115.816 77.018 115.081 76.3279 114.429C75.6378 113.778 74.7104 113.158 73.5458 112.569C71.1734 111.518 69.0815 110.394 67.2699 109.196C65.4583 107.998 64.0456 106.517 63.032 104.751C62.0399 102.965 61.5439 100.695 61.5439 97.9419C61.5439 95.3358 62.0831 93.0766 63.1614 91.1641C64.2613 89.2516 65.7818 87.7699 67.7228 86.7191C69.6853 85.6683 71.9391 85.1429 74.4839 85.1429C76.4249 85.1429 78.1934 85.4792 79.7894 86.1517C81.3853 86.8032 82.7548 87.7699 83.8978 89.0519C85.0409 90.3129 85.9143 91.8681 86.5182 93.7176C87.1436 95.546 87.4563 97.6371 87.4563 99.991H78.3983C78.3983 98.751 78.3013 97.6581 78.1072 96.7124C77.913 95.7667 77.6327 94.9786 77.266 94.3481C76.8994 93.7176 76.4681 93.2447 75.972 92.9295C75.476 92.6142 74.9368 92.4566 74.3545 92.4566C73.4919 92.4566 72.7802 92.6983 72.2194 93.1817C71.6587 93.665 71.2489 94.327 70.9901 95.1677C70.7313 95.9873 70.6019 96.9121 70.6019 97.9419C70.6019 98.9927 70.7529 99.9069 71.0548 100.684C71.3783 101.462 71.8959 102.177 72.6076 102.828C73.3409 103.48 74.3006 104.142 75.4868 104.814C77.8376 105.886 79.908 107.042 81.698 108.282C83.4881 109.501 84.8791 111.004 85.8712 112.79C86.8848 114.555 87.3916 116.804 87.3916 119.536C87.3916 122.268 86.8309 124.591 85.7094 126.503C84.588 128.416 83.0244 129.876 81.0187 130.885C79.0345 131.873 76.7053 132.367 74.031 132.367C72.3273 132.367 70.6451 132.114 68.9844 131.61C67.3453 131.085 65.8465 130.244 64.4878 129.088C63.129 127.911 62.0399 126.367 61.2204 124.454C60.4224 122.521 60.0234 120.125 60.0234 117.266H69.0815C69.0815 118.78 69.2109 120.041 69.4697 121.049C69.75 122.037 70.1275 122.825 70.6019 123.414C71.0764 124.002 71.6048 124.422 72.1871 124.675C72.7694 124.927 73.3948 125.053 74.0634 125.053C75.0339 125.053 75.8319 124.811 76.4573 124.328C77.0827 123.845 77.5464 123.193 77.8483 122.373C78.1719 121.554 78.3336 120.629 78.3336 119.599Z" fill="black"/>
<path d="M99.4582 124.549H99.9111C101.982 124.549 103.75 124.254 105.217 123.666C106.705 123.077 107.912 122.216 108.84 121.081C109.789 119.925 110.479 118.506 110.91 116.825C111.341 115.144 111.557 113.231 111.557 111.088V102.229C111.557 100.59 111.439 99.1713 111.201 97.9734C110.964 96.7544 110.63 95.7456 110.198 94.947C109.767 94.1274 109.282 93.5179 108.743 93.1186C108.204 92.7193 107.621 92.5196 106.996 92.5196C106.263 92.5196 105.616 92.7613 105.055 93.2447C104.494 93.7281 104.02 94.3901 103.631 95.2307C103.265 96.0504 102.984 96.9856 102.79 98.0364C102.596 99.0873 102.499 100.17 102.499 101.283C102.499 102.46 102.596 103.564 102.79 104.594C102.984 105.623 103.276 106.538 103.664 107.336C104.052 108.135 104.548 108.755 105.152 109.196C105.756 109.637 106.478 109.858 107.319 109.858C108.009 109.858 108.646 109.669 109.228 109.291C109.81 108.891 110.317 108.366 110.748 107.714C111.18 107.063 111.525 106.348 111.784 105.571C112.042 104.793 112.183 103.995 112.204 103.175L115.148 104.972C115.148 106.401 114.878 107.82 114.339 109.228C113.822 110.636 113.099 111.918 112.172 113.074C111.244 114.23 110.166 115.154 108.937 115.848C107.729 116.52 106.424 116.857 105.022 116.857C103.146 116.857 101.485 116.468 100.041 115.69C98.5956 114.913 97.377 113.83 96.385 112.443C95.4145 111.035 94.6812 109.396 94.1852 107.525C93.6891 105.634 93.4411 103.595 93.4411 101.41C93.4411 99.1818 93.7538 97.0907 94.3793 95.1362C95.0263 93.1606 95.9428 91.4268 97.129 89.9346C98.3152 88.4425 99.7494 87.2761 101.432 86.4354C103.114 85.5737 104.99 85.1429 107.06 85.1429C109.109 85.1429 110.964 85.5842 112.625 86.4669C114.285 87.3496 115.709 88.6211 116.895 90.2814C118.081 91.9207 118.987 93.8962 119.612 96.208C120.259 98.4988 120.583 101.063 120.583 103.9V107.084C120.583 110.089 120.313 112.884 119.774 115.47C119.235 118.034 118.415 120.345 117.315 122.405C116.216 124.465 114.846 126.23 113.207 127.701C111.568 129.151 109.649 130.265 107.449 131.043C105.27 131.799 102.801 132.178 100.041 132.178H99.4582V124.549Z" fill="black"/>
<path d="M132.973 124.549H133.426C135.496 124.549 137.265 124.254 138.731 123.666C140.219 123.077 141.427 122.216 142.354 121.081C143.303 119.925 143.994 118.506 144.425 116.825C144.856 115.144 145.072 113.231 145.072 111.088V102.229C145.072 100.59 144.953 99.1713 144.716 97.9734C144.479 96.7544 144.145 95.7456 143.713 94.947C143.282 94.1274 142.797 93.5179 142.257 93.1186C141.718 92.7193 141.136 92.5196 140.511 92.5196C139.777 92.5196 139.13 92.7613 138.57 93.2447C138.009 93.7281 137.534 94.3901 137.146 95.2307C136.779 96.0504 136.499 96.9856 136.305 98.0364C136.111 99.0873 136.014 100.17 136.014 101.283C136.014 102.46 136.111 103.564 136.305 104.594C136.499 105.623 136.79 106.538 137.178 107.336C137.567 108.135 138.063 108.755 138.667 109.196C139.27 109.637 139.993 109.858 140.834 109.858C141.524 109.858 142.16 109.669 142.743 109.291C143.325 108.891 143.832 108.366 144.263 107.714C144.694 107.063 145.04 106.348 145.298 105.571C145.557 104.793 145.697 103.995 145.719 103.175L148.663 104.972C148.663 106.401 148.393 107.82 147.854 109.228C147.336 110.636 146.614 111.918 145.687 113.074C144.759 114.23 143.681 115.154 142.452 115.848C141.244 116.52 139.939 116.857 138.537 116.857C136.661 116.857 135 116.468 133.555 115.69C132.11 114.913 130.892 113.83 129.9 112.443C128.929 111.035 128.196 109.396 127.7 107.525C127.204 105.634 126.956 103.595 126.956 101.41C126.956 99.1818 127.269 97.0907 127.894 95.1362C128.541 93.1606 129.458 91.4268 130.644 89.9346C131.83 88.4425 133.264 87.2761 134.946 86.4354C136.629 85.5737 138.505 85.1429 140.575 85.1429C142.624 85.1429 144.479 85.5842 146.139 86.4669C147.8 87.3496 149.223 88.6211 150.41 90.2814C151.596 91.9207 152.502 93.8962 153.127 96.208C153.774 98.4988 154.098 101.063 154.098 103.9V107.084C154.098 110.089 153.828 112.884 153.289 115.47C152.75 118.034 151.93 120.345 150.83 122.405C149.73 124.465 148.361 126.23 146.722 127.701C145.083 129.151 143.163 130.265 140.963 131.043C138.785 131.799 136.316 132.178 133.555 132.178H132.973V124.549Z" fill="black"/>
<path d="M81.9236 63.5261V71.6421C81.644 71.9397 81.2337 72.2869 80.6927 72.6837C80.1606 73.0715 79.4617 73.4141 78.596 73.7117C77.7393 74.0003 76.6933 74.1446 75.4578 74.1446C74.3667 74.1446 73.3747 73.9732 72.4819 73.6306C71.5982 73.2879 70.8362 72.7694 70.1959 72.075C69.5647 71.3716 69.0822 70.4969 68.7485 69.4508C68.4149 68.3957 68.248 67.1467 68.248 65.7039V62.3492C68.248 60.9244 68.4059 59.6845 68.7215 58.6294C69.0461 57.5653 69.5151 56.6815 70.1283 55.9781C70.7415 55.2747 71.4719 54.7517 72.3196 54.409C73.1763 54.0664 74.1412 53.895 75.2143 53.895C76.6933 53.895 77.9062 54.143 78.853 54.639C79.8089 55.135 80.5303 55.8699 81.0173 56.8439C81.5133 57.8178 81.8109 59.0126 81.9101 60.4284H78.082C78.0189 59.5988 77.8791 58.9495 77.6627 58.4806C77.4553 58.0117 77.1622 57.678 76.7834 57.4796C76.4047 57.2722 75.9132 57.1685 75.309 57.1685C74.786 57.1685 74.3306 57.2632 73.9428 57.4526C73.555 57.6329 73.2304 57.9305 72.9689 58.3453C72.7074 58.7601 72.5135 59.2922 72.3872 59.9415C72.261 60.5908 72.1979 61.3843 72.1979 62.3222V65.7039C72.1979 66.6327 72.27 67.4263 72.4143 68.0846C72.5586 68.7429 72.7705 69.2795 73.05 69.6943C73.3386 70.1091 73.6993 70.4112 74.1322 70.6006C74.5741 70.7809 75.0926 70.8711 75.6878 70.8711C76.1657 70.8711 76.549 70.8215 76.8375 70.7223C77.1261 70.6231 77.3561 70.5194 77.5274 70.4112C77.7078 70.294 77.8566 70.2038 77.9738 70.1407V66.5155H75.1467V63.5261H81.9236Z" fill="black"/>
<path d="M91.9064 57.696L87.6725 73.874H83.4927L89.6474 54.1791H92.258L91.9064 57.696ZM95.2475 73.874L90.9865 57.696L90.5943 54.1791H93.2455L99.4543 73.874H95.2475ZM95.3963 66.529V69.816H86.5092V66.529H95.3963Z" fill="black"/>
<path d="M115.105 54.1791V73.874H111.277L105.095 61.5512V73.874H101.335V54.1791H105.108L111.344 66.6372V54.1791H115.105Z" fill="black"/>
<path d="M129.213 62.1599V65.4333H121.138V62.1599H129.213ZM122.26 54.1791V73.874H118.297V54.1791H122.26ZM132.081 54.1791V73.874H128.158V54.1791H132.081Z" fill="black"/>
<path d="M146.609 70.6006V73.874H138.046V70.6006H146.609ZM139.277 54.1791V73.874H135.314V54.1791H139.277ZM145.459 62.1599V65.3387H138.046V62.1599H145.459ZM146.582 54.1791V57.4661H138.046V54.1791H146.582Z" fill="black"/>
<path d="M79.2839 142.773V157.929H76.3362L71.5762 148.446V157.929H68.6807V142.773H71.5867L76.3883 152.36V142.773H79.2839Z" fill="black"/>
<path d="M92.3973 149.174V151.704C92.3973 152.772 92.2654 153.709 92.0015 154.514C91.7446 155.312 91.3766 155.982 90.8975 156.523C90.4253 157.058 89.8524 157.46 89.1789 157.731C88.5123 158.001 87.7727 158.137 86.9603 158.137C86.1479 158.137 85.4049 158.001 84.7313 157.731C84.0647 157.46 83.4884 157.058 83.0023 156.523C82.5232 155.982 82.1517 155.312 81.8878 154.514C81.624 153.709 81.492 152.772 81.492 151.704V149.174C81.492 148.078 81.6205 147.12 81.8774 146.301C82.1344 145.476 82.5058 144.789 82.9919 144.24C83.478 143.685 84.0543 143.269 84.7209 142.991C85.3875 142.707 86.1271 142.564 86.9395 142.564C87.7519 142.564 88.4914 142.707 89.158 142.991C89.8247 143.269 90.401 143.685 90.8871 144.24C91.3731 144.789 91.7446 145.476 92.0015 146.301C92.2654 147.12 92.3973 148.078 92.3973 149.174ZM89.3664 151.704V149.153C89.3664 148.432 89.3143 147.818 89.2101 147.311C89.106 146.798 88.9497 146.378 88.7414 146.052C88.5331 145.725 88.2796 145.486 87.9811 145.333C87.6825 145.181 87.3353 145.104 86.9395 145.104C86.5437 145.104 86.193 145.181 85.8875 145.333C85.5889 145.486 85.3355 145.725 85.1271 146.052C84.9258 146.378 84.773 146.798 84.6689 147.311C84.5716 147.818 84.523 148.432 84.523 149.153V151.704C84.523 152.398 84.5751 152.991 84.6793 153.484C84.7834 153.977 84.9397 154.379 85.148 154.691C85.3563 155.004 85.6097 155.236 85.9083 155.389C86.2139 155.534 86.5645 155.607 86.9603 155.607C87.3492 155.607 87.6929 155.534 87.9915 155.389C88.297 155.236 88.5505 155.004 88.7518 154.691C88.9532 154.379 89.106 153.977 89.2101 153.484C89.3143 152.991 89.3664 152.398 89.3664 151.704Z" fill="black"/>
<path d="M104.521 153.255V142.773H107.563V153.265C107.563 154.271 107.368 155.142 106.979 155.878C106.597 156.607 106.077 157.165 105.417 157.554C104.757 157.942 104.014 158.137 103.188 158.137C102.341 158.137 101.584 157.97 100.917 157.637C100.258 157.297 99.737 156.784 99.3551 156.097C98.9732 155.403 98.7822 154.521 98.7822 153.453H101.844C101.844 153.994 101.9 154.421 102.011 154.733C102.122 155.045 102.278 155.271 102.48 155.41C102.688 155.548 102.924 155.618 103.188 155.618C103.473 155.618 103.712 155.524 103.907 155.337C104.108 155.149 104.261 154.882 104.365 154.535C104.469 154.181 104.521 153.754 104.521 153.255Z" fill="black"/>
<path d="M120.645 149.174V151.704C120.645 152.772 120.513 153.709 120.249 154.514C119.992 155.312 119.624 155.982 119.145 156.523C118.673 157.058 118.1 157.46 117.426 157.731C116.76 158.001 116.02 158.137 115.208 158.137C114.395 158.137 113.652 158.001 112.979 157.731C112.312 157.46 111.736 157.058 111.25 156.523C110.771 155.982 110.399 155.312 110.135 154.514C109.872 153.709 109.74 152.772 109.74 151.704V149.174C109.74 148.078 109.868 147.12 110.125 146.301C110.382 145.476 110.753 144.789 111.239 144.24C111.726 143.685 112.302 143.269 112.968 142.991C113.635 142.707 114.375 142.564 115.187 142.564C115.999 142.564 116.739 142.707 117.406 142.991C118.072 143.269 118.649 143.685 119.135 144.24C119.621 144.789 119.992 145.476 120.249 146.301C120.513 147.12 120.645 148.078 120.645 149.174ZM117.614 151.704V149.153C117.614 148.432 117.562 147.818 117.458 147.311C117.354 146.798 117.197 146.378 116.989 146.052C116.781 145.725 116.527 145.486 116.229 145.333C115.93 145.181 115.583 145.104 115.187 145.104C114.791 145.104 114.441 145.181 114.135 145.333C113.836 145.486 113.583 145.725 113.375 146.052C113.173 146.378 113.021 146.798 112.916 147.311C112.819 147.818 112.771 148.432 112.771 149.153V151.704C112.771 152.398 112.823 152.991 112.927 153.484C113.031 153.977 113.187 154.379 113.396 154.691C113.604 155.004 113.857 155.236 114.156 155.389C114.461 155.534 114.812 155.607 115.208 155.607C115.597 155.607 115.94 155.534 116.239 155.389C116.545 155.236 116.798 155.004 116.999 154.691C117.201 154.379 117.354 153.977 117.458 153.484C117.562 152.991 117.614 152.398 117.614 151.704Z" fill="black"/>
<path d="M133.165 149.965V156.211C132.949 156.44 132.633 156.707 132.217 157.013C131.807 157.311 131.269 157.575 130.602 157.804C129.943 158.026 129.137 158.137 128.186 158.137C127.346 158.137 126.582 158.005 125.894 157.741C125.214 157.478 124.627 157.078 124.134 156.544C123.648 156.003 123.277 155.33 123.02 154.525C122.763 153.713 122.634 152.752 122.634 151.641V149.06C122.634 147.963 122.756 147.009 122.999 146.197C123.249 145.378 123.61 144.698 124.082 144.157C124.554 143.616 125.117 143.213 125.769 142.95C126.429 142.686 127.172 142.554 127.998 142.554C129.137 142.554 130.071 142.745 130.8 143.126C131.536 143.508 132.092 144.074 132.467 144.823C132.849 145.573 133.078 146.492 133.154 147.582H130.207C130.158 146.943 130.05 146.444 129.884 146.083C129.724 145.722 129.498 145.465 129.207 145.312C128.915 145.153 128.537 145.073 128.071 145.073C127.669 145.073 127.318 145.146 127.019 145.292C126.721 145.43 126.471 145.659 126.269 145.979C126.068 146.298 125.919 146.707 125.822 147.207C125.724 147.707 125.676 148.317 125.676 149.039V151.641C125.676 152.356 125.731 152.967 125.842 153.473C125.953 153.98 126.117 154.393 126.332 154.712C126.554 155.031 126.832 155.264 127.165 155.41C127.505 155.548 127.905 155.618 128.363 155.618C128.731 155.618 129.026 155.58 129.248 155.503C129.471 155.427 129.648 155.347 129.779 155.264C129.918 155.174 130.033 155.104 130.123 155.056V152.266H127.946V149.965H133.165Z" fill="black"/>
<path d="M146.018 149.174V151.704C146.018 152.772 145.886 153.709 145.622 154.514C145.365 155.312 144.997 155.982 144.518 156.523C144.046 157.058 143.473 157.46 142.799 157.731C142.133 158.001 141.393 158.137 140.581 158.137C139.768 158.137 139.025 158.001 138.352 157.731C137.685 157.46 137.109 157.058 136.623 156.523C136.144 155.982 135.772 155.312 135.508 154.514C135.244 153.709 135.112 152.772 135.112 151.704V149.174C135.112 148.078 135.241 147.12 135.498 146.301C135.755 145.476 136.126 144.789 136.612 144.24C137.098 143.685 137.675 143.269 138.341 142.991C139.008 142.707 139.747 142.564 140.56 142.564C141.372 142.564 142.112 142.707 142.778 142.991C143.445 143.269 144.021 143.685 144.507 144.24C144.993 144.789 145.365 145.476 145.622 146.301C145.886 147.12 146.018 148.078 146.018 149.174ZM142.987 151.704V149.153C142.987 148.432 142.935 147.818 142.83 147.311C142.726 146.798 142.57 146.378 142.362 146.052C142.153 145.725 141.9 145.486 141.601 145.333C141.303 145.181 140.956 145.104 140.56 145.104C140.164 145.104 139.813 145.181 139.508 145.333C139.209 145.486 138.956 145.725 138.747 146.052C138.546 146.378 138.393 146.798 138.289 147.311C138.192 147.818 138.143 148.432 138.143 149.153V151.704C138.143 152.398 138.195 152.991 138.3 153.484C138.404 153.977 138.56 154.379 138.768 154.691C138.977 155.004 139.23 155.236 139.529 155.389C139.834 155.534 140.185 155.607 140.581 155.607C140.969 155.607 141.313 155.534 141.612 155.389C141.917 155.236 142.171 155.004 142.372 154.691C142.574 154.379 142.726 153.977 142.83 153.484C142.935 152.991 142.987 152.398 142.987 151.704Z" fill="black"/>
</svg>
