<svg width="214" height="214" viewBox="0 0 214 214" fill="none" xmlns="http://www.w3.org/2000/svg">
<path d="M195.246 106.871C195.246 115.695 181.25 122.18 178.668 130.144C175.983 138.384 183.402 151.852 178.393 158.715C173.349 165.647 158.217 162.74 151.279 167.78C144.411 172.768 142.534 188.077 134.271 190.76C126.318 193.341 115.817 182.143 106.985 182.143C98.1541 182.143 87.6703 193.341 79.6998 190.76C71.4538 188.077 69.5602 172.785 62.6914 167.78C55.7538 162.74 40.622 165.647 35.578 158.715C30.5857 151.852 37.9881 138.401 35.3026 130.144C32.7203 122.197 18.7246 115.695 18.7246 106.871C18.7246 98.0473 32.7203 91.5625 35.3026 83.5984C37.9881 75.3592 30.5685 61.8908 35.578 55.0276C40.622 48.0957 55.7538 51.0026 62.6914 45.9627C69.5602 40.9744 71.4366 25.6656 79.6998 22.9822C87.653 20.4021 98.1541 31.5999 106.985 31.5999C115.817 31.5999 126.318 20.4021 134.288 22.9822C142.534 25.6656 144.428 40.9572 151.297 45.9627C158.234 51.0026 173.366 48.0957 178.41 55.0276C183.402 61.8908 176 75.342 178.685 83.5984C181.268 91.5453 195.263 98.0473 195.263 106.871H195.246Z" stroke="white" stroke-width="2.30043" stroke-linecap="round" stroke-linejoin="round"/>
<path d="M159.197 35.8014C166.281 41.0415 163.221 56.1593 168.084 62.9695C173.128 70.0172 188.317 72.0439 190.884 80.1505C193.47 88.3301 182.179 98.7921 182.125 107.373C182.07 115.863 193.27 126.471 190.538 134.706C187.898 142.648 172.71 144.456 167.483 151.558C162.256 158.661 165.043 173.76 158.268 178.635C151.238 183.693 137.817 176.115 129.749 178.69C121.59 181.282 114.98 195.195 106.42 195.14C97.9521 195.086 91.5235 181.136 83.3102 178.398C75.3883 175.75 61.8937 183.163 54.7913 177.941C47.7071 172.701 50.7666 157.583 45.9042 150.773C40.8596 143.725 25.6714 141.699 23.1036 133.592C20.5176 125.412 31.8086 114.951 31.8632 106.369C31.9179 97.8792 20.7179 87.2712 23.4496 79.0367C26.0903 71.0944 41.2785 69.2869 46.5051 62.1844C51.7318 55.082 48.9455 39.9825 55.7201 35.1076C62.7496 30.0501 76.1714 37.6272 84.239 35.0528C92.3976 32.4602 99.0084 18.5474 107.568 18.6022C116.036 18.657 122.465 32.6062 130.678 35.3449C138.6 37.9924 152.094 30.5796 159.197 35.8014Z" stroke="white" stroke-width="1.15022" stroke-linecap="round" stroke-linejoin="round"/>
<path d="M143.632 177.368C182.495 157.137 197.599 109.232 177.368 70.3684C157.137 31.505 109.232 16.4005 70.3685 36.6315C31.505 56.8625 16.4005 104.768 36.6315 143.631C56.8625 182.495 104.768 197.599 143.632 177.368Z" stroke="white" stroke-width="1.15022" stroke-linecap="round" stroke-linejoin="round"/>
<path d="M107 181.344C148.059 181.344 181.344 148.059 181.344 107C181.344 65.9407 148.059 32.6558 107 32.6558C65.9412 32.6558 32.6562 65.9407 32.6562 107C32.6562 148.059 65.9412 181.344 107 181.344Z" stroke="white" stroke-width="4.60086" stroke-linejoin="round"/>
<path d="M107.008 176.229C145.243 176.229 176.238 145.233 176.238 106.998C176.238 68.7634 145.243 37.7678 107.008 37.7678C68.7729 37.7678 37.7773 68.7634 37.7773 106.998C37.7773 145.233 68.7729 176.229 107.008 176.229Z" fill="#FFD42E" stroke="#FFD42E" stroke-width="0.575108" stroke-linecap="round" stroke-linejoin="round"/>
<path d="M92.5793 129.192V130.874C92.5793 131.584 92.489 132.207 92.3084 132.742C92.1326 133.273 91.8807 133.718 91.5528 134.078C91.2296 134.433 90.8375 134.7 90.3765 134.88C89.9202 135.06 89.4141 135.15 88.858 135.15C88.3019 135.15 87.7934 135.06 87.3324 134.88C86.8761 134.7 86.4816 134.433 86.1489 134.078C85.821 133.718 85.5667 133.273 85.3861 132.742C85.2055 132.207 85.1152 131.584 85.1152 130.874V129.192C85.1152 128.463 85.2032 127.827 85.379 127.283C85.5549 126.734 85.8091 126.277 86.1418 125.912C86.4745 125.543 86.869 125.267 87.3252 125.082C87.7815 124.893 88.2877 124.798 88.8437 124.798C89.3998 124.798 89.906 124.893 90.3622 125.082C90.8185 125.267 91.2129 125.543 91.5456 125.912C91.8783 126.277 92.1326 126.734 92.3084 127.283C92.489 127.827 92.5793 128.463 92.5793 129.192ZM90.5048 130.874V129.179C90.5048 128.699 90.4692 128.291 90.3979 127.954C90.3266 127.612 90.2196 127.333 90.0771 127.116C89.9345 126.9 89.761 126.74 89.5566 126.639C89.3523 126.538 89.1146 126.487 88.8437 126.487C88.5728 126.487 88.3328 126.538 88.1237 126.639C87.9193 126.74 87.7459 126.9 87.6033 127.116C87.4654 127.333 87.3609 127.612 87.2896 127.954C87.2231 128.291 87.1898 128.699 87.1898 129.179V130.874C87.1898 131.335 87.2254 131.73 87.2967 132.057C87.368 132.385 87.4749 132.652 87.6175 132.86C87.7601 133.067 87.9336 133.222 88.138 133.323C88.3471 133.42 88.5871 133.469 88.858 133.469C89.1241 133.469 89.3594 133.42 89.5638 133.323C89.7729 133.222 89.9464 133.067 90.0842 132.86C90.222 132.652 90.3266 132.385 90.3979 132.057C90.4692 131.73 90.5048 131.335 90.5048 130.874Z" fill="black"/>
<path d="M101.355 124.937V135.012H99.3377L96.0797 128.708V135.012H94.0978V124.937H96.0868L99.3733 131.31V124.937H101.355Z" fill="black"/>
<path d="M110.11 124.937V135.012H108.035V124.937H110.11ZM112.69 124.937V126.618H105.504V124.937H112.69Z" fill="black"/>
<path d="M119.655 129.019V130.694H115.399V129.019H119.655ZM115.991 124.937V135.012H113.902V124.937H115.991ZM121.167 124.937V135.012H119.099V124.937H121.167Z" fill="black"/>
<path d="M128.823 133.337V135.012H124.311V133.337H128.823ZM124.959 124.937V135.012H122.871V124.937H124.959ZM128.217 129.019V130.646H124.311V129.019H128.217ZM128.809 124.937V126.618H124.311V124.937H128.809Z" fill="black"/>
<path d="M84.217 149.514V159.195C83.8827 159.55 83.392 159.964 82.7449 160.438C82.1086 160.9 81.2728 161.309 80.2375 161.664C79.213 162.008 77.962 162.18 76.4845 162.18C75.1796 162.18 73.9933 161.976 72.9256 161.567C71.8688 161.158 70.9575 160.54 70.1918 159.711C69.4368 158.872 68.8599 157.829 68.4608 156.581C68.0618 155.323 67.8623 153.833 67.8623 152.112V148.11C67.8623 146.411 68.051 144.932 68.4285 143.673C68.8167 142.404 69.3775 141.35 70.1109 140.51C70.8442 139.671 71.7178 139.048 72.7315 138.639C73.756 138.23 74.91 138.026 76.1933 138.026C77.962 138.026 79.4125 138.321 80.5449 138.913C81.688 139.505 82.5508 140.381 83.1332 141.543C83.7263 142.705 84.0822 144.13 84.2008 145.819H79.6228C79.5473 144.829 79.3802 144.055 79.1213 143.495C78.8733 142.936 78.5228 142.538 78.0698 142.301C77.6169 142.054 77.0291 141.93 76.3066 141.93C75.6811 141.93 75.1365 142.043 74.6727 142.269C74.209 142.484 73.8207 142.839 73.508 143.334C73.1952 143.829 72.9634 144.464 72.8124 145.238C72.6614 146.013 72.5859 146.959 72.5859 148.078V152.112C72.5859 153.22 72.6722 154.166 72.8447 154.952C73.0173 155.737 73.2707 156.377 73.6051 156.872C73.9502 157.366 74.3815 157.727 74.8992 157.953C75.4276 158.168 76.0477 158.275 76.7595 158.275C77.3311 158.275 77.7894 158.216 78.1346 158.098C78.4797 157.98 78.7547 157.856 78.9596 157.727C79.1753 157.587 79.3532 157.479 79.4934 157.404V153.08H76.1125V149.514H84.217Z" fill="black"/>
<path d="M96.1555 142.56L91.0921 161.857H86.0935L93.454 138.364H96.5761L96.1555 142.56ZM100.151 161.857L95.0555 142.56L94.5863 138.364H97.757L105.182 161.857H100.151ZM100.329 153.096V157.017H89.7009V153.096H100.329Z" fill="black"/>
<path d="M109.113 138.364H113.27L118.075 154.435L122.863 138.364H126.535L119.838 161.857H116.296L109.113 138.364ZM107.431 138.364H111.394L112.009 153.854V161.857H107.431V138.364ZM124.724 138.364H128.703V161.857H124.141V153.854L124.724 138.364Z" fill="black"/>
<path d="M146.077 157.953V161.857H135.837V157.953H146.077ZM137.309 138.364V161.857H132.569V138.364H137.309ZM144.702 147.884V151.676H135.837V147.884H144.702ZM146.045 138.364V142.285H135.837V138.364H146.045Z" fill="black"/>
<path d="M90.089 66.1463L93.2296 49.4592H95.3054L95.9255 52.0472L92.5557 69.0848H90.3047L90.089 66.1463ZM89.0107 49.4592L91.5448 66.1868L91.1134 69.0848H88.6333L85.1152 49.4592H89.0107ZM98.2034 66.1194L100.724 49.4592H104.606L101.115 69.0848H98.6213L98.2034 66.1194ZM96.5051 49.4592L99.6727 66.2407L99.4165 69.0848H97.1655L93.8092 52.0203L94.4428 49.4592H96.5051Z" fill="black"/>
<path d="M110.887 49.4592V69.0848H106.965V49.4592H110.887Z" fill="black"/>
<path d="M127.979 49.4592V69.0848H124.164L118.004 56.8053V69.0848H114.257V49.4592H118.018L124.232 61.8735V49.4592H127.979Z" fill="black"/>
<path d="M70.0817 71V79.4233H65.8213V71H70.0817ZM69.4852 117.314V125H65.2249V117.314H69.4852ZM71.0757 107.983C71.0757 106.943 70.9337 106.055 70.6497 105.317C70.3657 104.58 69.9207 103.918 69.3148 103.332C68.7089 102.746 67.8947 102.188 66.8722 101.659C64.7893 100.713 62.9527 99.7017 61.3621 98.624C59.7716 97.5462 58.5314 96.2132 57.6414 94.625C56.7704 93.0179 56.3349 90.9758 56.3349 88.499C56.3349 86.1544 56.8083 84.1218 57.755 82.4013C58.7207 80.6807 60.0556 79.3477 61.7598 78.4023C63.4828 77.4569 65.4615 76.9842 67.6959 76.9842C69.4 76.9842 70.9527 77.2868 72.3538 77.8918C73.755 78.4779 74.9574 79.3477 75.9609 80.5011C76.9645 81.6355 77.7314 83.0347 78.2615 84.6985C78.8107 86.3435 79.0852 88.2248 79.0852 90.3424H71.1325C71.1325 89.2269 71.0473 88.2437 70.8769 87.3929C70.7065 86.542 70.4604 85.833 70.1385 85.2658C69.8166 84.6985 69.4379 84.2731 69.0024 83.9895C68.5669 83.7059 68.0935 83.5641 67.5822 83.5641C66.8249 83.5641 66.2 83.7815 65.7077 84.2164C65.2154 84.6513 64.8556 85.2468 64.6284 86.0032C64.4012 86.7405 64.2876 87.5725 64.2876 88.499C64.2876 89.4443 64.4201 90.2668 64.6852 90.9664C64.9692 91.666 65.4237 92.3088 66.0485 92.895C66.6923 93.4811 67.5349 94.0767 68.5763 94.6817C70.6402 95.646 72.458 96.6859 74.0296 97.8015C75.6012 98.8981 76.8225 100.25 77.6935 101.857C78.5834 103.445 79.0284 105.468 79.0284 107.926C79.0284 110.384 78.5361 112.474 77.5515 114.194C76.5669 115.915 75.1941 117.229 73.4331 118.137C71.6911 119.025 69.6462 119.47 67.2982 119.47C65.8024 119.47 64.3254 119.243 62.8675 118.789C61.4284 118.316 60.1124 117.56 58.9195 116.52C57.7266 115.461 56.7704 114.071 56.0509 112.351C55.3503 110.611 55 108.456 55 105.884H62.9527C62.9527 107.246 63.0663 108.38 63.2935 109.288C63.5396 110.176 63.871 110.886 64.2876 111.415C64.7041 111.944 65.168 112.322 65.6793 112.549C66.1905 112.776 66.7396 112.89 67.3266 112.89C68.1787 112.89 68.8793 112.672 69.4284 112.237C69.9775 111.803 70.3846 111.216 70.6497 110.479C70.9337 109.742 71.0757 108.91 71.0757 107.983Z" fill="black"/>
<path d="M100.374 77.4947V118.874H92.4218V87.2511L84.526 90.2857V83.6492L99.5224 77.4947H100.374Z" fill="black"/>
<path d="M131.32 94.5966V101.772C131.32 104.873 131.027 107.539 130.44 109.77C129.853 112.001 129.029 113.835 127.969 115.272C126.908 116.69 125.649 117.739 124.191 118.42C122.733 119.101 121.124 119.441 119.363 119.441C117.962 119.441 116.646 119.224 115.415 118.789C114.184 118.354 113.067 117.692 112.063 116.804C111.079 115.896 110.227 114.752 109.507 113.372C108.807 111.973 108.267 110.318 107.888 108.409C107.51 106.48 107.32 104.268 107.32 101.772V94.5966C107.32 91.4958 107.614 88.8393 108.201 86.6271C108.807 84.396 109.64 82.5714 110.7 81.1534C111.76 79.7353 113.02 78.6954 114.478 78.0336C115.955 77.3529 117.573 77.0126 119.334 77.0126C120.717 77.0126 122.023 77.23 123.254 77.6649C124.504 78.0809 125.611 78.7332 126.577 79.6218C127.562 80.5105 128.404 81.6544 129.105 83.0536C129.824 84.4338 130.373 86.0882 130.752 88.0168C131.131 89.9265 131.32 92.1197 131.32 94.5966ZM123.339 102.878V93.4338C123.339 91.9779 123.273 90.7017 123.14 89.605C123.027 88.5084 122.866 87.5819 122.657 86.8256C122.449 86.0693 122.175 85.4548 121.834 84.9821C121.493 84.5095 121.114 84.1691 120.698 83.9611C120.281 83.7342 119.817 83.6208 119.306 83.6208C118.7 83.6208 118.151 83.791 117.659 84.1313C117.166 84.4716 116.74 85.0294 116.381 85.8046C116.021 86.5609 115.746 87.5725 115.557 88.8393C115.386 90.0872 115.301 91.6187 115.301 93.4338V102.878C115.301 104.334 115.358 105.62 115.472 106.735C115.604 107.851 115.784 108.806 116.011 109.6C116.257 110.375 116.532 110.999 116.835 111.472C117.157 111.944 117.526 112.294 117.943 112.521C118.378 112.729 118.852 112.833 119.363 112.833C119.969 112.833 120.518 112.663 121.01 112.322C121.521 111.963 121.947 111.396 122.288 110.621C122.629 109.846 122.885 108.825 123.055 107.558C123.244 106.272 123.339 104.712 123.339 102.878Z" fill="black"/>
<path d="M159 94.5966V101.772C159 104.873 158.707 107.539 158.12 109.77C157.533 112.001 156.709 113.835 155.649 115.272C154.588 116.69 153.329 117.739 151.871 118.42C150.413 119.101 148.804 119.441 147.043 119.441C145.641 119.441 144.325 119.224 143.095 118.789C141.864 118.354 140.747 117.692 139.743 116.804C138.759 115.896 137.907 114.752 137.187 113.372C136.486 111.973 135.947 110.318 135.568 108.409C135.189 106.48 135 104.268 135 101.772V94.5966C135 91.4958 135.293 88.8393 135.88 86.6271C136.486 84.396 137.32 82.5714 138.38 81.1534C139.44 79.7353 140.699 78.6954 142.157 78.0336C143.634 77.3529 145.253 77.0126 147.014 77.0126C148.396 77.0126 149.703 77.23 150.934 77.6649C152.183 78.0809 153.291 78.7332 154.257 79.6218C155.241 80.5105 156.084 81.6544 156.785 83.0536C157.504 84.4338 158.053 86.0882 158.432 88.0168C158.811 89.9265 159 92.1197 159 94.5966ZM151.019 102.878V93.4338C151.019 91.9779 150.953 90.7017 150.82 89.605C150.707 88.5084 150.546 87.5819 150.337 86.8256C150.129 86.0693 149.854 85.4548 149.514 84.9821C149.173 84.5095 148.794 84.1691 148.378 83.9611C147.961 83.7342 147.497 83.6208 146.986 83.6208C146.38 83.6208 145.831 83.791 145.338 84.1313C144.846 84.4716 144.42 85.0294 144.06 85.8046C143.701 86.5609 143.426 87.5725 143.237 88.8393C143.066 90.0872 142.981 91.6187 142.981 93.4338V102.878C142.981 104.334 143.038 105.62 143.151 106.735C143.284 107.851 143.464 108.806 143.691 109.6C143.937 110.375 144.212 110.999 144.515 111.472C144.837 111.944 145.206 112.294 145.622 112.521C146.058 112.729 146.531 112.833 147.043 112.833C147.649 112.833 148.198 112.663 148.69 112.322C149.201 111.963 149.627 111.396 149.968 110.621C150.309 109.846 150.564 108.825 150.735 107.558C150.924 106.272 151.019 104.712 151.019 102.878Z" fill="black"/>
</svg>
