<svg width="215" height="215" viewBox="0 0 215 215" fill="none" xmlns="http://www.w3.org/2000/svg">
<path d="M195.937 107.249C195.937 116.105 181.892 122.612 179.3 130.605C176.605 138.873 184.051 152.389 179.024 159.276C173.962 166.233 158.777 163.316 151.814 168.373C144.921 173.379 143.038 188.742 134.746 191.435C126.765 194.025 116.226 182.787 107.364 182.787C98.5014 182.787 87.9805 194.025 79.9818 191.435C71.7067 188.742 69.8064 173.397 62.9134 168.373C55.9512 163.316 40.7658 166.233 35.704 159.276C30.694 152.389 38.1226 138.89 35.4276 130.605C32.8362 122.63 18.791 116.105 18.791 107.249C18.791 98.394 32.8362 91.8863 35.4276 83.8941C38.1226 75.6257 30.6767 62.1097 35.704 55.2222C40.7658 48.2657 55.9512 51.1829 62.9134 46.1252C69.8064 41.1193 71.6894 25.7563 79.9818 23.0634C87.9632 20.4742 98.5014 31.7116 107.364 31.7116C116.226 31.7116 126.765 20.4742 134.763 23.0634C143.038 25.7563 144.939 41.102 151.832 46.1252C158.794 51.1829 173.979 48.2657 179.041 55.2222C184.051 62.1097 176.623 75.6084 179.318 83.8941C181.909 91.8691 195.954 98.394 195.954 107.249H195.937Z" stroke="white" stroke-width="1.93494" stroke-linecap="round" stroke-linejoin="round"/>
<path d="M159.759 35.9282C166.869 41.1868 163.798 56.358 168.678 63.1924C173.74 70.265 188.982 72.2989 191.559 80.4342C194.154 88.6428 182.823 99.1417 182.769 107.753C182.714 116.273 193.953 126.919 191.212 135.183C188.562 143.153 173.32 144.967 168.075 152.094C162.83 159.222 165.626 174.375 158.827 179.267C151.773 184.343 138.304 176.739 130.208 179.322C122.02 181.924 115.386 195.886 106.796 195.831C98.2982 195.776 91.8469 181.777 83.6046 179.029C75.6546 176.372 62.1123 183.811 54.9848 178.571C47.8755 173.312 50.9459 158.141 46.0662 151.307C41.0039 144.234 25.7619 142.2 23.185 134.065C20.5899 125.856 31.9208 115.357 31.9757 106.746C32.0305 98.2256 20.7909 87.58 23.5323 79.3165C26.1823 71.3461 41.4242 69.5321 46.6693 62.4046C51.9145 55.277 49.1183 40.1241 55.9169 35.2319C62.9713 30.1565 76.4405 37.7604 84.5366 35.1769C92.7242 32.5751 99.3582 18.6132 107.948 18.6681C116.446 18.7231 122.897 32.7217 131.14 35.4701C139.09 38.1269 152.632 30.6879 159.759 35.9282Z" stroke="white" stroke-width="0.967471" stroke-linecap="round" stroke-linejoin="round"/>
<path d="M144.139 177.996C183.14 157.693 198.298 109.618 177.996 70.6172C157.693 31.6163 109.618 16.4583 70.6173 36.7609C31.6165 57.0635 16.4585 105.138 36.7611 144.139C57.0636 183.14 105.139 198.298 144.139 177.996Z" stroke="white" stroke-width="0.967471" stroke-linecap="round" stroke-linejoin="round"/>
<path d="M107.378 181.985C148.583 181.985 181.986 148.582 181.986 107.378C181.986 66.1737 148.583 32.771 107.378 32.771C66.1742 32.771 32.7715 66.1737 32.7715 107.378C32.7715 148.582 66.1742 181.985 107.378 181.985Z" stroke="white" stroke-width="3.86988" stroke-linejoin="round"/>
<path d="M107.387 176.852C145.757 176.852 176.862 145.747 176.862 107.377C176.862 69.0066 145.757 37.9014 107.387 37.9014C69.0163 37.9014 37.9111 69.0066 37.9111 107.377C37.9111 145.747 69.0163 176.852 107.387 176.852Z" fill="#FFD42E" stroke="#FFD42E" stroke-width="0.483736" stroke-linecap="round" stroke-linejoin="round"/>
<path d="M82.6564 67.4076V75.2585C82.386 75.5464 81.9891 75.8822 81.4657 76.266C80.951 76.6411 80.275 76.9726 79.4376 77.2605C78.6089 77.5396 77.597 77.6792 76.4019 77.6792C75.3464 77.6792 74.3869 77.5134 73.5233 77.1819C72.6684 76.8505 71.9313 76.3489 71.3119 75.6772C70.7013 74.9968 70.2346 74.1506 69.9119 73.1388C69.5891 72.1181 69.4277 70.91 69.4277 69.5143V66.2693C69.4277 64.891 69.5804 63.6916 69.8857 62.671C70.1997 61.6416 70.6533 60.7868 71.2465 60.1064C71.8397 59.426 72.5463 58.92 73.3662 58.5885C74.1949 58.257 75.1283 58.0913 76.1664 58.0913C77.597 58.0913 78.7702 58.3312 79.6862 58.811C80.6108 59.2907 81.3087 60.0017 81.7797 60.9438C82.2595 61.8859 82.5474 63.0417 82.6433 64.4112H78.9403C78.8793 63.6087 78.7441 62.9806 78.5347 62.527C78.3341 62.0734 78.0506 61.7507 77.6842 61.5588C77.3178 61.3581 76.8424 61.2578 76.258 61.2578C75.752 61.2578 75.3115 61.3494 74.9364 61.5326C74.5613 61.7071 74.2473 61.9949 73.9943 62.3962C73.7413 62.7975 73.5538 63.3121 73.4317 63.9402C73.3095 64.5683 73.2485 65.3359 73.2485 66.2431V69.5143C73.2485 70.4128 73.3183 71.1804 73.4578 71.8172C73.5974 72.454 73.8024 72.973 74.0728 73.3743C74.352 73.7755 74.7009 74.0678 75.1196 74.251C75.547 74.4254 76.0486 74.5127 76.6243 74.5127C77.0867 74.5127 77.4574 74.4647 77.7365 74.3687C78.0157 74.2728 78.2381 74.1725 78.4039 74.0678C78.5783 73.9544 78.7223 73.8671 78.8357 73.8061V70.2994H76.101V67.4076H82.6564Z" fill="black"/>
<path d="M92.3129 61.7681L88.2174 77.4175H84.1742L90.1278 58.3661H92.6531L92.3129 61.7681ZM95.5449 77.4175L91.4232 61.7681L91.0437 58.3661H93.6083L99.6142 77.4175H95.5449ZM95.6888 70.3125V73.492H87.0921V70.3125H95.6888Z" fill="black"/>
<path d="M114.753 58.3661V77.4175H111.05L105.071 65.4973V77.4175H101.433V58.3661H105.084L111.116 70.4171V58.3661H114.753Z" fill="black"/>
<path d="M124.972 61.7681L120.877 77.4175H116.834L122.787 58.3661H125.313L124.972 61.7681ZM128.204 77.4175L124.083 61.7681L123.703 58.3661H126.268L132.274 77.4175H128.204ZM128.348 70.3125V73.492H119.752V70.3125H128.348Z" fill="black"/>
<path d="M134.106 58.3661H140.216C141.49 58.3661 142.576 58.5842 143.474 59.0203C144.373 59.4565 145.062 60.102 145.542 60.9569C146.021 61.8117 146.261 62.8672 146.261 64.1234C146.261 65.1527 146.122 66.0337 145.843 66.7665C145.563 67.4905 145.167 68.0968 144.652 68.5853C144.137 69.065 143.522 69.4489 142.807 69.7367L141.642 70.4302H136.683L136.67 67.2506H140.111C140.635 67.2506 141.067 67.1372 141.407 66.9104C141.756 66.6749 142.013 66.3478 142.179 65.9291C142.353 65.5016 142.441 65.0044 142.441 64.4374C142.441 63.8355 142.362 63.3208 142.205 62.8934C142.057 62.4572 141.817 62.1258 141.485 61.899C141.163 61.6634 140.74 61.5457 140.216 61.5457H137.939V77.4175H134.106V58.3661ZM142.755 77.4175L139.261 68.9255L143.278 68.9124L146.85 77.2343V77.4175H142.755Z" fill="black"/>
<path d="M72.601 155.339V157.252H67.5969V155.339H72.601ZM68.3163 145.742V157.252H66V145.742H68.3163ZM71.929 150.406V152.264H67.5969V150.406H71.929ZM72.5852 145.742V147.663H67.5969V145.742H72.5852Z" fill="black"/>
<path d="M82.0005 145.742V157.252H79.7632L76.1505 150.05V157.252H73.9528V145.742H76.1584L79.8028 153.023V145.742H82.0005Z" fill="black"/>
<path d="M94.1984 155.339V157.252H89.1943V155.339H94.1984ZM89.9137 145.742V157.252H87.5975V145.742H89.9137ZM93.5265 150.406V152.264H89.1943V150.406H93.5265ZM94.1826 145.742V147.663H89.1943V145.742H94.1826Z" fill="black"/>
<path d="M101.938 155.339V157.252H97.155V155.339H101.938ZM97.8665 145.742V157.252H95.5502V145.742H97.8665Z" fill="black"/>
<path d="M110.816 153.702V145.742H113.124V153.71C113.124 154.474 112.976 155.136 112.681 155.695C112.391 156.248 111.996 156.672 111.495 156.967C110.995 157.262 110.431 157.41 109.804 157.41C109.161 157.41 108.586 157.284 108.08 157.031C107.58 156.772 107.184 156.382 106.894 155.861C106.605 155.334 106.46 154.664 106.46 153.853H108.784C108.784 154.264 108.826 154.588 108.91 154.825C108.995 155.062 109.113 155.233 109.266 155.339C109.424 155.444 109.603 155.497 109.804 155.497C110.02 155.497 110.202 155.426 110.349 155.283C110.502 155.141 110.618 154.938 110.697 154.675C110.776 154.406 110.816 154.082 110.816 153.702Z" fill="black"/>
<path d="M120.136 145.742H122.444V153.647C122.444 154.532 122.281 155.254 121.954 155.813C121.633 156.367 121.187 156.772 120.618 157.031C120.049 157.284 119.398 157.41 118.666 157.41C117.928 157.41 117.272 157.284 116.697 157.031C116.123 156.772 115.675 156.367 115.353 155.813C115.037 155.254 114.879 154.532 114.879 153.647V145.742H117.187V153.647C117.187 154.148 117.243 154.532 117.353 154.801C117.469 155.07 117.635 155.254 117.851 155.355C118.073 155.449 118.344 155.497 118.666 155.497C118.992 155.497 119.261 155.449 119.472 155.355C119.688 155.254 119.851 155.07 119.962 154.801C120.078 154.532 120.136 154.148 120.136 153.647V145.742Z" fill="black"/>
<path d="M130.816 155.339V157.252H125.812V155.339H130.816ZM126.531 145.742V157.252H124.215V145.742H126.531ZM130.144 150.406V152.264H125.812V150.406H130.144ZM130.8 145.742V147.663H125.812V145.742H130.8Z" fill="black"/>
<path d="M139.986 151.204V155.948C139.823 156.121 139.583 156.324 139.267 156.556C138.956 156.783 138.548 156.983 138.042 157.157C137.541 157.326 136.93 157.41 136.208 157.41C135.57 157.41 134.99 157.31 134.468 157.11C133.952 156.909 133.507 156.606 133.132 156.2C132.763 155.789 132.481 155.278 132.286 154.667C132.091 154.05 131.994 153.32 131.994 152.477V150.517C131.994 149.684 132.086 148.959 132.271 148.343C132.46 147.721 132.734 147.204 133.093 146.793C133.451 146.382 133.878 146.076 134.373 145.876C134.874 145.676 135.438 145.576 136.065 145.576C136.93 145.576 137.638 145.721 138.192 146.01C138.75 146.3 139.172 146.73 139.457 147.299C139.746 147.868 139.92 148.567 139.978 149.394H137.741C137.704 148.909 137.623 148.53 137.496 148.256C137.375 147.982 137.204 147.787 136.982 147.671C136.761 147.549 136.474 147.489 136.121 147.489C135.815 147.489 135.549 147.544 135.322 147.655C135.096 147.76 134.906 147.934 134.753 148.177C134.6 148.419 134.487 148.73 134.413 149.109C134.339 149.489 134.302 149.953 134.302 150.501V152.477C134.302 153.02 134.344 153.484 134.429 153.868C134.513 154.253 134.637 154.567 134.8 154.809C134.969 155.052 135.18 155.228 135.433 155.339C135.691 155.444 135.994 155.497 136.342 155.497C136.621 155.497 136.845 155.468 137.014 155.41C137.183 155.352 137.317 155.291 137.417 155.228C137.522 155.16 137.609 155.107 137.678 155.07V152.951H136.026V151.204H139.986Z" fill="black"/>
<path d="M149.742 150.603V152.524C149.742 153.336 149.641 154.048 149.441 154.659C149.246 155.265 148.967 155.774 148.603 156.185C148.245 156.59 147.81 156.896 147.299 157.102C146.793 157.307 146.232 157.41 145.615 157.41C144.998 157.41 144.434 157.307 143.923 157.102C143.417 156.896 142.98 156.59 142.611 156.185C142.247 155.774 141.965 155.265 141.765 154.659C141.565 154.048 141.465 153.336 141.465 152.524V150.603C141.465 149.771 141.562 149.044 141.757 148.422C141.952 147.794 142.234 147.273 142.603 146.856C142.972 146.435 143.409 146.119 143.915 145.908C144.421 145.692 144.982 145.584 145.599 145.584C146.216 145.584 146.777 145.692 147.283 145.908C147.789 146.119 148.226 146.435 148.595 146.856C148.964 147.273 149.246 147.794 149.441 148.422C149.641 149.044 149.742 149.771 149.742 150.603ZM147.441 152.524V150.588C147.441 150.04 147.402 149.573 147.322 149.188C147.243 148.798 147.125 148.48 146.967 148.232C146.809 147.984 146.616 147.802 146.39 147.686C146.163 147.57 145.9 147.512 145.599 147.512C145.299 147.512 145.033 147.57 144.801 147.686C144.574 147.802 144.382 147.984 144.224 148.232C144.071 148.48 143.955 148.798 143.876 149.188C143.802 149.573 143.765 150.04 143.765 150.588V152.524C143.765 153.052 143.805 153.502 143.884 153.876C143.963 154.251 144.081 154.556 144.239 154.793C144.397 155.03 144.59 155.207 144.816 155.323C145.048 155.434 145.315 155.489 145.615 155.489C145.91 155.489 146.171 155.434 146.398 155.323C146.629 155.207 146.822 155.03 146.975 154.793C147.127 154.556 147.243 154.251 147.322 153.876C147.402 153.502 147.441 153.052 147.441 152.524Z" fill="black"/>
<path d="M71.0817 83V91.4233H66.8213V83H71.0817ZM70.4852 129.314V137H66.2249V129.314H70.4852ZM72.0757 119.983C72.0757 118.943 71.9337 118.055 71.6497 117.317C71.3657 116.58 70.9207 115.918 70.3148 115.332C69.7089 114.746 68.8947 114.188 67.8722 113.659C65.7893 112.713 63.9527 111.702 62.3621 110.624C60.7716 109.546 59.5314 108.213 58.6414 106.625C57.7704 105.018 57.3349 102.976 57.3349 100.499C57.3349 98.1544 57.8083 96.1218 58.755 94.4013C59.7207 92.6807 61.0556 91.3477 62.7598 90.4023C64.4828 89.4569 66.4615 88.9842 68.6959 88.9842C70.4 88.9842 71.9527 89.2868 73.3538 89.8918C74.755 90.4779 75.9574 91.3477 76.9609 92.5011C77.9645 93.6355 78.7314 95.0347 79.2615 96.6985C79.8107 98.3435 80.0852 100.225 80.0852 102.342H72.1325C72.1325 101.227 72.0473 100.244 71.8769 99.3929C71.7065 98.542 71.4604 97.833 71.1385 97.2658C70.8166 96.6985 70.4379 96.2731 70.0024 95.9895C69.5669 95.7059 69.0935 95.5641 68.5822 95.5641C67.8249 95.5641 67.2 95.7815 66.7077 96.2164C66.2154 96.6513 65.8556 97.2468 65.6284 98.0032C65.4012 98.7405 65.2876 99.5725 65.2876 100.499C65.2876 101.444 65.4201 102.267 65.6852 102.966C65.9692 103.666 66.4237 104.309 67.0485 104.895C67.6923 105.481 68.5349 106.077 69.5763 106.682C71.6402 107.646 73.458 108.686 75.0296 109.801C76.6012 110.898 77.8225 112.25 78.6935 113.857C79.5834 115.445 80.0284 117.468 80.0284 119.926C80.0284 122.384 79.5361 124.474 78.5515 126.194C77.5669 127.915 76.1941 129.229 74.4331 130.137C72.6911 131.025 70.6462 131.47 68.2982 131.47C66.8024 131.47 65.3254 131.243 63.8675 130.789C62.4284 130.316 61.1124 129.56 59.9195 128.52C58.7266 127.461 57.7704 126.071 57.0509 124.351C56.3503 122.611 56 120.456 56 117.884H63.9527C63.9527 119.246 64.0663 120.38 64.2935 121.288C64.5396 122.176 64.871 122.886 65.2876 123.415C65.7041 123.944 66.168 124.322 66.6793 124.549C67.1905 124.776 67.7396 124.89 68.3266 124.89C69.1787 124.89 69.8793 124.672 70.4284 124.237C70.9775 123.803 71.3846 123.216 71.6497 122.479C71.9337 121.742 72.0757 120.91 72.0757 119.983Z" fill="black"/>
<path d="M101.374 89.4947V130.874H93.4218V99.2511L85.526 102.286V95.6492L100.522 89.4947H101.374Z" fill="black"/>
<path d="M132.32 106.597V113.772C132.32 116.873 132.027 119.539 131.44 121.77C130.853 124.001 130.029 125.835 128.969 127.272C127.908 128.69 126.649 129.739 125.191 130.42C123.733 131.101 122.124 131.441 120.363 131.441C118.962 131.441 117.646 131.224 116.415 130.789C115.184 130.354 114.067 129.692 113.063 128.804C112.079 127.896 111.227 126.752 110.507 125.372C109.807 123.973 109.267 122.318 108.888 120.409C108.51 118.48 108.32 116.268 108.32 113.772V106.597C108.32 103.496 108.614 100.839 109.201 98.6271C109.807 96.396 110.64 94.5714 111.7 93.1534C112.76 91.7353 114.02 90.6954 115.478 90.0336C116.955 89.3529 118.573 89.0126 120.334 89.0126C121.717 89.0126 123.023 89.23 124.254 89.6649C125.504 90.0809 126.611 90.7332 127.577 91.6218C128.562 92.5105 129.404 93.6544 130.105 95.0536C130.824 96.4338 131.373 98.0882 131.752 100.017C132.131 101.926 132.32 104.12 132.32 106.597ZM124.339 114.878V105.434C124.339 103.978 124.273 102.702 124.14 101.605C124.027 100.508 123.866 99.5819 123.657 98.8256C123.449 98.0693 123.175 97.4548 122.834 96.9821C122.493 96.5095 122.114 96.1691 121.698 95.9611C121.281 95.7342 120.817 95.6208 120.306 95.6208C119.7 95.6208 119.151 95.791 118.659 96.1313C118.166 96.4716 117.74 97.0294 117.381 97.8046C117.021 98.5609 116.746 99.5725 116.557 100.839C116.386 102.087 116.301 103.619 116.301 105.434V114.878C116.301 116.334 116.358 117.62 116.472 118.735C116.604 119.851 116.784 120.806 117.011 121.6C117.257 122.375 117.532 122.999 117.835 123.472C118.157 123.944 118.526 124.294 118.943 124.521C119.378 124.729 119.852 124.833 120.363 124.833C120.969 124.833 121.518 124.663 122.01 124.322C122.521 123.963 122.947 123.396 123.288 122.621C123.629 121.846 123.885 120.825 124.055 119.558C124.244 118.272 124.339 116.712 124.339 114.878Z" fill="black"/>
<path d="M160 106.597V113.772C160 116.873 159.707 119.539 159.12 121.77C158.533 124.001 157.709 125.835 156.649 127.272C155.588 128.69 154.329 129.739 152.871 130.42C151.413 131.101 149.804 131.441 148.043 131.441C146.641 131.441 145.325 131.224 144.095 130.789C142.864 130.354 141.747 129.692 140.743 128.804C139.759 127.896 138.907 126.752 138.187 125.372C137.486 123.973 136.947 122.318 136.568 120.409C136.189 118.48 136 116.268 136 113.772V106.597C136 103.496 136.293 100.839 136.88 98.6271C137.486 96.396 138.32 94.5714 139.38 93.1534C140.44 91.7353 141.699 90.6954 143.157 90.0336C144.634 89.3529 146.253 89.0126 148.014 89.0126C149.396 89.0126 150.703 89.23 151.934 89.6649C153.183 90.0809 154.291 90.7332 155.257 91.6218C156.241 92.5105 157.084 93.6544 157.785 95.0536C158.504 96.4338 159.053 98.0882 159.432 100.017C159.811 101.926 160 104.12 160 106.597ZM152.019 114.878V105.434C152.019 103.978 151.953 102.702 151.82 101.605C151.707 100.508 151.546 99.5819 151.337 98.8256C151.129 98.0693 150.854 97.4548 150.514 96.9821C150.173 96.5095 149.794 96.1691 149.378 95.9611C148.961 95.7342 148.497 95.6208 147.986 95.6208C147.38 95.6208 146.831 95.791 146.338 96.1313C145.846 96.4716 145.42 97.0294 145.06 97.8046C144.701 98.5609 144.426 99.5725 144.237 100.839C144.066 102.087 143.981 103.619 143.981 105.434V114.878C143.981 116.334 144.038 117.62 144.151 118.735C144.284 119.851 144.464 120.806 144.691 121.6C144.937 122.375 145.212 122.999 145.515 123.472C145.837 123.944 146.206 124.294 146.622 124.521C147.058 124.729 147.531 124.833 148.043 124.833C148.649 124.833 149.198 124.663 149.69 124.322C150.201 123.963 150.627 123.396 150.968 122.621C151.309 121.846 151.564 120.825 151.735 119.558C151.924 118.272 152.019 116.712 152.019 114.878Z" fill="black"/>
</svg>
