<svg width="215" height="215" viewBox="0 0 215 215" fill="none" xmlns="http://www.w3.org/2000/svg">
<path d="M195.937 107.25C195.937 116.105 181.892 122.613 179.3 130.605C176.605 138.873 184.051 152.389 179.024 159.277C173.962 166.233 158.777 163.316 151.814 168.374C144.921 173.38 143.038 188.743 134.746 191.435C126.765 194.025 116.226 182.787 107.364 182.787C98.5014 182.787 87.9805 194.025 79.9818 191.435C71.7067 188.743 69.8064 173.397 62.9134 168.374C55.9512 163.316 40.7658 166.233 35.704 159.277C30.694 152.389 38.1226 138.891 35.4276 130.605C32.8362 122.63 18.791 116.105 18.791 107.25C18.791 98.3943 32.8362 91.8866 35.4276 83.8943C38.1226 75.6259 30.6767 62.1099 35.704 55.2225C40.7658 48.2659 55.9512 51.1832 62.9134 46.1255C69.8064 41.1195 71.6894 25.7565 79.9818 23.0637C87.9632 20.4744 98.5014 31.7119 107.364 31.7119C116.226 31.7119 126.765 20.4744 134.763 23.0637C143.038 25.7565 144.939 41.1023 151.832 46.1255C158.794 51.1832 173.979 48.2659 179.041 55.2225C184.051 62.1099 176.623 75.6087 179.318 83.8943C181.909 91.8693 195.954 98.3943 195.954 107.25H195.937Z" stroke="white" stroke-width="1.93494" stroke-linecap="round" stroke-linejoin="round"/>
<path d="M159.759 35.9282C166.869 41.1868 163.798 56.358 168.678 63.1924C173.74 70.265 188.982 72.2989 191.559 80.4342C194.154 88.6428 182.823 99.1417 182.769 107.753C182.714 116.273 193.953 126.919 191.212 135.183C188.562 143.153 173.32 144.967 168.075 152.094C162.83 159.222 165.626 174.375 158.827 179.267C151.773 184.343 138.304 176.739 130.208 179.322C122.02 181.924 115.386 195.886 106.796 195.831C98.2982 195.776 91.8469 181.777 83.6046 179.029C75.6546 176.372 62.1123 183.811 54.9848 178.571C47.8755 173.312 50.9459 158.141 46.0662 151.307C41.0039 144.234 25.7619 142.2 23.185 134.065C20.5899 125.856 31.9208 115.357 31.9757 106.746C32.0305 98.2256 20.7909 87.58 23.5323 79.3165C26.1823 71.3461 41.4242 69.5321 46.6693 62.4046C51.9145 55.277 49.1183 40.1241 55.9169 35.2319C62.9713 30.1565 76.4405 37.7604 84.5366 35.1769C92.7242 32.5751 99.3582 18.6132 107.948 18.6681C116.446 18.7231 122.897 32.7217 131.14 35.4701C139.09 38.1269 152.632 30.6879 159.759 35.9282Z" stroke="white" stroke-width="0.967471" stroke-linecap="round" stroke-linejoin="round"/>
<path d="M144.139 177.996C183.14 157.693 198.298 109.618 177.996 70.6172C157.693 31.6163 109.618 16.4583 70.6173 36.7609C31.6165 57.0635 16.4585 105.138 36.7611 144.139C57.0636 183.14 105.139 198.298 144.139 177.996Z" stroke="white" stroke-width="0.967471" stroke-linecap="round" stroke-linejoin="round"/>
<path d="M107.378 181.985C148.583 181.985 181.986 148.582 181.986 107.378C181.986 66.1737 148.583 32.771 107.378 32.771C66.1742 32.771 32.7715 66.1737 32.7715 107.378C32.7715 148.582 66.1742 181.985 107.378 181.985Z" stroke="white" stroke-width="3.86988" stroke-linejoin="round"/>
<path d="M107.387 176.852C145.757 176.852 176.862 145.747 176.862 107.377C176.862 69.0066 145.757 37.9014 107.387 37.9014C69.0163 37.9014 37.9111 69.0066 37.9111 107.377C37.9111 145.747 69.0163 176.852 107.387 176.852Z" fill="#FFD42E" stroke="#FFD42E" stroke-width="0.483736" stroke-linecap="round" stroke-linejoin="round"/>
<path d="M77.3709 82.6978V91.9885H72.5558V82.6978H77.3709ZM76.6968 133.781V142.259H71.8816V133.781H76.6968ZM78.4945 123.489C78.4945 122.342 78.334 121.362 78.013 120.549C77.6919 119.736 77.189 119.006 76.5042 118.359C75.8194 117.713 74.8991 117.098 73.7435 116.514C71.3894 115.471 69.3135 114.355 67.5159 113.166C65.7182 111.978 64.3164 110.507 63.3106 108.756C62.3262 106.983 61.834 104.731 61.834 101.999C61.834 99.4128 62.369 97.1709 63.439 95.2731C64.5305 93.3753 66.0392 91.9051 67.9653 90.8624C69.9128 89.8196 72.1491 89.2983 74.6744 89.2983C76.6005 89.2983 78.3554 89.6319 79.939 90.2993C81.5227 90.9458 82.8816 91.9051 84.0159 93.1772C85.1501 94.4285 86.0169 95.9717 86.6161 97.807C87.2367 99.6213 87.547 101.696 87.547 104.032H78.5587C78.5587 102.802 78.4624 101.717 78.2698 100.779C78.0772 99.8403 77.7989 99.0582 77.4351 98.4326C77.0713 97.807 76.6433 97.3377 76.1511 97.0249C75.6589 96.7121 75.1238 96.5557 74.546 96.5557C73.69 96.5557 72.9838 96.7955 72.4273 97.2752C71.8709 97.7548 71.4643 98.4117 71.2075 99.2459C70.9507 100.059 70.8223 100.977 70.8223 101.999C70.8223 103.041 70.9721 103.949 71.2717 104.72C71.5927 105.492 72.1063 106.201 72.8126 106.847C73.5402 107.494 74.4925 108.151 75.6696 108.818C78.0023 109.882 80.0567 111.029 81.833 112.259C83.6093 113.469 84.9896 114.96 85.974 116.733C86.9799 118.484 87.4828 120.716 87.4828 123.427C87.4828 126.138 86.9264 128.442 85.8135 130.34C84.7007 132.238 83.1491 133.687 81.1589 134.688C79.19 135.669 76.8787 136.159 74.225 136.159C72.5343 136.159 70.8651 135.908 69.2172 135.408C67.5908 134.887 66.1034 134.052 64.7552 132.905C63.4069 131.737 62.3262 130.205 61.5129 128.307C60.7211 126.388 60.3252 124.011 60.3252 121.175H69.3135C69.3135 122.676 69.4419 123.927 69.6987 124.928C69.977 125.909 70.3515 126.691 70.8223 127.275C71.2931 127.859 71.8174 128.276 72.3952 128.526C72.9731 128.776 73.5937 128.901 74.2571 128.901C75.2201 128.901 76.012 128.661 76.6326 128.182C77.2532 127.702 77.7133 127.056 78.013 126.242C78.334 125.429 78.4945 124.511 78.4945 123.489Z" fill="black"/>
<path d="M99.4566 128.401H99.906C101.96 128.401 103.715 128.109 105.171 127.525C106.647 126.941 107.846 126.086 108.766 124.96C109.708 123.813 110.392 122.405 110.82 120.737C111.248 119.068 111.462 117.171 111.462 115.043V106.253C111.462 104.626 111.345 103.219 111.109 102.03C110.874 100.82 110.542 99.8194 110.114 99.027C109.686 98.2136 109.205 97.6088 108.67 97.2126C108.135 96.8164 107.557 96.6182 106.936 96.6182C106.208 96.6182 105.566 96.8581 105.01 97.3377C104.454 97.8174 103.983 98.4743 103.598 99.3085C103.234 100.122 102.956 101.05 102.763 102.093C102.57 103.135 102.474 104.209 102.474 105.315C102.474 106.482 102.57 107.577 102.763 108.599C102.956 109.621 103.244 110.528 103.63 111.321C104.015 112.113 104.507 112.728 105.106 113.166C105.706 113.604 106.423 113.823 107.257 113.823C107.942 113.823 108.573 113.636 109.151 113.26C109.729 112.864 110.232 112.343 110.66 111.696C111.088 111.05 111.43 110.341 111.687 109.569C111.944 108.797 112.083 108.005 112.104 107.192L115.026 108.975C115.026 110.393 114.758 111.8 114.223 113.198C113.709 114.595 112.993 115.867 112.072 117.014C111.152 118.161 110.082 119.079 108.862 119.767C107.664 120.434 106.369 120.768 104.978 120.768C103.116 120.768 101.468 120.382 100.034 119.611C98.6005 118.839 97.3914 117.765 96.4069 116.388C95.4439 114.991 94.7163 113.365 94.2241 111.508C93.7318 109.632 93.4857 107.609 93.4857 105.44C93.4857 103.229 93.796 101.154 94.4167 99.2146C95.0587 97.2543 95.9682 95.5338 97.1453 94.0531C98.3223 92.5724 99.7455 91.415 101.415 90.5808C103.084 89.7258 104.946 89.2983 107 89.2983C109.033 89.2983 110.874 89.7362 112.522 90.6121C114.17 91.488 115.582 92.7497 116.759 94.3972C117.936 96.0239 118.835 97.9842 119.456 100.278C120.098 102.551 120.419 105.096 120.419 107.911V111.071C120.419 114.053 120.151 116.826 119.616 119.392C119.081 121.936 118.268 124.23 117.176 126.274C116.085 128.317 114.726 130.069 113.1 131.529C111.473 132.968 109.568 134.073 107.386 134.845C105.224 135.596 102.774 135.971 100.034 135.971H99.4566V128.401Z" fill="black"/>
<path d="M132.713 128.401H133.163C135.217 128.401 136.972 128.109 138.427 127.525C139.904 126.941 141.102 126.086 142.023 124.96C142.964 123.813 143.649 122.405 144.077 120.737C144.505 119.068 144.719 117.171 144.719 115.043V106.253C144.719 104.626 144.602 103.219 144.366 102.03C144.131 100.82 143.799 99.8194 143.371 99.027C142.943 98.2136 142.461 97.6088 141.926 97.2126C141.391 96.8164 140.814 96.6182 140.193 96.6182C139.465 96.6182 138.823 96.8581 138.267 97.3377C137.71 97.8174 137.24 98.4743 136.854 99.3085C136.491 100.122 136.212 101.05 136.02 102.093C135.827 103.135 135.731 104.209 135.731 105.315C135.731 106.482 135.827 107.577 136.02 108.599C136.212 109.621 136.501 110.528 136.887 111.321C137.272 112.113 137.764 112.728 138.363 113.166C138.962 113.604 139.679 113.823 140.514 113.823C141.199 113.823 141.83 113.636 142.408 113.26C142.986 112.864 143.489 112.343 143.917 111.696C144.345 111.05 144.687 110.341 144.944 109.569C145.201 108.797 145.34 108.005 145.361 107.192L148.282 108.975C148.282 110.393 148.015 111.8 147.48 113.198C146.966 114.595 146.249 115.867 145.329 117.014C144.409 118.161 143.339 119.079 142.119 119.767C140.921 120.434 139.626 120.768 138.235 120.768C136.373 120.768 134.725 120.382 133.291 119.611C131.857 118.839 130.648 117.765 129.664 116.388C128.701 114.991 127.973 113.365 127.481 111.508C126.989 109.632 126.743 107.609 126.743 105.44C126.743 103.229 127.053 101.154 127.674 99.2146C128.316 97.2543 129.225 95.5338 130.402 94.0531C131.579 92.5724 133.002 91.415 134.672 90.5808C136.341 89.7258 138.203 89.2983 140.257 89.2983C142.29 89.2983 144.131 89.7362 145.779 90.6121C147.426 91.488 148.839 92.7497 150.016 94.3972C151.193 96.0239 152.092 97.9842 152.712 100.278C153.354 102.551 153.675 105.096 153.675 107.911V111.071C153.675 114.053 153.408 116.826 152.873 119.392C152.338 121.936 151.525 124.23 150.433 126.274C149.342 128.317 147.983 130.069 146.356 131.529C144.73 132.968 142.825 134.073 140.642 134.845C138.481 135.596 136.031 135.971 133.291 135.971H132.713V128.401Z" fill="black"/>
<path d="M81.5156 65.5569V73.6106C81.2382 73.9059 80.8311 74.2504 80.2942 74.6441C79.7662 75.0289 79.0727 75.3689 78.2137 75.6642C77.3636 75.9506 76.3255 76.0938 75.0996 76.0938C74.0168 76.0938 73.0325 75.9237 72.1466 75.5837C71.2697 75.2436 70.5135 74.7291 69.8782 74.0401C69.2518 73.3421 68.773 72.4741 68.442 71.4361C68.1109 70.3891 67.9453 69.1498 67.9453 67.718V64.3892C67.9453 62.9753 68.1019 61.7449 68.4151 60.6979C68.7373 59.642 69.2026 58.7651 69.8111 58.0671C70.4196 57.3691 71.1444 56.8501 71.9855 56.5101C72.8356 56.17 73.7931 56 74.858 56C76.3255 56 77.5291 56.2461 78.4687 56.7382C79.4172 57.2304 80.1331 57.9597 80.6163 58.9261C81.1085 59.8926 81.4038 61.0782 81.5022 62.4832H77.7036C77.641 61.6599 77.5023 61.0156 77.2875 60.5503C77.0817 60.085 76.7909 59.7539 76.415 59.557C76.0392 59.3512 75.5515 59.2483 74.952 59.2483C74.4329 59.2483 73.981 59.3422 73.5963 59.5302C73.2115 59.7091 72.8893 60.0044 72.6298 60.4161C72.3703 60.8277 72.1779 61.3556 72.0527 61.9999C71.9274 62.6442 71.8647 63.4317 71.8647 64.3623V67.718C71.8647 68.6397 71.9363 69.4272 72.0795 70.0804C72.2227 70.7336 72.433 71.2661 72.7104 71.6777C72.9967 72.0893 73.3547 72.3891 73.7842 72.577C74.2227 72.756 74.7372 72.8455 75.3278 72.8455C75.8021 72.8455 76.1824 72.7962 76.4687 72.6978C76.7551 72.5994 76.9833 72.4965 77.1533 72.3891C77.3322 72.2728 77.4799 72.1833 77.5962 72.1206V68.5234H74.7909V65.5569H81.5156Z" fill="black"/>
<path d="M91.4216 59.7718L87.2203 75.8253H83.0727L89.18 56.2819H91.7706L91.4216 59.7718ZM94.737 75.8253L90.5088 59.7718L90.1196 56.2819H92.7504L98.9114 75.8253H94.737ZM94.8846 68.5368V71.7985H86.0659V68.5368H94.8846Z" fill="black"/>
<path d="M114.441 56.2819V75.8253H110.643L104.509 63.5972V75.8253H100.777V56.2819H104.522L110.71 68.6442V56.2819H114.441Z" fill="black"/>
<path d="M124.925 59.7718L120.723 75.8253H116.576L122.683 56.2819H125.274L124.925 59.7718ZM128.24 75.8253L124.012 59.7718L123.623 56.2819H126.253L132.414 75.8253H128.24ZM128.388 68.5368V71.7985H119.569V68.5368H128.388Z" fill="black"/>
<path d="M134.294 56.2819H140.562C141.868 56.2819 142.983 56.5056 143.904 56.953C144.826 57.4004 145.533 58.0626 146.025 58.9396C146.517 59.8165 146.763 60.8993 146.763 62.1879C146.763 63.2438 146.62 64.1476 146.334 64.8992C146.047 65.642 145.64 66.2639 145.112 66.765C144.584 67.2572 143.953 67.6509 143.22 67.9462L142.025 68.6576H136.938L136.924 65.3959H140.455C140.992 65.3959 141.434 65.2795 141.783 65.0469C142.141 64.8053 142.405 64.4697 142.575 64.0402C142.754 63.6017 142.844 63.0916 142.844 62.51C142.844 61.8926 142.763 61.3646 142.602 60.9261C142.45 60.4787 142.204 60.1387 141.864 59.906C141.533 59.6644 141.099 59.5436 140.562 59.5436H138.226V75.8253H134.294V56.2819ZM143.166 75.8253L139.582 67.114L143.703 67.1006L147.367 75.6374V75.8253H143.166Z" fill="black"/>
<path d="M71.1992 155.759V157.721H66.0659V155.759H71.1992ZM66.8038 145.914V157.721H64.4277V145.914H66.8038ZM70.5099 150.699V152.604H66.0659V150.699H70.5099ZM71.183 145.914V147.885H66.0659V145.914H71.183Z" fill="black"/>
<path d="M80.8414 145.914V157.721H78.5464L74.8404 150.334V157.721H72.5859V145.914H74.8485L78.587 153.383V145.914H80.8414Z" fill="black"/>
<path d="M93.3545 155.759V157.721H88.2211V155.759H93.3545ZM88.9591 145.914V157.721H86.583V145.914H88.9591ZM92.6651 150.699V152.604H88.2211V150.699H92.6651ZM93.3382 145.914V147.885H88.2211V145.914H93.3382Z" fill="black"/>
<path d="M101.294 155.759V157.721H96.3874V155.759H101.294ZM97.1173 145.914V157.721H94.7412V145.914H97.1173Z" fill="black"/>
<path d="M110.401 154.08V145.914H112.769V154.088C112.769 154.872 112.617 155.551 112.315 156.124C112.017 156.692 111.612 157.127 111.098 157.429C110.585 157.732 110.006 157.884 109.363 157.884C108.703 157.884 108.114 157.754 107.595 157.494C107.081 157.229 106.676 156.829 106.378 156.294C106.081 155.754 105.932 155.067 105.932 154.234H108.317C108.317 154.656 108.36 154.989 108.446 155.232C108.533 155.475 108.654 155.651 108.811 155.759C108.973 155.867 109.157 155.921 109.363 155.921C109.584 155.921 109.771 155.848 109.922 155.702C110.079 155.556 110.198 155.348 110.279 155.078C110.36 154.802 110.401 154.47 110.401 154.08Z" fill="black"/>
<path d="M119.962 145.914H122.33V154.023C122.33 154.932 122.162 155.672 121.827 156.246C121.497 156.813 121.04 157.229 120.457 157.494C119.873 157.754 119.205 157.884 118.453 157.884C117.697 157.884 117.023 157.754 116.434 157.494C115.845 157.229 115.385 156.813 115.056 156.246C114.731 155.672 114.569 154.932 114.569 154.023V145.914H116.937V154.023C116.937 154.537 116.994 154.932 117.107 155.207C117.226 155.483 117.397 155.672 117.618 155.775C117.845 155.872 118.124 155.921 118.453 155.921C118.789 155.921 119.064 155.872 119.281 155.775C119.502 155.672 119.67 155.483 119.783 155.207C119.902 154.932 119.962 154.537 119.962 154.023V145.914Z" fill="black"/>
<path d="M130.918 155.759V157.721H125.784V155.759H130.918ZM126.522 145.914V157.721H124.146V145.914H126.522ZM130.229 150.699V152.604H125.784V150.699H130.229ZM130.902 145.914V147.885H125.784V145.914H130.902Z" fill="black"/>
<path d="M140.325 151.518V156.383C140.157 156.562 139.911 156.77 139.587 157.008C139.268 157.24 138.849 157.446 138.33 157.624C137.816 157.797 137.189 157.884 136.449 157.884C135.794 157.884 135.2 157.781 134.664 157.575C134.135 157.37 133.678 157.059 133.294 156.643C132.915 156.221 132.626 155.697 132.426 155.07C132.226 154.437 132.126 153.688 132.126 152.823V150.812C132.126 149.958 132.221 149.215 132.41 148.582C132.605 147.944 132.886 147.414 133.253 146.993C133.621 146.571 134.059 146.257 134.567 146.052C135.081 145.846 135.659 145.744 136.303 145.744C137.189 145.744 137.916 145.892 138.484 146.19C139.057 146.487 139.49 146.928 139.782 147.512C140.079 148.095 140.257 148.812 140.317 149.661H138.022C137.984 149.163 137.9 148.774 137.77 148.493C137.646 148.212 137.47 148.012 137.243 147.893C137.016 147.768 136.722 147.706 136.359 147.706C136.046 147.706 135.773 147.763 135.54 147.876C135.308 147.985 135.113 148.163 134.956 148.412C134.8 148.66 134.683 148.979 134.608 149.369C134.532 149.758 134.494 150.234 134.494 150.796V152.823C134.494 153.38 134.537 153.856 134.624 154.251C134.71 154.645 134.837 154.967 135.005 155.216C135.178 155.464 135.394 155.645 135.654 155.759C135.919 155.867 136.23 155.921 136.586 155.921C136.873 155.921 137.103 155.891 137.276 155.832C137.449 155.772 137.587 155.71 137.689 155.645C137.797 155.575 137.887 155.521 137.957 155.483V153.31H136.262V151.518H140.325Z" fill="black"/>
<path d="M150.332 150.901V152.872C150.332 153.705 150.229 154.434 150.024 155.062C149.824 155.683 149.537 156.205 149.164 156.627C148.797 157.043 148.351 157.357 147.826 157.567C147.307 157.778 146.731 157.884 146.099 157.884C145.466 157.884 144.888 157.778 144.363 157.567C143.844 157.357 143.396 157.043 143.017 156.627C142.644 156.205 142.355 155.683 142.15 155.062C141.944 154.434 141.841 153.705 141.841 152.872V150.901C141.841 150.047 141.941 149.301 142.141 148.663C142.341 148.02 142.631 147.484 143.009 147.057C143.388 146.625 143.836 146.301 144.355 146.084C144.874 145.863 145.45 145.752 146.083 145.752C146.715 145.752 147.291 145.863 147.81 146.084C148.329 146.301 148.778 146.625 149.156 147.057C149.535 147.484 149.824 148.02 150.024 148.663C150.229 149.301 150.332 150.047 150.332 150.901ZM147.972 152.872V150.885C147.972 150.323 147.932 149.844 147.851 149.45C147.769 149.05 147.648 148.723 147.486 148.468C147.323 148.214 147.126 148.028 146.894 147.909C146.661 147.79 146.391 147.73 146.083 147.73C145.775 147.73 145.501 147.79 145.264 147.909C145.031 148.028 144.834 148.214 144.672 148.468C144.515 148.723 144.396 149.05 144.315 149.45C144.239 149.844 144.201 150.323 144.201 150.885V152.872C144.201 153.413 144.242 153.875 144.323 154.259C144.404 154.643 144.526 154.956 144.688 155.199C144.85 155.443 145.047 155.624 145.28 155.743C145.518 155.856 145.791 155.913 146.099 155.913C146.402 155.913 146.669 155.856 146.902 155.743C147.14 155.624 147.337 155.443 147.494 155.199C147.651 154.956 147.769 154.643 147.851 154.259C147.932 153.875 147.972 153.413 147.972 152.872Z" fill="black"/>
</svg>
