<svg width="215" height="215" viewBox="0 0 215 215" fill="none" xmlns="http://www.w3.org/2000/svg">
<path d="M195.937 107.249C195.937 116.105 181.892 122.612 179.3 130.605C176.605 138.873 184.051 152.389 179.024 159.276C173.962 166.233 158.777 163.316 151.814 168.373C144.921 173.379 143.038 188.742 134.746 191.435C126.765 194.025 116.226 182.787 107.364 182.787C98.5014 182.787 87.9805 194.025 79.9818 191.435C71.7067 188.742 69.8064 173.397 62.9134 168.373C55.9512 163.316 40.7658 166.233 35.704 159.276C30.694 152.389 38.1226 138.89 35.4276 130.605C32.8362 122.63 18.791 116.105 18.791 107.249C18.791 98.394 32.8362 91.8863 35.4276 83.8941C38.1226 75.6257 30.6767 62.1097 35.704 55.2222C40.7658 48.2657 55.9512 51.1829 62.9134 46.1252C69.8064 41.1193 71.6894 25.7563 79.9818 23.0634C87.9632 20.4742 98.5014 31.7116 107.364 31.7116C116.226 31.7116 126.765 20.4742 134.763 23.0634C143.038 25.7563 144.939 41.102 151.832 46.1252C158.794 51.1829 173.979 48.2657 179.041 55.2222C184.051 62.1097 176.623 75.6084 179.318 83.8941C181.909 91.8691 195.954 98.394 195.954 107.249H195.937Z" stroke="white" stroke-width="1.93494" stroke-linecap="round" stroke-linejoin="round"/>
<path d="M159.759 35.9282C166.869 41.1868 163.798 56.358 168.678 63.1924C173.74 70.265 188.982 72.2989 191.559 80.4342C194.154 88.6428 182.823 99.1417 182.769 107.753C182.714 116.273 193.953 126.919 191.212 135.183C188.562 143.153 173.32 144.967 168.075 152.094C162.83 159.222 165.626 174.375 158.827 179.267C151.773 184.343 138.304 176.739 130.208 179.322C122.02 181.924 115.386 195.886 106.796 195.831C98.2982 195.776 91.8469 181.777 83.6046 179.029C75.6546 176.372 62.1123 183.811 54.9848 178.571C47.8755 173.312 50.9459 158.141 46.0662 151.307C41.0039 144.234 25.7619 142.2 23.185 134.065C20.5899 125.856 31.9208 115.357 31.9757 106.746C32.0305 98.2256 20.7909 87.58 23.5323 79.3165C26.1823 71.3461 41.4242 69.5321 46.6693 62.4046C51.9145 55.277 49.1183 40.1241 55.9169 35.2319C62.9713 30.1565 76.4405 37.7604 84.5366 35.1769C92.7242 32.5751 99.3582 18.6132 107.948 18.6681C116.446 18.7231 122.897 32.7217 131.14 35.4701C139.09 38.1269 152.632 30.6879 159.759 35.9282Z" stroke="white" stroke-width="0.967471" stroke-linecap="round" stroke-linejoin="round"/>
<path d="M144.139 177.996C183.14 157.693 198.298 109.618 177.996 70.6172C157.693 31.6163 109.618 16.4583 70.6173 36.7609C31.6165 57.0635 16.4585 105.138 36.7611 144.139C57.0636 183.14 105.139 198.298 144.139 177.996Z" stroke="white" stroke-width="0.967471" stroke-linecap="round" stroke-linejoin="round"/>
<path d="M107.378 181.985C148.583 181.985 181.986 148.582 181.986 107.378C181.986 66.1737 148.583 32.771 107.378 32.771C66.1742 32.771 32.7715 66.1737 32.7715 107.378C32.7715 148.582 66.1742 181.985 107.378 181.985Z" stroke="white" stroke-width="3.86988" stroke-linejoin="round"/>
<path d="M107.387 176.852C145.757 176.852 176.862 145.747 176.862 107.377C176.862 69.0066 145.757 37.9014 107.387 37.9014C69.0163 37.9014 37.9111 69.0066 37.9111 107.377C37.9111 145.747 69.0163 176.852 107.387 176.852Z" fill="#FFD42E" stroke="#FFD42E" stroke-width="0.483736" stroke-linecap="round" stroke-linejoin="round"/>
<path d="M81.9236 63.5261V71.6421C81.644 71.9397 81.2337 72.2869 80.6927 72.6837C80.1606 73.0715 79.4617 73.4141 78.596 73.7117C77.7393 74.0003 76.6933 74.1446 75.4578 74.1446C74.3667 74.1446 73.3747 73.9732 72.4819 73.6306C71.5982 73.2879 70.8362 72.7694 70.1959 72.075C69.5647 71.3716 69.0822 70.4969 68.7485 69.4508C68.4149 68.3957 68.248 67.1467 68.248 65.7039V62.3492C68.248 60.9244 68.4059 59.6845 68.7215 58.6294C69.0461 57.5653 69.5151 56.6815 70.1283 55.9781C70.7415 55.2747 71.4719 54.7517 72.3196 54.409C73.1763 54.0664 74.1412 53.895 75.2143 53.895C76.6933 53.895 77.9062 54.143 78.853 54.639C79.8089 55.135 80.5303 55.8699 81.0173 56.8439C81.5133 57.8178 81.8109 59.0126 81.9101 60.4284H78.082C78.0189 59.5988 77.8791 58.9495 77.6627 58.4806C77.4553 58.0117 77.1622 57.678 76.7834 57.4796C76.4047 57.2722 75.9132 57.1685 75.309 57.1685C74.786 57.1685 74.3306 57.2632 73.9428 57.4526C73.555 57.6329 73.2304 57.9305 72.9689 58.3453C72.7074 58.7601 72.5135 59.2922 72.3872 59.9415C72.261 60.5908 72.1979 61.3843 72.1979 62.3222V65.7039C72.1979 66.6327 72.27 67.4263 72.4143 68.0846C72.5586 68.7429 72.7705 69.2795 73.05 69.6943C73.3386 70.1091 73.6993 70.4112 74.1322 70.6006C74.5741 70.7809 75.0926 70.8711 75.6878 70.8711C76.1657 70.8711 76.549 70.8215 76.8375 70.7223C77.1261 70.6231 77.3561 70.5194 77.5274 70.4112C77.7078 70.294 77.8566 70.2038 77.9738 70.1407V66.5155H75.1467V63.5261H81.9236Z" fill="black"/>
<path d="M91.9064 57.696L87.6725 73.874H83.4927L89.6474 54.1791H92.258L91.9064 57.696ZM95.2475 73.874L90.9865 57.696L90.5943 54.1791H93.2455L99.4543 73.874H95.2475ZM95.3963 66.529V69.816H86.5092V66.529H95.3963Z" fill="black"/>
<path d="M115.105 54.1791V73.874H111.277L105.095 61.5512V73.874H101.335V54.1791H105.108L111.344 66.6372V54.1791H115.105Z" fill="black"/>
<path d="M129.213 62.1599V65.4333H121.138V62.1599H129.213ZM122.26 54.1791V73.874H118.297V54.1791H122.26ZM132.081 54.1791V73.874H128.158V54.1791H132.081Z" fill="black"/>
<path d="M146.609 70.6006V73.874H138.046V70.6006H146.609ZM139.277 54.1791V73.874H135.314V54.1791H139.277ZM145.459 62.1599V65.3387H138.046V62.1599H145.459ZM146.582 54.1791V57.4661H138.046V54.1791H146.582Z" fill="black"/>
<path d="M67.9944 150.727H65.5945V148.78H67.9944C68.3272 148.78 68.5984 148.705 68.8078 148.555C69.0225 148.405 69.1782 148.2 69.2748 147.938C69.3715 147.671 69.4198 147.371 69.4198 147.04C69.4198 146.703 69.3688 146.391 69.2668 146.102C69.1701 145.808 69.0171 145.57 68.8078 145.389C68.6037 145.207 68.3326 145.116 67.9944 145.116H66.3515V154.84H64V143.168H67.9944C68.7836 143.168 69.4627 143.334 70.0318 143.665C70.6009 143.997 71.0358 144.454 71.3365 145.036C71.6425 145.613 71.7955 146.276 71.7955 147.024C71.7955 147.778 71.6425 148.432 71.3365 148.988C71.0358 149.538 70.6009 149.966 70.0318 150.271C69.4627 150.575 68.7836 150.727 67.9944 150.727Z" fill="black"/>
<path d="M76.1845 145.253L73.6638 154.84H71.1754L74.8396 143.168H76.3939L76.1845 145.253ZM78.1736 154.84L75.6369 145.253L75.4033 143.168H76.9817L80.6782 154.84H78.1736ZM78.2622 150.487V152.435H72.9713V150.487H78.2622Z" fill="black"/>
<path d="M81.8056 143.168H85.5664C86.3503 143.168 87.0187 143.302 87.5717 143.569C88.1247 143.836 88.5488 144.232 88.8441 144.756C89.1394 145.279 89.287 145.926 89.287 146.695C89.287 147.326 89.2011 147.866 89.0293 148.315C88.8575 148.758 88.6132 149.13 88.2965 149.429C87.9797 149.723 87.6012 149.958 87.161 150.134L86.4442 150.559H83.3921L83.384 148.611H85.502C85.8241 148.611 86.0899 148.542 86.2993 148.403C86.514 148.259 86.6724 148.058 86.7744 147.802C86.8818 147.54 86.9355 147.235 86.9355 146.888C86.9355 146.519 86.8872 146.204 86.7905 145.942C86.6993 145.675 86.5516 145.472 86.3476 145.333C86.149 145.188 85.8886 145.116 85.5664 145.116H84.1652V154.84H81.8056V143.168ZM87.1288 154.84L84.9786 149.637L87.4509 149.629L89.6494 154.727V154.84H87.1288Z" fill="black"/>
<path d="M95.1739 145.253L92.6532 154.84H90.1648L93.829 143.168H95.3833L95.1739 145.253ZM97.163 154.84L94.6263 145.253L94.3927 143.168H95.9712L99.6676 154.84H97.163ZM97.2516 150.487V152.435H91.9607V150.487H97.2516Z" fill="black"/>
<path d="M108.446 151.24V143.168H110.797V151.248C110.797 152.023 110.647 152.694 110.346 153.261C110.051 153.822 109.648 154.252 109.138 154.551C108.628 154.85 108.054 155 107.415 155C106.76 155 106.175 154.872 105.659 154.615C105.149 154.353 104.746 153.958 104.451 153.429C104.156 152.894 104.008 152.216 104.008 151.393H106.376C106.376 151.81 106.419 152.138 106.505 152.379C106.591 152.619 106.711 152.793 106.867 152.9C107.028 153.007 107.211 153.06 107.415 153.06C107.635 153.06 107.82 152.988 107.97 152.844C108.126 152.699 108.244 152.494 108.325 152.226C108.405 151.954 108.446 151.625 108.446 151.24Z" fill="black"/>
<path d="M120.912 148.098V150.046C120.912 150.869 120.81 151.591 120.606 152.21C120.407 152.825 120.123 153.341 119.752 153.758C119.387 154.169 118.944 154.479 118.423 154.687C117.908 154.896 117.336 155 116.708 155C116.08 155 115.506 154.896 114.985 154.687C114.469 154.479 114.024 154.169 113.648 153.758C113.277 153.341 112.99 152.825 112.786 152.21C112.582 151.591 112.48 150.869 112.48 150.046V148.098C112.48 147.254 112.58 146.516 112.778 145.886C112.977 145.25 113.264 144.721 113.64 144.299C114.016 143.871 114.461 143.55 114.977 143.337C115.492 143.118 116.064 143.008 116.692 143.008C117.32 143.008 117.892 143.118 118.407 143.337C118.923 143.55 119.368 143.871 119.744 144.299C120.12 144.721 120.407 145.25 120.606 145.886C120.81 146.516 120.912 147.254 120.912 148.098ZM118.568 150.046V148.082C118.568 147.526 118.528 147.053 118.448 146.663C118.367 146.268 118.246 145.945 118.085 145.693C117.924 145.442 117.728 145.258 117.497 145.14C117.266 145.023 116.998 144.964 116.692 144.964C116.386 144.964 116.115 145.023 115.879 145.14C115.648 145.258 115.452 145.442 115.291 145.693C115.135 145.945 115.017 146.268 114.936 146.663C114.861 147.053 114.824 147.526 114.824 148.082V150.046C114.824 150.58 114.864 151.037 114.944 151.417C115.025 151.796 115.146 152.106 115.307 152.347C115.468 152.587 115.664 152.766 115.895 152.884C116.131 152.996 116.402 153.052 116.708 153.052C117.009 153.052 117.275 152.996 117.505 152.884C117.742 152.766 117.938 152.587 118.093 152.347C118.249 152.106 118.367 151.796 118.448 151.417C118.528 151.037 118.568 150.58 118.568 150.046Z" fill="black"/>
<path d="M130.592 148.707V153.517C130.425 153.693 130.181 153.899 129.859 154.134C129.542 154.364 129.126 154.567 128.611 154.743C128.101 154.914 127.478 155 126.742 155C126.093 155 125.502 154.898 124.971 154.695C124.445 154.492 123.991 154.185 123.61 153.774C123.234 153.357 122.947 152.838 122.748 152.218C122.549 151.593 122.45 150.853 122.45 149.998V148.01C122.45 147.166 122.544 146.431 122.732 145.806C122.925 145.175 123.204 144.651 123.569 144.234C123.935 143.818 124.369 143.508 124.874 143.305C125.384 143.102 125.959 143 126.597 143C127.478 143 128.2 143.147 128.764 143.441C129.333 143.735 129.762 144.17 130.052 144.747C130.348 145.325 130.525 146.033 130.584 146.872H128.305C128.267 146.38 128.184 145.995 128.055 145.717C127.932 145.44 127.757 145.242 127.532 145.124C127.306 145.001 127.014 144.94 126.654 144.94C126.342 144.94 126.071 144.996 125.84 145.108C125.61 145.215 125.416 145.391 125.261 145.637C125.105 145.883 124.989 146.198 124.914 146.583C124.839 146.968 124.802 147.438 124.802 147.994V149.998C124.802 150.548 124.845 151.019 124.93 151.409C125.016 151.799 125.142 152.117 125.309 152.363C125.481 152.609 125.695 152.788 125.953 152.9C126.216 153.007 126.525 153.06 126.879 153.06C127.164 153.06 127.392 153.031 127.564 152.972C127.736 152.913 127.873 152.852 127.975 152.788C128.082 152.718 128.17 152.665 128.24 152.627V150.479H126.557V148.707H130.592Z" fill="black"/>
<path d="M136.535 145.253L134.014 154.84H131.526L135.19 143.168H136.744L136.535 145.253ZM138.524 154.84L135.987 145.253L135.754 143.168H137.332L141.029 154.84H138.524ZM138.613 150.487V152.435H133.322V150.487H138.613Z" fill="black"/>
<path d="M142.156 143.168H145.917C146.701 143.168 147.369 143.302 147.922 143.569C148.475 143.836 148.899 144.232 149.195 144.756C149.49 145.279 149.638 145.926 149.638 146.695C149.638 147.326 149.552 147.866 149.38 148.315C149.208 148.758 148.964 149.13 148.647 149.429C148.33 149.723 147.952 149.958 147.512 150.134L146.795 150.559H143.743L143.735 148.611H145.853C146.175 148.611 146.44 148.542 146.65 148.403C146.865 148.259 147.023 148.058 147.125 147.802C147.232 147.54 147.286 147.235 147.286 146.888C147.286 146.519 147.238 146.204 147.141 145.942C147.05 145.675 146.902 145.472 146.698 145.333C146.5 145.188 146.239 145.116 145.917 145.116H144.516V154.84H142.156V143.168ZM147.479 154.84L145.329 149.637L147.801 149.629L150 154.727V154.84H147.479Z" fill="black"/>
<path d="M70.0817 80V88.4233H65.8213V80H70.0817ZM69.4852 126.314V134H65.2249V126.314H69.4852ZM71.0757 116.983C71.0757 115.943 70.9337 115.055 70.6497 114.317C70.3657 113.58 69.9207 112.918 69.3148 112.332C68.7089 111.746 67.8947 111.188 66.8722 110.659C64.7893 109.713 62.9527 108.702 61.3621 107.624C59.7716 106.546 58.5314 105.213 57.6414 103.625C56.7704 102.018 56.3349 99.9758 56.3349 97.499C56.3349 95.1544 56.8083 93.1218 57.755 91.4013C58.7207 89.6807 60.0556 88.3477 61.7598 87.4023C63.4828 86.4569 65.4615 85.9842 67.6959 85.9842C69.4 85.9842 70.9527 86.2868 72.3538 86.8918C73.755 87.4779 74.9574 88.3477 75.9609 89.5011C76.9645 90.6355 77.7314 92.0347 78.2615 93.6985C78.8107 95.3435 79.0852 97.2248 79.0852 99.3424H71.1325C71.1325 98.2269 71.0473 97.2437 70.8769 96.3929C70.7065 95.542 70.4604 94.833 70.1385 94.2658C69.8166 93.6985 69.4379 93.2731 69.0024 92.9895C68.5669 92.7059 68.0935 92.5641 67.5822 92.5641C66.8249 92.5641 66.2 92.7815 65.7077 93.2164C65.2154 93.6513 64.8556 94.2468 64.6284 95.0032C64.4012 95.7405 64.2876 96.5725 64.2876 97.499C64.2876 98.4443 64.4201 99.2668 64.6852 99.9664C64.9692 100.666 65.4237 101.309 66.0485 101.895C66.6923 102.481 67.5349 103.077 68.5763 103.682C70.6402 104.646 72.458 105.686 74.0296 106.801C75.6012 107.898 76.8225 109.25 77.6935 110.857C78.5834 112.445 79.0284 114.468 79.0284 116.926C79.0284 119.384 78.5361 121.474 77.5515 123.194C76.5669 124.915 75.1941 126.229 73.4331 127.137C71.6911 128.025 69.6462 128.47 67.2982 128.47C65.8024 128.47 64.3254 128.243 62.8675 127.789C61.4284 127.316 60.1124 126.56 58.9195 125.52C57.7266 124.461 56.7704 123.071 56.0509 121.351C55.3503 119.611 55 117.456 55 114.884H62.9527C62.9527 116.246 63.0663 117.38 63.2935 118.288C63.5396 119.176 63.871 119.886 64.2876 120.415C64.7041 120.944 65.168 121.322 65.6793 121.549C66.1905 121.776 66.7396 121.89 67.3266 121.89C68.1787 121.89 68.8793 121.672 69.4284 121.237C69.9775 120.803 70.3846 120.216 70.6497 119.479C70.9337 118.742 71.0757 117.91 71.0757 116.983Z" fill="black"/>
<path d="M100.374 86.4947V127.874H92.4218V96.2511L84.526 99.2857V92.6492L99.5224 86.4947H100.374Z" fill="black"/>
<path d="M131.32 103.597V110.772C131.32 113.873 131.027 116.539 130.44 118.77C129.853 121.001 129.029 122.835 127.969 124.272C126.908 125.69 125.649 126.739 124.191 127.42C122.733 128.101 121.124 128.441 119.363 128.441C117.962 128.441 116.646 128.224 115.415 127.789C114.184 127.354 113.067 126.692 112.063 125.804C111.079 124.896 110.227 123.752 109.507 122.372C108.807 120.973 108.267 119.318 107.888 117.409C107.51 115.48 107.32 113.268 107.32 110.772V103.597C107.32 100.496 107.614 97.8393 108.201 95.6271C108.807 93.396 109.64 91.5714 110.7 90.1534C111.76 88.7353 113.02 87.6954 114.478 87.0336C115.955 86.3529 117.573 86.0126 119.334 86.0126C120.717 86.0126 122.023 86.23 123.254 86.6649C124.504 87.0809 125.611 87.7332 126.577 88.6218C127.562 89.5105 128.404 90.6544 129.105 92.0536C129.824 93.4338 130.373 95.0882 130.752 97.0168C131.131 98.9265 131.32 101.12 131.32 103.597ZM123.339 111.878V102.434C123.339 100.978 123.273 99.7017 123.14 98.605C123.027 97.5084 122.866 96.5819 122.657 95.8256C122.449 95.0693 122.175 94.4548 121.834 93.9821C121.493 93.5095 121.114 93.1691 120.698 92.9611C120.281 92.7342 119.817 92.6208 119.306 92.6208C118.7 92.6208 118.151 92.791 117.659 93.1313C117.166 93.4716 116.74 94.0294 116.381 94.8046C116.021 95.5609 115.746 96.5725 115.557 97.8393C115.386 99.0872 115.301 100.619 115.301 102.434V111.878C115.301 113.334 115.358 114.62 115.472 115.735C115.604 116.851 115.784 117.806 116.011 118.6C116.257 119.375 116.532 119.999 116.835 120.472C117.157 120.944 117.526 121.294 117.943 121.521C118.378 121.729 118.852 121.833 119.363 121.833C119.969 121.833 120.518 121.663 121.01 121.322C121.521 120.963 121.947 120.396 122.288 119.621C122.629 118.846 122.885 117.825 123.055 116.558C123.244 115.272 123.339 113.712 123.339 111.878Z" fill="black"/>
<path d="M159 103.597V110.772C159 113.873 158.707 116.539 158.12 118.77C157.533 121.001 156.709 122.835 155.649 124.272C154.588 125.69 153.329 126.739 151.871 127.42C150.413 128.101 148.804 128.441 147.043 128.441C145.641 128.441 144.325 128.224 143.095 127.789C141.864 127.354 140.747 126.692 139.743 125.804C138.759 124.896 137.907 123.752 137.187 122.372C136.486 120.973 135.947 119.318 135.568 117.409C135.189 115.48 135 113.268 135 110.772V103.597C135 100.496 135.293 97.8393 135.88 95.6271C136.486 93.396 137.32 91.5714 138.38 90.1534C139.44 88.7353 140.699 87.6954 142.157 87.0336C143.634 86.3529 145.253 86.0126 147.014 86.0126C148.396 86.0126 149.703 86.23 150.934 86.6649C152.183 87.0809 153.291 87.7332 154.257 88.6218C155.241 89.5105 156.084 90.6544 156.785 92.0536C157.504 93.4338 158.053 95.0882 158.432 97.0168C158.811 98.9265 159 101.12 159 103.597ZM151.019 111.878V102.434C151.019 100.978 150.953 99.7017 150.82 98.605C150.707 97.5084 150.546 96.5819 150.337 95.8256C150.129 95.0693 149.854 94.4548 149.514 93.9821C149.173 93.5095 148.794 93.1691 148.378 92.9611C147.961 92.7342 147.497 92.6208 146.986 92.6208C146.38 92.6208 145.831 92.791 145.338 93.1313C144.846 93.4716 144.42 94.0294 144.06 94.8046C143.701 95.5609 143.426 96.5725 143.237 97.8393C143.066 99.0872 142.981 100.619 142.981 102.434V111.878C142.981 113.334 143.038 114.62 143.151 115.735C143.284 116.851 143.464 117.806 143.691 118.6C143.937 119.375 144.212 119.999 144.515 120.472C144.837 120.944 145.206 121.294 145.622 121.521C146.058 121.729 146.531 121.833 147.043 121.833C147.649 121.833 148.198 121.663 148.69 121.322C149.201 120.963 149.627 120.396 149.968 119.621C150.309 118.846 150.564 117.825 150.735 116.558C150.924 115.272 151.019 113.712 151.019 111.878Z" fill="black"/>
</svg>
