<svg width="215" height="215" viewBox="0 0 215 215" fill="none" xmlns="http://www.w3.org/2000/svg">
<path d="M195.937 107.249C195.937 116.105 181.892 122.612 179.3 130.605C176.605 138.873 184.051 152.389 179.024 159.276C173.962 166.233 158.777 163.316 151.814 168.373C144.921 173.379 143.038 188.742 134.746 191.435C126.765 194.025 116.226 182.787 107.364 182.787C98.5014 182.787 87.9805 194.025 79.9818 191.435C71.7067 188.742 69.8064 173.397 62.9134 168.373C55.9512 163.316 40.7658 166.233 35.704 159.276C30.694 152.389 38.1226 138.89 35.4276 130.605C32.8362 122.63 18.791 116.105 18.791 107.249C18.791 98.394 32.8362 91.8863 35.4276 83.8941C38.1226 75.6257 30.6767 62.1097 35.704 55.2222C40.7658 48.2657 55.9512 51.1829 62.9134 46.1252C69.8064 41.1193 71.6894 25.7563 79.9818 23.0634C87.9632 20.4742 98.5014 31.7116 107.364 31.7116C116.226 31.7116 126.765 20.4742 134.763 23.0634C143.038 25.7563 144.939 41.102 151.832 46.1252C158.794 51.1829 173.979 48.2657 179.041 55.2222C184.051 62.1097 176.623 75.6084 179.318 83.8941C181.909 91.8691 195.954 98.394 195.954 107.249H195.937Z" stroke="white" stroke-width="1.93494" stroke-linecap="round" stroke-linejoin="round"/>
<path d="M159.759 35.9282C166.869 41.1868 163.798 56.358 168.678 63.1924C173.74 70.265 188.982 72.2989 191.559 80.4342C194.154 88.6428 182.823 99.1417 182.769 107.753C182.714 116.273 193.953 126.919 191.212 135.183C188.562 143.153 173.32 144.967 168.075 152.094C162.83 159.222 165.626 174.375 158.827 179.267C151.773 184.343 138.304 176.739 130.208 179.322C122.02 181.924 115.386 195.886 106.796 195.831C98.2982 195.776 91.8469 181.777 83.6046 179.029C75.6546 176.372 62.1123 183.811 54.9848 178.571C47.8755 173.312 50.9459 158.141 46.0662 151.307C41.0039 144.234 25.7619 142.2 23.185 134.065C20.5899 125.856 31.9208 115.357 31.9757 106.746C32.0305 98.2256 20.7909 87.58 23.5323 79.3165C26.1823 71.3461 41.4242 69.5321 46.6693 62.4046C51.9145 55.277 49.1183 40.1241 55.9169 35.2319C62.9713 30.1565 76.4405 37.7604 84.5366 35.1769C92.7242 32.5751 99.3582 18.6132 107.948 18.6681C116.446 18.7231 122.897 32.7217 131.14 35.4701C139.09 38.1269 152.632 30.6879 159.759 35.9282Z" stroke="white" stroke-width="0.967471" stroke-linecap="round" stroke-linejoin="round"/>
<path d="M144.139 177.996C183.14 157.693 198.298 109.618 177.996 70.6172C157.693 31.6163 109.618 16.4583 70.6173 36.7609C31.6165 57.0635 16.4585 105.138 36.7611 144.139C57.0636 183.14 105.139 198.298 144.139 177.996Z" stroke="white" stroke-width="0.967471" stroke-linecap="round" stroke-linejoin="round"/>
<path d="M107.378 181.985C148.583 181.985 181.986 148.582 181.986 107.378C181.986 66.1737 148.583 32.771 107.378 32.771C66.1742 32.771 32.7715 66.1737 32.7715 107.378C32.7715 148.582 66.1742 181.985 107.378 181.985Z" stroke="white" stroke-width="3.86988" stroke-linejoin="round"/>
<path d="M107.387 176.852C145.757 176.852 176.862 145.747 176.862 107.377C176.862 69.0066 145.757 37.9014 107.387 37.9014C69.0163 37.9014 37.9111 69.0066 37.9111 107.377C37.9111 145.747 69.0163 176.852 107.387 176.852Z" fill="#FFD42E" stroke="#FFD42E" stroke-width="0.483736" stroke-linecap="round" stroke-linejoin="round"/>
<path d="M77.2013 78.4912V87.854H72.3488V78.4912H77.2013ZM76.522 129.971V138.514H71.6695V129.971H76.522ZM78.3336 119.599C78.3336 118.443 78.1719 117.456 77.8483 116.636C77.5248 115.816 77.018 115.081 76.3279 114.429C75.6378 113.778 74.7104 113.158 73.5458 112.569C71.1734 111.518 69.0815 110.394 67.2699 109.196C65.4583 107.998 64.0456 106.517 63.032 104.751C62.0399 102.965 61.5439 100.695 61.5439 97.9419C61.5439 95.3358 62.0831 93.0766 63.1614 91.1641C64.2613 89.2516 65.7818 87.7699 67.7228 86.7191C69.6853 85.6683 71.9391 85.1429 74.4839 85.1429C76.4249 85.1429 78.1934 85.4792 79.7894 86.1517C81.3853 86.8032 82.7548 87.7699 83.8978 89.0519C85.0409 90.3129 85.9143 91.8681 86.5182 93.7176C87.1436 95.546 87.4563 97.6371 87.4563 99.991H78.3983C78.3983 98.751 78.3013 97.6581 78.1072 96.7124C77.913 95.7667 77.6327 94.9786 77.266 94.3481C76.8994 93.7176 76.4681 93.2447 75.972 92.9295C75.476 92.6142 74.9368 92.4566 74.3545 92.4566C73.4919 92.4566 72.7802 92.6983 72.2194 93.1817C71.6587 93.665 71.2489 94.327 70.9901 95.1677C70.7313 95.9873 70.6019 96.9121 70.6019 97.9419C70.6019 98.9927 70.7529 99.9069 71.0548 100.684C71.3783 101.462 71.8959 102.177 72.6076 102.828C73.3409 103.48 74.3006 104.142 75.4868 104.814C77.8376 105.886 79.908 107.042 81.698 108.282C83.4881 109.501 84.8791 111.004 85.8712 112.79C86.8848 114.555 87.3916 116.804 87.3916 119.536C87.3916 122.268 86.8309 124.591 85.7094 126.503C84.588 128.416 83.0244 129.876 81.0187 130.885C79.0345 131.873 76.7053 132.367 74.031 132.367C72.3273 132.367 70.6451 132.114 68.9844 131.61C67.3453 131.085 65.8465 130.244 64.4878 129.088C63.129 127.911 62.0399 126.367 61.2204 124.454C60.4224 122.521 60.0234 120.125 60.0234 117.266H69.0815C69.0815 118.78 69.2109 120.041 69.4697 121.049C69.75 122.037 70.1275 122.825 70.6019 123.414C71.0764 124.002 71.6048 124.422 72.1871 124.675C72.7694 124.927 73.3948 125.053 74.0634 125.053C75.0339 125.053 75.8319 124.811 76.4573 124.328C77.0827 123.845 77.5464 123.193 77.8483 122.373C78.1719 121.554 78.3336 120.629 78.3336 119.599Z" fill="black"/>
<path d="M99.4582 124.549H99.9111C101.982 124.549 103.75 124.254 105.217 123.666C106.705 123.077 107.912 122.216 108.84 121.081C109.789 119.925 110.479 118.506 110.91 116.825C111.341 115.144 111.557 113.231 111.557 111.088V102.229C111.557 100.59 111.439 99.1713 111.201 97.9734C110.964 96.7544 110.63 95.7456 110.198 94.947C109.767 94.1274 109.282 93.5179 108.743 93.1186C108.204 92.7193 107.621 92.5196 106.996 92.5196C106.263 92.5196 105.616 92.7613 105.055 93.2447C104.494 93.7281 104.02 94.3901 103.631 95.2307C103.265 96.0504 102.984 96.9856 102.79 98.0364C102.596 99.0873 102.499 100.17 102.499 101.283C102.499 102.46 102.596 103.564 102.79 104.594C102.984 105.623 103.276 106.538 103.664 107.336C104.052 108.135 104.548 108.755 105.152 109.196C105.756 109.637 106.478 109.858 107.319 109.858C108.009 109.858 108.646 109.669 109.228 109.291C109.81 108.891 110.317 108.366 110.748 107.714C111.18 107.063 111.525 106.348 111.784 105.571C112.042 104.793 112.183 103.995 112.204 103.175L115.148 104.972C115.148 106.401 114.878 107.82 114.339 109.228C113.822 110.636 113.099 111.918 112.172 113.074C111.244 114.23 110.166 115.154 108.937 115.848C107.729 116.52 106.424 116.857 105.022 116.857C103.146 116.857 101.485 116.468 100.041 115.69C98.5956 114.913 97.377 113.83 96.385 112.443C95.4145 111.035 94.6812 109.396 94.1852 107.525C93.6891 105.634 93.4411 103.595 93.4411 101.41C93.4411 99.1818 93.7538 97.0907 94.3793 95.1362C95.0263 93.1606 95.9428 91.4268 97.129 89.9346C98.3152 88.4425 99.7494 87.2761 101.432 86.4354C103.114 85.5737 104.99 85.1429 107.06 85.1429C109.109 85.1429 110.964 85.5842 112.625 86.4669C114.285 87.3496 115.709 88.6211 116.895 90.2814C118.081 91.9207 118.987 93.8962 119.612 96.208C120.259 98.4988 120.583 101.063 120.583 103.9V107.084C120.583 110.089 120.313 112.884 119.774 115.47C119.235 118.034 118.415 120.345 117.315 122.405C116.216 124.465 114.846 126.23 113.207 127.701C111.568 129.151 109.649 130.265 107.449 131.043C105.27 131.799 102.801 132.178 100.041 132.178H99.4582V124.549Z" fill="black"/>
<path d="M132.973 124.549H133.426C135.496 124.549 137.265 124.254 138.731 123.666C140.219 123.077 141.427 122.216 142.354 121.081C143.303 119.925 143.994 118.506 144.425 116.825C144.856 115.144 145.072 113.231 145.072 111.088V102.229C145.072 100.59 144.953 99.1713 144.716 97.9734C144.479 96.7544 144.145 95.7456 143.713 94.947C143.282 94.1274 142.797 93.5179 142.257 93.1186C141.718 92.7193 141.136 92.5196 140.511 92.5196C139.777 92.5196 139.13 92.7613 138.57 93.2447C138.009 93.7281 137.534 94.3901 137.146 95.2307C136.779 96.0504 136.499 96.9856 136.305 98.0364C136.111 99.0873 136.014 100.17 136.014 101.283C136.014 102.46 136.111 103.564 136.305 104.594C136.499 105.623 136.79 106.538 137.178 107.336C137.567 108.135 138.063 108.755 138.667 109.196C139.27 109.637 139.993 109.858 140.834 109.858C141.524 109.858 142.16 109.669 142.743 109.291C143.325 108.891 143.832 108.366 144.263 107.714C144.694 107.063 145.04 106.348 145.298 105.571C145.557 104.793 145.697 103.995 145.719 103.175L148.663 104.972C148.663 106.401 148.393 107.82 147.854 109.228C147.336 110.636 146.614 111.918 145.687 113.074C144.759 114.23 143.681 115.154 142.452 115.848C141.244 116.52 139.939 116.857 138.537 116.857C136.661 116.857 135 116.468 133.555 115.69C132.11 114.913 130.892 113.83 129.9 112.443C128.929 111.035 128.196 109.396 127.7 107.525C127.204 105.634 126.956 103.595 126.956 101.41C126.956 99.1818 127.269 97.0907 127.894 95.1362C128.541 93.1606 129.458 91.4268 130.644 89.9346C131.83 88.4425 133.264 87.2761 134.946 86.4354C136.629 85.5737 138.505 85.1429 140.575 85.1429C142.624 85.1429 144.479 85.5842 146.139 86.4669C147.8 87.3496 149.223 88.6211 150.41 90.2814C151.596 91.9207 152.502 93.8962 153.127 96.208C153.774 98.4988 154.098 101.063 154.098 103.9V107.084C154.098 110.089 153.828 112.884 153.289 115.47C152.75 118.034 151.93 120.345 150.83 122.405C149.73 124.465 148.361 126.23 146.722 127.701C145.083 129.151 143.163 130.265 140.963 131.043C138.785 131.799 136.316 132.178 133.555 132.178H132.973V124.549Z" fill="black"/>
<path d="M81.9236 63.5261V71.6421C81.644 71.9397 81.2337 72.2869 80.6927 72.6837C80.1606 73.0715 79.4617 73.4141 78.596 73.7117C77.7393 74.0003 76.6933 74.1446 75.4578 74.1446C74.3667 74.1446 73.3747 73.9732 72.4819 73.6306C71.5982 73.2879 70.8362 72.7694 70.1959 72.075C69.5647 71.3716 69.0822 70.4969 68.7485 69.4508C68.4149 68.3957 68.248 67.1467 68.248 65.7039V62.3492C68.248 60.9244 68.4059 59.6845 68.7215 58.6294C69.0461 57.5653 69.5151 56.6815 70.1283 55.9781C70.7415 55.2747 71.4719 54.7517 72.3196 54.409C73.1763 54.0664 74.1412 53.895 75.2143 53.895C76.6933 53.895 77.9062 54.143 78.853 54.639C79.8089 55.135 80.5303 55.8699 81.0173 56.8439C81.5133 57.8178 81.8109 59.0126 81.9101 60.4284H78.082C78.0189 59.5988 77.8791 58.9495 77.6627 58.4806C77.4553 58.0117 77.1622 57.678 76.7834 57.4796C76.4047 57.2722 75.9132 57.1685 75.309 57.1685C74.786 57.1685 74.3306 57.2632 73.9428 57.4526C73.555 57.6329 73.2304 57.9305 72.9689 58.3453C72.7074 58.7601 72.5135 59.2922 72.3872 59.9415C72.261 60.5908 72.1979 61.3843 72.1979 62.3222V65.7039C72.1979 66.6327 72.27 67.4263 72.4143 68.0846C72.5586 68.7429 72.7705 69.2795 73.05 69.6943C73.3386 70.1091 73.6993 70.4112 74.1322 70.6006C74.5741 70.7809 75.0926 70.8711 75.6878 70.8711C76.1657 70.8711 76.549 70.8215 76.8375 70.7223C77.1261 70.6231 77.3561 70.5194 77.5274 70.4112C77.7078 70.294 77.8566 70.2038 77.9738 70.1407V66.5155H75.1467V63.5261H81.9236Z" fill="black"/>
<path d="M91.9064 57.696L87.6725 73.874H83.4927L89.6474 54.1791H92.258L91.9064 57.696ZM95.2475 73.874L90.9865 57.696L90.5943 54.1791H93.2455L99.4543 73.874H95.2475ZM95.3963 66.529V69.816H86.5092V66.529H95.3963Z" fill="black"/>
<path d="M115.105 54.1791V73.874H111.277L105.095 61.5512V73.874H101.335V54.1791H105.108L111.344 66.6372V54.1791H115.105Z" fill="black"/>
<path d="M129.213 62.1599V65.4333H121.138V62.1599H129.213ZM122.26 54.1791V73.874H118.297V54.1791H122.26ZM132.081 54.1791V73.874H128.158V54.1791H132.081Z" fill="black"/>
<path d="M146.609 70.6006V73.874H138.046V70.6006H146.609ZM139.277 54.1791V73.874H135.314V54.1791H139.277ZM145.459 62.1599V65.3387H138.046V62.1599H145.459ZM146.582 54.1791V57.4661H138.046V54.1791H146.582Z" fill="black"/>
<path d="M67.9944 150.727H65.5945V148.78H67.9944C68.3272 148.78 68.5984 148.705 68.8078 148.555C69.0225 148.405 69.1782 148.2 69.2748 147.938C69.3715 147.671 69.4198 147.371 69.4198 147.04C69.4198 146.703 69.3688 146.391 69.2668 146.102C69.1701 145.808 69.0171 145.57 68.8078 145.389C68.6037 145.207 68.3326 145.116 67.9944 145.116H66.3515V154.84H64V143.168H67.9944C68.7836 143.168 69.4627 143.334 70.0318 143.665C70.6009 143.997 71.0358 144.454 71.3365 145.036C71.6425 145.613 71.7955 146.276 71.7955 147.024C71.7955 147.778 71.6425 148.432 71.3365 148.988C71.0358 149.538 70.6009 149.966 70.0318 150.271C69.4627 150.575 68.7836 150.727 67.9944 150.727Z" fill="black"/>
<path d="M76.1845 145.253L73.6638 154.84H71.1754L74.8396 143.168H76.3939L76.1845 145.253ZM78.1736 154.84L75.6369 145.253L75.4033 143.168H76.9817L80.6782 154.84H78.1736ZM78.2622 150.487V152.435H72.9713V150.487H78.2622Z" fill="black"/>
<path d="M81.8056 143.168H85.5664C86.3503 143.168 87.0187 143.302 87.5717 143.569C88.1247 143.836 88.5488 144.232 88.8441 144.756C89.1394 145.279 89.287 145.926 89.287 146.695C89.287 147.326 89.2011 147.866 89.0293 148.315C88.8575 148.758 88.6132 149.13 88.2965 149.429C87.9797 149.723 87.6012 149.958 87.161 150.134L86.4442 150.559H83.3921L83.384 148.611H85.502C85.8241 148.611 86.0899 148.542 86.2993 148.403C86.514 148.259 86.6724 148.058 86.7744 147.802C86.8818 147.54 86.9355 147.235 86.9355 146.888C86.9355 146.519 86.8872 146.204 86.7905 145.942C86.6993 145.675 86.5516 145.472 86.3476 145.333C86.149 145.188 85.8886 145.116 85.5664 145.116H84.1652V154.84H81.8056V143.168ZM87.1288 154.84L84.9786 149.637L87.4509 149.629L89.6494 154.727V154.84H87.1288Z" fill="black"/>
<path d="M95.1739 145.253L92.6532 154.84H90.1648L93.829 143.168H95.3833L95.1739 145.253ZM97.163 154.84L94.6263 145.253L94.3927 143.168H95.9712L99.6676 154.84H97.163ZM97.2516 150.487V152.435H91.9607V150.487H97.2516Z" fill="black"/>
<path d="M108.446 151.24V143.168H110.797V151.248C110.797 152.023 110.647 152.694 110.346 153.261C110.051 153.822 109.648 154.252 109.138 154.551C108.628 154.85 108.054 155 107.415 155C106.76 155 106.175 154.872 105.659 154.615C105.149 154.353 104.746 153.958 104.451 153.429C104.156 152.894 104.008 152.216 104.008 151.393H106.376C106.376 151.81 106.419 152.138 106.505 152.379C106.591 152.619 106.711 152.793 106.867 152.9C107.028 153.007 107.211 153.06 107.415 153.06C107.635 153.06 107.82 152.988 107.97 152.844C108.126 152.699 108.244 152.494 108.325 152.226C108.405 151.954 108.446 151.625 108.446 151.24Z" fill="black"/>
<path d="M120.912 148.098V150.046C120.912 150.869 120.81 151.591 120.606 152.21C120.407 152.825 120.123 153.341 119.752 153.758C119.387 154.169 118.944 154.479 118.423 154.687C117.908 154.896 117.336 155 116.708 155C116.08 155 115.506 154.896 114.985 154.687C114.469 154.479 114.024 154.169 113.648 153.758C113.277 153.341 112.99 152.825 112.786 152.21C112.582 151.591 112.48 150.869 112.48 150.046V148.098C112.48 147.254 112.58 146.516 112.778 145.886C112.977 145.25 113.264 144.721 113.64 144.299C114.016 143.871 114.461 143.55 114.977 143.337C115.492 143.118 116.064 143.008 116.692 143.008C117.32 143.008 117.892 143.118 118.407 143.337C118.923 143.55 119.368 143.871 119.744 144.299C120.12 144.721 120.407 145.25 120.606 145.886C120.81 146.516 120.912 147.254 120.912 148.098ZM118.568 150.046V148.082C118.568 147.526 118.528 147.053 118.448 146.663C118.367 146.268 118.246 145.945 118.085 145.693C117.924 145.442 117.728 145.258 117.497 145.14C117.266 145.023 116.998 144.964 116.692 144.964C116.386 144.964 116.115 145.023 115.879 145.14C115.648 145.258 115.452 145.442 115.291 145.693C115.135 145.945 115.017 146.268 114.936 146.663C114.861 147.053 114.824 147.526 114.824 148.082V150.046C114.824 150.58 114.864 151.037 114.944 151.417C115.025 151.796 115.146 152.106 115.307 152.347C115.468 152.587 115.664 152.766 115.895 152.884C116.131 152.996 116.402 153.052 116.708 153.052C117.009 153.052 117.275 152.996 117.505 152.884C117.742 152.766 117.938 152.587 118.093 152.347C118.249 152.106 118.367 151.796 118.448 151.417C118.528 151.037 118.568 150.58 118.568 150.046Z" fill="black"/>
<path d="M130.592 148.707V153.517C130.425 153.693 130.181 153.899 129.859 154.134C129.542 154.364 129.126 154.567 128.611 154.743C128.101 154.914 127.478 155 126.742 155C126.093 155 125.502 154.898 124.971 154.695C124.445 154.492 123.991 154.185 123.61 153.774C123.234 153.357 122.947 152.838 122.748 152.218C122.549 151.593 122.45 150.853 122.45 149.998V148.01C122.45 147.166 122.544 146.431 122.732 145.806C122.925 145.175 123.204 144.651 123.569 144.234C123.935 143.818 124.369 143.508 124.874 143.305C125.384 143.102 125.959 143 126.597 143C127.478 143 128.2 143.147 128.764 143.441C129.333 143.735 129.762 144.17 130.052 144.747C130.348 145.325 130.525 146.033 130.584 146.872H128.305C128.267 146.38 128.184 145.995 128.055 145.717C127.932 145.44 127.757 145.242 127.532 145.124C127.306 145.001 127.014 144.94 126.654 144.94C126.342 144.94 126.071 144.996 125.84 145.108C125.61 145.215 125.416 145.391 125.261 145.637C125.105 145.883 124.989 146.198 124.914 146.583C124.839 146.968 124.802 147.438 124.802 147.994V149.998C124.802 150.548 124.845 151.019 124.93 151.409C125.016 151.799 125.142 152.117 125.309 152.363C125.481 152.609 125.695 152.788 125.953 152.9C126.216 153.007 126.525 153.06 126.879 153.06C127.164 153.06 127.392 153.031 127.564 152.972C127.736 152.913 127.873 152.852 127.975 152.788C128.082 152.718 128.17 152.665 128.24 152.627V150.479H126.557V148.707H130.592Z" fill="black"/>
<path d="M136.535 145.253L134.014 154.84H131.526L135.19 143.168H136.744L136.535 145.253ZM138.524 154.84L135.987 145.253L135.754 143.168H137.332L141.029 154.84H138.524ZM138.613 150.487V152.435H133.322V150.487H138.613Z" fill="black"/>
<path d="M142.156 143.168H145.917C146.701 143.168 147.369 143.302 147.922 143.569C148.475 143.836 148.899 144.232 149.195 144.756C149.49 145.279 149.638 145.926 149.638 146.695C149.638 147.326 149.552 147.866 149.38 148.315C149.208 148.758 148.964 149.13 148.647 149.429C148.33 149.723 147.952 149.958 147.512 150.134L146.795 150.559H143.743L143.735 148.611H145.853C146.175 148.611 146.44 148.542 146.65 148.403C146.865 148.259 147.023 148.058 147.125 147.802C147.232 147.54 147.286 147.235 147.286 146.888C147.286 146.519 147.238 146.204 147.141 145.942C147.05 145.675 146.902 145.472 146.698 145.333C146.5 145.188 146.239 145.116 145.917 145.116H144.516V154.84H142.156V143.168ZM147.479 154.84L145.329 149.637L147.801 149.629L150 154.727V154.84H147.479Z" fill="black"/>
</svg>
