<svg width="2178" height="1167" viewBox="0 0 2178 1167" fill="none" xmlns="http://www.w3.org/2000/svg">
<path d="M1907.75 386.778L1911.44 386.995L1916.73 386.778L1921.82 386.778L1926.56 384.493L1932.79 386.778C1932.79 386.778 1940.48 388.748 1944.7 386.778C1948.75 384.883 1942.82 378.599 1952.19 378.118C1961.46 377.643 1974.31 386.778 1974.31 386.778L1981.51 378.118C1981.51 378.118 1988.93 379.392 1993.39 378.118C1998.92 376.537 1998.83 373.072 1998.83 373.072C1998.83 373.072 2001.82 372.103 2003.42 370.938C2007.01 368.326 2005 363.209 2008.8 360.931C2012.62 358.651 2020.18 360.931 2020.18 360.931L2022.47 355.831L2023.79 354.353L2025.59 355.831L2028.06 352.875L2033.15 352.875L2034.46 349.427L2056.46 342.038L2095.28 326.057L2106.42 318.719C2106.42 318.719 2123.91 309.552 2126.09 310.973C2130.04 313.538 2156.04 300.141 2153.72 299.725C2139.16 297.111 2144.62 295.555 2145.35 294.276C2146.44 292.342 2153.69 293.793 2153.72 291.57C2153.75 289.195 2167.59 286.623 2166.56 284.483C2165.35 281.967 2175.87 282.537 2174.56 280.071C2173.15 277.416 2174.53 275.16 2173.11 272.509C2171.49 269.477 2166.56 266.627 2166.56 266.627C2166.56 266.627 2172.83 260.074 2171.59 255.453C2170.78 252.458 2167.66 252.205 2166.56 249.307C2165.31 246.045 2165.77 243.769 2166.56 240.368C2167.81 234.937 2172.62 233.775 2174.56 228.55C2176.66 222.914 2176.59 219.214 2176.06 213.226C2175.62 208.387 2163.65 210.555 2163.64 205.697C2163.63 200.804 2164.55 201.544 2161.53 197.692C2159.48 195.075 2156.44 198.478 2156.44 186.885C2156.44 172.562 2147.2 183.802 2145.35 181.226C2141.72 176.19 2137.04 178.139 2138.37 172.076C2139.46 167.07 2135.46 169.467 2135.16 164.352C2134.73 157.08 2141.96 151.397 2138.37 145.062C2135.26 139.593 2152.55 129.177 2148.88 124.079C2146.83 121.241 2151.63 114.839 2154.14 111.237C2158.24 105.345 2163.03 85.8345 2161.53 78.8159C2160.22 72.7059 2173.9 70.2733 2176.06 64.4067C2178.76 57.0375 2189.03 52.8397 2190.93 45.2256C2193.25 35.9793 2222.99 2.84705e-05 2222.99 2.84705e-05C2222.99 2.84705e-05 2089.49 50.0886 2058.48 53.7849C2022.6 58.0602 1967.62 71.2009 1967.62 71.2009L1925.83 96.5933L1840.38 124.079C1840.38 124.079 1837.67 116.786 1830.26 117.745C1815.71 119.509 1802.98 124.182 1796.75 139.293C1796.69 142.766 1796.39 146.145 1793.13 148.339C1792.8 148.856 1792.56 149.43 1792.39 150.023C1780.79 154.403 1768.42 156.516 1757.13 161.715C1752.04 164.054 1747.14 164.597 1742.16 162.413C1737.46 160.342 1732.72 160.216 1727.81 160.932C1725.74 159.914 1723.88 160.001 1722.36 162.013L1722.46 161.936C1721.51 164.48 1719.33 164.531 1717.26 164.352C1714.74 164.138 1712.58 165.066 1710.4 166.071L1710.4 165.785C1707.69 168.434 1710.72 171.66 1709.51 174.453C1709.87 176.97 1708.13 178.563 1706.72 180.06C1701.77 185.355 1695.09 189.02 1692.47 196.515C1691.89 198.14 1689.58 199.069 1687.72 198.851C1681.77 198.142 1676.22 200.407 1670.44 200.917C1666.91 198.248 1663.89 199.162 1660.7 201.871C1654.6 207.078 1647.82 208.148 1640.53 204.393C1636.18 203.712 1631.84 201.562 1627.44 204.24C1626.8 204.301 1626.16 204.343 1625.52 204.404C1624.78 204.084 1624.14 203.534 1623.35 203.329C1620.84 201.34 1618.05 203.913 1615.47 202.917L1615.43 202.955C1610.01 203.636 1604.47 203.897 1599.82 207.378C1599.88 207.912 1600.02 208.426 1600.22 208.94C1599.67 210.031 1598.92 211.085 1598.61 212.251C1596.27 220.66 1596.31 220.774 1587.81 221.74C1585.63 221.981 1584.52 223.056 1583.5 224.665C1579.65 225.394 1579.43 229.478 1577.16 231.667C1571.94 233.167 1566.89 231.517 1561.79 230.783C1555.2 229.849 1548.55 228.762 1543.09 234.212C1541.59 235.71 1539.84 235.548 1537.96 235.235C1535.79 234.885 1533.67 235.012 1532.19 237.062C1529.17 237.289 1525.79 238.626 1523.36 236.026C1519.56 231.926 1515.24 232.524 1510.54 233.467C1505.41 234.489 1500.2 235.092 1495.03 235.866C1484.85 235.258 1474.72 236.519 1464.93 238.79C1459.48 240.043 1454.69 244.154 1449.59 246.97C1447.13 247.766 1444.33 247.802 1442.59 250.197C1436.91 250.001 1431.23 249.786 1425.54 249.59L1425.43 249.534C1422.96 246.113 1418.61 247.207 1415.53 245.26C1413.16 246.38 1409.94 245.292 1408.23 248.107C1407.61 247.997 1407.08 248.152 1406.65 248.613C1407.39 249.143 1407.91 249.006 1408.23 248.184C1407.95 249.12 1407.41 249.238 1406.65 248.594C1406.2 248.348 1405.76 248.389 1405.33 248.659C1403.46 247.124 1401.92 247.801 1400.56 249.45C1396.93 249.547 1393.37 252.01 1389.69 249.704C1384.58 251.088 1379.59 251.232 1375 247.996C1374.45 246.396 1373.22 245.487 1371.79 244.809C1364.13 241.152 1357.01 236.919 1353.82 228.237C1353.34 226.923 1351.76 227.104 1350.52 227.187C1341.21 224.78 1333.66 229.518 1326.37 233.911C1312.87 242.023 1299.9 251.067 1286.35 259.084C1281.42 262.013 1275.54 263.268 1272.16 268.573C1264.61 274.342 1256.31 278.664 1247.62 282.379C1245.95 283.094 1244.54 284.419 1243.03 285.458C1237.96 284.591 1233.11 287.672 1228.02 286.29C1226.85 285.038 1225.16 285.677 1223.8 285.094L1223.84 285.151C1215.59 287.889 1208.36 292.396 1201.75 298.026C1193.92 300.056 1186.07 302.086 1178.23 304.116C1173.9 302.596 1169.52 303.117 1165.14 303.83C1156.88 307.561 1148.62 306.655 1140.27 304.089C1138.25 303.471 1135.96 303.275 1133.85 303.516C1128.17 304.16 1122.84 302.703 1117.45 301.398C1109.48 299.46 1101.9 295.822 1093.31 296.578C1087.06 297.129 1082.41 292.749 1077.35 289.84C1074.5 288.196 1072 285.082 1068.22 287.756C1064.23 287.474 1060.16 287.746 1056.43 285.859C1055.03 285.161 1053.56 284.54 1051.98 285.027C1042.09 288.023 1031.12 288.01 1022.85 295.672C1019.52 298.744 1015.25 299.723 1011.04 300.759C1005.07 302.225 998.847 302.815 994.058 307.498C992.113 309.399 989.245 307.927 986.917 308.761C983.598 307.426 980.138 307.713 976.965 308.762C966.187 312.279 955.327 314.574 943.918 313.114C940.134 312.621 937.431 316.797 933.475 315.923C921.562 311.89 909.487 312.399 897.386 314.836C890.997 316.113 886.887 321.06 881.999 324.772C879.011 325.304 875.946 325.551 873.073 326.465C869.148 327.709 865.371 328.399 861.596 326.264C858.085 324.281 855.855 325.63 854.294 328.94L854.918 329.604C854.918 329.604 854.843 329.643 854.825 329.662C854.654 329.415 854.483 329.187 854.312 328.94C848.399 331.016 842.377 330.765 836.315 329.904C829.054 326.893 821.689 328.481 814.549 329.935C802.523 332.39 790.554 334.922 778.171 334.173C777.491 333.681 776.736 333.323 775.907 333.099L775.586 332.853C775.149 332.13 774.563 331.618 773.771 331.356L773.658 331.261C772.691 329.931 771.391 329.71 769.908 330.138C767.949 329.711 766.009 329.283 764.05 328.856C757.941 326.525 753.192 331.59 747.588 331.966C740.077 331.19 732.584 330.222 725.075 329.693C721.01 329.412 717.755 332.522 713.865 333.289L713.752 333.366C709.785 336.976 703.673 334.073 699.802 337.969C698.64 338.777 697.079 338.939 696.203 340.204C695.81 340.702 695.682 341.199 695.779 341.733C695.779 341.771 695.779 341.771 695.779 341.79C692.805 341.483 689.928 341.671 687.323 343.404C682.606 347.438 675.463 345.209 671.013 349.91C670.429 349.818 669.941 349.993 669.567 350.453C663.362 350.89 658.134 354.469 652.236 356.069C646.376 357.667 640.822 360.218 634.567 358.557C631.42 357.716 628.831 358.857 627.7 361.726C626.069 365.876 622.473 365.401 619.355 366.221C618.845 365.861 618.375 365.902 617.926 366.324C615.887 365.211 613.148 366.429 611.386 364.321C601.738 368.098 592.662 373.131 584.497 379.437C581.594 381.668 579.383 383.264 575.714 383.19C567.116 383.03 559.996 387.88 552.337 390.825C552.018 390.942 552.062 391.972 551.934 392.564C549.55 396.681 544.984 397.661 541.405 400.067C533.706 405.798 526.008 411.549 518.309 417.28C517.727 417.359 516.955 417.249 516.562 417.576C511.62 421.879 505.357 422.183 499.42 423.496C498.575 423.692 497.826 424.249 497.019 424.655C487.789 425.815 479.485 430.997 469.984 430.937C469.984 430.937 469.985 430.976 469.985 430.995C465.113 427.894 461.433 432.418 457.167 433.111C455.105 431.158 451.855 431.959 449.829 429.681C448.56 428.257 446.376 427.888 444.687 428.566C437.517 431.413 428.92 431.482 424.186 439.18L424.186 439.142C420.416 441.091 416.393 441.497 412.252 441.158C411.236 441.221 410.221 441.284 409.186 441.329C408.45 440.818 407.867 440.955 407.402 441.721C407.084 442.18 406.653 442.317 406.125 442.129C403.486 444.567 399.166 442.513 396.796 445.694C393.574 448.098 388.954 446.179 385.962 449.268C379.147 451.789 373.898 458.116 366.073 458.238C365.995 457.742 365.86 457.247 365.65 456.771C364.739 455.422 363.491 454.265 361.892 454.351C346.245 455.129 330.55 450.965 314.902 454.949C310.789 456.003 307.354 457.378 304.929 460.941C300.494 464.936 304.026 470.659 301.964 475.155C302.293 476.775 302.641 478.376 302.971 479.996C302.973 480.454 303.032 480.911 303.054 481.369L288.46 488.619C288.46 488.619 284.247 498.473 284.672 505.042C285.005 510.18 288.46 517.671 288.46 517.671C270.459 521.363 260.351 523.616 259.658 524.154C259.658 524.154 225.136 530.449 219.172 530.449C215.962 530.449 213.215 530.849 210.936 532.775C207.656 535.546 204.059 537.585 201.533 541.058C199.119 544.378 197.923 548.869 197.923 548.869C197.923 548.869 197.88 550.042 194.798 550.871C194.032 551.077 193.002 551.229 192.27 551.536C191.627 551.806 191.958 552.396 191.273 552.533C190.614 552.665 190.615 552.799 189.943 552.799C189.587 552.799 188.794 552.933 188.613 553.996C188.493 554.698 187.895 554.585 188.313 555.16C188.776 555.795 188.311 555.179 188.017 555.908C187.82 556.393 187.243 556.223 186.849 556.568C185.933 557.368 183.22 556.399 182.332 557.23C180.954 558.519 181.389 558.533 180.258 559.053C178.795 559.725 177.617 559.055 176.108 559.619C174.691 560.148 174.509 561.585 174.509 561.585C174.509 561.585 171.863 560.996 170.349 561.585C167.63 562.641 166.815 568.164 166.815 568.164L163.363 573.117L159.454 573.899L158.411 577.808L152.026 577.808L148.282 581.848L88.5582 626.644L73.6026 654.978L61.3071 672.846C61.3071 672.846 63.9383 679.948 61.3071 682.819C58.4358 685.952 54.357 681.208 50.4241 682.819C45.1483 684.98 41.6061 694.454 41.6061 694.454C41.6061 694.454 40.213 703.988 41.6062 709.829C42.811 714.879 43.258 718.527 47.2233 721.879C50.5827 724.719 55.5181 721.888 57.848 725.619C59.8249 728.785 56.54 732.211 56.0669 736.484C55.0696 745.493 56.0669 759.693 56.0669 759.693L61.3071 768.001L56.0669 788.992C56.0669 788.992 51.6306 791.54 50.8267 794.356C50.0455 797.093 18.8429 801.045 20.2911 803.495C22.3482 806.976 31.8523 806.017 29.0823 808.962C28.1135 809.992 25.848 810.588 25.848 810.588L27.6814 815.953C27.6814 815.953 23.1936 823.787 21.3468 829.225C19.8445 833.649 3.60182 840.869 3.60182 840.869L5.29106 846.57L0.22335 859.24L6.34684 879.51L6.34684 891.335C6.34684 891.335 0.223349 905.378 0.22395 909.137C0.225071 916.154 20.5082 907.385 21.3468 914.351C21.7903 918.035 20.6858 920.202 21.3468 923.853C22.3803 929.562 26.4938 931.543 27.9595 937.156C29.0692 941.406 29.0823 948.347 29.0823 948.347L31.0599 958.271L29.0823 963.241L32.7492 974.108L39.0687 980.477L39.0687 988.038L42.3577 994.23L42.3577 1014.32L42.3577 1019.02C42.3577 1019.02 48.3487 1023.2 50.4241 1027.17C53.6967 1033.43 46.7208 1039.24 50.4241 1045.25C55.4278 1053.38 68.9587 1048.72 74.4241 1056.54C84.9978 1071.67 90.4241 1071.12 89.8384 1078.95C89.5454 1082.87 88.6871 1084.99 87.5954 1088.77C86.6539 1092.02 91.3465 1092.57 91.5677 1095.96C91.8237 1099.87 89.5612 1101.74 89.8385 1105.66C90.221 1111.06 51.7107 1141.83 52.1992 1147.23C52.6306 1151.99 120.38 1161.19 124.197 1164.07C135.095 1172.28 186.849 1156.79 186.849 1156.79L315.788 1084.53L338.76 1071.9C339.295 1073.35 339.83 1074.77 340.478 1076.16C343.011 1081.53 344.633 1082.17 349.75 1078.95C353.142 1076.83 356.117 1074.05 359.282 1071.55C380.269 1076.69 400.559 1075.07 420.009 1065.17C428.678 1058.06 439.386 1055.46 449.198 1050.86C461.487 1045.12 474.586 1042.81 487.031 1038.14C503.475 1031.97 521.084 1032.04 538.517 1034.14C540.478 1035.04 542.218 1036.52 544.439 1036.81C545.549 1036.81 546.658 1036.68 547.748 1036.41C553.086 1035.64 558.136 1033.74 563.339 1032.41C577.352 1028.83 590.48 1021.77 604.461 1019.19C619.702 1016.39 632.465 1008.17 646.793 1003.68C650.305 1002.57 653.881 999.709 655.381 995.541C655.436 995.331 655.416 995.102 655.452 994.892C663.578 994.749 671.821 992.087 679.504 993.378C688.75 994.927 696.264 993.032 703.896 988.79C704.651 989.243 705.481 989.505 706.347 989.615C709.036 989.523 710.62 986.823 713.271 986.617C714.079 986.517 714.888 986.398 715.715 986.297C716.88 986.023 718.006 985.616 719.133 985.304C719.509 985.226 719.903 985.147 720.279 985.069C721.05 984.93 721.801 984.678 722.495 984.331C723.17 983.926 723.863 983.54 724.557 983.174C725.646 982.69 726.753 982.245 727.86 981.8C728.592 981.471 729.305 981.104 729.98 980.662C731.59 979.297 733.523 978.599 735.437 977.844C737.014 977.224 738.61 976.623 740.186 976.003C742.948 975.319 744.25 972.85 746.046 971.008C746.701 970.432 747.356 969.875 748.011 969.298C751.705 967.197 755.341 964.962 759.244 963.241C760.033 962.912 760.802 962.545 761.533 962.121C762.881 961.007 764.4 960.216 765.996 959.596C770.084 957.435 774.5 956.608 779.052 956.543C782.788 955.071 786.638 953.942 790.182 952.051C790.238 952.032 790.295 952.012 790.332 951.993C798.55 948.243 808.653 951.6 815.988 944.822C816.363 944.476 817.285 944.661 817.944 944.734C830.012 946.304 837.966 939.141 845.332 931.16C848.566 927.668 852.067 924.824 856.078 922.282C864.081 917.217 869.797 910.104 872.281 900.664C874.925 899.064 874.983 896.202 875.495 893.642C876.025 891.025 877.54 889.528 879.887 888.732C886.421 886.556 892.648 883.257 899.739 883.101C901.107 882.216 903.604 881.343 903.637 880.407C903.77 874.301 908.372 873.11 912.453 872.781C918.658 872.287 921.928 868.528 925.006 863.968C926.293 862.072 926.691 859.436 929.321 858.696C939.386 861.919 947.414 857.922 954.731 851.354C956.941 849.547 960.575 850.137 961.929 846.942C966.469 841.44 971.863 837.287 978.735 835.052C983.579 833.478 987.265 830.041 990.383 825.978C993.449 825.827 994.85 824.082 994.888 821.067C994.888 821.029 994.851 821.01 994.831 820.953C999.847 819.664 1002.94 815.105 1007.12 812.466C1020.99 803.684 1035.97 797.148 1050.09 788.917C1055.44 787.856 1059.05 784.343 1062.22 780.165C1064.61 778.701 1067.46 777.864 1068.82 775.032C1074.14 772.367 1079.65 768.786 1085.41 768.905C1095.78 769.131 1103.77 764.524 1111.63 758.868C1118.41 759.249 1124.89 757.989 1131.2 755.434C1144.13 750.168 1157.71 747.342 1171.28 744.362C1176.77 743.166 1181.26 745.258 1185.87 746.529C1191.56 748.079 1194.29 742.415 1199.85 742.65C1207.45 742.968 1215.62 741.909 1222.83 738.089C1236.16 727.841 1251.12 721.324 1267.52 718.08C1269.42 717.992 1271.32 717.523 1273.22 717.989C1274.18 717.983 1275.08 717.768 1275.95 717.382C1277.74 715.196 1281.39 715.747 1282.62 712.725C1286.3 709.345 1292.02 708.53 1294.62 704.069C1297.6 698.957 1302.16 696.468 1307.21 694.874C1311.25 693.611 1314.45 691.569 1317.05 688.883C1319.31 687.82 1321.5 686.701 1323.62 685.353C1324.44 684.699 1325.25 684.026 1325.98 683.278C1326.38 682.245 1326.85 681.346 1327.35 680.503C1328.42 679.982 1329.34 679.003 1330.01 677.454C1339.56 676.788 1348.31 674.046 1355.11 666.851C1357.32 664.529 1359.74 662.378 1362.76 662.437C1378.17 662.824 1389.31 652.207 1402.48 646.902C1405.05 645.876 1406.62 643.348 1407.36 640.672C1409.29 633.658 1414.19 628.363 1417.54 622.161C1424.13 620.386 1429.07 615.206 1435.56 613.202C1439.6 611.958 1442.39 609.423 1444.51 605.575C1447.86 599.468 1452.76 594.669 1459.41 592.475C1466.55 590.105 1472.58 585.91 1478.73 581.848C1481.86 579.769 1485.08 578.071 1488.71 577.134C1489.08 577.017 1489.46 576.92 1489.83 576.803C1490.98 576.434 1492.07 575.97 1493 575.182C1493.53 574.549 1494.07 573.935 1494.63 573.322C1496.8 571.782 1499.43 571.271 1501.72 569.998C1502.49 569.479 1503.26 568.959 1504.03 568.439C1509.17 566.291 1513.95 563.42 1518.92 560.93C1530.38 551.322 1543.45 544.014 1556.98 538.516C1581.13 528.72 1602.63 514.647 1623.02 498.919C1637.31 487.902 1652.91 481.896 1670.08 477.885C1678.89 475.83 1687.71 474.175 1696.6 472.902C1703.97 471.867 1708.51 463.903 1716.61 465.02C1717.45 464.557 1718.33 464.132 1719.23 463.707C1719.95 463.97 1720.68 464.214 1721.49 464.018L1721.43 463.904C1729.03 460.101 1736.02 454.87 1744.78 453.846C1756.56 458.509 1767.31 456.157 1777.18 448.6C1778.81 447.35 1780.36 446.158 1782.43 446.051C1788.28 445.75 1793.04 442.65 1797.94 439.874C1800.12 440.719 1802.27 440.917 1804.39 439.626C1804.39 439.626 1804.37 439.626 1804.35 439.607C1809.95 439.174 1815.57 438.53 1821.18 438.383C1835.14 438.035 1848.48 435.667 1860.63 428.097C1864.04 425.979 1867.79 423.877 1871.62 423.149C1879.61 421.633 1885.85 417.379 1891.72 412.193C1892.18 412.267 1892.53 412.131 1892.85 411.881C1893.36 412.527 1893.99 413.058 1894.82 413.339C1899.77 414.264 1904.68 407.462 1904.68 407.462L1909.95 392.376C1909.95 392.376 1907.95 387.1 1907.87 386.995C1907.79 386.889 1907.75 386.778 1907.75 386.778ZM1067 291.732C1067 291.732 1067.09 291.865 1067.17 291.941C1067.13 291.941 1067.09 291.941 1067.05 291.903C1067.05 291.903 1067.05 291.903 1067.04 291.903L1067 291.904C1067 291.846 1067.03 291.808 1067.03 291.751L1067 291.732ZM1062.21 780.184C1062.3 779.783 1062.43 779.419 1062.61 779.151C1062.47 779.476 1062.34 779.821 1062.21 780.184ZM1804.2 439.665C1803.8 439.458 1803.41 439.307 1803.03 439.195C1803.43 439.25 1803.82 439.381 1804.2 439.646C1804.2 439.646 1804.2 439.646 1804.2 439.665Z" fill="white"/>
</svg>
