<svg width="360" height="888" viewBox="0 0 360 888" fill="none" xmlns="http://www.w3.org/2000/svg">
<path d="M774.881 247.438C773.357 243.457 771.833 239.458 770.308 235.478L724.895 53.9497C724.089 48.8098 724.571 42.7 718.636 39.7073C717.552 34.2541 716.468 28.8008 715.401 23.3475C714.643 17.7524 713.972 12.1392 713.112 6.54471C712.233 0.792798 710.623 -0.142741 703.831 0.736785C690.487 2.35444 678.815 6.63964 673.099 20.4968C673.049 23.6819 672.774 26.7807 669.783 28.793C669.476 29.2672 669.254 29.7935 669.102 30.3368C658.464 34.3535 647.123 36.292 636.765 41.0595C632.103 43.204 627.603 43.7027 623.037 41.6995C618.73 39.7997 614.382 39.6851 609.883 40.3413C607.979 39.4074 606.272 39.4874 604.885 41.3328L604.971 41.2623C604.105 43.5947 602.104 43.6413 600.205 43.4774C597.892 43.2809 595.913 44.1324 593.917 45.0539L593.916 44.7915C591.428 47.2208 594.206 50.1793 593.099 52.7406C593.423 55.0485 591.828 56.5102 590.542 57.8826C585.998 62.7387 579.876 66.0991 577.466 72.9726C576.94 74.463 574.823 75.3153 573.114 75.1153C567.659 74.4646 562.564 76.5417 557.271 77.01C554.03 74.5616 551.257 75.4002 548.339 77.8845C542.743 82.6592 536.52 83.6404 529.841 80.1971C525.852 79.5729 521.873 77.6013 517.833 80.0571C517.247 80.1131 516.66 80.1515 516.074 80.2074C515.399 79.9138 514.81 79.4098 514.084 79.2216C511.779 77.3977 509.222 79.7574 506.853 78.8438L506.819 78.879C501.854 79.5028 496.766 79.7425 492.506 82.9346C492.561 83.4242 492.684 83.8959 492.877 84.3673C492.365 85.3677 491.681 86.3341 491.394 87.4032C489.248 95.1151 489.283 95.2199 481.49 96.1052C479.49 96.3269 478.478 97.3127 477.538 98.788C474.005 99.4561 473.802 103.202 471.727 105.209C466.939 106.584 462.306 105.071 457.627 104.399C451.584 103.541 445.488 102.545 440.479 107.543C439.107 108.916 437.502 108.768 435.775 108.481C433.789 108.16 431.84 108.276 430.488 110.156C427.712 110.365 424.614 111.591 422.392 109.206C418.902 105.447 414.937 105.995 410.629 106.86C405.925 107.797 401.149 108.35 396.409 109.06C387.073 108.502 377.781 109.659 368.804 111.741C363.808 112.89 359.413 116.66 354.736 119.242C352.48 119.973 349.91 120.005 348.318 122.202C343.107 122.022 337.896 121.825 332.684 121.646L332.581 121.594C330.32 118.457 326.323 119.46 323.5 117.674C321.333 118.702 318.377 117.704 316.805 120.286C316.235 120.184 315.753 120.327 315.358 120.749C316.034 121.235 316.516 121.11 316.805 120.356C316.551 121.215 316.052 121.323 315.358 120.732C314.943 120.507 314.546 120.544 314.151 120.791C312.435 119.384 311.024 120.005 309.773 121.517C306.444 121.606 303.179 123.865 299.803 121.75C295.117 123.02 290.546 123.151 286.337 120.183C285.828 118.717 284.702 117.883 283.387 117.261C276.363 113.907 269.836 110.025 266.909 102.063C266.471 100.858 265.022 101.024 263.884 101.101C255.349 98.8933 248.422 103.238 241.734 107.267C229.356 114.706 217.466 123 205.035 130.352C200.514 133.038 195.121 134.189 192.026 139.054C185.105 144.344 177.485 148.308 169.517 151.714C167.986 152.371 166.699 153.586 165.307 154.539C160.661 153.743 156.21 156.569 151.544 155.301C150.468 154.153 148.919 154.739 147.673 154.204L147.708 154.256C140.149 156.768 133.514 160.901 127.454 166.063C120.271 167.925 113.07 169.787 105.887 171.649C101.911 170.255 97.8938 170.733 93.8779 171.386C86.307 174.808 78.7284 173.977 71.072 171.624C69.2228 171.058 67.117 170.877 65.1861 171.099C59.9794 171.689 55.0892 170.352 50.1482 169.156C42.8402 167.379 35.8854 164.042 28.0053 164.736C22.2805 165.242 18.0131 161.224 13.374 158.557C10.7602 157.049 8.4662 154.193 4.99563 156.646C1.33665 156.387 -2.3884 156.636 -5.81437 154.906C-7.0948 154.266 -8.44372 153.697 -9.89031 154.143C-18.9661 156.89 -29.0242 156.879 -36.6086 163.905C-39.6631 166.723 -43.574 167.62 -47.4329 168.57C-52.9113 169.915 -58.6186 170.455 -63.01 174.751C-64.7941 176.493 -67.4243 175.144 -69.5591 175.909C-72.6026 174.684 -75.7755 174.948 -78.6854 175.909C-88.5693 179.134 -98.5287 181.24 -108.991 179.901C-112.462 179.449 -114.941 183.278 -118.568 182.476C-129.493 178.778 -140.566 179.245 -151.664 181.479C-157.523 182.651 -161.292 187.188 -165.775 190.591C-168.515 191.079 -171.326 191.306 -173.96 192.143C-177.559 193.284 -181.023 193.917 -184.485 191.96C-187.705 190.141 -189.75 191.378 -191.182 194.414L-190.609 195.023C-190.609 195.023 -190.678 195.058 -190.695 195.076C-190.852 194.849 -191.008 194.64 -191.165 194.414C-196.588 196.318 -202.11 196.087 -207.67 195.297C-214.328 192.536 -221.082 193.993 -227.63 195.326C-238.658 197.578 -249.634 199.899 -260.99 199.213C-261.614 198.761 -262.306 198.433 -263.066 198.227L-263.361 198.002C-263.761 197.339 -264.299 196.87 -265.025 196.629L-265.129 196.542C-266.016 195.322 -267.208 195.119 -268.568 195.512C-270.365 195.12 -272.144 194.728 -273.94 194.336C-279.543 192.199 -283.898 196.844 -289.037 197.189C-295.924 196.477 -302.796 195.589 -309.682 195.104C-313.41 194.846 -316.395 197.698 -319.963 198.402L-320.066 198.472C-323.704 201.783 -329.309 199.121 -332.859 202.694C-333.925 203.435 -335.356 203.583 -336.16 204.743C-336.519 205.2 -336.637 205.656 -336.548 206.145C-336.548 206.18 -336.548 206.18 -336.548 206.198C-339.276 205.916 -341.914 206.089 -344.303 207.678C-348.629 211.378 -355.179 209.334 -359.26 213.644C-359.795 213.56 -360.243 213.72 -360.586 214.142C-366.276 214.543 -371.071 217.825 -376.479 219.292C-381.853 220.758 -386.946 223.098 -392.683 221.574C-395.569 220.803 -397.943 221.849 -398.98 224.48C-400.476 228.286 -403.774 227.85 -406.633 228.602C-407.101 228.272 -407.532 228.31 -407.944 228.697C-409.813 227.676 -412.325 228.793 -413.941 226.86C-422.789 230.324 -431.112 234.939 -438.6 240.722C-441.262 242.768 -443.289 244.232 -446.654 244.164C-454.539 244.017 -461.069 248.465 -468.092 251.166C-468.384 251.273 -468.344 252.217 -468.462 252.76C-470.648 256.535 -474.835 257.435 -478.118 259.641C-485.178 264.897 -492.237 270.17 -499.297 275.426C-499.832 275.499 -500.54 275.398 -500.9 275.698C-505.432 279.644 -511.175 279.922 -516.62 281.126C-517.395 281.306 -518.082 281.817 -518.822 282.189C-527.286 283.253 -534.901 288.005 -543.614 287.951C-543.614 287.951 -543.614 287.986 -543.614 288.003C-548.081 285.159 -551.456 289.309 -555.368 289.944C-557.259 288.153 -560.239 288.888 -562.098 286.799C-563.261 285.493 -565.264 285.155 -566.813 285.776C-573.388 288.387 -581.272 288.45 -585.613 295.51L-585.613 295.475C-589.071 297.262 -592.76 297.634 -596.558 297.324C-597.489 297.382 -598.42 297.439 -599.369 297.48C-600.044 297.011 -600.578 297.137 -601.006 297.839C-601.296 298.261 -601.693 298.386 -602.177 298.214C-604.596 300.45 -608.558 298.566 -610.732 301.483C-613.686 303.688 -617.923 301.928 -620.667 304.761C-626.916 307.072 -631.73 312.875 -638.906 312.987C-638.978 312.532 -639.101 312.078 -639.294 311.642C-640.129 310.404 -641.274 309.343 -642.74 309.422C-657.089 310.135 -671.483 306.317 -685.832 309.971C-689.605 310.937 -692.755 312.198 -694.978 315.466C-699.046 319.129 -695.806 324.377 -697.697 328.501C-697.395 329.986 -697.076 331.454 -696.774 332.94C-696.772 333.36 -696.718 333.78 -696.698 334.199L-716.243 337.446L-710.081 367.49C-726.589 370.876 -735.859 372.942 -736.494 373.436L-685.02 887.331L-663.954 875.747C-663.463 877.074 -662.972 878.384 -662.378 879.657C-660.055 884.578 -658.568 885.165 -653.875 882.215C-650.764 880.272 -648.036 877.719 -645.134 875.427C-625.887 880.145 -607.281 878.654 -589.444 869.573C-581.494 863.052 -571.674 860.668 -562.676 856.451C-551.406 851.188 -539.394 849.07 -527.981 844.787C-512.901 839.134 -496.753 839.198 -480.766 841.117C-478.967 841.946 -477.372 843.302 -475.335 843.57C-474.317 843.564 -473.3 843.453 -472.301 843.202C-467.405 842.491 -462.774 840.749 -458.003 839.532C-445.152 836.255 -433.113 829.78 -420.291 827.413C-406.315 824.847 -394.61 817.306 -381.471 813.188C-378.251 812.171 -374.971 809.545 -373.596 805.722C-373.545 805.53 -373.563 805.32 -373.53 805.127C-366.078 804.996 -358.519 802.555 -351.473 803.739C-342.994 805.159 -336.103 803.422 -329.104 799.531C-328.412 799.947 -327.651 800.188 -326.857 800.288C-324.39 800.204 -322.938 797.728 -320.507 797.539C-319.766 797.447 -319.024 797.337 -318.266 797.246C-317.198 796.994 -316.165 796.621 -315.131 796.335C-314.787 796.263 -314.425 796.191 -314.08 796.119C-313.374 795.992 -312.685 795.761 -312.048 795.442C-311.429 795.071 -310.793 794.717 -310.157 794.381C-309.159 793.938 -308.143 793.529 -307.128 793.121C-306.457 792.82 -305.803 792.483 -305.184 792.077C-303.708 790.826 -301.935 790.186 -300.179 789.493C-298.733 788.925 -297.27 788.374 -295.824 787.805C-293.292 787.178 -292.097 784.914 -290.451 783.225C-289.85 782.696 -289.25 782.185 -288.649 781.657C-285.261 779.73 -281.926 777.68 -278.347 776.102C-277.624 775.8 -276.919 775.464 -276.248 775.075C-275.012 774.053 -273.619 773.327 -272.156 772.759C-268.406 770.777 -264.357 770.018 -260.182 769.959C-256.757 768.609 -253.226 767.574 -249.976 765.84C-249.924 765.822 -249.872 765.804 -249.838 765.787C-242.301 762.348 -233.036 765.426 -226.31 759.21C-225.967 758.893 -225.12 759.063 -224.516 759.13C-213.449 760.57 -206.155 754 -199.401 746.682C-196.435 743.48 -193.224 740.871 -189.545 738.54C-182.206 733.895 -176.965 727.373 -174.686 718.715C-172.262 717.248 -172.209 714.623 -171.739 712.276C-171.253 709.876 -169.863 708.503 -167.711 707.773C-161.719 705.778 -156.009 702.752 -149.506 702.609C-148.251 701.797 -145.961 700.996 -145.932 700.139C-145.809 694.539 -141.589 693.447 -137.847 693.145C-132.156 692.692 -129.157 689.244 -126.335 685.063C-125.155 683.324 -124.789 680.907 -122.378 680.228C-113.148 683.184 -105.786 679.519 -99.0751 673.495C-97.049 671.839 -93.7163 672.379 -92.474 669.45C-88.3112 664.403 -83.3647 660.595 -77.0624 658.546C-72.6198 657.102 -69.2395 653.95 -66.3801 650.224C-63.5688 650.085 -62.2842 648.485 -62.2486 645.72C-62.2488 645.685 -62.2835 645.668 -62.301 645.616C-57.7016 644.434 -54.8621 640.253 -51.029 637.833C-38.3094 629.78 -24.5772 623.785 -11.6304 616.238C-6.71921 615.264 -3.4084 612.043 -0.497886 608.211C1.6853 606.868 4.30319 606.101 5.54747 603.504C10.4328 601.06 15.4857 597.776 20.7655 597.885C30.2726 598.092 37.5973 593.868 44.813 588.681C51.0258 589.03 56.971 587.875 62.754 585.532C74.6126 580.703 87.0707 578.11 99.5108 575.378C104.542 574.281 108.659 576.2 112.893 577.365C118.111 578.787 120.617 573.593 125.707 573.808C132.679 574.1 140.178 573.129 146.782 569.625C159.011 560.227 172.726 554.25 187.77 551.275C189.512 551.195 191.252 550.765 192.997 551.193C193.877 551.187 194.704 550.99 195.495 550.636C197.14 548.631 200.489 549.137 201.612 546.365C204.993 543.266 210.233 542.518 212.624 538.427C215.357 533.739 219.536 531.457 224.168 529.995C227.871 528.836 230.81 526.964 233.194 524.5C235.258 523.526 237.271 522.499 239.213 521.263C239.969 520.664 240.707 520.047 241.376 519.361C241.75 518.413 242.176 517.589 242.638 516.816C243.618 516.338 244.458 515.441 245.071 514.02C253.832 513.409 261.856 510.894 268.098 504.296C270.121 502.167 272.335 500.194 275.113 500.248C289.244 500.603 299.453 490.867 311.535 486.002C313.893 485.061 315.329 482.742 316.005 480.289C317.779 473.856 322.27 469.001 325.343 463.313C331.389 461.686 335.916 456.935 341.874 455.097C345.577 453.956 348.134 451.631 350.08 448.103C353.153 442.503 357.647 438.102 363.742 436.089C370.286 433.916 375.818 430.069 381.455 426.344C384.325 424.437 387.283 422.88 390.608 422.021C390.953 421.914 391.297 421.825 391.641 421.718C392.692 421.379 393.69 420.953 394.548 420.231C395.028 419.65 395.525 419.088 396.039 418.525C398.032 417.113 400.445 416.644 402.543 415.477C403.247 415 403.952 414.524 404.657 414.047C409.372 412.077 413.756 409.445 418.315 407.161C428.821 398.35 440.807 391.648 453.216 386.606C475.367 377.623 495.081 364.717 513.784 350.294C526.888 340.191 541.193 334.683 556.94 331.004C565.02 329.119 573.102 327.602 581.256 326.435C588.013 325.486 592.18 318.182 599.604 319.206C600.378 318.782 601.187 318.392 602.012 318.002C602.67 318.243 603.344 318.467 604.084 318.287L604.032 318.183C610.999 314.695 617.406 309.898 625.44 308.959C636.247 313.235 646.103 311.078 655.154 304.148C656.649 303.002 658.074 301.909 659.971 301.81C665.335 301.534 669.7 298.692 674.188 296.146C676.194 296.921 678.162 297.102 680.105 295.919C680.105 295.919 680.087 295.919 680.07 295.901C685.209 295.504 690.364 294.914 695.504 294.779C708.303 294.459 720.539 292.288 731.678 285.346C734.807 283.403 738.246 281.476 741.762 280.808C749.086 279.418 754.808 275.517 760.197 270.761C760.612 270.829 760.939 270.704 761.231 270.475C761.7 271.067 762.272 271.554 763.033 271.812C767.575 272.661 770.74 271.12 772.076 266.422C777.439 262.996 779.051 258.385 776.912 252.588C776.264 250.824 775.563 249.096 774.898 247.35L774.881 247.438ZM3.87819 160.292C3.87819 160.292 3.96515 160.414 4.03459 160.483C4.0001 160.484 3.96556 160.484 3.93087 160.449C3.93087 160.449 3.93081 160.449 3.9136 160.449L3.87911 160.449C3.87881 160.397 3.91309 160.362 3.91278 160.309L3.87819 160.292ZM-0.514995 608.229C-0.430896 607.861 -0.312048 607.527 -0.140993 607.281C-0.277257 607.58 -0.396208 607.895 -0.514995 608.229ZM679.932 295.955C679.569 295.764 679.206 295.626 678.86 295.523C679.223 295.574 679.586 295.694 679.932 295.937C679.932 295.937 679.932 295.937 679.932 295.955Z" fill="white"/>
</svg>
