<svg width="135" height="212" viewBox="0 0 135 212" fill="none" xmlns="http://www.w3.org/2000/svg">
<g clip-path="url(#clip0_2205_6772)">
<path d="M69.4652 129.642C69.6955 130.2 69.9192 130.735 70.1736 131.286C71.7962 134.855 73.8966 137.904 76.3589 140.388C76.7484 140.774 77.1314 141.135 77.5078 141.472C82.7772 146.191 89.5482 148.376 96.8626 147.357C97.387 147.291 97.9047 147.201 98.4399 147.08C100.155 146.74 101.902 146.236 103.645 145.526C105.394 144.84 107.097 143.985 108.761 142.986C109.274 142.691 109.774 142.347 110.28 142.027C117.287 137.338 123.167 130.136 127.236 121.696C127.53 121.072 127.824 120.448 128.111 119.8C129.962 115.617 131.371 111.14 132.271 106.597C132.394 105.916 132.518 105.235 132.635 104.53C133.353 99.9835 133.549 95.3217 133.124 90.7521C132.7 86.1825 131.71 82.0007 130.236 78.3139C130.005 77.7556 129.782 77.2214 129.534 76.6938C127.911 73.1253 125.811 70.0759 123.348 67.5916C122.959 67.2064 122.576 66.8452 122.2 66.5082C116.93 61.7893 110.159 59.6044 102.845 60.6231C102.32 60.689 101.803 60.779 101.267 60.8996C99.5526 61.2397 97.8053 61.7439 96.0626 62.454C94.3133 63.14 92.6102 63.9946 90.9467 64.9937C90.4336 65.2895 89.9272 65.6094 89.4273 65.9534C82.4442 70.6352 76.5402 77.8436 72.4715 86.284C72.1775 86.9081 71.8835 87.5323 71.5961 88.1805C69.7452 92.3634 68.3363 96.8396 67.4366 101.383C67.3131 102.064 67.1896 102.745 67.0727 103.451C66.361 108.021 66.1585 112.658 66.583 117.228C67.0076 121.798 67.9975 125.979 69.4718 129.666L69.4652 129.642Z" fill="url(#paint0_linear_2205_6772)"/>
<path d="M82.0081 142.156C82.239 141.678 82.166 141.129 81.8532 140.93C80.497 140.032 79.228 138.982 78.0286 137.809C77.6697 137.441 77.3107 137.073 76.9692 136.675C76.8137 136.484 76.5711 136.447 76.3615 136.53C76.2173 136.57 76.0755 136.712 75.9643 136.872C75.6656 137.29 75.6731 137.884 75.9336 138.175C76.3057 138.591 76.6713 138.983 77.0302 139.35C78.2734 140.589 79.6103 141.699 81.0277 142.631C81.1808 142.719 81.3688 142.745 81.5304 142.675C81.7226 142.622 81.8993 142.418 82.0388 142.173" fill="url(#paint1_linear_2205_6772)"/>
<path d="M75.4632 82.5913C75.1951 83.0272 75.2266 83.614 75.5286 83.8678C75.6949 84.0035 75.8828 84.0297 76.0925 83.9465C76.2607 83.9004 76.4199 83.7274 76.5485 83.5368C77.9738 81.1014 79.5894 78.7951 81.343 76.7099C81.6549 76.3398 81.7261 75.7507 81.5005 75.3983C81.3319 75.1597 81.0827 75.0985 80.849 75.1883C80.7288 75.2212 80.6045 75.3329 80.5041 75.4381C78.6808 77.6459 77.0063 80.0201 75.5112 82.5782" fill="url(#paint2_linear_2205_6772)"/>
<path d="M111.845 63.3112C111.699 63.817 111.862 64.3162 112.227 64.4234C114.229 65.0401 116.123 65.9196 117.891 67.0926C118.044 67.1801 118.201 67.1888 118.393 67.1362C118.586 67.0836 118.762 66.8799 118.902 66.6346C119.133 66.1571 119.06 65.6076 118.747 65.4084C116.912 64.1764 114.902 63.2509 112.814 62.6057C112.698 62.5598 112.571 62.5686 112.458 62.6256C112.2 62.722 111.989 62.987 111.876 63.3287" fill="url(#paint3_linear_2205_6772)"/>
<path d="M122.782 70.0509C122.483 70.4692 122.484 71.0385 122.751 71.3537C124.216 73.0238 125.51 74.9218 126.634 77.0475C126.792 77.3408 127.072 77.4196 127.33 77.3231C127.426 77.2968 127.509 77.2223 127.616 77.1413C127.958 76.7886 128.084 76.2105 127.876 75.8274C126.725 73.6053 125.35 71.6002 123.817 69.8709C123.662 69.6805 123.419 69.6433 123.21 69.7266C123.066 69.7661 122.924 69.9085 122.813 70.0684" fill="url(#paint4_linear_2205_6772)"/>
<path d="M68.8031 99.3007C68.6881 99.824 68.892 100.286 69.268 100.338C69.3773 100.36 69.4734 100.334 69.5695 100.308C69.8512 100.205 70.0802 99.9089 70.1801 99.5191C70.829 96.7008 71.7206 93.9196 72.7718 91.2501C72.9721 90.7551 72.8577 90.2428 72.5034 90.0809C72.3569 90.0175 72.2062 90.0328 72.062 90.0723C71.8523 90.1556 71.6516 90.3659 71.5254 90.6593C70.4044 93.4515 69.4977 96.3663 68.8031 99.3007Z" fill="url(#paint5_linear_2205_6772)"/>
<path d="M119.244 132.505C119.556 132.135 119.628 131.546 119.402 131.193C119.233 130.955 118.984 130.894 118.75 130.983C118.63 131.016 118.506 131.128 118.412 131.257C116.683 133.336 114.822 135.217 112.829 136.902C112.473 137.207 112.324 137.791 112.484 138.187C112.624 138.512 112.917 138.638 113.223 138.529C113.295 138.509 113.36 138.465 113.443 138.391C115.525 136.656 117.487 134.669 119.293 132.492" fill="url(#paint6_linear_2205_6772)"/>
<path d="M94.2743 145.451C94.3412 144.941 94.0958 144.516 93.709 144.518C91.5631 144.51 89.4889 144.198 87.5169 143.599C87.401 143.553 87.2743 143.562 87.1607 143.619C86.903 143.715 86.6915 143.98 86.5784 144.322C86.4328 144.828 86.5953 145.327 86.9604 145.434C89.0176 146.062 91.2012 146.396 93.4497 146.402C93.5218 146.382 93.6005 146.386 93.666 146.342C93.9717 146.233 94.2356 145.876 94.2743 145.451Z" fill="url(#paint7_linear_2205_6772)"/>
<path d="M72.825 132.295C73.1675 131.942 73.2933 131.364 73.0851 130.981C72.8068 130.436 72.5284 129.891 72.274 129.339C71.5176 127.708 70.8855 125.965 70.3778 124.111C70.2723 123.726 69.9421 123.557 69.6189 123.697C69.5708 123.711 69.5228 123.724 69.4813 123.761C69.1124 124.017 68.9079 124.591 69.0266 125.025C69.5607 126.975 70.2366 128.784 71.0194 130.511C71.2803 131.087 71.5719 131.68 71.8743 132.219C72.0321 132.512 72.2879 132.597 72.5696 132.494C72.6657 132.468 72.7727 132.387 72.849 132.288" fill="url(#paint8_linear_2205_6772)"/>
<path d="M132.236 99.7716C132.272 99.2439 131.992 98.8805 131.595 98.9376C131.546 98.9508 131.498 98.9639 131.45 98.9771C131.127 99.1173 130.846 99.505 130.814 99.9539C130.658 102.12 130.375 104.294 129.946 106.405C129.822 107.086 129.668 107.749 129.514 108.413C129.399 108.936 129.596 109.374 129.979 109.451C130.088 109.473 130.184 109.446 130.28 109.42C130.562 109.317 130.791 109.021 130.867 108.638C131.038 107.944 131.179 107.232 131.327 106.545C131.747 104.307 132.058 102.047 132.236 99.7716Z" fill="url(#paint9_linear_2205_6772)"/>
<path d="M98.8082 63.6179C98.8133 64.1084 99.1417 64.4586 99.5435 64.3227C100.072 64.178 100.607 64.0573 101.149 63.9608C102.792 63.6405 104.426 63.4778 106.004 63.486C106.076 63.4663 106.155 63.4706 106.22 63.4268C106.526 63.3172 106.79 62.9602 106.852 62.5288C106.919 62.0186 106.674 61.5939 106.287 61.5962C104.631 61.5837 102.918 61.742 101.203 62.0821C100.637 62.1852 100.078 62.3124 99.5253 62.4637C99.5253 62.4637 99.4773 62.4768 99.4532 62.4834C99.082 62.6368 98.8205 63.0968 98.819 63.5631" fill="url(#paint10_linear_2205_6772)"/>
<path d="M86.3358 69.5699C85.9801 69.8744 85.8302 70.4591 85.9904 70.8553C86.1307 71.1793 86.4304 71.3303 86.7295 71.1966C86.8016 71.1769 86.8671 71.1331 86.95 71.0586C88.4449 69.8209 89.9728 68.7036 91.5949 67.7417C92.1079 67.4459 92.597 67.1567 93.1166 66.885C93.4987 66.6769 93.7404 66.1447 93.6566 65.6499C93.586 65.2032 93.2426 64.9866 92.8713 65.14C92.8473 65.1466 92.8233 65.1531 92.7992 65.1597C92.2622 65.4621 91.7185 65.7404 91.212 66.0602C89.5244 67.0659 87.907 68.2336 86.3532 69.5392" fill="url(#paint11_linear_2205_6772)"/>
<path d="M67.4584 108.16C67.2467 111.066 67.2643 113.961 67.5355 116.838L67.5618 116.934C67.5976 117.442 67.9542 117.707 68.3495 117.547C68.7447 117.387 69.0171 116.872 68.9813 116.364L68.9549 116.268C68.7168 113.511 68.7081 110.744 68.9047 107.971C68.9476 107.468 68.6608 107.08 68.2632 107.137C68.2151 107.151 68.1671 107.164 68.119 107.177C67.7958 107.317 67.5145 107.705 67.4825 108.154" fill="url(#paint12_linear_2205_6772)"/>
<path d="M129.772 82.6608C129.403 82.9172 129.199 83.4909 129.317 83.9244C129.977 86.3328 130.477 88.9142 130.721 91.6949C130.775 92.1722 131.138 92.4611 131.509 92.3077C131.904 92.1477 132.177 91.6331 132.141 91.1251C131.87 88.248 131.385 85.533 130.668 83.0108C130.563 82.6255 130.233 82.457 129.91 82.5973C129.861 82.6104 129.813 82.6236 129.772 82.6608Z" fill="url(#paint13_linear_2205_6772)"/>
<path d="M106.949 142.784C107.331 142.576 107.572 142.043 107.489 141.549C107.418 141.102 107.075 140.885 106.727 141.032C106.703 141.039 106.679 141.045 106.655 141.052C105.599 141.626 104.498 142.134 103.402 142.564C102.329 142.987 101.261 143.331 100.204 143.621C100.18 143.627 100.156 143.634 100.132 143.64C99.7609 143.794 99.4994 144.254 99.498 144.72C99.5031 145.211 99.8249 145.537 100.209 145.431C101.315 145.129 102.431 144.771 103.551 144.335C104.719 143.886 105.837 143.347 106.966 142.753" fill="url(#paint14_linear_2205_6772)"/>
<path d="M123.216 125.696C122.914 125.442 122.883 124.856 123.151 124.42C124.228 122.597 125.199 120.675 126.079 118.699C126.366 118.051 126.647 117.379 126.928 116.706C127.054 116.413 127.255 116.203 127.465 116.119C127.609 116.08 127.753 116.04 127.906 116.128C128.26 116.29 128.381 116.826 128.174 117.297C127.9 117.993 127.602 118.696 127.297 119.375C126.389 121.436 125.365 123.451 124.236 125.365C124.114 125.58 123.948 125.729 123.78 125.775C123.588 125.827 123.383 125.832 123.216 125.696Z" fill="url(#paint15_linear_2205_6772)"/>
<path d="M101.634 159.124C101.225 159.236 100.817 159.348 100.408 159.46C100.216 159.512 100 159.572 99.8078 159.624C99.2071 159.789 98.6173 159.898 98.01 160.039C97.3962 160.155 96.7823 160.271 96.1859 160.357C95.8123 160.408 95.4627 160.451 95.1132 160.495C94.7636 160.539 94.4141 160.583 94.0819 160.596C93.7258 160.616 93.3456 160.643 92.9894 160.663C92.6573 160.676 92.3011 160.696 91.969 160.709C91.6849 160.709 91.4249 160.703 91.1408 160.703C90.754 160.705 90.3673 160.707 89.9979 160.679C89.7138 160.679 89.4472 160.649 89.1565 160.625C88.7872 160.596 88.4178 160.568 88.0419 160.516C87.7753 160.485 87.5327 160.448 87.266 160.417C86.8901 160.365 86.5141 160.312 86.1622 160.253C85.889 160.199 85.6464 160.162 85.3731 160.107C84.9906 160.031 84.5775 159.937 84.1949 159.86C84.0004 159.81 83.8364 159.777 83.6419 159.727C83.0582 159.576 82.4985 159.418 81.9323 159.237L93.8805 163.163C94.4468 163.344 95.0131 163.526 95.5967 163.677C95.7673 163.734 95.9552 163.76 96.1192 163.793C96.3684 163.854 96.5936 163.922 96.8428 163.983C97.0067 164.016 97.1707 164.048 97.304 164.064C97.5532 164.125 97.7958 164.162 98.0624 164.193C98.4384 164.245 98.8209 164.321 99.1969 164.374C99.4395 164.411 99.7061 164.442 99.9487 164.479C100.082 164.494 100.191 164.516 100.325 164.531C100.561 164.544 100.821 164.551 101.063 164.588C101.354 164.612 101.621 164.642 101.905 164.642C102.274 164.67 102.661 164.668 103.024 164.672C103.308 164.672 103.592 164.672 103.9 164.666C103.972 164.646 104.057 164.674 104.129 164.654C104.383 164.637 104.636 164.619 104.866 164.608C105.246 164.582 105.609 164.586 105.982 164.536C106.308 164.498 106.657 164.454 106.989 164.441C107.363 164.391 107.743 164.364 108.117 164.314C108.213 164.287 108.316 164.285 108.418 164.283C108.912 164.199 109.43 164.109 109.947 164.019C110.537 163.91 111.145 163.769 111.745 163.605C111.937 163.552 112.154 163.493 112.346 163.441C112.754 163.329 113.139 163.223 113.547 163.112C113.619 163.092 113.691 163.072 113.763 163.052C114.052 162.973 114.309 162.877 114.591 162.774C114.759 162.728 114.928 162.682 115.113 162.605C115.653 162.406 116.168 162.213 116.707 162.013C117.24 161.79 117.773 161.566 118.306 161.343C118.492 161.266 118.647 161.172 118.832 161.095C119.197 160.918 119.544 160.771 119.909 160.593C120.112 160.486 120.291 160.385 120.5 160.302C120.841 160.131 121.158 159.967 121.468 159.778C121.671 159.671 121.874 159.563 122.07 159.432C122.249 159.331 122.428 159.23 122.607 159.13C122.852 158.985 123.096 158.84 123.341 158.696C124.002 158.282 124.664 157.868 125.319 157.429C125.539 157.291 125.729 157.136 125.926 157.004C126.36 156.704 126.818 156.398 127.246 156.073C127.501 155.874 127.781 155.668 128.036 155.469C128.398 155.188 128.785 154.901 129.147 154.621C129.468 154.378 129.758 154.117 130.048 153.856C130.363 153.589 130.683 153.346 130.967 153.061C130.991 153.055 131.015 153.048 131.033 153.017C131.198 152.868 131.364 152.719 131.53 152.571C131.986 152.161 132.442 151.751 132.892 151.318C133.116 151.101 133.359 150.853 133.583 150.636C133.967 150.246 134.351 149.857 134.735 149.467C134.977 149.219 135.213 148.947 135.449 148.676C135.809 148.293 136.144 147.916 136.498 147.508C136.733 147.237 136.993 146.959 137.222 146.663C137.551 146.262 137.905 145.855 138.234 145.454C138.352 145.318 138.487 145.152 138.605 145.016C138.705 144.911 138.775 144.788 138.869 144.659C139.386 144 139.896 143.316 140.406 142.633C140.517 142.473 140.611 142.344 140.729 142.208C141.326 141.371 141.917 140.51 142.484 139.656C142.519 139.595 142.554 139.534 142.612 139.466C142.735 139.251 142.881 139.03 143.009 138.839C143.319 138.366 143.622 137.869 143.925 137.372C144.123 137.059 144.291 136.728 144.489 136.415C144.775 135.948 145.036 135.488 145.291 135.004C145.378 134.851 145.465 134.698 145.553 134.545C145.675 134.33 145.773 134.122 145.895 133.907C146.104 133.539 146.306 133.147 146.485 132.762C146.688 132.37 146.89 131.978 147.069 131.592C147.247 131.207 147.45 130.815 147.629 130.429C147.709 130.252 147.796 130.099 147.877 129.921C148.09 129.475 148.28 129.034 148.487 128.564C148.9 127.622 149.307 126.656 149.691 125.697C149.736 125.581 149.806 125.458 149.845 125.318C149.908 125.171 149.947 125.031 150.004 124.86C150.158 124.481 150.282 124.085 150.437 123.706C150.574 123.358 150.687 123.016 150.8 122.675C150.948 122.272 151.072 121.875 151.22 121.472C151.287 121.247 151.379 121.015 151.446 120.789C151.468 120.68 151.52 120.588 151.542 120.478C151.666 120.082 151.783 119.661 151.931 119.258C152.02 118.923 152.133 118.582 152.222 118.247C152.34 117.826 152.457 117.406 152.557 117.016C152.635 116.736 152.72 116.48 152.774 116.206C152.785 116.151 152.813 116.066 152.824 116.011C152.952 115.536 153.056 115.067 153.167 114.623C153.239 114.318 153.317 114.038 153.365 113.74C153.501 113.107 153.638 112.474 153.751 111.848C153.766 111.714 153.811 111.598 153.827 111.465C153.827 111.465 153.813 111.417 153.831 111.386C153.987 110.541 154.143 109.695 154.275 108.857C154.353 108.292 154.43 107.727 154.508 107.162C154.556 106.864 154.586 106.597 154.634 106.299C154.746 105.388 154.834 104.484 154.915 103.555C154.939 103.264 154.963 102.973 154.986 102.682C155.027 102.075 155.085 101.438 155.101 100.838C155.099 100.735 155.127 100.65 155.131 100.571C155.133 100.389 155.135 100.207 155.137 100.026C155.173 99.2133 155.185 98.4075 155.19 97.5777C155.183 97.2689 155.2 96.9536 155.193 96.6449C155.189 95.688 155.155 94.7136 155.121 93.7392C155.101 93.667 155.129 93.5816 155.109 93.5093C155.109 93.5093 155.103 93.4853 155.096 93.4612C155.04 92.5963 154.978 91.7073 154.898 90.849C154.264 84.0066 152.655 77.8456 150.225 72.5563C148.125 67.902 145.387 63.9397 142.183 60.7266C138.539 57.0384 134.271 54.3752 129.588 52.8355L117.64 48.9095C122.323 50.4493 126.597 53.1366 130.234 56.8007C133.439 60.0138 136.159 64.0067 138.277 68.6304C140.707 73.9197 142.309 80.0566 142.949 86.9231C143.036 87.8055 143.092 88.6704 143.131 89.5659C143.15 89.6382 143.146 89.717 143.142 89.7958C143.183 90.7943 143.217 91.7687 143.227 92.7496C143.234 93.0583 143.241 93.3671 143.224 93.6824C143.219 94.5123 143.207 95.3181 143.178 96.1545C143.172 96.4151 143.172 96.6997 143.142 96.9669C143.108 97.5975 143.068 98.2041 143.01 98.8413C142.986 99.1325 142.963 99.4237 142.939 99.715C142.851 100.619 142.769 101.548 142.657 102.459C142.568 103.078 142.486 103.722 142.398 104.342C142.354 104.561 142.342 104.797 142.298 105.016C142.166 105.855 142.017 106.724 141.854 107.546C141.811 107.764 141.761 107.959 141.718 108.178C141.616 108.75 141.49 109.328 141.358 109.882C141.286 110.186 141.232 110.46 141.153 110.74C141.049 111.209 140.921 111.684 140.817 112.153C140.728 112.488 140.656 112.792 140.561 113.103C140.443 113.524 140.333 113.968 140.215 114.389C140.126 114.724 140.013 115.065 139.917 115.376C139.793 115.773 139.676 116.193 139.552 116.59C139.439 116.931 139.326 117.273 139.206 117.59C139.082 117.987 138.934 118.39 138.786 118.793C138.673 119.134 138.536 119.482 138.417 119.8C138.269 120.203 138.114 120.582 137.966 120.985C137.857 121.248 137.748 121.51 137.64 121.773C137.256 122.732 136.849 123.698 136.442 124.664C136.155 125.312 135.861 125.936 135.567 126.56C135.388 126.946 135.203 127.307 135.024 127.693C134.822 128.085 134.626 128.501 134.423 128.893C134.221 129.285 134.035 129.646 133.833 130.038C133.648 130.4 133.438 130.768 133.229 131.136C132.968 131.595 132.706 132.055 132.445 132.515C132.253 132.853 132.061 133.19 131.863 133.503C131.577 133.97 131.285 134.412 131 134.878C130.801 135.192 130.62 135.474 130.422 135.787C129.855 136.642 129.288 137.496 128.684 138.308C128.573 138.468 128.438 138.635 128.327 138.795C127.841 139.471 127.348 140.124 126.824 140.759C126.613 141.024 126.377 141.296 126.172 141.585C125.843 141.986 125.514 142.387 125.184 142.787C124.949 143.059 124.713 143.331 124.477 143.602C124.124 144.01 123.764 144.393 123.404 144.776C123.162 145.024 122.951 145.289 122.708 145.536C122.331 145.95 121.923 146.347 121.539 146.737C121.314 146.954 121.089 147.17 120.889 147.381C120.398 147.852 119.9 148.299 119.403 148.745C119.254 148.864 119.137 148.999 118.988 149.118C118.633 149.422 118.253 149.733 117.897 150.038C117.648 150.261 117.393 150.461 117.144 150.684C116.806 150.958 116.461 151.208 116.123 151.481C115.826 151.718 115.529 151.955 115.226 152.167C114.881 152.417 114.553 152.636 114.209 152.886C113.905 153.098 113.608 153.335 113.274 153.53C112.619 153.968 111.958 154.382 111.297 154.796C110.873 155.042 110.449 155.287 110.05 155.526C109.847 155.633 109.65 155.765 109.447 155.872C109.107 156.043 108.797 156.231 108.456 156.402C108.253 156.51 108.074 156.61 107.864 156.694C107.5 156.871 107.159 157.042 106.788 157.196C106.602 157.272 106.447 157.366 106.262 157.443C105.735 157.691 105.203 157.914 104.663 158.114C104.13 158.337 103.591 158.537 103.045 158.712C102.877 158.758 102.708 158.804 102.523 158.881C102.162 158.98 101.839 159.12 101.503 159.212L101.634 159.124Z" fill="url(#paint16_linear_2205_6772)"/>
<path d="M150.356 72.4688C148.256 67.8144 145.518 63.8522 142.314 60.639L130.366 56.7131C133.57 59.9262 136.29 63.9191 138.408 68.5428L150.356 72.4688Z" fill="url(#paint17_linear_2205_6772)"/>
<path d="M108.58 156.291C108.377 156.398 108.198 156.499 107.988 156.582C107.624 156.76 107.283 156.931 106.912 157.084C106.726 157.161 106.571 157.255 106.386 157.332C105.859 157.579 105.327 157.803 104.787 158.002C104.254 158.226 103.715 158.425 103.169 158.601C103.001 158.647 102.832 158.693 102.647 158.769C102.286 158.868 101.963 159.008 101.627 159.1C101.218 159.212 100.81 159.324 100.401 159.436C100.209 159.489 99.993 159.548 99.8008 159.6C99.2002 159.765 98.6103 159.874 98.0031 160.015L109.975 163.934C110.565 163.824 111.172 163.684 111.773 163.52C111.965 163.467 112.182 163.408 112.374 163.355C112.782 163.243 113.167 163.138 113.575 163.026C113.647 163.007 113.719 162.987 113.791 162.967C114.08 162.888 114.337 162.792 114.619 162.689C114.787 162.643 114.955 162.597 115.141 162.52C115.681 162.32 116.196 162.128 116.735 161.928C117.268 161.705 117.801 161.481 118.334 161.257C118.52 161.181 118.675 161.087 118.86 161.01C119.225 160.832 119.572 160.686 119.937 160.508C120.14 160.401 120.319 160.3 120.528 160.217C120.869 160.046 121.186 159.881 121.496 159.693C121.699 159.586 121.902 159.478 122.098 159.347C122.277 159.246 122.456 159.145 122.635 159.044C122.88 158.9 123.124 158.755 123.369 158.611L111.421 154.685C110.997 154.93 110.573 155.175 110.174 155.414C109.971 155.522 109.774 155.653 109.571 155.76C109.231 155.931 108.921 156.12 108.58 156.291Z" fill="url(#paint18_linear_2205_6772)"/>
<path d="M141.271 110.605C141.167 111.073 141.039 111.549 140.935 112.017C140.845 112.352 140.774 112.657 140.678 112.968C140.561 113.388 140.45 113.833 140.333 114.253C140.244 114.588 140.131 114.93 140.035 115.241C139.911 115.637 139.794 116.057 139.67 116.454C139.557 116.795 139.444 117.137 139.324 117.455C139.2 117.851 139.052 118.254 138.904 118.657C138.791 118.998 138.654 119.347 138.534 119.664C138.386 120.067 138.232 120.446 138.084 120.849C137.975 121.112 137.866 121.375 137.757 121.637C137.374 122.597 136.967 123.562 136.56 124.528L148.508 128.454C148.922 127.512 149.329 126.547 149.712 125.587C149.758 125.471 149.827 125.349 149.867 125.209C149.93 125.062 149.969 124.922 150.025 124.751C150.18 124.372 150.304 123.976 150.458 123.597C150.595 123.249 150.709 122.907 150.822 122.565C150.97 122.162 151.094 121.766 151.242 121.363C151.309 121.137 151.4 120.905 151.468 120.68C151.489 120.57 151.542 120.478 151.563 120.369C151.687 119.972 151.805 119.552 151.953 119.149C152.042 118.814 152.155 118.472 152.244 118.137C152.361 117.717 152.478 117.296 152.578 116.907C152.657 116.626 152.741 116.37 152.796 116.096C152.806 116.042 152.835 115.956 152.846 115.901C152.974 115.426 153.078 114.958 153.189 114.513C153.26 114.209 153.339 113.928 153.386 113.631C153.523 112.998 153.659 112.365 153.772 111.739C153.787 111.605 153.833 111.489 153.848 111.355C153.848 111.355 153.835 111.307 153.852 111.277L141.904 107.351C141.861 107.57 141.811 107.765 141.767 107.983C141.666 108.555 141.54 109.133 141.407 109.687C141.336 109.992 141.281 110.265 141.203 110.546L141.271 110.605Z" fill="url(#paint19_linear_2205_6772)"/>
<path d="M61.2816 139.468C63.4063 144.116 66.12 148.084 69.3242 151.298C76.8466 158.869 86.9934 162.252 98.0099 160.039C100.242 159.609 102.488 158.942 104.77 158.033C107.052 157.123 109.257 156.028 111.403 154.715C122.046 148.306 130.888 137.394 136.549 124.583C138.957 119.134 140.784 113.353 141.948 107.416C143.251 100.665 143.666 93.6909 143.056 86.842C142.447 79.993 140.813 73.8386 138.384 68.5493C136.283 63.8949 133.545 59.9327 130.341 56.7195L122.151 66.5212C122.534 66.8824 122.917 67.2435 123.3 67.6047C125.762 70.089 127.863 73.1384 129.486 76.7069C129.733 77.2345 129.964 77.7928 130.187 78.3269C131.662 82.0137 132.651 86.1956 133.076 90.7652C133.501 95.3348 133.305 99.9966 132.586 104.543C132.469 105.248 132.37 105.922 132.223 106.61C131.353 111.171 129.938 115.623 128.063 119.813C127.776 120.461 127.482 121.085 127.188 121.709C123.119 130.15 117.215 137.358 110.232 142.04C109.732 142.384 109.225 142.704 108.712 142.999C107.049 143.998 105.346 144.853 103.596 145.539C101.847 146.225 100.106 146.753 98.3916 147.093C97.8498 147.19 97.3321 147.28 96.8143 147.37C89.4759 148.395 82.7289 146.204 77.4595 141.485C77.0766 141.124 76.6936 140.763 76.3106 140.402C73.8484 137.917 71.748 134.868 70.1253 131.299C69.8775 130.772 69.6472 130.213 69.4169 129.655C67.9426 125.968 66.9527 121.787 66.5282 117.217C66.1036 112.647 66.2995 107.985 67.0178 103.44C67.1173 102.765 67.2342 102.06 67.3817 101.372C68.2748 96.8045 69.6664 92.359 71.5346 88.1454C71.822 87.4972 72.1161 86.873 72.4101 86.2488C76.4788 77.8085 82.3827 70.6001 89.3658 65.9183C89.8657 65.5743 90.3722 65.2544 90.8852 64.9586C92.5488 63.9595 94.2519 63.1049 96.0011 62.4189C97.7504 61.7329 99.4912 61.2046 101.206 60.8645C101.748 60.768 102.266 60.678 102.783 60.588C110.122 59.5627 116.869 61.7542 122.138 66.4731L130.328 56.6714C122.806 49.1002 112.665 45.7408 101.618 47.9367C99.3858 48.3667 97.1404 49.0332 94.8583 49.9428C92.5762 50.8524 90.3709 51.948 88.2249 53.2604C77.5822 59.6691 68.7339 70.5571 63.0792 83.3927C60.6709 88.8414 58.8445 94.6227 57.6803 100.559C56.3842 107.335 55.9625 114.285 56.572 121.134C57.2056 127.976 58.8148 134.137 61.2443 139.426L61.2816 139.468Z" fill="url(#paint20_linear_2205_6772)"/>
<path d="M67.4368 101.383C67.3133 102.065 67.1898 102.746 67.0729 103.451L57.7246 100.625C58.8646 94.6952 60.6911 88.9139 63.1234 83.4586L72.4477 86.2906C72.1537 86.9148 71.8597 87.5389 71.5723 88.1872C69.7214 92.3701 68.3125 96.8462 67.4193 101.414L67.4368 101.383Z" fill="url(#paint21_linear_2205_6772)"/>
<path d="M96.0321 62.4365C94.2828 63.1225 92.5797 63.9771 90.9162 64.9762C90.4031 65.272 89.8967 65.5919 89.3968 65.9359L88.2318 53.2846C90.3778 51.9722 92.5832 50.8765 94.8653 49.967C97.1474 49.0574 99.3927 48.3909 101.625 47.9609L102.79 60.6122C102.266 60.6781 101.748 60.7681 101.213 60.8887C99.4981 61.2287 97.7507 61.733 96.0081 62.4431L96.0321 62.4365Z" fill="url(#paint22_linear_2205_6772)"/>
<path d="M70.1731 131.286C71.7957 134.855 73.8961 137.904 76.3584 140.388C76.748 140.774 77.1309 141.135 77.5073 141.472L69.3173 151.273C66.1131 148.06 63.3929 144.067 61.2747 139.444L69.4647 129.642C69.695 130.2 69.9187 130.734 70.1731 131.286Z" fill="url(#paint23_linear_2205_6772)"/>
<path d="M129.51 76.7006C127.888 73.1321 125.787 70.0827 123.325 67.5984C122.935 67.2132 122.552 66.852 122.176 66.515L130.366 56.7133C133.57 59.9265 136.291 63.9193 138.409 68.543L130.219 78.3448C129.988 77.7865 129.765 77.2523 129.517 76.7247L129.51 76.7006Z" fill="url(#paint24_linear_2205_6772)"/>
<path d="M111.428 154.709C109.282 156.021 107.052 157.123 104.794 158.026C102.512 158.936 100.267 159.602 98.0343 160.032L96.8694 147.381C97.3937 147.315 97.9115 147.225 98.4466 147.105C100.161 146.765 101.909 146.26 103.652 145.55C105.401 144.864 107.104 144.01 108.767 143.01C109.28 142.715 109.78 142.371 110.287 142.051L111.452 154.702L111.428 154.709Z" fill="url(#paint25_linear_2205_6772)"/>
<path d="M132.253 106.627C132.377 105.946 132.5 105.265 132.617 104.56L141.972 107.41C140.832 113.34 138.982 119.128 136.573 124.576L127.218 121.727C127.512 121.103 127.806 120.478 128.094 119.83C129.945 115.647 131.354 111.171 132.253 106.627Z" fill="url(#paint26_linear_2205_6772)"/>
<path d="M103.247 141.337C101.666 141.977 100.11 142.429 98.5638 142.723C90.9464 144.239 83.9305 141.914 78.728 136.685C76.5197 134.468 74.6251 131.698 73.156 128.502C71.483 124.844 70.3706 120.592 69.9305 115.871C69.4904 111.151 69.7975 106.329 70.6817 101.634C71.4706 97.5346 72.7514 93.5337 74.4062 89.7669C78.3082 80.9061 84.4345 73.3781 91.7917 68.9303C93.2762 68.032 94.8003 67.2782 96.3813 66.6382C97.9624 65.9983 99.5176 65.5466 101.064 65.2526C108.682 63.7367 115.722 66.0551 120.9 71.2908C123.108 73.5081 125.003 76.2772 126.472 79.4735C128.145 83.1318 129.257 87.3837 129.698 92.1043C130.138 96.825 129.831 101.647 128.946 106.342C128.157 110.441 126.877 114.442 125.222 118.209C121.32 127.069 115.2 134.622 107.836 139.045C106.352 139.944 104.828 140.697 103.247 141.337Z" fill="url(#paint27_linear_2205_6772)"/>
<g style="mix-blend-mode:overlay">
<path d="M85.3419 160.09C85.3419 160.09 86.0086 160.166 87.2457 160.345C87.567 160.387 87.8882 160.428 88.2882 160.474C88.6575 160.502 89.099 160.511 89.5404 160.519C90.4473 160.53 91.4832 160.635 92.6346 160.501C93.2202 160.47 93.8232 160.408 94.4634 160.388C95.0971 160.344 95.7524 160.191 96.4449 160.079C97.8191 159.91 99.2782 159.484 100.847 159.081C101.646 158.888 102.382 158.557 103.21 158.279C104.031 157.976 104.81 157.711 105.653 157.299C106.479 156.918 107.328 156.53 108.195 156.111C109.025 155.651 109.848 155.167 110.725 154.694C110.928 154.586 111.173 154.442 111.352 154.341L111.983 153.909C112.393 153.616 112.834 153.34 113.269 153.039C114.113 152.446 115.05 151.905 115.838 151.197C116.663 150.531 117.505 149.834 118.347 149.138C119.19 148.441 119.969 147.607 120.791 146.838C122.467 145.317 123.924 143.469 125.51 141.714C126.923 139.8 128.506 137.943 129.788 135.831C130.139 135.321 130.459 134.793 130.81 134.283L131.318 133.497L131.789 132.669C132.392 131.572 133.02 130.468 133.648 129.364C134.245 128.243 134.774 127.062 135.334 125.899C135.617 125.33 135.917 124.73 136.146 124.15L136.89 122.341L137.628 120.508C137.874 119.897 138.066 119.275 138.287 118.67C138.694 117.42 139.169 116.228 139.514 114.943C139.866 113.682 140.266 112.407 140.564 111.135L141.394 107.283C142.38 102.016 142.835 96.7919 142.777 91.5784C142.67 86.378 141.913 81.2523 140.693 76.5122C140.346 75.3387 139.992 74.1411 139.627 72.9983C139.191 71.8752 138.73 70.7586 138.3 69.6596L137.973 68.843L137.574 68.0461C137.302 67.5251 137.048 66.9734 136.776 66.4523C136.298 65.3664 135.63 64.4361 135.082 63.4729C134.528 62.4855 133.849 61.6099 133.194 60.7278C132.87 60.2987 132.564 59.839 132.216 59.4165C131.85 59.0247 131.502 58.6023 131.136 58.2105C130.795 57.8121 130.429 57.4203 130.094 57.046C129.711 56.6848 129.328 56.3237 128.969 55.9559C128.611 55.5882 128.217 55.2818 127.84 54.9448C127.464 54.6077 127.094 54.2947 126.676 53.9949C123.556 51.5612 120.25 49.9552 117.211 48.9491C114.13 47.9803 111.317 47.6113 109.025 47.5399C107.869 47.4681 106.831 47.5451 105.931 47.5586C105.02 47.6268 104.266 47.7037 103.639 47.7718C102.398 47.9562 101.754 48.055 101.754 48.055C101.754 48.055 102.415 47.9256 103.643 47.693C104.264 47.6008 105.011 47.4998 105.915 47.4075C106.826 47.3393 107.864 47.2623 109.031 47.2793C111.358 47.2894 114.224 47.5664 117.363 48.4674C120.485 49.399 123.929 50.9414 127.158 53.3969C127.576 53.6968 127.97 54.0032 128.37 54.3336C128.771 54.6641 129.195 54.988 129.554 55.3558C129.937 55.7169 130.32 56.0781 130.703 56.4392C131.069 56.831 131.434 57.2228 131.806 57.6387C132.172 58.0305 132.544 58.4464 132.916 58.8623C133.288 59.2782 133.595 59.7379 133.95 60.1844C134.635 61.0841 135.344 61.9772 135.929 62.9821C136.539 63.9803 137.244 64.9522 137.715 66.014C137.987 66.5351 138.259 67.0561 138.531 67.5771L138.929 68.374L139.294 69.2322C139.754 70.3488 140.221 71.4894 140.695 72.6541C141.073 73.8451 141.427 75.0427 141.804 76.2337C143.101 81.1599 143.883 86.279 144.023 91.5998C144.125 96.879 143.657 102.34 142.706 107.545L141.823 111.489C141.508 112.792 141.108 114.067 140.738 115.359C140.393 116.644 139.908 117.89 139.484 119.171C139.268 119.8 139.059 120.452 138.807 121.039L138.062 122.848L137.318 124.657C137.048 125.275 136.741 125.851 136.464 126.444C135.88 127.614 135.351 128.794 134.737 129.946C134.092 131.08 133.464 132.184 132.813 133.295L132.342 134.123L131.81 134.915C131.465 135.45 131.114 135.96 130.77 136.495C129.447 138.643 127.846 140.531 126.354 142.441C124.696 144.215 123.209 146.046 121.461 147.586C120.614 148.362 119.836 149.196 118.939 149.882C118.048 150.592 117.199 151.264 116.326 151.943C115.49 152.664 114.565 153.151 113.72 153.744C113.279 154.02 112.869 154.314 112.428 154.59L111.79 154.998C111.546 155.142 111.343 155.249 111.115 155.363C110.238 155.837 109.36 156.31 108.506 156.777C107.64 157.195 106.777 157.535 105.951 157.916C105.532 158.083 105.15 158.291 104.7 158.44C104.268 158.558 103.848 158.725 103.447 158.861C102.612 159.115 101.822 159.435 101.04 159.598C99.4581 159.953 97.9925 160.354 96.581 160.482C95.8819 160.57 95.22 160.699 94.5798 160.719C93.9395 160.739 93.3299 160.776 92.7377 160.783C91.5732 160.869 90.5306 160.74 89.6172 160.705C89.1691 160.673 88.7517 160.658 88.3758 160.605C87.9999 160.553 87.648 160.494 87.3441 160.422C86.1244 160.212 85.4512 160.111 85.4512 160.111L85.3419 160.09Z" fill="#DBDBDB"/>
</g>
</g>
<path fill-rule="evenodd" clip-rule="evenodd" d="M91.1217 103.057L91.1222 103.06C91.5221 105.307 91.2596 107.717 90.3244 110.282L90.2708 110.429L90.3639 110.466C92.0482 111.119 93.145 112.575 93.6871 114.836L93.7377 115.069C93.7705 115.22 93.8023 115.366 93.8287 115.536L93.8292 115.539C94.2332 117.835 93.9561 120.26 92.9872 122.881C91.9499 125.67 90.461 127.805 88.4725 129.314C86.484 130.822 84.6208 131.231 82.8378 130.582C81.0674 129.918 79.9167 128.39 79.3888 125.956C78.8671 123.551 79.1086 120.995 80.0946 118.257L80.1473 118.111L80.0548 118.075C78.3301 117.406 77.201 115.871 76.6817 113.477C76.1525 111.038 76.4087 108.442 77.4312 105.658C78.4658 102.86 79.9579 100.742 81.9469 99.2324C83.936 97.7231 85.7955 97.2981 87.5804 97.9579C89.3038 98.6 90.4299 100.063 90.9801 102.357L91.0306 102.59C91.0634 102.741 91.0952 102.888 91.1217 103.057ZM85.4707 103.754L85.4703 103.754C84.7188 103.482 83.8793 103.694 83.0511 104.323C82.2201 104.953 81.613 105.841 81.1769 107.012L81.1767 107.012C80.7446 108.181 80.6338 109.273 80.856 110.297C81.0767 111.314 81.5673 111.977 82.3117 112.241C83.06 112.507 83.8239 112.341 84.6539 111.711C85.4812 111.083 86.1653 110.154 86.6045 108.984C87.0399 107.824 87.1451 106.71 86.9244 105.693C86.7023 104.669 86.2161 104.03 85.4707 103.754ZM88.1777 116.233L88.1773 116.233C87.4271 115.961 86.6242 116.144 85.7946 116.774C84.965 117.403 84.3208 118.318 83.8839 119.49L83.8837 119.491C83.4516 120.66 83.3409 121.752 83.563 122.776C83.7839 123.794 84.2723 124.444 85.0179 124.72L85.0187 124.72C85.7655 124.985 86.534 124.843 87.3658 124.212C88.1948 123.583 88.8732 122.63 89.3115 121.463L89.312 121.461C89.7442 120.292 89.8523 119.189 89.6314 118.171C89.4093 117.147 88.9231 116.508 88.1777 116.233Z" fill="#9A0101"/>
<path fill-rule="evenodd" clip-rule="evenodd" d="M104.998 99.3615C106.679 100.018 107.78 101.471 108.322 103.731L108.372 103.964C108.388 104.035 108.401 104.108 108.415 104.185L108.415 104.186C108.43 104.266 108.445 104.35 108.464 104.437C108.859 106.74 108.59 109.158 107.622 111.777C106.594 114.559 105.109 116.69 103.13 118.192C101.15 119.695 99.2457 120.133 97.4724 119.478C95.6933 118.821 94.5515 117.286 94.0234 114.852C93.5017 112.447 93.7346 109.898 94.7287 107.154L94.782 107.007L94.6888 106.971C92.9561 106.308 91.8357 104.767 91.3163 102.373C90.787 99.9331 91.0345 97.3446 92.0657 94.5546L92.0659 94.5541C93.091 91.7632 94.6237 89.6137 96.6043 88.111C98.5841 86.6088 100.439 86.1871 102.215 86.8537L102.215 86.8537C103.938 87.4958 105.064 88.9587 105.615 91.2528L105.665 91.4858C105.681 91.5565 105.694 91.629 105.708 91.7065L105.708 91.7076C105.723 91.7872 105.738 91.8714 105.757 91.9585C106.143 94.2154 105.893 96.6157 104.959 99.1783L104.905 99.3252L104.998 99.3615ZM100.407 105.687C99.5674 106.326 98.9488 107.222 98.5183 108.387C98.0863 109.556 97.9755 110.648 98.1977 111.671C98.4185 112.69 98.9069 113.34 99.6526 113.615L99.653 113.616C100.396 113.885 101.179 113.731 102.023 113.091C102.862 112.454 103.508 111.525 103.942 110.361C104.379 109.188 104.482 108.088 104.261 107.071C104.039 106.047 103.558 105.404 102.808 105.132C102.064 104.857 101.26 105.042 100.424 105.673L100.407 105.687ZM100.101 92.6535C99.3543 92.3777 98.5468 92.5651 97.7085 93.2012C96.8647 93.8414 96.2434 94.7392 95.8113 95.9082C95.3792 97.0771 95.2685 98.1689 95.4906 99.1928C95.7113 100.21 96.2019 100.872 96.9461 101.137C97.6909 101.407 98.4685 101.229 99.3113 100.59C100.149 99.9544 100.8 99.0486 101.235 97.8833C101.675 96.7196 101.775 95.6087 101.554 94.5919C101.332 93.5685 100.851 92.9256 100.101 92.6535Z" fill="#9A0101"/>
<path fill-rule="evenodd" clip-rule="evenodd" d="M122.956 92.6273C122.414 90.3672 121.313 88.9141 119.629 88.2608L119.535 88.2247L119.589 88.0775C120.528 85.5116 120.777 83.106 120.392 80.8546C120.375 80.7747 120.36 80.695 120.346 80.6188L120.344 80.6078L120.344 80.6065L120.341 80.5941C120.328 80.5199 120.314 80.4493 120.3 80.3817L120.25 80.1542C119.699 77.8545 118.573 76.3918 116.845 75.7531L116.844 75.753C115.074 75.0832 113.21 75.5114 111.23 77.0138C109.249 78.5164 107.735 80.652 106.7 83.4505C105.669 86.2406 105.422 88.829 105.951 91.269C106.47 93.6633 107.591 95.2041 109.323 95.8669L109.416 95.9025L109.363 96.0497C108.369 98.7937 108.136 101.343 108.658 103.748C109.186 106.182 110.328 107.717 112.107 108.374C113.885 109.026 115.775 108.597 117.755 107.095C119.735 105.593 121.228 103.455 122.252 100.677L122.252 100.677C123.225 98.0533 123.493 95.6357 123.099 93.3333C123.08 93.246 123.065 93.1618 123.05 93.0821L123.05 93.0811L123.047 93.0674C123.034 92.9951 123.021 92.9268 123.007 92.8604L122.956 92.6273ZM113.153 97.2826C113.585 96.1148 114.203 95.2606 115.04 94.6227L115.057 94.6098L115.057 94.6094C115.889 93.9808 116.696 93.7524 117.442 94.0281C118.193 94.3003 118.674 94.9431 118.896 95.9665C119.117 96.9841 119.014 98.0836 118.576 99.2573C118.143 100.421 117.487 101.357 116.649 101.994C115.804 102.635 115.03 102.781 114.288 102.511C113.537 102.239 113.053 101.585 112.832 100.567C112.61 99.544 112.716 98.4559 113.153 97.2826ZM114.735 81.5495C115.486 81.8217 115.967 82.4645 116.189 83.4878C116.41 84.5046 116.309 85.6155 115.869 86.7794C115.435 87.945 114.774 88.8575 113.937 89.4925C113.094 90.1323 112.325 90.3026 111.581 90.0328C110.836 89.7683 110.346 89.1061 110.125 88.0887C109.903 87.0649 110.014 85.9733 110.446 84.8044C110.877 83.6296 111.49 82.7441 112.334 82.104C113.171 81.4686 113.987 81.2678 114.735 81.5495Z" fill="#9A0101"/>
<path d="M103.942 110.361C103.508 111.525 102.862 112.454 102.023 113.091C101.179 113.731 100.396 113.885 99.653 113.616L99.6526 113.615C98.9069 113.34 98.4185 112.69 98.1977 111.671C97.9755 110.648 98.0863 109.556 98.5183 108.387C98.9488 107.222 99.5674 106.326 100.407 105.687L100.424 105.673C101.26 105.042 102.064 104.857 102.808 105.132C103.558 105.404 104.039 106.047 104.261 107.071C104.482 108.088 104.379 109.188 103.942 110.361ZM103.942 110.361L103.847 110.326M118.576 99.2573C119.014 98.0836 119.117 96.9841 118.896 95.9665C118.674 94.9431 118.193 94.3003 117.442 94.0281C116.696 93.7524 115.889 93.9808 115.057 94.6094L115.057 94.6098L115.04 94.6227C114.203 95.2606 113.585 96.1148 113.153 97.2826C112.716 98.4559 112.61 99.544 112.832 100.567C113.053 101.585 113.537 102.239 114.288 102.511M118.576 99.2573C118.143 100.421 117.487 101.357 116.649 101.994C115.804 102.635 115.03 102.781 114.288 102.511M118.576 99.2573L118.481 99.2215M114.288 102.511L114.342 102.362M85.4703 103.754L85.4707 103.754C86.2161 104.03 86.7023 104.669 86.9244 105.693C87.1451 106.71 87.0399 107.824 86.6045 108.984C86.1653 110.154 85.4812 111.083 84.6539 111.711C83.8239 112.341 83.06 112.507 82.3117 112.241C81.5673 111.977 81.0767 111.314 80.856 110.297C80.6338 109.273 80.7446 108.181 81.1767 107.012L81.1769 107.012C81.613 105.841 82.2201 104.953 83.0511 104.323C83.8793 103.694 84.7188 103.482 85.4703 103.754ZM91.1222 103.06L91.1217 103.057C91.0952 102.888 91.0634 102.741 91.0306 102.59L90.9801 102.357C90.4299 100.063 89.3038 98.6 87.5804 97.9579C85.7955 97.2981 83.936 97.7231 81.9469 99.2324C79.9579 100.742 78.4658 102.86 77.4312 105.658C76.4087 108.442 76.1525 111.038 76.6817 113.477C77.201 115.871 78.3301 117.406 80.0548 118.075L80.1473 118.111L80.0946 118.257C79.1086 120.995 78.8671 123.551 79.3888 125.956C79.9167 128.39 81.0674 129.918 82.8378 130.582C84.6208 131.231 86.484 130.822 88.4725 129.314C90.461 127.805 91.9499 125.67 92.9872 122.881C93.9561 120.26 94.2332 117.835 93.8292 115.539L93.8287 115.536C93.8023 115.366 93.7705 115.22 93.7377 115.069L93.6871 114.836C93.145 112.575 92.0482 111.119 90.3639 110.466L90.2708 110.429L90.3244 110.282C91.2596 107.717 91.5221 105.307 91.1222 103.06ZM88.1773 116.233L88.1777 116.233C88.9231 116.508 89.4093 117.147 89.6314 118.171C89.8523 119.189 89.7442 120.292 89.312 121.461L89.3115 121.463C88.8732 122.63 88.1948 123.583 87.3658 124.212C86.534 124.843 85.7655 124.985 85.0187 124.72L85.0179 124.72C84.2723 124.444 83.7839 123.794 83.563 122.776C83.3409 121.752 83.4516 120.66 83.8837 119.491L83.8839 119.49C84.3208 118.318 84.965 117.403 85.7946 116.774C86.6242 116.144 87.4271 115.961 88.1773 116.233ZM108.322 103.731C107.78 101.471 106.679 100.018 104.998 99.3615L104.905 99.3252L104.959 99.1783C105.893 96.6157 106.143 94.2154 105.757 91.9585C105.738 91.8714 105.723 91.7872 105.708 91.7076L105.708 91.7065C105.694 91.629 105.681 91.5565 105.665 91.4858L105.615 91.2528C105.064 88.9587 103.938 87.4958 102.215 86.8537L102.215 86.8537C100.439 86.1871 98.5841 86.6088 96.6043 88.111C94.6237 89.6137 93.091 91.7632 92.0659 94.5541L92.0657 94.5546C91.0345 97.3446 90.787 99.9331 91.3163 102.373C91.8357 104.767 92.9561 106.308 94.6888 106.971L94.782 107.007L94.7287 107.154C93.7346 109.898 93.5017 112.447 94.0234 114.852C94.5515 117.286 95.6933 118.821 97.4724 119.478C99.2457 120.133 101.15 119.695 103.13 118.192C105.109 116.69 106.594 114.559 107.622 111.777C108.59 109.158 108.859 106.74 108.464 104.437C108.445 104.35 108.43 104.266 108.415 104.186L108.415 104.185C108.401 104.108 108.388 104.035 108.372 103.964L108.322 103.731ZM97.7085 93.2012C98.5468 92.5651 99.3543 92.3777 100.101 92.6535C100.851 92.9256 101.332 93.5685 101.554 94.5919C101.775 95.6087 101.675 96.7196 101.235 97.8833C100.8 99.0486 100.149 99.9544 99.3113 100.59C98.4685 101.229 97.6909 101.407 96.9461 101.137C96.2019 100.872 95.7113 100.21 95.4906 99.1928C95.2685 98.1689 95.3792 97.0771 95.8113 95.9082C96.2434 94.7392 96.8647 93.8414 97.7085 93.2012ZM119.629 88.2608C121.313 88.9141 122.414 90.3672 122.956 92.6273L123.007 92.8604C123.021 92.9268 123.034 92.9951 123.047 93.0674L123.05 93.0811L123.05 93.0821C123.065 93.1618 123.08 93.246 123.099 93.3333C123.493 95.6357 123.225 98.0533 122.252 100.677L122.252 100.677C121.228 103.455 119.735 105.593 117.755 107.095C115.775 108.597 113.885 109.026 112.107 108.374C110.328 107.717 109.186 106.182 108.658 103.748C108.136 101.343 108.369 98.7937 109.363 96.0497L109.416 95.9025L109.323 95.8669C107.591 95.2041 106.47 93.6633 105.951 91.269C105.422 88.829 105.669 86.2406 106.7 83.4505C107.735 80.652 109.249 78.5164 111.23 77.0138C113.21 75.5114 115.074 75.0832 116.844 75.753L116.845 75.7531C118.573 76.3918 119.699 77.8545 120.25 80.1542L120.3 80.3817C120.314 80.4493 120.328 80.5199 120.341 80.5941L120.344 80.6065L120.344 80.6078L120.346 80.6188C120.36 80.695 120.375 80.7747 120.392 80.8546C120.777 83.106 120.528 85.5116 119.589 88.0775L119.535 88.2247L119.629 88.2608ZM116.189 83.4878C115.967 82.4645 115.486 81.8217 114.735 81.5495C113.987 81.2678 113.171 81.4686 112.334 82.104C111.49 82.7441 110.877 83.6296 110.446 84.8044C110.014 85.9733 109.903 87.0649 110.125 88.0887C110.346 89.1061 110.836 89.7683 111.581 90.0328C112.325 90.3026 113.094 90.1323 113.937 89.4925C114.774 88.8575 115.435 87.945 115.869 86.7794C116.309 85.6155 116.41 84.5046 116.189 83.4878Z" stroke="#9A0101" stroke-width="0.748189"/>
<path fill-rule="evenodd" clip-rule="evenodd" d="M89.9557 102.674L89.9562 102.678C90.356 104.924 90.0936 107.335 89.1584 109.9L89.1048 110.047L89.1979 110.083C90.8822 110.736 91.9789 112.192 92.5211 114.453L92.5716 114.686C92.6044 114.837 92.6362 114.984 92.6627 115.153L92.6632 115.156C93.0671 117.452 92.7901 119.877 91.8212 122.499C90.7839 125.287 89.295 127.422 87.3065 128.931C85.318 130.44 83.4547 130.848 81.6718 130.199C79.9014 129.535 78.7507 128.007 78.2227 125.573C77.7011 123.168 77.9426 120.612 78.9286 117.874L78.9813 117.728L78.8888 117.692C77.1641 117.023 76.035 115.488 75.5157 113.094C74.9865 110.655 75.2427 108.059 76.2652 105.276C77.2997 102.477 78.7919 100.359 80.7809 98.8495C82.77 97.3403 84.6295 96.9153 86.4143 97.575C88.1378 98.2172 89.2638 99.68 89.814 101.974L89.8646 102.207C89.8974 102.358 89.9292 102.505 89.9557 102.674ZM84.3047 103.371L84.3043 103.371C83.5528 103.099 82.7133 103.311 81.8851 103.94C81.0541 104.57 80.447 105.458 80.0109 106.629L80.0106 106.63C79.5786 107.798 79.4678 108.89 79.69 109.914C79.9107 110.932 80.4013 111.594 81.1457 111.858C81.894 112.124 82.6578 111.958 83.4879 111.328C84.3152 110.701 84.9993 109.771 85.4385 108.601C85.8739 107.442 85.9791 106.327 85.7584 105.31C85.5363 104.286 85.0501 103.647 84.3047 103.371ZM87.0117 115.85L87.0113 115.85C86.2611 115.578 85.4582 115.761 84.6286 116.391C83.799 117.02 83.1548 117.935 82.7179 119.108L82.7177 119.108C82.2856 120.277 82.1749 121.369 82.397 122.393C82.6178 123.411 83.1063 124.061 83.8519 124.337L83.8527 124.337C84.5995 124.602 85.368 124.46 86.1998 123.829C87.0288 123.2 87.7072 122.247 88.1455 121.08L88.146 121.079C88.5782 119.909 88.6863 118.806 88.4654 117.788C88.2433 116.764 87.7571 116.126 87.0117 115.85Z" fill="url(#paint28_linear_2205_6772)"/>
<path fill-rule="evenodd" clip-rule="evenodd" d="M103.832 98.9787C105.513 99.6353 106.614 101.088 107.156 103.349L107.206 103.582C107.222 103.652 107.235 103.725 107.249 103.802L107.249 103.803C107.264 103.883 107.279 103.967 107.298 104.054C107.693 106.357 107.424 108.775 106.456 111.395C105.428 114.176 103.943 116.307 101.964 117.809C99.9838 119.312 98.0796 119.751 96.3064 119.095C94.5273 118.438 93.3855 116.903 92.8574 114.469C92.3356 112.064 92.5686 109.515 93.5627 106.771L93.6159 106.624L93.5228 106.588C91.7901 105.925 90.6697 104.385 90.1503 101.99C89.621 99.5503 89.8684 96.9618 90.8997 94.1718L90.8999 94.1713C91.925 91.3804 93.4577 89.2309 95.4382 87.7282C97.4181 86.226 99.273 85.8043 101.049 86.4709L101.049 86.4708C102.772 87.113 103.898 88.5758 104.449 90.87L104.499 91.103C104.514 91.1737 104.528 91.2462 104.542 91.3237L104.542 91.3247C104.557 91.4044 104.572 91.4886 104.591 91.5757C104.977 93.8326 104.727 96.2329 103.793 98.7955L103.739 98.9424L103.832 98.9787ZM99.2406 105.304C98.4013 105.944 97.7828 106.839 97.3523 108.004C96.9203 109.173 96.8095 110.265 97.0316 111.289C97.2525 112.307 97.7409 112.957 98.4866 113.233L98.4869 113.233C99.2302 113.502 100.013 113.349 100.857 112.708C101.696 112.071 102.342 111.142 102.776 109.979C103.213 108.805 103.316 107.705 103.095 106.688C102.873 105.664 102.392 105.021 101.642 104.749C100.898 104.475 100.093 104.66 99.2584 105.29L99.2406 105.304ZM98.9345 92.2706C98.1883 91.9949 97.3808 92.1823 96.5425 92.8184C95.6987 93.4586 95.0773 94.3564 94.6453 95.5254C94.2132 96.6943 94.1025 97.786 94.3246 98.81C94.5453 99.8274 95.0359 100.49 95.7801 100.754C96.5249 101.024 97.3025 100.846 98.1453 100.207C98.9825 99.5716 99.6342 98.6658 100.069 97.5005C100.509 96.3368 100.609 95.2259 100.388 94.2091C100.166 93.1857 99.6852 92.5428 98.9345 92.2706Z" fill="url(#paint29_linear_2205_6772)"/>
<path fill-rule="evenodd" clip-rule="evenodd" d="M121.79 92.2445C121.248 89.9844 120.147 88.5313 118.463 87.878L118.369 87.8419L118.423 87.6947C119.361 85.1288 119.611 82.7231 119.226 80.4718C119.209 80.3919 119.194 80.3121 119.18 80.236L119.178 80.225L119.178 80.2237L119.175 80.2113C119.162 80.1371 119.148 80.0665 119.134 79.9989L119.084 79.7714C118.533 77.4717 117.407 76.009 115.679 75.3703L115.678 75.3702C113.908 74.7003 112.044 75.1286 110.064 76.631C108.083 78.1335 106.569 80.2691 105.534 83.0676C104.503 85.8578 104.256 88.4462 104.785 90.8862C105.304 93.2804 106.425 94.8213 108.157 95.4841L108.25 95.5197L108.197 95.6669C107.203 98.4108 106.97 100.96 107.492 103.365C108.02 105.799 109.162 107.334 110.941 107.991C112.719 108.643 114.609 108.214 116.589 106.712C118.569 105.21 120.062 103.072 121.086 100.294L121.086 100.294C122.059 97.6705 122.327 95.2529 121.933 92.9505C121.914 92.8632 121.899 92.779 121.884 92.6993L121.884 92.6983L121.881 92.6845C121.868 92.6123 121.855 92.544 121.841 92.4776L121.79 92.2445ZM111.987 96.8998C112.419 95.732 113.037 94.8778 113.874 94.2399L113.891 94.2269L113.891 94.2266C114.723 93.598 115.53 93.3696 116.276 93.6453C117.027 93.9175 117.508 94.5603 117.73 95.5837C117.951 96.6013 117.848 97.7008 117.41 98.8745C116.977 100.038 116.321 100.974 115.483 101.611C114.638 102.252 113.864 102.398 113.121 102.129C112.371 101.856 111.887 101.202 111.666 100.185C111.444 99.1612 111.55 98.073 111.987 96.8998ZM113.569 81.1667C114.32 81.4389 114.801 82.0816 115.023 83.105C115.244 84.1218 115.143 85.2327 114.703 86.3965C114.269 87.5621 113.608 88.4747 112.771 89.1097C111.928 89.7495 111.159 89.9198 110.415 89.65C109.67 89.3855 109.18 88.7233 108.959 87.7059C108.737 86.682 108.848 85.5905 109.28 84.4216C109.711 83.2468 110.324 82.3613 111.168 81.7212C112.005 81.0857 112.821 80.885 113.569 81.1667Z" fill="url(#paint30_linear_2205_6772)"/>
<defs>
<linearGradient id="paint0_linear_2205_6772" x1="162.68" y1="135.499" x2="43.6026" y2="76.1512" gradientUnits="userSpaceOnUse">
<stop stop-color="#660000"/>
<stop offset="1" stop-color="#FF0000"/>
</linearGradient>
<linearGradient id="paint1_linear_2205_6772" x1="29.7677" y1="116.434" x2="147.689" y2="171.699" gradientUnits="userSpaceOnUse">
<stop stop-color="#D9D9D9"/>
<stop offset="1" stop-color="white"/>
</linearGradient>
<linearGradient id="paint2_linear_2205_6772" x1="52.7243" y1="67.4585" x2="170.639" y2="122.7" gradientUnits="userSpaceOnUse">
<stop stop-color="#D9D9D9"/>
<stop offset="1" stop-color="white"/>
</linearGradient>
<linearGradient id="paint3_linear_2205_6772" x1="65.0925" y1="41.0317" x2="183.038" y2="96.2901" gradientUnits="userSpaceOnUse">
<stop stop-color="#D9D9D9"/>
<stop offset="1" stop-color="white"/>
</linearGradient>
<linearGradient id="paint4_linear_2205_6772" x1="63.514" y1="44.415" x2="181.46" y2="99.6734" gradientUnits="userSpaceOnUse">
<stop stop-color="#D9D9D9"/>
<stop offset="1" stop-color="white"/>
</linearGradient>
<linearGradient id="paint5_linear_2205_6772" x1="45.3284" y1="83.1784" x2="163.335" y2="138.472" gradientUnits="userSpaceOnUse">
<stop stop-color="#D9D9D9"/>
<stop offset="1" stop-color="white"/>
</linearGradient>
<linearGradient id="paint6_linear_2205_6772" x1="38.3513" y1="98.1625" x2="156.249" y2="153.434" gradientUnits="userSpaceOnUse">
<stop stop-color="#D9D9D9"/>
<stop offset="1" stop-color="white"/>
</linearGradient>
<linearGradient id="paint7_linear_2205_6772" x1="29.7849" y1="116.403" x2="147.731" y2="171.662" gradientUnits="userSpaceOnUse">
<stop stop-color="#D9D9D9"/>
<stop offset="1" stop-color="white"/>
</linearGradient>
<linearGradient id="paint8_linear_2205_6772" x1="32.7638" y1="110.022" x2="150.685" y2="165.287" gradientUnits="userSpaceOnUse">
<stop stop-color="#D9D9D9"/>
<stop offset="1" stop-color="white"/>
</linearGradient>
<linearGradient id="paint9_linear_2205_6772" x1="52.7533" y1="67.3729" x2="170.675" y2="122.638" gradientUnits="userSpaceOnUse">
<stop stop-color="#D9D9D9"/>
<stop offset="1" stop-color="white"/>
</linearGradient>
<linearGradient id="paint10_linear_2205_6772" x1="63.5199" y1="44.4389" x2="181.442" y2="99.704" gradientUnits="userSpaceOnUse">
<stop stop-color="#D9D9D9"/>
<stop offset="1" stop-color="white"/>
</linearGradient>
<linearGradient id="paint11_linear_2205_6772" x1="59.1446" y1="53.7403" x2="177.066" y2="109.005" gradientUnits="userSpaceOnUse">
<stop stop-color="#D9D9D9"/>
<stop offset="1" stop-color="white"/>
</linearGradient>
<linearGradient id="paint12_linear_2205_6772" x1="38.2989" y1="98.2544" x2="156.22" y2="153.519" gradientUnits="userSpaceOnUse">
<stop stop-color="#D9D9D9"/>
<stop offset="1" stop-color="white"/>
</linearGradient>
<linearGradient id="paint13_linear_2205_6772" x1="59.1621" y1="53.7097" x2="177.108" y2="108.968" gradientUnits="userSpaceOnUse">
<stop stop-color="#D9D9D9"/>
<stop offset="1" stop-color="white"/>
</linearGradient>
<linearGradient id="paint14_linear_2205_6772" x1="32.7926" y1="109.936" x2="150.738" y2="165.195" gradientUnits="userSpaceOnUse">
<stop stop-color="#D9D9D9"/>
<stop offset="1" stop-color="white"/>
</linearGradient>
<linearGradient id="paint15_linear_2205_6772" x1="45.3936" y1="83.1348" x2="163.309" y2="138.376" gradientUnits="userSpaceOnUse">
<stop stop-color="#D9D9D9"/>
<stop offset="1" stop-color="white"/>
</linearGradient>
<linearGradient id="paint16_linear_2205_6772" x1="213.384" y1="147.688" x2="87.3042" y2="99.0719" gradientUnits="userSpaceOnUse">
<stop stop-color="#610000"/>
<stop offset="1" stop-color="#BE0000"/>
</linearGradient>
<linearGradient id="paint17_linear_2205_6772" x1="154.112" y1="66.1853" x2="134.261" y2="63.9107" gradientUnits="userSpaceOnUse">
<stop stop-color="#858585"/>
<stop offset="1" stop-color="#D9D9D9"/>
</linearGradient>
<linearGradient id="paint18_linear_2205_6772" x1="123.655" y1="164.279" x2="100.13" y2="155.364" gradientUnits="userSpaceOnUse">
<stop stop-color="#858585"/>
<stop offset="1" stop-color="#D9D9D9"/>
</linearGradient>
<linearGradient id="paint19_linear_2205_6772" x1="164.811" y1="125.078" x2="129.401" y2="112.243" gradientUnits="userSpaceOnUse">
<stop stop-color="#858585"/>
<stop offset="1" stop-color="#D9D9D9"/>
</linearGradient>
<linearGradient id="paint20_linear_2205_6772" x1="28.229" y1="52.418" x2="151.132" y2="140.504" gradientUnits="userSpaceOnUse">
<stop stop-color="#660000"/>
<stop offset="1" stop-color="#FF0000"/>
</linearGradient>
<linearGradient id="paint21_linear_2205_6772" x1="54.0047" y1="89.1134" x2="89.9434" y2="103.019" gradientUnits="userSpaceOnUse">
<stop stop-color="#D9D9D9"/>
<stop offset="1" stop-color="white"/>
</linearGradient>
<linearGradient id="paint22_linear_2205_6772" x1="94.1915" y1="45.3361" x2="98.7733" y2="85.0073" gradientUnits="userSpaceOnUse">
<stop stop-color="#D9D9D9"/>
<stop offset="1" stop-color="white"/>
</linearGradient>
<linearGradient id="paint23_linear_2205_6772" x1="59.4773" y1="152.595" x2="81.281" y2="126.032" gradientUnits="userSpaceOnUse">
<stop stop-color="#D9D9D9"/>
<stop offset="1" stop-color="white"/>
</linearGradient>
<linearGradient id="paint24_linear_2205_6772" x1="136.371" y1="60.8166" x2="111.202" y2="88.4777" gradientUnits="userSpaceOnUse">
<stop stop-color="#D9D9D9"/>
<stop offset="1" stop-color="white"/>
</linearGradient>
<linearGradient id="paint25_linear_2205_6772" x1="105.842" y1="160.251" x2="101.989" y2="139.353" gradientUnits="userSpaceOnUse">
<stop stop-color="#D9D9D9"/>
<stop offset="1" stop-color="white"/>
</linearGradient>
<linearGradient id="paint26_linear_2205_6772" x1="143.252" y1="117.933" x2="118.374" y2="108.329" gradientUnits="userSpaceOnUse">
<stop stop-color="#D9D9D9"/>
<stop offset="1" stop-color="white"/>
</linearGradient>
<linearGradient id="paint27_linear_2205_6772" x1="67.9843" y1="88.5738" x2="161.409" y2="133.561" gradientUnits="userSpaceOnUse">
<stop stop-color="#D9D9D9"/>
<stop offset="1" stop-color="white"/>
</linearGradient>
<linearGradient id="paint28_linear_2205_6772" x1="46.7723" y1="99.7726" x2="83.6766" y2="145.989" gradientUnits="userSpaceOnUse">
<stop stop-color="#660000"/>
<stop offset="1" stop-color="#FF0000"/>
</linearGradient>
<linearGradient id="paint29_linear_2205_6772" x1="46.7723" y1="99.7726" x2="83.6766" y2="145.989" gradientUnits="userSpaceOnUse">
<stop stop-color="#660000"/>
<stop offset="1" stop-color="#FF0000"/>
</linearGradient>
<linearGradient id="paint30_linear_2205_6772" x1="46.7723" y1="99.7726" x2="83.6766" y2="145.989" gradientUnits="userSpaceOnUse">
<stop stop-color="#660000"/>
<stop offset="1" stop-color="#FF0000"/>
</linearGradient>
<clipPath id="clip0_2205_6772">
<rect width="104.9" height="114.237" fill="white" transform="translate(171.486 147.198) rotate(164.689)"/>
</clipPath>
</defs>
</svg>
