<svg width="270" height="277" viewBox="0 0 270 277" fill="none" xmlns="http://www.w3.org/2000/svg">
<g clip-path="url(#clip0_2275_6581)">
<path d="M57.5523 121.974C57.1255 122.987 56.7213 123.961 56.3337 124.997C53.7979 131.669 52.5457 138.294 52.4881 144.662C52.4891 145.66 52.5129 146.618 52.5593 147.537C53.2091 160.4 59.0607 171.957 69.7523 180.112C70.5095 180.706 71.2894 181.26 72.1313 181.798C74.7688 183.58 77.6604 185.193 80.8122 186.537C83.9412 187.921 87.2292 189.028 90.6534 189.899C91.6935 190.184 92.779 190.389 93.8417 190.635C108.886 193.689 125.736 192.064 141.867 186.51C143.051 186.09 144.235 185.67 145.442 185.211C153.224 182.244 160.819 178.33 167.849 173.671C168.888 172.958 169.927 172.244 170.989 171.492C177.789 166.595 184.069 160.874 189.435 154.469C194.801 148.063 198.941 141.424 201.82 134.792C202.247 133.779 202.652 132.805 203.016 131.808C205.552 125.136 206.804 118.511 206.862 112.143C206.861 111.145 206.837 110.187 206.791 109.268C206.141 96.4056 200.289 84.8481 189.598 76.6934C188.841 76.0996 188.061 75.5453 187.219 75.0077C184.581 73.2256 181.69 71.6118 178.538 70.268C175.409 68.8847 172.121 67.7772 168.697 66.906C167.657 66.6215 166.594 66.3764 165.508 66.1707C150.504 63.1391 133.614 64.7411 117.483 70.2958C116.299 70.7154 115.115 71.135 113.908 71.594C106.126 74.5609 98.5314 78.4751 91.5015 83.1347C90.4625 83.8478 89.4234 84.5608 88.3616 85.3133C81.5387 90.2496 75.2809 95.9313 69.9148 102.337C64.5487 108.742 60.4087 115.382 57.5296 122.013L57.5523 121.974Z" fill="url(#paint0_linear_2275_6581)"/>
<path d="M57.4428 154.233C58.3562 153.92 58.9735 153.122 58.8302 152.462C58.2525 149.558 57.9849 146.57 57.9652 143.515C57.9808 142.58 57.9964 141.644 58.074 140.692C58.1211 140.247 57.8581 139.886 57.4818 139.721C57.246 139.585 56.8801 139.584 56.5308 139.645C55.6069 139.795 54.849 140.565 54.8063 141.275C54.7453 142.29 54.7071 143.265 54.6915 144.2C54.6823 147.396 54.9605 150.547 55.5713 153.575C55.6543 153.885 55.8613 154.162 56.1591 154.281C56.4735 154.462 56.9634 154.43 57.4594 154.296" fill="url(#paint1_linear_2275_6581)"/>
<path d="M126.095 69.433C125.187 69.6448 124.469 70.4376 124.528 71.1535C124.565 71.5425 124.772 71.8192 125.149 71.9836C125.424 72.1421 125.852 72.1263 126.263 72.0485C131.239 70.7707 136.293 69.9046 141.237 69.5004C142.116 69.4294 142.969 68.7666 143.135 68.0231C143.228 67.4992 142.988 67.0984 142.572 66.9113C142.375 66.7981 142.071 66.7804 141.807 66.7853C136.615 67.2566 131.398 68.1335 126.173 69.4783" fill="url(#paint2_linear_2275_6581)"/>
<path d="M197.657 91.7789C196.816 92.2388 196.379 93.0887 196.708 93.6982C198.477 97.0787 199.766 100.655 200.514 104.445C200.597 104.755 200.788 104.969 201.102 105.151C201.416 105.332 201.906 105.299 202.402 105.165C203.316 104.852 203.933 104.053 203.79 103.393C203.031 99.4407 201.653 95.6555 199.811 92.1282C199.722 91.9195 199.548 91.7669 199.329 91.693C198.874 91.4833 198.26 91.5494 197.673 91.8409" fill="url(#paint3_linear_2275_6581)"/>
<path d="M202.955 114.562C202.031 114.711 201.296 115.442 201.231 116.192C200.948 120.226 200.152 124.333 198.843 128.511C198.666 129.091 198.923 129.554 199.378 129.764C199.535 129.854 199.738 129.866 199.98 129.901C200.875 129.892 201.784 129.313 202.013 128.553C203.412 124.217 204.242 119.868 204.515 115.67C204.562 115.225 204.299 114.864 203.923 114.699C203.687 114.564 203.321 114.563 202.972 114.624" fill="url(#paint4_linear_2275_6581)"/>
<path d="M95.9475 82.233C95.1232 82.755 94.7871 83.6108 95.2012 84.1642C95.313 84.3335 95.4701 84.4241 95.6273 84.5147C96.1216 84.7471 96.7975 84.6643 97.4297 84.2939C101.907 81.5214 106.646 79.1102 111.446 77.0486C112.343 76.6734 112.859 75.8688 112.614 75.2031C112.509 74.9323 112.296 74.757 112.06 74.6212C111.683 74.4567 111.154 74.4666 110.613 74.6794C105.565 76.808 100.633 79.3708 95.9475 82.233Z" fill="url(#paint5_linear_2275_6581)"/>
<path d="M117.645 190.025C118.524 189.954 119.377 189.291 119.543 188.548C119.636 188.024 119.396 187.623 118.98 187.436C118.784 187.323 118.48 187.305 118.192 187.35C113.287 187.777 108.469 187.781 103.736 187.363C102.887 187.293 101.938 187.849 101.631 188.564C101.392 189.16 101.603 189.702 102.137 189.957C102.255 190.025 102.395 190.053 102.598 190.065C107.51 190.534 112.593 190.525 117.724 190.071" fill="url(#paint6_linear_2275_6581)"/>
<path d="M68.9012 174.321C69.6469 173.754 69.8817 172.892 69.383 172.395C66.6432 169.61 64.3888 166.526 62.6366 163.208C62.5475 162.999 62.3737 162.847 62.1545 162.773C61.6995 162.563 61.0856 162.629 60.4988 162.921C59.658 163.381 59.2206 164.231 59.5499 164.84C61.3746 168.305 63.7407 171.558 66.6151 174.473C66.733 174.541 66.8281 174.649 66.9687 174.677C67.5023 174.932 68.3022 174.816 68.9012 174.321Z" fill="url(#paint7_linear_2275_6581)"/>
<path d="M58.4287 129.72C59.3238 129.711 60.2328 129.133 60.4615 128.372C60.8097 127.314 61.158 126.255 61.5456 125.219C62.6856 122.151 64.1296 119.1 65.8774 116.066C66.2406 115.436 66.0352 114.793 65.4397 114.555C65.3611 114.51 65.2825 114.464 65.1812 114.458C64.3769 114.31 63.3727 114.781 62.9641 115.49C61.1255 118.68 59.6528 121.872 58.4219 125.098C58.0117 126.174 57.618 127.311 57.309 128.393C57.1318 128.973 57.3493 129.413 57.8436 129.645C58.0008 129.736 58.2427 129.77 58.468 129.742" fill="url(#paint8_linear_2275_6581)"/>
<path d="M176.632 164.879C177.361 164.249 177.471 163.421 176.888 162.98C176.809 162.935 176.731 162.889 176.652 162.844C176.057 162.606 175.195 162.739 174.573 163.273C171.572 165.846 168.397 168.267 165.117 170.417C164.078 171.13 163.022 171.781 161.966 172.432C161.142 172.954 160.829 173.771 161.22 174.363C161.332 174.533 161.489 174.623 161.646 174.714C162.141 174.946 162.816 174.863 163.409 174.471C164.527 173.803 165.628 173.073 166.706 172.382C170.14 170.058 173.461 167.564 176.632 164.879Z" fill="url(#paint9_linear_2275_6581)"/>
<path d="M180.553 75.3115C179.925 75.9468 179.893 76.8203 180.584 77.1658C181.448 77.664 182.29 78.2016 183.109 78.7786C185.629 80.4928 187.934 82.3981 189.945 84.4492C190.063 84.5171 190.158 84.6244 190.299 84.653C190.832 84.908 191.632 84.7917 192.271 84.3199C193.016 83.7526 193.251 82.8909 192.752 82.3937C190.646 80.2353 188.246 78.2227 185.608 76.4405C184.75 75.8409 183.869 75.2807 182.965 74.7598C182.965 74.7598 182.886 74.7145 182.847 74.6919C182.173 74.4084 181.243 74.6595 180.638 75.2554" fill="url(#paint10_linear_2275_6581)"/>
<path d="M156.87 66.8074C156.021 66.7376 155.073 67.2931 154.765 68.0081C154.526 68.6049 154.715 69.1858 155.271 69.4014C155.389 69.4694 155.53 69.4979 155.732 69.5097C159.249 69.857 162.652 70.4012 165.975 71.2665C167.015 71.551 168.016 71.8128 169.033 72.1367C169.792 72.3641 170.79 71.9947 171.323 71.2522C171.81 70.5884 171.65 69.8666 170.976 69.583C170.936 69.5604 170.897 69.5377 170.858 69.5151C169.778 69.208 168.722 68.8614 167.659 68.6163C164.195 67.7225 160.612 67.1271 156.932 66.7907" fill="url(#paint11_linear_2275_6581)"/>
<path d="M82.7644 91.8475C78.7348 95.2975 75.0135 99.0301 71.6399 103.068L71.5491 103.226C70.9379 103.923 71.0524 104.723 71.7659 105.03C72.4794 105.336 73.4941 105.028 74.1052 104.331L74.196 104.174C77.4562 100.333 81.0247 96.7744 84.8622 93.4761C85.5686 92.8861 85.702 92.0185 85.1186 91.5774C85.04 91.5321 84.9614 91.4868 84.8828 91.4416C84.2872 91.2033 83.4254 91.3363 82.8037 91.8701" fill="url(#paint12_linear_2275_6581)"/>
<path d="M195.606 139.763C194.801 139.615 193.797 140.086 193.389 140.795C191.119 144.734 188.421 148.689 185.138 152.569C184.589 153.25 184.681 154.09 185.355 154.373C186.068 154.679 187.083 154.372 187.694 153.675C191.068 149.637 193.958 145.53 196.302 141.371C196.665 140.741 196.46 140.098 195.864 139.86C195.786 139.815 195.707 139.769 195.606 139.763Z" fill="url(#paint13_linear_2275_6581)"/>
<path d="M88.5941 187.296C89.353 187.523 90.351 187.154 90.8836 186.411C91.3708 185.747 91.2109 185.025 90.576 184.765C90.5367 184.742 90.4974 184.719 90.4581 184.697C88.3613 184.066 86.2933 183.294 84.3327 182.426C82.4115 181.582 80.5976 180.641 78.8684 179.645C78.8291 179.622 78.7898 179.6 78.7505 179.577C78.0763 179.293 77.1463 179.545 76.5412 180.141C75.9134 180.776 75.904 181.61 76.5328 181.972C78.3406 183.014 80.233 183.999 82.2329 184.889C84.3114 185.825 86.4414 186.58 88.6561 187.279" fill="url(#paint14_linear_2275_6581)"/>
<path d="M131.543 186.437C131.485 185.722 132.203 184.929 133.111 184.717C136.847 183.774 140.579 182.566 144.262 181.173C145.468 180.714 146.698 180.215 147.927 179.717C148.469 179.504 148.998 179.494 149.374 179.659C149.61 179.794 149.846 179.93 149.929 180.241C150.174 180.906 149.635 181.75 148.761 182.086C147.509 182.624 146.217 183.139 144.948 183.615C141.119 185.081 137.201 186.339 133.279 187.332C132.845 187.45 132.44 187.426 132.164 187.268C131.85 187.086 131.581 186.826 131.543 186.437Z" fill="url(#paint15_linear_2275_6581)"/>
<path d="M60.6475 201.364C59.9794 200.979 59.3113 200.594 58.6432 200.209C58.3288 200.028 57.9751 199.824 57.6607 199.643C56.6782 199.076 55.7804 198.454 54.8206 197.849C53.8835 197.204 52.9464 196.559 52.0713 195.897C51.5272 195.479 51.0224 195.083 50.5176 194.687C50.0128 194.291 49.508 193.895 49.0652 193.483C48.5831 193.048 48.0617 192.59 47.5796 192.154C47.1368 191.742 46.6547 191.307 46.2119 190.894C45.8477 190.527 45.5228 190.182 45.1586 189.815C44.6599 189.318 44.1612 188.82 43.7245 188.306C43.3603 187.939 43.0581 187.555 42.7166 187.148C42.2799 186.634 41.8432 186.12 41.4292 185.567C41.127 185.183 40.8641 184.822 40.5619 184.438C40.1479 183.884 39.7339 183.331 39.3592 182.8C39.0797 182.377 38.8168 182.015 38.5373 181.592C38.146 180.999 37.7381 180.344 37.3468 179.751C37.1624 179.435 36.9947 179.181 36.8104 178.865C36.2575 177.917 35.7439 176.991 35.253 176.026L45.4879 196.511C45.9789 197.476 46.4698 198.441 47.0227 199.39C47.1677 199.683 47.3747 199.96 47.5424 200.214C47.7826 200.615 47.9835 200.993 48.2237 201.393C48.3914 201.647 48.5591 201.902 48.7102 202.094C48.9504 202.494 49.2133 202.856 49.5155 203.24C49.9295 203.793 50.3208 204.386 50.7348 204.939C50.9977 205.301 51.2999 205.685 51.5628 206.046C51.7139 206.238 51.8257 206.407 51.9768 206.599C52.2624 206.921 52.5873 207.266 52.8502 207.627C53.1917 208.034 53.4939 208.418 53.8581 208.785C54.2948 209.299 54.7935 209.797 55.2529 210.271C55.6171 210.639 55.9813 211.006 56.3848 211.396C56.5027 211.464 56.5752 211.61 56.6931 211.678C57.0407 211.984 57.3883 212.289 57.6967 212.571C58.218 213.029 58.6775 213.504 59.2215 213.922C59.687 214.296 60.1919 214.691 60.6347 215.104C61.1787 215.522 61.7001 215.98 62.2442 216.399C62.4014 216.489 62.536 216.619 62.6705 216.749C63.4111 217.281 64.1909 217.835 64.9708 218.39C65.8686 219.012 66.8284 219.617 67.8109 220.184C68.1253 220.365 68.479 220.569 68.7934 220.75C69.4615 221.135 70.0903 221.497 70.7584 221.882C70.8763 221.95 70.9942 222.018 71.1121 222.086C71.5837 222.358 72.0387 222.567 72.533 222.8C72.8081 222.958 73.0832 223.117 73.4203 223.258C74.3696 223.7 75.2796 224.12 76.2289 224.562C77.2009 224.965 78.1729 225.367 79.1449 225.77C79.482 225.912 79.8025 225.991 80.1396 226.133C80.8364 226.377 81.4713 226.638 82.1682 226.882C82.5673 227.007 82.9271 227.11 83.3035 227.274C83.9611 227.496 84.5794 227.695 85.2204 227.854C85.6195 227.979 86.0186 228.104 86.4404 228.19C86.8002 228.292 87.16 228.395 87.5198 228.497C88.0202 228.628 88.5206 228.759 89.021 228.89C90.4043 229.214 91.7875 229.539 93.1935 229.825C93.6546 229.933 94.0991 229.979 94.5209 230.065C95.4658 230.242 96.45 230.442 97.4176 230.58C98.0027 230.654 98.6271 230.752 99.2122 230.827C100.039 230.936 100.905 231.068 101.732 231.177C102.458 231.28 103.167 231.322 103.876 231.363C104.625 231.427 105.35 231.53 106.082 231.532C106.121 231.555 106.161 231.577 106.223 231.561C106.628 231.584 107.033 231.608 107.438 231.631C108.553 231.696 109.667 231.761 110.804 231.787C111.372 231.799 112.003 231.795 112.571 231.808C113.568 231.805 114.564 231.802 115.561 231.799C116.191 231.795 116.844 231.752 117.497 231.708C118.454 231.682 119.372 231.634 120.352 231.569C121.005 231.526 121.698 231.505 122.374 231.422C123.314 231.334 124.294 231.269 125.234 231.181C125.561 231.16 125.95 231.121 126.276 231.1C126.541 231.095 126.789 231.028 127.076 230.983C128.591 230.807 130.129 230.591 131.667 230.375C132.016 230.314 132.303 230.27 132.63 230.248C134.478 229.949 136.348 229.61 138.179 229.248C138.303 229.215 138.427 229.181 138.591 229.17C139.025 229.053 139.498 228.958 139.909 228.881C140.918 228.675 141.949 228.429 142.98 228.184C143.64 228.039 144.282 227.832 144.942 227.688C145.911 227.459 146.841 227.208 147.793 226.917C148.103 226.833 148.413 226.75 148.723 226.666C149.157 226.549 149.552 226.409 149.986 226.292C150.73 226.091 151.497 225.85 152.224 225.587C152.991 225.347 153.758 225.107 154.485 224.844C155.212 224.581 155.979 224.34 156.706 224.077C157.039 223.954 157.349 223.87 157.682 223.747C158.533 223.451 159.345 223.132 160.219 222.796C161.967 222.124 163.738 221.413 165.47 220.679C165.679 220.589 165.927 220.522 166.158 220.393C166.429 220.287 166.66 220.158 166.953 220.012C167.642 219.726 168.313 219.379 169.001 219.093C169.627 218.824 170.214 218.533 170.801 218.241C171.512 217.916 172.183 217.568 172.894 217.243C173.272 217.041 173.689 216.862 174.067 216.66C174.237 216.548 174.423 216.498 174.592 216.385C175.264 216.038 175.958 215.651 176.669 215.326C177.216 215.011 177.803 214.72 178.35 214.406C179.045 214.019 179.739 213.632 180.371 213.261C180.834 213.003 181.274 212.785 181.697 212.504C181.782 212.448 181.929 212.375 182.013 212.319C182.792 211.875 183.532 211.41 184.249 210.983C184.734 210.686 185.197 210.428 185.643 210.107C186.637 209.473 187.631 208.839 188.585 208.182C188.777 208.03 188.986 207.941 189.178 207.789C189.178 207.789 189.223 207.71 189.285 207.693C190.578 206.812 191.872 205.931 193.125 205.026C193.956 204.403 194.786 203.78 195.617 203.156C196.063 202.836 196.447 202.533 196.893 202.213C198.215 201.19 199.498 200.145 200.803 199.061C201.21 198.718 201.617 198.375 202.024 198.033C202.86 197.308 203.759 196.566 204.556 195.819C204.686 195.684 204.833 195.611 204.94 195.515C205.178 195.285 205.415 195.054 205.652 194.824C206.749 193.829 207.807 192.812 208.887 191.755C209.277 191.35 209.706 190.968 210.097 190.563C211.33 189.332 212.546 188.039 213.762 186.746C213.83 186.628 213.977 186.555 214.045 186.437C214.045 186.437 214.068 186.398 214.09 186.358C215.137 185.177 216.207 183.957 217.214 182.754C225.252 173.165 231.158 163.188 234.886 153.267C238.213 144.585 239.829 135.967 239.879 127.704C239.979 118.264 237.954 109.332 233.944 101.302L223.709 80.8168C227.719 88.8471 229.721 97.819 229.644 107.219C229.594 115.482 227.916 124.117 224.651 132.782C220.923 142.703 215.04 152.641 206.979 162.269C205.949 163.512 204.902 164.692 203.793 165.89C203.725 166.008 203.618 166.104 203.511 166.199C202.272 167.532 201.055 168.825 199.8 170.095C199.41 170.5 199.019 170.905 198.59 171.287C197.51 172.344 196.452 173.361 195.333 174.395C194.988 174.721 194.62 175.087 194.236 175.39C193.377 176.154 192.541 176.879 191.642 177.621C191.235 177.963 190.828 178.306 190.421 178.649C189.139 179.694 187.833 180.778 186.511 181.801C185.596 182.48 184.659 183.199 183.744 183.879C183.405 184.103 183.083 184.39 182.744 184.614C181.49 185.519 180.174 186.439 178.904 187.281C178.565 187.506 178.249 187.691 177.91 187.916C177.04 188.517 176.131 189.095 175.245 189.633C174.759 189.931 174.336 190.212 173.873 190.47C173.134 190.936 172.355 191.379 171.615 191.845C171.068 192.159 170.582 192.456 170.057 192.731C169.363 193.118 168.646 193.545 167.952 193.932C167.405 194.246 166.818 194.537 166.293 194.812C165.622 195.16 164.927 195.547 164.256 195.895C163.669 196.186 163.082 196.478 162.518 196.73C161.847 197.078 161.136 197.403 160.425 197.728C159.838 198.019 159.212 198.288 158.648 198.54C157.937 198.865 157.249 199.151 156.539 199.476C156.059 199.672 155.58 199.868 155.1 200.064C153.369 200.798 151.598 201.509 149.827 202.22C148.62 202.679 147.436 203.099 146.252 203.518C145.525 203.782 144.82 204.005 144.093 204.268C143.326 204.508 142.537 204.788 141.77 205.029C141.003 205.269 140.299 205.493 139.532 205.733C138.827 205.957 138.083 206.157 137.339 206.358C136.409 206.61 135.479 206.861 134.549 207.112C133.867 207.296 133.185 207.481 132.526 207.625C131.557 207.854 130.61 208.043 129.641 208.272C128.982 208.416 128.384 208.545 127.725 208.689C125.894 209.051 124.063 209.413 122.238 209.673C121.888 209.734 121.5 209.772 121.151 209.833C119.652 210.072 118.176 210.271 116.684 210.408C116.07 210.474 115.417 210.517 114.78 210.623C113.84 210.71 112.899 210.798 111.959 210.886C111.306 210.929 110.652 210.973 109.999 211.016C109.019 211.081 108.062 211.107 107.105 211.133C106.475 211.137 105.861 211.203 105.23 211.207C104.211 211.249 103.176 211.23 102.179 211.233C101.611 211.22 101.042 211.207 100.513 211.217C99.2748 211.186 98.0592 211.115 96.8436 211.044C96.5004 211.004 96.1738 211.025 95.8306 210.985C94.981 210.915 94.092 210.823 93.2423 210.753C92.6345 210.718 92.0494 210.643 91.4416 210.607C90.6539 210.521 89.8889 210.395 89.1012 210.308C88.4148 210.228 87.7285 210.147 87.0648 210.027C86.2998 209.901 85.5968 209.758 84.8318 209.632C84.1681 209.512 83.4817 209.431 82.8014 209.249C81.3954 208.964 80.0121 208.639 78.6289 208.314C77.7687 208.081 76.9085 207.848 76.0876 207.637C75.6885 207.512 75.2667 207.426 74.8676 207.301C74.21 207.08 73.569 206.92 72.9114 206.699C72.5123 206.574 72.1525 206.471 71.7761 206.307C71.0792 206.063 70.4216 205.841 69.7474 205.558C69.4103 205.416 69.0898 205.336 68.7528 205.194C67.7581 204.831 66.7861 204.429 65.8368 203.986C64.8648 203.584 63.9155 203.142 62.9889 202.66C62.7138 202.502 62.4387 202.343 62.1016 202.201C61.5121 201.862 60.9165 201.624 60.3663 201.307L60.6475 201.364Z" fill="url(#paint16_linear_2275_6581)"/>
<path d="M235.167 153.324C238.495 144.642 240.111 136.023 240.16 127.761L229.925 107.276C229.876 115.539 228.198 124.174 224.932 132.839L235.167 153.324Z" fill="url(#paint17_linear_2275_6581)"/>
<path d="M73.2152 206.716C72.8161 206.591 72.4563 206.489 72.0799 206.325C71.383 206.08 70.7254 205.859 70.0512 205.575C69.7141 205.434 69.3936 205.354 69.0565 205.212C68.0618 204.849 67.0899 204.446 66.1406 204.004C65.1686 203.601 64.2193 203.159 63.2927 202.678C63.0176 202.519 62.7425 202.361 62.4054 202.219C61.8159 201.879 61.2203 201.641 60.6701 201.324C60.002 200.939 59.3339 200.554 58.6658 200.169C58.3514 199.988 57.9977 199.784 57.6833 199.603C56.7008 199.037 55.803 198.415 54.8432 197.809L65.1174 218.317C66.0152 218.939 66.975 219.545 67.9575 220.111C68.2719 220.292 68.6256 220.496 68.94 220.677C69.6081 221.062 70.2369 221.424 70.905 221.809C71.0229 221.877 71.1408 221.945 71.2587 222.013C71.7303 222.285 72.1853 222.494 72.6796 222.727C72.9547 222.885 73.2298 223.044 73.5669 223.186C74.5162 223.628 75.4262 224.047 76.3755 224.489C77.3475 224.892 78.3195 225.294 79.2915 225.697C79.6286 225.839 79.949 225.919 80.2861 226.06C80.983 226.304 81.6179 226.565 82.3148 226.81C82.7139 226.935 83.0737 227.037 83.4501 227.201C84.1077 227.423 84.726 227.622 85.367 227.781C85.7661 227.906 86.1652 228.031 86.587 228.117C86.9468 228.219 87.3066 228.322 87.6664 228.424C88.1668 228.555 88.6672 228.686 89.1676 228.817L78.9326 208.332C78.0725 208.099 77.2123 207.865 76.3914 207.655C75.9923 207.53 75.5705 207.444 75.1714 207.319C74.5138 207.097 73.8728 206.938 73.2152 206.716Z" fill="url(#paint18_linear_2275_6581)"/>
<path d="M174.2 190.448C173.46 190.914 172.681 191.357 171.942 191.823C171.394 192.137 170.909 192.434 170.384 192.709C169.69 193.096 168.973 193.523 168.279 193.91C167.731 194.224 167.144 194.516 166.62 194.79C165.948 195.138 165.254 195.525 164.582 195.873C163.996 196.164 163.409 196.456 162.845 196.708C162.173 197.056 161.463 197.381 160.752 197.706C160.165 197.997 159.539 198.266 158.975 198.519C158.264 198.844 157.576 199.129 156.865 199.454C156.386 199.65 155.906 199.846 155.427 200.042C153.695 200.776 151.925 201.487 150.154 202.198L160.389 222.683C162.137 222.012 163.908 221.3 165.639 220.567C165.848 220.477 166.096 220.41 166.327 220.281C166.598 220.175 166.829 220.046 167.123 219.9C167.811 219.614 168.482 219.266 169.17 218.981C169.797 218.712 170.383 218.42 170.97 218.129C171.681 217.804 172.352 217.456 173.063 217.131C173.441 216.929 173.859 216.75 174.237 216.548C174.406 216.436 174.592 216.385 174.762 216.273C175.433 215.925 176.127 215.538 176.838 215.213C177.385 214.899 177.972 214.608 178.52 214.293C179.214 213.906 179.908 213.519 180.54 213.149C181.003 212.891 181.443 212.672 181.867 212.391C181.951 212.335 182.098 212.262 182.183 212.206C182.962 211.763 183.701 211.297 184.418 210.871C184.904 210.573 185.366 210.315 185.813 209.995C186.806 209.361 187.8 208.727 188.754 208.07C188.946 207.918 189.155 207.828 189.347 207.677C189.347 207.677 189.393 207.598 189.455 207.581L179.22 187.096C178.881 187.321 178.565 187.506 178.226 187.731C177.356 188.331 176.447 188.909 175.561 189.448C175.076 189.746 174.652 190.026 174.189 190.284L174.2 190.448Z" fill="url(#paint19_linear_2275_6581)"/>
<path d="M34.3564 123.982C31.0681 132.687 29.4128 141.283 29.3633 149.545C29.2116 168.977 37.8393 186.437 54.8205 197.849C58.2379 200.185 61.9775 202.235 66.0786 204.021C70.1796 205.807 74.423 207.255 78.8707 208.349C100.799 213.9 126.244 211.351 150.069 202.255C160.203 198.386 170.021 193.34 179.191 187.237C189.592 180.27 199.144 171.869 207.221 162.303C215.298 152.737 221.165 142.738 224.893 132.817C228.22 124.135 229.836 115.516 229.886 107.254L206.712 109.223C206.736 110.181 206.76 111.139 206.783 112.097C206.726 118.466 205.474 125.09 202.938 131.762C202.573 132.759 202.146 133.772 201.742 134.746C198.863 141.378 194.723 148.018 189.357 154.423C183.991 160.828 177.71 166.549 170.91 171.446C169.848 172.199 168.848 172.935 167.77 173.625C160.757 178.347 153.184 182.221 145.363 185.166C144.156 185.625 142.972 186.044 141.788 186.464C125.657 192.019 108.768 193.62 93.7632 190.589C92.6777 190.383 91.6149 190.138 90.5749 189.854C87.1507 188.982 83.8627 187.875 80.7336 186.492C77.6046 185.108 74.6903 183.534 72.0528 181.752C71.2336 181.175 70.4537 180.621 69.6738 180.066C58.9429 171.889 53.1306 160.354 52.4808 147.491C52.457 146.533 52.4333 145.575 52.4096 144.617C52.4672 138.248 53.7194 131.624 56.2552 124.952C56.6201 123.955 57.0469 122.942 57.4738 121.928C60.3529 115.297 64.4929 108.657 69.859 102.252C75.2251 95.8463 81.5056 90.1252 88.3058 85.2283C89.3056 84.4926 90.3673 83.7401 91.4457 83.0497C98.4983 78.3507 106.031 74.4532 113.875 71.4696C115.082 71.0106 116.266 70.591 117.45 70.1714C133.581 64.6167 150.471 63.0147 165.475 66.0463C166.561 66.252 167.624 66.4971 168.664 66.7816C172.088 67.6527 175.376 68.7603 178.505 70.1435C181.634 71.5268 184.548 73.1011 187.186 74.8833C188.005 75.4603 188.785 76.0146 189.565 76.5689C200.296 84.7463 206.108 96.2811 206.758 109.144L229.931 107.175C230.083 87.7429 221.432 70.3224 204.435 58.8487C201.017 56.5122 197.278 54.4623 193.177 52.6764C189.075 50.8905 184.832 49.4423 180.384 48.3487C158.456 42.7969 133.034 45.3066 109.186 54.4426C99.0525 58.3108 89.2344 63.3577 80.0643 69.4602C69.6404 76.4668 60.1109 84.8283 52.0338 94.3941C43.996 103.983 38.0899 113.96 34.3625 123.881L34.3564 123.982Z" fill="url(#paint20_linear_2275_6581)"/>
<path d="M91.5017 83.1344C90.4626 83.8475 89.4236 84.5606 88.3618 85.313L80.0356 69.6011C89.1664 63.4759 98.9845 58.4291 109.157 54.5835L117.444 70.2729C116.26 70.6925 115.076 71.1121 113.869 71.5711C106.087 74.538 98.4923 78.4522 91.4397 83.1512L91.5017 83.1344Z" fill="url(#paint21_linear_2275_6581)"/>
<path d="M178.521 70.2057C175.392 68.8224 172.104 67.7149 168.68 66.8437C167.64 66.5592 166.577 66.3141 165.492 66.1084L180.361 48.3882C184.809 49.4818 189.052 50.93 193.154 52.7159C197.255 54.5018 200.994 56.5517 204.412 58.8882L189.542 76.6084C188.785 76.0147 188.005 75.4604 187.163 74.9228C184.525 73.1406 181.634 71.5269 178.482 70.183L178.521 70.2057Z" fill="url(#paint22_linear_2275_6581)"/>
<path d="M56.3337 124.997C53.7978 131.669 52.5457 138.293 52.4881 144.662C52.4891 145.659 52.5128 146.618 52.5592 147.536L29.3859 149.505C29.4354 141.243 31.1134 132.608 34.379 123.942L57.5523 121.974C57.1254 122.987 56.7212 123.961 56.3337 124.997Z" fill="url(#paint23_linear_2275_6581)"/>
<path d="M202.977 131.785C205.513 125.113 206.765 118.488 206.823 112.12C206.822 111.122 206.798 110.164 206.752 109.245L229.925 107.277C229.876 115.539 228.198 124.174 224.932 132.839L201.759 134.808C202.186 133.795 202.59 132.821 202.955 131.824L202.977 131.785Z" fill="url(#paint24_linear_2275_6581)"/>
<path d="M78.91 208.371C74.4624 207.278 70.1797 205.807 66.118 204.044C62.0169 202.258 58.2773 200.208 54.8599 197.871L69.7298 180.151C70.487 180.745 71.2669 181.299 72.1088 181.837C74.7463 183.619 77.6378 185.233 80.7896 186.576C83.9187 187.96 87.2067 189.067 90.6308 189.938C91.6709 190.223 92.7564 190.429 93.8192 190.674L78.9493 208.394L78.91 208.371Z" fill="url(#paint25_linear_2275_6581)"/>
<path d="M167.787 173.687C168.826 172.974 169.865 172.261 170.927 171.508L179.23 187.26C170.099 193.385 160.242 198.409 150.108 202.277L141.805 186.526C142.989 186.106 144.173 185.687 145.38 185.228C153.162 182.261 160.757 178.347 167.787 173.687Z" fill="url(#paint26_linear_2275_6581)"/>
<path d="M85.7201 180.655C82.8661 179.43 80.2889 177.997 77.9265 176.374C66.2036 168.464 60.2192 156.41 60.3151 142.98C60.3527 137.283 61.5062 131.283 63.7575 125.287C66.3448 118.435 70.4184 111.547 75.96 104.928C81.5016 98.3086 88.1314 92.5264 95.3368 87.6531C101.65 83.42 108.466 79.949 115.459 77.2619C131.919 70.9529 149.507 69.2288 164.689 73.0442C167.753 73.813 170.681 74.8181 173.535 76.0428C176.389 77.2676 178.966 78.7002 181.329 80.3238C193.052 88.2332 199.075 100.31 198.94 113.717C198.903 119.415 197.749 125.414 195.498 131.411C192.91 138.263 188.837 145.151 183.295 151.77C177.754 158.389 171.124 164.171 163.918 169.044C157.605 173.277 150.789 176.748 143.797 179.436C127.336 185.745 109.725 187.508 94.5666 183.653C91.5022 182.885 88.574 181.879 85.7201 180.655Z" fill="url(#paint27_linear_2275_6581)"/>
<g style="mix-blend-mode:overlay">
<path d="M38.5207 181.53C38.5207 181.53 39.2762 182.49 40.63 184.319C40.9881 184.788 41.3462 185.257 41.7995 185.833C42.2362 186.347 42.7908 186.929 43.3454 187.511C44.4939 188.697 45.6861 190.171 47.335 191.489C48.1254 192.206 48.9778 192.908 49.8241 193.71C50.6931 194.473 51.7315 195.124 52.7638 195.876C54.7437 197.437 57.1637 198.779 59.6955 200.29C60.9697 201.077 62.3408 201.605 63.7617 202.318C65.2052 202.993 66.5475 203.661 68.1605 204.223C69.7115 204.802 71.3018 205.404 72.9541 205.989C74.6125 206.472 76.2935 206.916 78.0305 207.445C78.4296 207.57 78.93 207.701 79.2898 207.803L80.6565 208.066C81.5621 208.22 82.4843 208.437 83.4292 208.614C85.2796 208.946 87.1799 209.463 89.1046 209.575C91.0232 209.789 93.0037 209.986 94.9843 210.182C96.9649 210.379 99.0424 210.317 101.091 210.396C105.205 210.615 109.463 210.13 113.765 209.932C118.051 209.307 122.483 208.974 126.856 207.926C127.966 207.726 129.059 207.464 130.169 207.264L131.837 206.913L133.511 206.461C135.704 205.836 137.936 205.233 140.168 204.63C142.383 203.965 144.588 203.136 146.809 202.37C147.909 202.007 149.07 201.626 150.113 201.178L153.407 199.823L156.724 198.428C157.829 197.963 158.879 197.414 159.945 196.926C162.083 195.849 164.232 194.936 166.337 193.736C168.42 192.575 170.581 191.459 172.608 190.213L178.655 186.351C186.73 180.877 194.07 174.769 200.738 168.012C207.328 161.21 212.986 153.661 217.553 146.008C218.626 144.055 219.722 142.063 220.733 140.127C221.626 138.123 222.479 136.096 223.35 134.131L223.987 132.662L224.506 131.125C224.832 130.106 225.22 129.07 225.545 128.05C226.337 126.04 226.684 123.984 227.228 122.041C227.794 120.059 228.057 118.059 228.359 116.081C228.498 115.112 228.7 114.127 228.8 113.135C228.839 112.16 228.939 111.168 228.977 110.193C229.055 109.241 229.093 108.266 229.148 107.353C229.124 106.395 229.1 105.437 229.116 104.501C229.132 103.566 229.023 102.664 228.977 101.745C228.93 100.826 228.861 99.947 228.713 99.0223C227.863 91.8682 225.702 85.5334 223.109 80.3135C220.414 75.0877 217.286 70.9766 214.441 67.9202C213.052 66.3329 211.622 65.0893 210.451 63.9422C209.195 62.8512 208.13 61.9749 207.238 61.2512C205.409 59.8825 204.456 59.1756 204.456 59.1756C204.456 59.1756 205.471 59.8658 207.346 61.1556C208.26 61.8399 209.348 62.6769 210.627 63.7285C211.883 64.8195 213.312 66.0631 214.786 67.5942C217.755 70.6171 221.069 74.6779 223.927 79.8929C226.723 85.1247 229.142 91.5559 230.105 98.8794C230.252 99.8041 230.361 100.706 230.446 101.648C230.532 102.589 230.657 103.553 230.642 104.489C230.665 105.447 230.689 106.405 230.713 107.363C230.674 108.338 230.636 109.313 230.575 110.327C230.537 111.302 230.476 112.316 230.415 113.331C230.354 114.345 230.152 115.331 230.029 116.362C229.744 118.401 229.498 120.463 228.948 122.508C228.438 124.575 228.084 126.733 227.315 128.703C226.99 129.722 226.664 130.742 226.339 131.761L225.819 133.298L225.176 134.869C224.322 136.896 223.446 138.962 222.547 141.067C221.49 143.082 220.395 145.074 219.338 147.089C214.629 155.08 209.01 162.652 202.307 169.651C195.61 176.549 187.947 182.943 179.996 188.383L173.763 192.295C171.675 193.558 169.514 194.674 167.369 195.852C165.264 197.053 163.03 198.022 160.83 199.115C159.741 199.642 158.629 200.208 157.547 200.634L154.253 201.989L150.959 203.345C149.814 203.787 148.676 204.128 147.554 204.531C145.293 205.274 143.088 206.103 140.811 206.784C138.517 207.404 136.285 208.007 134.013 208.587L132.339 209.039L130.632 209.367C129.5 209.607 128.39 209.807 127.257 210.046C122.783 211.089 118.289 211.438 113.907 211.956C109.488 212.086 105.213 212.508 100.981 212.221C98.8933 212.12 96.8158 212.182 94.7794 211.901C92.7202 211.659 90.7623 211.423 88.7651 211.164C86.7619 211.007 84.9463 210.433 83.0958 210.101C82.1736 209.884 81.268 209.73 80.3458 209.513L79.0018 209.211C78.5015 209.08 78.1024 208.955 77.664 208.808C75.927 208.279 74.19 207.75 72.4923 207.244C70.84 206.659 69.2951 205.979 67.7441 205.4C66.9914 205.071 66.2325 204.844 65.4631 204.453C64.7557 204.046 64.0029 203.717 63.3121 203.371C61.9139 202.618 60.4869 202.006 59.2747 201.202C56.7883 199.612 54.391 198.231 52.4172 196.569C51.4076 195.777 50.3919 195.087 49.5456 194.284C48.6993 193.482 47.8696 192.741 47.1019 191.984C45.4984 190.588 44.3289 189.074 43.2031 187.848C42.6712 187.227 42.1559 186.668 41.7419 186.114C41.3279 185.561 40.9532 185.03 40.6571 184.545C39.3653 182.699 38.6325 181.699 38.6325 181.699L38.5207 181.53Z" fill="#DBDBDB"/>
</g>
</g>
<path fill-rule="evenodd" clip-rule="evenodd" d="M119.693 115.913L119.69 115.918C117.297 119.314 113.843 122.064 109.327 124.142L109.068 124.261L109.14 124.428C110.454 127.443 109.976 130.728 107.747 134.326L107.511 134.69C107.357 134.927 107.208 135.156 107.023 135.407L107.02 135.411C104.568 138.876 101.076 141.626 96.444 143.732C91.5078 145.965 86.8387 146.775 82.3389 146.137C77.8391 145.498 74.9224 143.612 73.4766 140.475C72.0673 137.333 72.5689 133.887 75.0401 130.085C77.4817 126.328 81.097 123.365 85.9021 121.131L86.1589 121.012L86.0867 120.846C84.742 117.758 85.2797 114.331 87.7104 110.591C90.1874 106.78 93.8727 103.785 98.7835 101.54C103.729 99.2914 108.381 98.5069 112.882 99.1453C117.383 99.7837 120.316 101.644 121.75 104.798C123.128 107.85 122.679 111.181 120.418 114.833L120.181 115.197C120.027 115.433 119.878 115.662 119.693 115.913ZM111.55 109.498L111.549 109.497C110.939 108.176 109.588 107.363 107.714 107.097C105.833 106.83 103.907 107.183 101.834 108.119L101.832 108.12C99.7669 109.059 98.2129 110.315 97.1732 111.914C96.1402 113.504 95.9124 114.987 96.5243 116.289C97.1394 117.598 98.3333 118.372 100.212 118.639C102.084 118.904 104.163 118.598 106.239 117.667C108.296 116.744 109.873 115.452 110.906 113.862C111.945 112.263 112.149 110.815 111.55 109.498ZM98.8793 128.991L98.8789 128.991C98.2692 127.672 97.0031 126.868 95.1258 126.602C93.2485 126.336 91.2399 126.675 89.1632 127.613L89.1622 127.613C87.0966 128.552 85.5426 129.808 84.5029 131.408C83.4693 132.998 83.2542 134.463 83.8533 135.781L83.854 135.782C84.4677 137.088 85.6364 137.9 87.5187 138.167C89.3947 138.433 91.4965 138.09 93.5683 137.16L93.5704 137.159C95.6367 136.22 97.2017 134.946 98.2353 133.356C99.275 131.756 99.4782 130.309 98.8793 128.991Z" fill="#9A0101"/>
<path fill-rule="evenodd" clip-rule="evenodd" d="M142.257 129.125C143.561 132.14 143.093 135.426 140.864 139.024L140.628 139.388C140.556 139.498 140.479 139.608 140.397 139.726L140.396 139.728C140.312 139.849 140.223 139.977 140.134 140.113C137.661 143.573 134.19 146.325 129.561 148.43C124.645 150.665 119.987 151.476 115.507 150.841C111.027 150.206 108.019 148.305 106.594 145.172C105.164 142.028 105.685 138.585 108.157 134.782C110.599 131.025 114.195 128.059 119.018 125.829L119.276 125.709L119.203 125.543C117.839 122.452 118.396 119.029 120.827 115.289C123.305 111.477 126.97 108.48 131.9 106.238L131.901 106.237C136.824 103.987 141.569 103.214 146.051 103.85C150.531 104.485 153.453 106.344 154.867 109.495L154.867 109.495C156.245 112.547 155.796 115.878 153.534 119.53L153.298 119.894C153.226 120.004 153.15 120.115 153.067 120.232L153.066 120.234C152.982 120.355 152.893 120.483 152.805 120.619C150.38 124.011 146.955 126.763 142.444 128.839L142.185 128.958L142.257 129.125ZM128.192 131.292C126.289 131.027 124.338 131.375 122.279 132.31C120.214 133.25 118.66 134.506 117.62 136.105C116.586 137.696 116.371 139.161 116.97 140.478L116.971 140.479C117.575 141.785 118.776 142.601 120.687 142.872C122.586 143.141 124.616 142.786 126.676 141.855C128.754 140.917 130.309 139.641 131.342 138.051C132.381 136.453 132.596 135.007 131.986 133.687C131.388 132.373 130.118 131.57 128.232 131.298L128.192 131.292ZM144.656 114.193C144.057 112.875 142.779 112.071 140.882 111.801C138.973 111.531 137.015 111.878 134.95 112.817C132.884 113.756 131.33 115.012 130.29 116.612C129.257 118.201 129.03 119.684 129.641 120.986C130.247 122.295 131.473 123.073 133.38 123.343C135.275 123.612 137.282 123.294 139.345 122.363C141.415 121.44 142.98 120.146 144.012 118.558C145.051 116.959 145.266 115.513 144.656 114.193Z" fill="#9A0101"/>
<path fill-rule="evenodd" clip-rule="evenodd" d="M173.981 143.721C176.21 140.123 176.678 136.837 175.364 133.821L175.291 133.654L175.551 133.535C180.072 131.46 183.502 128.699 185.921 125.316C186.003 125.192 186.087 125.07 186.167 124.955L186.179 124.938L186.18 124.936L186.193 124.917C186.272 124.804 186.346 124.697 186.415 124.591L186.646 124.236C188.914 120.576 189.362 117.244 187.974 114.191L187.973 114.19C186.57 111.042 183.628 109.18 179.147 108.544C174.666 107.909 169.962 108.686 165.017 110.935C160.087 113.177 156.422 116.174 153.944 119.986C151.513 123.726 150.956 127.15 152.319 130.24L152.393 130.406L152.134 130.526C147.311 132.757 143.716 135.722 141.274 139.479C138.802 143.282 138.281 146.725 139.711 149.869C141.146 153.004 144.124 154.9 148.604 155.535C153.083 156.171 157.763 155.362 162.667 153.126L162.668 153.125C167.307 151.022 170.778 148.271 173.251 144.81C173.34 144.674 173.429 144.546 173.513 144.425L173.514 144.423L173.529 144.402C173.605 144.292 173.677 144.189 173.745 144.085L173.981 143.721ZM155.397 137.008C157.46 136.069 159.357 135.774 161.255 136.039L161.293 136.044L161.294 136.045C163.174 136.315 164.503 137.066 165.103 138.384C165.712 139.704 165.498 141.15 164.459 142.749C163.426 144.338 161.871 145.614 159.793 146.553C157.733 147.483 155.682 147.835 153.784 147.566C151.872 147.295 150.691 146.482 150.088 145.176C149.477 143.856 149.704 142.392 150.737 140.802C151.776 139.204 153.319 137.946 155.397 137.008ZM177.773 118.891C178.383 120.21 178.168 121.657 177.129 123.255C176.097 124.844 174.532 126.138 172.462 127.06C170.398 127.992 168.37 128.306 166.477 128.038C164.568 127.767 163.363 126.992 162.758 125.683C162.147 124.381 162.374 122.898 163.407 121.309C164.447 119.709 166.001 118.454 168.066 117.514C170.138 116.566 172.069 116.225 173.979 116.496C175.874 116.765 177.178 117.562 177.773 118.891Z" fill="#9A0101"/>
<path d="M126.676 141.855C124.616 142.786 122.586 143.141 120.687 142.872C118.776 142.601 117.575 141.785 116.971 140.479L116.97 140.478C116.371 139.161 116.586 137.696 117.62 136.105C118.66 134.506 120.214 133.25 122.279 132.31C124.338 131.375 126.289 131.027 128.192 131.292L128.232 131.298C130.118 131.57 131.388 132.373 131.986 133.687C132.596 135.007 132.381 136.453 131.342 138.051C130.309 139.641 128.754 140.917 126.676 141.855ZM126.676 141.855L126.601 141.687M159.793 146.553C161.871 145.614 163.426 144.338 164.459 142.749C165.498 141.15 165.712 139.704 165.103 138.384C164.503 137.066 163.174 136.315 161.294 136.045L161.293 136.044L161.255 136.039C159.357 135.774 157.46 136.069 155.397 137.008C153.319 137.946 151.776 139.204 150.737 140.802C149.704 142.392 149.477 143.856 150.088 145.176M159.793 146.553C157.733 147.483 155.682 147.835 153.784 147.566C151.872 147.295 150.691 146.482 150.088 145.176M159.793 146.553L159.718 146.384M150.088 145.176L150.351 145.055M111.549 109.497L111.55 109.498C112.149 110.815 111.945 112.263 110.906 113.862C109.873 115.452 108.296 116.744 106.239 117.667C104.163 118.598 102.084 118.904 100.212 118.639C98.3333 118.372 97.1394 117.598 96.5243 116.289C95.9124 114.987 96.1402 113.504 97.1732 111.914C98.2129 110.315 99.7669 109.059 101.832 108.12L101.834 108.119C103.907 107.183 105.833 106.83 107.714 107.097C109.588 107.363 110.939 108.176 111.549 109.497ZM119.69 115.918L119.693 115.913C119.878 115.662 120.027 115.433 120.181 115.197L120.418 114.833C122.679 111.181 123.128 107.85 121.75 104.798C120.316 101.644 117.383 99.7837 112.882 99.1453C108.381 98.5069 103.729 99.2914 98.7835 101.54C93.8727 103.785 90.1874 106.78 87.7104 110.591C85.2797 114.331 84.742 117.758 86.0867 120.846L86.1589 121.012L85.9021 121.131C81.097 123.365 77.4817 126.328 75.0401 130.085C72.5689 133.887 72.0673 137.333 73.4766 140.475C74.9224 143.612 77.8391 145.498 82.3389 146.137C86.8387 146.775 91.5078 145.965 96.444 143.732C101.076 141.626 104.568 138.876 107.02 135.411L107.023 135.407C107.208 135.156 107.357 134.927 107.511 134.69L107.747 134.326C109.976 130.728 110.454 127.443 109.14 124.428L109.068 124.261L109.327 124.142C113.843 122.064 117.297 119.314 119.69 115.918ZM98.8789 128.991L98.8793 128.991C99.4782 130.309 99.275 131.756 98.2353 133.356C97.2017 134.946 95.6367 136.22 93.5704 137.159L93.5683 137.16C91.4965 138.09 89.3947 138.433 87.5187 138.167C85.6364 137.9 84.4677 137.088 83.854 135.782L83.8533 135.781C83.2542 134.463 83.4693 132.998 84.5029 131.408C85.5426 129.808 87.0966 128.552 89.1622 127.613L89.1632 127.613C91.2399 126.675 93.2485 126.336 95.1258 126.602C97.0031 126.868 98.2692 127.672 98.8789 128.991ZM140.864 139.024C143.093 135.426 143.561 132.14 142.257 129.125L142.185 128.958L142.444 128.839C146.955 126.763 150.38 124.011 152.805 120.619C152.893 120.483 152.982 120.355 153.066 120.234L153.067 120.232C153.15 120.115 153.226 120.004 153.298 119.894L153.534 119.53C155.796 115.878 156.245 112.547 154.867 109.495L154.867 109.495C153.453 106.344 150.531 104.485 146.051 103.85C141.569 103.214 136.824 103.987 131.901 106.237L131.9 106.238C126.97 108.48 123.305 111.477 120.827 115.289C118.396 119.029 117.839 122.452 119.203 125.543L119.276 125.709L119.018 125.829C114.195 128.059 110.599 131.025 108.157 134.782C105.685 138.585 105.164 142.028 106.594 145.172C108.019 148.305 111.027 150.206 115.507 150.841C119.987 151.476 124.645 150.665 129.561 148.43C134.19 146.325 137.661 143.573 140.134 140.113C140.223 139.977 140.312 139.849 140.396 139.728L140.397 139.726C140.479 139.608 140.556 139.498 140.628 139.388L140.864 139.024ZM140.882 111.801C142.779 112.071 144.057 112.875 144.656 114.193C145.266 115.513 145.051 116.959 144.012 118.558C142.98 120.146 141.415 121.44 139.345 122.363C137.282 123.294 135.275 123.612 133.38 123.343C131.473 123.073 130.247 122.295 129.641 120.986C129.03 119.684 129.257 118.201 130.29 116.612C131.33 115.012 132.884 113.756 134.95 112.817C137.015 111.878 138.973 111.531 140.882 111.801ZM175.364 133.821C176.678 136.837 176.21 140.123 173.981 143.721L173.745 144.085C173.677 144.189 173.605 144.292 173.529 144.402L173.514 144.423L173.513 144.425C173.429 144.546 173.34 144.674 173.251 144.81C170.778 148.271 167.307 151.022 162.668 153.125L162.667 153.126C157.763 155.362 153.083 156.171 148.604 155.535C144.124 154.9 141.146 153.004 139.711 149.869C138.281 146.725 138.802 143.282 141.274 139.479C143.716 135.722 147.311 132.757 152.134 130.526L152.393 130.406L152.32 130.24C150.956 127.15 151.513 123.726 153.944 119.986C156.422 116.174 160.087 113.177 165.017 110.935C169.962 108.686 174.666 107.909 179.147 108.544C183.628 109.18 186.57 111.042 187.973 114.19L187.974 114.191C189.362 117.244 188.914 120.576 186.646 124.236L186.415 124.591C186.346 124.697 186.272 124.804 186.193 124.917L186.18 124.936L186.179 124.938L186.167 124.955C186.087 125.07 186.003 125.192 185.921 125.316C183.502 128.699 180.072 131.46 175.551 133.535L175.291 133.654L175.364 133.821ZM177.129 123.255C178.168 121.657 178.383 120.21 177.773 118.891C177.178 117.562 175.874 116.765 173.979 116.496C172.069 116.225 170.138 116.566 168.066 117.514C166.001 118.454 164.447 119.709 163.407 121.309C162.374 122.898 162.147 124.381 162.758 125.683C163.363 126.992 164.568 127.767 166.477 128.038C168.37 128.306 170.398 127.992 172.462 127.06C174.532 126.138 176.097 124.844 177.129 123.255Z" stroke="#9A0101"/>
<path fill-rule="evenodd" clip-rule="evenodd" d="M118.693 113.913L118.69 113.918C116.297 117.314 112.843 120.064 108.327 122.142L108.068 122.261L108.14 122.428C109.454 125.443 108.976 128.728 106.747 132.326L106.511 132.69C106.357 132.927 106.208 133.156 106.023 133.407L106.02 133.411C103.568 136.876 100.076 139.626 95.444 141.732C90.5078 143.965 85.8387 144.775 81.3389 144.137C76.8391 143.498 73.9224 141.612 72.4766 138.475C71.0673 135.333 71.5689 131.887 74.0401 128.085C76.4817 124.328 80.097 121.365 84.9021 119.131L85.1589 119.012L85.0867 118.846C83.742 115.758 84.2797 112.331 86.7104 108.591C89.1874 104.78 92.8727 101.785 97.7835 99.5402C102.729 97.2914 107.381 96.5069 111.882 97.1453C116.383 97.7837 119.316 99.6441 120.75 102.798C122.128 105.85 121.679 109.181 119.418 112.833L119.181 113.197C119.027 113.433 118.878 113.662 118.693 113.913ZM110.55 107.498L110.549 107.497C109.939 106.176 108.588 105.363 106.714 105.097C104.833 104.83 102.907 105.183 100.834 106.119L100.832 106.12C98.7669 107.059 97.2129 108.315 96.1732 109.914C95.1402 111.504 94.9124 112.987 95.5243 114.289C96.1394 115.598 97.3333 116.372 99.2117 116.639C101.084 116.904 103.163 116.598 105.239 115.667C107.296 114.744 108.873 113.452 109.906 111.862C110.945 110.263 111.149 108.815 110.55 107.498ZM97.8793 126.991L97.8789 126.991C97.2692 125.672 96.0031 124.868 94.1258 124.602C92.2485 124.336 90.2399 124.675 88.1632 125.613L88.1622 125.613C86.0966 126.552 84.5426 127.808 83.5029 129.408C82.4693 130.998 82.2542 132.463 82.8533 133.781L82.854 133.782C83.4677 135.088 84.6364 135.9 86.5187 136.167C88.3947 136.433 90.4965 136.09 92.5683 135.16L92.5704 135.159C94.6367 134.22 96.2017 132.946 97.2353 131.356C98.275 129.756 98.4782 128.309 97.8793 126.991Z" fill="url(#paint28_linear_2275_6581)"/>
<path fill-rule="evenodd" clip-rule="evenodd" d="M141.257 127.125C142.561 130.14 142.093 133.426 139.864 137.024L139.628 137.388C139.556 137.498 139.479 137.608 139.397 137.726L139.396 137.728C139.312 137.849 139.223 137.977 139.134 138.113C136.661 141.573 133.19 144.325 128.561 146.43C123.645 148.665 118.987 149.476 114.507 148.841C110.027 148.206 107.019 146.305 105.594 143.172C104.164 140.028 104.685 136.585 107.157 132.782C109.599 129.025 113.195 126.059 118.018 123.829L118.276 123.709L118.203 123.543C116.839 120.452 117.396 117.029 119.827 113.289C122.305 109.477 125.97 106.48 130.9 104.238L130.901 104.237C135.824 101.987 140.569 101.214 145.051 101.85C149.531 102.485 152.453 104.344 153.867 107.495L153.867 107.495C155.245 110.547 154.796 113.878 152.534 117.53L152.298 117.894C152.226 118.004 152.15 118.115 152.067 118.232L152.066 118.234C151.982 118.355 151.893 118.483 151.805 118.619C149.38 122.011 145.955 124.763 141.444 126.839L141.185 126.958L141.257 127.125ZM127.192 129.292C125.289 129.027 123.338 129.375 121.279 130.31C119.214 131.25 117.66 132.506 116.62 134.105C115.586 135.696 115.371 137.161 115.97 138.478L115.971 138.479C116.575 139.785 117.776 140.601 119.687 140.872C121.586 141.141 123.616 140.786 125.676 139.855C127.754 138.917 129.309 137.641 130.342 136.051C131.381 134.453 131.596 133.007 130.986 131.687C130.388 130.373 129.118 129.57 127.232 129.298L127.192 129.292ZM143.656 112.193C143.057 110.875 141.779 110.071 139.882 109.801C137.973 109.531 136.015 109.878 133.95 110.817C131.884 111.756 130.33 113.012 129.29 114.612C128.257 116.201 128.03 117.684 128.641 118.986C129.247 120.295 130.473 121.073 132.38 121.343C134.275 121.612 136.282 121.294 138.345 120.363C140.415 119.44 141.98 118.146 143.012 116.558C144.051 114.959 144.266 113.513 143.656 112.193Z" fill="url(#paint29_linear_2275_6581)"/>
<path fill-rule="evenodd" clip-rule="evenodd" d="M172.981 141.721C175.21 138.123 175.678 134.837 174.364 131.821L174.291 131.654L174.551 131.535C179.072 129.46 182.502 126.699 184.921 123.316C185.003 123.192 185.087 123.07 185.167 122.955L185.179 122.938L185.18 122.936L185.193 122.917C185.272 122.804 185.346 122.697 185.415 122.591L185.646 122.236C187.914 118.576 188.362 115.244 186.974 112.191L186.973 112.19C185.57 109.042 182.628 107.18 178.147 106.544C173.666 105.909 168.962 106.686 164.017 108.935C159.087 111.177 155.422 114.174 152.944 117.986C150.513 121.726 149.956 125.15 151.319 128.24L151.393 128.406L151.134 128.526C146.311 130.757 142.716 133.722 140.274 137.479C137.802 141.282 137.281 144.725 138.711 147.869C140.146 151.004 143.124 152.9 147.604 153.535C152.083 154.171 156.763 153.362 161.667 151.126L161.668 151.125C166.307 149.022 169.778 146.271 172.251 142.81C172.34 142.674 172.429 142.546 172.513 142.425L172.514 142.423L172.529 142.402C172.605 142.292 172.677 142.189 172.745 142.085L172.981 141.721ZM154.397 135.008C156.46 134.069 158.357 133.774 160.255 134.039L160.293 134.044L160.294 134.045C162.174 134.315 163.503 135.066 164.103 136.384C164.712 137.704 164.498 139.15 163.459 140.749C162.426 142.338 160.871 143.614 158.793 144.553C156.733 145.483 154.682 145.835 152.784 145.566C150.872 145.295 149.691 144.482 149.088 143.176C148.477 141.856 148.704 140.392 149.737 138.802C150.776 137.204 152.319 135.946 154.397 135.008ZM176.773 116.891C177.383 118.21 177.168 119.657 176.129 121.255C175.097 122.844 173.532 124.138 171.462 125.06C169.398 125.992 167.37 126.306 165.477 126.038C163.568 125.767 162.363 124.992 161.758 123.683C161.147 122.381 161.374 120.898 162.407 119.309C163.447 117.709 165.001 116.454 167.066 115.514C169.138 114.566 171.069 114.225 172.979 114.496C174.874 114.765 176.178 115.562 176.773 116.891Z" fill="url(#paint30_linear_2275_6581)"/>
<defs>
<linearGradient id="paint0_linear_2275_6581" x1="169.438" y1="250.041" x2="93.5911" y2="19.9716" gradientUnits="userSpaceOnUse">
<stop stop-color="#660000"/>
<stop offset="1" stop-color="#FF0000"/>
</linearGradient>
<linearGradient id="paint1_linear_2275_6581" x1="23.7607" y1="53.7029" x2="103.408" y2="277.046" gradientUnits="userSpaceOnUse">
<stop stop-color="#D9D9D9"/>
<stop offset="1" stop-color="white"/>
</linearGradient>
<linearGradient id="paint2_linear_2275_6581" x1="116.526" y1="20.6293" x2="196.195" y2="243.933" gradientUnits="userSpaceOnUse">
<stop stop-color="#D9D9D9"/>
<stop offset="1" stop-color="white"/>
</linearGradient>
<linearGradient id="paint3_linear_2275_6581" x1="166.556" y1="2.75793" x2="246.242" y2="226.123" gradientUnits="userSpaceOnUse">
<stop stop-color="#D9D9D9"/>
<stop offset="1" stop-color="white"/>
</linearGradient>
<linearGradient id="paint4_linear_2275_6581" x1="160.156" y1="5.05209" x2="239.842" y2="228.417" gradientUnits="userSpaceOnUse">
<stop stop-color="#D9D9D9"/>
<stop offset="1" stop-color="white"/>
</linearGradient>
<linearGradient id="paint5_linear_2275_6581" x1="86.715" y1="31.2096" x2="166.435" y2="254.699" gradientUnits="userSpaceOnUse">
<stop stop-color="#D9D9D9"/>
<stop offset="1" stop-color="white"/>
</linearGradient>
<linearGradient id="paint6_linear_2275_6581" x1="58.3924" y1="41.388" x2="138" y2="264.708" gradientUnits="userSpaceOnUse">
<stop stop-color="#D9D9D9"/>
<stop offset="1" stop-color="white"/>
</linearGradient>
<linearGradient id="paint7_linear_2275_6581" x1="23.8228" y1="53.6862" x2="103.509" y2="277.051" gradientUnits="userSpaceOnUse">
<stop stop-color="#D9D9D9"/>
<stop offset="1" stop-color="white"/>
</linearGradient>
<linearGradient id="paint8_linear_2275_6581" x1="35.895" y1="49.361" x2="115.542" y2="272.703" gradientUnits="userSpaceOnUse">
<stop stop-color="#D9D9D9"/>
<stop offset="1" stop-color="white"/>
</linearGradient>
<linearGradient id="paint9_linear_2275_6581" x1="116.672" y1="20.5566" x2="196.319" y2="243.899" gradientUnits="userSpaceOnUse">
<stop stop-color="#D9D9D9"/>
<stop offset="1" stop-color="white"/>
</linearGradient>
<linearGradient id="paint10_linear_2275_6581" x1="160.134" y1="5.0914" x2="239.781" y2="228.434" gradientUnits="userSpaceOnUse">
<stop stop-color="#D9D9D9"/>
<stop offset="1" stop-color="white"/>
</linearGradient>
<linearGradient id="paint11_linear_2275_6581" x1="142.496" y1="11.3523" x2="222.143" y2="234.695" gradientUnits="userSpaceOnUse">
<stop stop-color="#D9D9D9"/>
<stop offset="1" stop-color="white"/>
</linearGradient>
<linearGradient id="paint12_linear_2275_6581" x1="58.2064" y1="41.4383" x2="137.853" y2="264.781" gradientUnits="userSpaceOnUse">
<stop stop-color="#D9D9D9"/>
<stop offset="1" stop-color="white"/>
</linearGradient>
<linearGradient id="paint13_linear_2275_6581" x1="142.559" y1="11.3356" x2="222.245" y2="234.701" gradientUnits="userSpaceOnUse">
<stop stop-color="#D9D9D9"/>
<stop offset="1" stop-color="white"/>
</linearGradient>
<linearGradient id="paint14_linear_2275_6581" x1="36.0415" y1="49.288" x2="115.728" y2="272.653" gradientUnits="userSpaceOnUse">
<stop stop-color="#D9D9D9"/>
<stop offset="1" stop-color="white"/>
</linearGradient>
<linearGradient id="paint15_linear_2275_6581" x1="86.8557" y1="31.2382" x2="166.525" y2="254.541" gradientUnits="userSpaceOnUse">
<stop stop-color="#D9D9D9"/>
<stop offset="1" stop-color="white"/>
</linearGradient>
<linearGradient id="paint16_linear_2275_6581" x1="218.656" y1="331.241" x2="119.953" y2="105.868" gradientUnits="userSpaceOnUse">
<stop stop-color="#610000"/>
<stop offset="1" stop-color="#BE0000"/>
</linearGradient>
<linearGradient id="paint17_linear_2275_6581" x1="248.106" y1="150.128" x2="225.608" y2="121.538" gradientUnits="userSpaceOnUse">
<stop stop-color="#858585"/>
<stop offset="1" stop-color="#D9D9D9"/>
</linearGradient>
<linearGradient id="paint18_linear_2275_6581" x1="82.2027" y1="236.452" x2="63.5852" y2="194.599" gradientUnits="userSpaceOnUse">
<stop stop-color="#858585"/>
<stop offset="1" stop-color="#D9D9D9"/>
</linearGradient>
<linearGradient id="paint19_linear_2275_6581" x1="185.648" y1="239.442" x2="156.869" y2="177.195" gradientUnits="userSpaceOnUse">
<stop stop-color="#858585"/>
<stop offset="1" stop-color="#D9D9D9"/>
</linearGradient>
<linearGradient id="paint20_linear_2275_6581" x1="104.585" y1="-30.3278" x2="148.167" y2="241.52" gradientUnits="userSpaceOnUse">
<stop stop-color="#660000"/>
<stop offset="1" stop-color="#FF0000"/>
</linearGradient>
<linearGradient id="paint21_linear_2275_6581" x1="90.1573" y1="50.0369" x2="118.23" y2="114.34" gradientUnits="userSpaceOnUse">
<stop stop-color="#D9D9D9"/>
<stop offset="1" stop-color="white"/>
</linearGradient>
<linearGradient id="paint22_linear_2275_6581" x1="198.279" y1="45.9097" x2="152.842" y2="102.677" gradientUnits="userSpaceOnUse">
<stop stop-color="#D9D9D9"/>
<stop offset="1" stop-color="white"/>
</linearGradient>
<linearGradient id="paint23_linear_2275_6581" x1="15.0655" y1="138.473" x2="77.3653" y2="132.629" gradientUnits="userSpaceOnUse">
<stop stop-color="#D9D9D9"/>
<stop offset="1" stop-color="white"/>
</linearGradient>
<linearGradient id="paint24_linear_2275_6581" x1="232.314" y1="120.302" x2="164.281" y2="123.198" gradientUnits="userSpaceOnUse">
<stop stop-color="#D9D9D9"/>
<stop offset="1" stop-color="white"/>
</linearGradient>
<linearGradient id="paint25_linear_2275_6581" x1="64.5843" y1="208.25" x2="86.6752" y2="176.484" gradientUnits="userSpaceOnUse">
<stop stop-color="#D9D9D9"/>
<stop offset="1" stop-color="white"/>
</linearGradient>
<linearGradient id="paint26_linear_2275_6581" x1="167.26" y1="202.401" x2="147.798" y2="157.916" gradientUnits="userSpaceOnUse">
<stop stop-color="#D9D9D9"/>
<stop offset="1" stop-color="white"/>
</linearGradient>
<linearGradient id="paint27_linear_2275_6581" x1="108.772" y1="67.4268" x2="170.318" y2="245.914" gradientUnits="userSpaceOnUse">
<stop stop-color="#D9D9D9"/>
<stop offset="1" stop-color="white"/>
</linearGradient>
<linearGradient id="paint28_linear_2275_6581" x1="67.1036" y1="54.3425" x2="54.6244" y2="161.303" gradientUnits="userSpaceOnUse">
<stop stop-color="#660000"/>
<stop offset="1" stop-color="#FF0000"/>
</linearGradient>
<linearGradient id="paint29_linear_2275_6581" x1="67.1036" y1="54.3425" x2="54.6244" y2="161.303" gradientUnits="userSpaceOnUse">
<stop stop-color="#660000"/>
<stop offset="1" stop-color="#FF0000"/>
</linearGradient>
<linearGradient id="paint30_linear_2275_6581" x1="67.1036" y1="54.3425" x2="54.6244" y2="161.303" gradientUnits="userSpaceOnUse">
<stop stop-color="#660000"/>
<stop offset="1" stop-color="#FF0000"/>
</linearGradient>
<clipPath id="clip0_2275_6581">
<rect width="191" height="208" fill="white" transform="translate(165.595 276.424) rotate(-150.048)"/>
</clipPath>
</defs>
</svg>
