<svg width="12" height="12" viewBox="0 0 12 12" fill="none" xmlns="http://www.w3.org/2000/svg">
<path d="M5.90464 9.61134C3.93997 9.61134 3.04197 8.59534 3.04197 7.85067C3.04197 7.67334 3.11397 7.50334 3.24064 7.38067C3.30315 7.32031 3.37747 7.27352 3.45892 7.24323C3.54037 7.21294 3.62721 7.19982 3.71397 7.20467C4.55464 7.20467 4.33464 8.48467 5.90464 8.48467C6.70664 8.48467 7.17797 7.99401 7.17797 7.53467C7.17797 7.25801 7.02197 6.94201 6.49264 6.81534L4.73997 6.36667C3.33264 6.00334 3.08731 5.20867 3.08731 4.47201C3.08731 2.94334 4.46597 2.38934 5.77797 2.38934C6.98731 2.38934 8.42464 3.06667 8.42464 3.98334C8.42464 4.37801 8.09931 4.59001 7.72131 4.59001C7.00264 4.59001 7.12331 3.56601 5.67931 3.56601C4.96131 3.56601 4.58264 3.90801 4.58264 4.38601C4.58264 4.86401 5.14197 5.02601 5.63197 5.13467L6.92597 5.43134C8.34331 5.75534 8.71997 6.59867 8.71997 7.40667C8.71997 8.65001 7.77131 9.61001 5.90264 9.61001L5.90464 9.61134ZM11.3286 6.98201C11.386 6.65534 11.414 6.32467 11.414 5.99401C11.4185 5.17493 11.2449 4.36466 10.905 3.61939C10.5652 2.87412 10.0673 2.21168 9.44597 1.67801C8.83052 1.14927 8.10523 0.763968 7.32258 0.549972C6.53993 0.335977 5.71949 0.298644 4.92064 0.440674C4.42613 0.150931 3.86311 -0.00121955 3.28997 7.36189e-06C2.70978 0.00520496 2.1412 0.163159 1.64146 0.457969C1.14172 0.752778 0.72847 1.17404 0.443305 1.67934C0.154449 2.18829 0.00176701 2.76315 1.52457e-05 3.34836C-0.00173652 3.93357 0.147502 4.50933 0.433305 5.02001C0.272748 5.9095 0.327043 6.82449 0.591669 7.68876C0.856295 8.55302 1.32359 9.34155 1.95464 9.98867C2.57966 10.6292 3.35188 11.1072 4.20398 11.3808C5.05609 11.6545 5.96219 11.7155 6.84331 11.5587C7.33722 11.8482 7.89947 12.0005 8.47197 12C9.05198 11.9948 9.62039 11.8369 10.12 11.5422C10.6196 11.2475 11.0328 10.8264 11.318 10.3213C11.6072 9.81277 11.7601 9.23813 11.762 8.65308C11.7639 8.06803 11.6146 7.49241 11.3286 6.98201Z" fill="black"/>
</svg>
