<svg width="24" height="24" viewBox="0 0 24 24" fill="none" xmlns="http://www.w3.org/2000/svg">
<path d="M20 4.33503C22.76 6.9726 23.8 10.6574 23.1467 14.0966C23.6933 15.0276 24 16.1136 24 17.2643C24 18.9788 23.2976 20.6232 22.0474 21.8355C20.7971 23.0479 19.1014 23.729 17.3333 23.729C16.1467 23.729 15.0267 23.4316 14.0667 22.9015C10.52 23.535 6.72 22.5265 4 19.8502C1.24 17.2126 0.2 13.5278 0.853333 10.0886C0.306667 9.15765 0 8.07159 0 6.92088C0 5.20635 0.702379 3.56205 1.95262 2.34969C3.20286 1.13733 4.89856 0.456238 6.66667 0.456238C7.85333 0.456238 8.97333 0.753612 9.93333 1.28371C13.48 0.650177 17.28 1.65866 20 4.33503ZM12.0533 18.7641C15.88 18.7641 17.7867 16.9799 17.7867 14.575C17.7867 13.0364 17.04 11.3944 14.1467 10.7609L11.4933 10.192C10.48 9.9722 9.33333 9.67482 9.33333 8.75684C9.33333 7.82593 10.1333 7.17947 11.6 7.17947C14.5733 7.17947 14.2933 9.15765 15.7733 9.15765C16.5467 9.15765 17.2133 8.71806 17.2133 7.95523C17.2133 6.18391 14.2933 4.8522 11.8133 4.8522C9.13333 4.8522 6.26667 5.96412 6.26667 8.91199C6.26667 10.3342 6.78667 11.8469 9.66667 12.5451L13.2533 13.4243C14.3333 13.6829 14.6 14.2647 14.6 14.8078C14.6 15.6869 13.6933 16.5532 12.0533 16.5532C8.84 16.5532 9.28 14.1613 7.56 14.1613C6.78667 14.1613 6.22667 14.6785 6.22667 15.4154C6.22667 16.8506 8 18.7641 12.0533 18.7641Z" fill="white"/>
</svg>
