<svg width="1201" height="1072" viewBox="0 0 1201 1072" fill="none" xmlns="http://www.w3.org/2000/svg">
<path fill-rule="evenodd" clip-rule="evenodd" d="M681.815 422.99C690.394 426.046 699.242 422.185 701.548 414.088C702.674 410.067 704.39 406.903 708.572 405.241C711.414 404.061 711.629 402.077 709.001 400.576C705.676 398.645 703.692 395.321 700.743 393.283C690.984 386.526 684.335 386.473 677.9 396.822C677.257 397.894 676.774 399.02 676.184 400.093C675.487 401.433 674.737 402.667 674.147 404.061C670.768 411.675 674.307 420.308 681.868 422.99H681.815Z" fill="white"/>
<path fill-rule="evenodd" clip-rule="evenodd" d="M869.169 683.754C872.654 683.165 876.193 682.146 878.123 677.695C870.777 676.569 864.343 675.336 857.64 676.301C854.691 676.73 851.795 676.998 849.275 678.875C842.036 684.183 833.939 687.776 825.252 690.189C822.732 690.886 819.782 691.154 818.335 693.943C818.067 694.05 817.799 694.157 817.477 694.264C817.799 694.157 818.067 694.103 818.335 694.05C826.7 694.854 834.797 691.744 843.108 691.959C843.537 691.959 844.02 691.637 844.449 691.422C852.331 687.722 860.535 685.095 869.115 683.754H869.169Z" fill="white"/>
<path fill-rule="evenodd" clip-rule="evenodd" d="M320.83 495.969C322.278 501.545 324.637 506.8 328.927 510.822C333.002 514.629 337.828 516.131 343.298 514.039C345.496 513.181 346.515 511.787 345.282 509.428C344.585 508.087 343.673 506.961 342.332 506.157C342.064 504.816 341.206 504.066 339.973 503.637C338.74 502.511 336.863 501.921 336.488 499.937C335.415 494.306 330.375 493.127 326.246 491.25C322.439 489.534 319.704 491.947 320.776 496.022L320.83 495.969Z" fill="white"/>
<path fill-rule="evenodd" clip-rule="evenodd" d="M1199.54 297.3C1197.28 294.35 1194.33 295.047 1191.44 295.691C1185.7 296.978 1181.52 301.053 1176.75 304.056C1173.05 304.539 1169.35 304.86 1165.7 305.504C1162.05 306.147 1158.25 306.63 1156.37 310.598C1143.02 322.716 1127.2 330.921 1111.49 339.339C1105.54 342.503 1100.12 346.525 1097.44 353.12C1095.99 356.659 1096.69 357.732 1100.44 357.356C1106.18 356.767 1110.47 353.442 1114.33 349.42C1114.65 349.099 1114.97 348.723 1115.19 348.294C1119.48 346.471 1123.71 344.433 1128.06 342.932C1130.42 342.128 1132.83 341.645 1134.55 339.715C1141.95 331.511 1151.49 327.489 1162.22 325.666C1167.31 325.773 1172.73 328.025 1177.12 323.467C1180.02 322.288 1180.71 319.392 1181.63 316.979C1183.72 311.402 1187.79 308.292 1193.16 306.415C1194.98 305.772 1196.91 305.021 1198.52 303.949C1201.57 302.018 1201.68 300.088 1199.54 297.246V297.3Z" fill="white"/>
<path fill-rule="evenodd" clip-rule="evenodd" d="M827.614 67.5281C828.847 66.7238 830.348 65.9731 831.045 64.7934C833.834 60.2355 837.855 56.9646 841.931 53.7472C846.542 50.1009 848.044 44.2561 851.904 40.0736C852.816 39.0548 852.226 37.1244 851.1 35.9983C850.028 34.9258 848.687 35.4084 847.668 35.9983C845.148 37.4997 842.306 38.5185 840.322 40.8779C835.067 47.0981 831.903 54.766 827.292 59.6993C825.951 62.3268 825.201 63.6137 824.611 64.9543C824.182 65.8658 823.914 66.8847 824.879 67.6354C825.79 68.3325 826.809 68.0643 827.614 67.5281Z" fill="white"/>
<path fill-rule="evenodd" clip-rule="evenodd" d="M783.373 342.234C784.767 342.878 785.732 341.752 786.644 341.054C792.328 336.926 795.706 330.759 799.835 326.737C801.605 323.734 802.463 321.214 801.068 319.445C799.406 317.353 796.886 319.069 794.902 319.82C792.542 320.732 790.612 322.287 789.325 324.485C787.288 328.131 785.572 331.992 782.515 334.995C781.604 335.853 781.335 337.14 781.496 338.427C781.711 339.875 781.764 341.483 783.373 342.181V342.234Z" fill="white"/>
<path fill-rule="evenodd" clip-rule="evenodd" d="M846.756 109.837C847.775 107.37 849.866 104.796 847.722 102.33C845.684 99.9703 842.627 99.7022 839.571 100.346C836.085 101.15 833.672 103.134 833.458 106.78C833.297 110.105 831.206 112.035 829.275 114.18C826.112 115.521 824.771 117.934 825.468 121.258C825.79 122.813 827.131 123.779 828.632 124.047C831.903 124.583 834.423 123.403 836.032 120.4C836.354 119.757 836.622 119.06 836.943 118.363C840.053 115.36 844.88 114.287 846.703 109.783L846.756 109.837Z" fill="white"/>
<path fill-rule="evenodd" clip-rule="evenodd" d="M518.802 238.047C529.741 238.315 539.876 238.583 549.956 238.744C551.404 238.744 553.174 238.476 553.174 236.492C553.174 234.937 552.048 233.864 550.439 233.382C547.543 232.577 544.648 232.47 541.591 232.792C537.355 233.221 534.299 231.719 533.655 227.054C534.46 221.746 536.605 216.544 535.479 211.021C536.176 208.876 536.176 206.678 535.8 204.479C535.693 203.836 535.157 203.085 534.621 202.817C533.548 202.334 532.851 203.139 532.261 203.943C530.224 206.624 530.116 209.895 529.526 212.952C529.419 215.204 529.312 217.402 529.258 219.654C529.687 221.424 529.097 223.301 529.687 225.017C529.044 226.518 528.186 228.02 528.937 229.735C527.006 233.703 521.644 233.543 518.856 237.993L518.802 238.047Z" fill="white"/>
<path fill-rule="evenodd" clip-rule="evenodd" d="M834.316 589.914C834.852 592.702 837.694 593.292 840 593.989C843.11 594.901 845.791 593.721 847.882 591.255C851.046 587.501 854.209 583.801 857.373 580.048C863.379 577.527 868.366 573.399 873.513 569.538C876.731 567.125 879.948 564.658 883.648 563.371C891.906 560.529 898.394 554.095 907.027 552.057C909.065 551.574 910.674 549.858 910.137 547.606C909.494 544.925 907.134 545.569 905.204 546.051C902.577 546.748 900.056 547.713 897.751 549.322C895.123 551.145 892.388 553.129 889.439 554.202C875.497 559.403 863.754 568.09 852.065 576.884C847.453 579.672 842.144 581.227 837.908 584.713C836.246 586.107 833.779 587.287 834.262 589.861L834.316 589.914Z" fill="white"/>
<path fill-rule="evenodd" clip-rule="evenodd" d="M484.591 299.444C484.966 292.044 484.484 284.537 485.717 277.137C485.985 275.474 485.717 273.651 485.449 271.989C485.234 270.809 484.859 269.469 483.25 269.469C481.856 269.469 480.998 270.434 480.462 271.614C480.14 272.257 479.819 273.008 479.819 273.759C479.711 279.228 477.888 284.59 477.835 290.006C477.835 296.441 476.869 303.358 481.749 309.417C484.859 306.361 484.484 302.714 484.645 299.444H484.591Z" fill="white"/>
<path fill-rule="evenodd" clip-rule="evenodd" d="M751.041 203.834C747.662 206.891 746.858 213.004 749.378 216.865C750.665 218.902 752.488 220.136 754.901 220.189C757.529 220.296 758.816 218.42 759.835 216.328C761.551 213.004 761.658 210.269 760.264 206.247C758.762 201.904 754.419 200.778 751.041 203.834Z" fill="white"/>
<path fill-rule="evenodd" clip-rule="evenodd" d="M905.847 636.673C902.308 637.531 898.662 638.497 895.981 641.339C889.546 645.146 882.253 646.915 875.229 649.06C865.63 652.009 855.657 653.725 846.648 658.605C844.611 659.731 841.608 658.766 839.624 660.535C835.441 664.235 830.347 664.986 825.146 665.415C822.143 665.683 819.301 666.326 816.673 667.828C813.51 668.364 810.346 668.847 807.182 669.49C799.783 671.045 792.812 673.566 786.377 679.41C797.477 680.054 807.504 679.41 817.263 676.461C834.798 670.724 852.332 665.04 869.813 659.248C870.939 658.873 871.851 657.961 872.87 657.264C879.519 654.744 887.348 655.602 893.139 650.454C898.233 648.578 903.434 646.915 908.421 644.77C910.512 643.859 913.515 642.733 912.175 639.408C911.048 636.673 908.314 636.137 905.847 636.727V636.673Z" fill="white"/>
<path fill-rule="evenodd" clip-rule="evenodd" d="M972.821 447.656C970.515 446.262 967.781 446.047 965.046 446.422C961.131 447.012 960.005 448.782 960.81 452.696C962.043 458.595 966.815 460.364 972.928 457.2C975.127 456.074 976.521 454.519 976.575 452.053C976.575 449.693 974.859 448.621 972.875 447.656H972.821Z" fill="white"/>
<path fill-rule="evenodd" clip-rule="evenodd" d="M948.852 475.485C944.67 475.485 940.97 476.88 938.074 479.775C935.232 482.617 932.015 484.869 928.851 487.229C926.706 487.068 925.098 488.247 923.382 489.266C909.172 497.739 894.855 506.104 880.752 514.737C875.336 518.061 870.51 522.137 867.078 529C875.98 527.606 883.326 525.032 889.117 519.295C896.624 511.788 906.222 507.766 915.446 503.101C919.682 500.956 923.703 498.65 926.706 494.95C928.047 494.736 928.958 493.878 929.548 492.698C930.942 492.698 931.639 491.84 932.229 490.768C933.677 490.821 934.374 489.91 934.91 488.784C940.702 487.336 946.01 484.816 951.104 481.706C952.713 480.74 953.464 479.132 952.659 477.201C951.962 475.485 950.407 475.485 948.906 475.485H948.852Z" fill="white"/>
<path fill-rule="evenodd" clip-rule="evenodd" d="M1088.32 645.414C1084.14 643.269 1080.28 642.518 1076.63 643.001C1074.86 643.215 1073.1 643.483 1072.67 645.575C1072.34 647.398 1073.85 648.041 1075.08 648.846C1078.24 650.883 1081.78 651.956 1085.48 652.277C1088.11 652.492 1091.6 653.564 1092.77 650.562C1094.22 646.808 1089.77 646.969 1088.32 645.467V645.414Z" fill="white"/>
<path fill-rule="evenodd" clip-rule="evenodd" d="M701.87 239.44C706.857 238.421 712.004 237.081 713.506 231.022C713.774 230.593 713.988 230.164 713.988 229.627C714.954 227.911 715.865 226.196 716.83 224.426C719.994 222.925 720.53 219.654 722.032 217.026C730.558 211.825 736.51 204.479 740.156 195.256C740.585 194.129 741.282 193.057 741.872 191.931C744.982 188.982 747.234 185.443 749.218 181.689C752.757 175.094 754.634 167.747 757.959 161.152C761.819 153.538 762.838 145.655 763.321 137.451C764.018 136.378 764.125 135.252 763.428 134.126C763.857 132.25 763.535 130.48 762.785 128.764C763.16 124.582 761.766 121.042 759.192 117.879C755.117 112.838 752.757 112.677 746.966 117.128C742.033 120.828 739.834 125.815 739.781 131.928C739.405 133.644 739.137 135.36 739.781 137.129L739.459 137.773L739.244 138.47C733.132 142.974 732.166 149.569 731.845 156.487C728.627 162.707 725.41 168.873 722.139 175.094C719.458 180.08 716.777 185.067 714.149 190.108C712.541 193.164 711.254 196.489 708.358 198.527C704.926 200.94 704.176 204.318 704.658 208.232C704.444 208.661 704.336 209.09 704.336 209.519C700.583 214.881 699.564 220.619 701.923 226.839C701.066 228.34 700.476 230.003 698.653 230.7C696.454 231.558 695.596 233.006 696.4 235.365C697.312 237.992 699.189 240.03 701.87 239.494V239.44Z" fill="white"/>
<path fill-rule="evenodd" clip-rule="evenodd" d="M852.308 683.588C851.202 683.011 850.144 682.481 849.038 681.904C849.518 680.701 850.096 679.547 850.48 678.296C852.068 673.484 851.442 672.234 846.536 671.079C844.805 670.694 843.266 670.02 841.775 669.154C843.987 664.536 846.969 660.206 846.584 654.528C841.726 655.058 837.686 656.693 835.281 661.264C832.395 663.333 829.99 663.718 827.682 660.109C824.892 655.731 820.659 655.539 816.138 657.174C813.348 657.848 810.51 658.522 807.72 659.195C807.143 659.339 806.518 659.484 805.941 659.628C805.315 659.773 804.642 659.917 804.017 660.061C803.68 659.869 803.343 659.772 803.007 659.724C796.032 659.436 789.25 660.302 782.517 662.13C768.472 644.04 750.964 626.238 729.415 609.014C728.02 607.908 726.625 606.801 725.231 605.694C728.549 600.017 728.261 593.281 730.233 587.171C730.618 586.401 730.954 585.583 731.339 584.814C734.562 578.703 739.179 574.325 746.154 572.786C747.741 572.449 749.04 571.727 749.761 570.188C755.677 565.184 761.449 560.036 767.895 555.706C771.694 554.022 775.494 552.338 779.342 550.702C782.468 549.211 785.932 548.296 788.144 545.362C788.962 544.303 789.347 543.004 788.625 541.705C787.856 540.31 786.413 540.502 785.162 540.695C783.142 540.983 781.603 542.186 780.064 543.485C776.36 545.362 772.416 545.025 768.472 544.977C763.517 544.544 758.996 545.939 756.062 549.836C753.85 552.771 751.012 554.743 748.607 557.342C746.971 556.476 746.779 555.225 747.597 553.637C748.414 552.145 749.136 550.654 749.905 549.114C751.445 547.43 752.936 545.747 754.475 544.063C755.1 543.918 755.677 543.678 756.11 543.197C756.543 542.475 756.976 541.753 757.361 540.983C760.391 539.877 763.133 538.097 765.826 536.365C771.502 534.584 776.504 531.457 781.795 528.859C783.142 528.234 784.729 527.175 784.056 525.347C783.19 523.086 781.122 523.663 779.534 524.337C776.119 525.78 772.849 527.512 769.482 529.148C769.193 529.436 768.905 529.725 768.76 530.11C763.758 531.024 758.948 532.468 754.475 534.969C751.493 536.846 748.414 538.626 745.48 540.647C743.941 541.705 741.825 542.715 742.691 545.314L742.45 545.747L742.306 546.228C741.681 546.516 741.055 546.853 740.43 547.142C739.468 547.238 738.506 547.286 737.544 547.382C736.438 547.334 735.331 547.286 734.225 547.19C731.291 545.554 729.511 543.1 729.079 539.732C730.714 536.894 731.868 533.767 733.985 531.169C738.458 525.636 738.217 523.23 733.071 517.697C732.927 515.773 732.253 513.8 733.167 511.875C734.802 511.442 735.524 510.143 736.053 508.7C736.341 508.315 736.63 507.978 736.871 507.594C739.805 505.669 742.883 503.841 745.673 501.676C747.068 500.569 747.741 498.693 746.635 496.865C745.576 495.084 743.893 495.758 742.45 496.191C738.362 497.394 734.706 499.559 731.003 501.579C722.633 503.745 718.112 509.807 715.13 517.408C713.543 521.354 712.244 525.299 714.889 529.34C713.735 531.746 712.533 534.151 711.378 536.557C709.935 537.327 708.492 538.049 707.097 538.818C701.566 537.183 699.834 532.756 699.065 527.656C698.343 525.972 696.997 525.299 695.313 525.299C694.495 524.818 693.726 524.337 692.908 523.855C695.313 523.471 696.516 522.027 695.794 519.333C695.265 517.312 696.419 515.532 696.323 513.656C695.746 510.769 695.217 507.834 694.64 504.947C695.602 501.628 693.822 498.645 693.389 495.517C693.966 493.4 693.918 491.235 694.976 489.167C701.085 477.668 707.097 466.169 713.11 454.622C718.641 451.88 721.046 446.395 723.98 441.584C731.003 430.181 734.514 417.094 741.007 405.403C742.787 402.035 745.432 399.485 748.607 397.465C750.916 396.984 751.3 394.915 752.262 393.231C752.407 391.018 752.839 388.901 753.898 386.88C755.725 383.272 756.543 379.374 755.677 375.285C756.255 373.072 755.918 370.426 758.611 369.271C759.285 369.463 759.862 369.271 760.295 368.694C762.267 367.539 763.421 365.759 764.479 363.786C767.558 358.253 769.578 352.095 774.244 347.572C775.061 346.802 775.109 345.6 774.676 344.493H774.34C774.34 344.493 774.436 344.397 774.436 344.349L774.628 344.493C775.638 342.28 776.793 340.259 778.524 338.479C781.314 335.64 783.238 332.224 784.104 328.279C787.615 322.025 791.367 315.914 792.714 308.698C792.521 304.367 796.658 301.288 796.08 296.814C800.265 286.277 805.027 276.029 810.462 266.118C812.386 262.606 814.695 259.142 815.801 255.389C817.34 250.193 819.793 245.671 822.631 241.1C825.517 236.433 826.816 230.948 823.064 225.319C818.976 228.302 815.32 231.429 814.262 236.144C812.963 241.677 809.981 246.344 807.624 251.348C804.931 257.121 801.227 262.558 799.111 268.428C796.321 275.981 792.377 282.909 789.106 290.174C787.038 294.12 785.018 298.113 782.949 302.058C779.39 307.254 775.157 312.065 773.233 318.224C771.742 323.516 769.386 328.375 766.692 333.187C764.768 336.603 763.133 340.211 761.353 343.771C760.728 344.734 760.583 345.744 761.161 346.754C759.333 350.315 757.505 353.875 755.725 357.435C754.138 358.638 752.503 359.841 750.915 361.044C745.432 361.236 742.161 364.219 740.43 369.271C739.708 371.34 738.554 373.216 737.64 375.189C733.744 382.357 728.646 389.045 728.79 397.801C727.251 400.784 725.134 403.575 724.317 406.702C722.248 414.833 717.872 421.809 713.927 428.978C711.09 434.126 707.771 439.178 703.538 443.46C701.325 444.085 699.45 445.24 697.718 446.683C696.516 447.309 695.602 448.175 694.88 449.33C691.08 455.632 685.982 460.54 679.825 464.677C675.641 467.468 672.033 471.076 670.109 476.032C667.704 477.62 665.828 479.737 663.808 481.805C659.191 486.568 653.948 490.514 647.022 491.524C641.538 488.878 637.594 484.836 635.286 479.159C635.67 477.331 636.055 475.503 636.44 473.674C637.45 472.568 638.508 471.461 639.422 470.307C640.913 468.334 645.098 467.853 644.328 465.062C643.51 461.983 639.326 463.378 636.873 462.127C636.392 461.887 635.622 462.176 634.997 462.272C631.919 461.165 634.275 458.519 633.41 456.787C634.372 454.526 633.65 452.505 632.592 450.532C632.592 450.051 632.592 449.57 632.544 449.089C632.351 441.68 630.909 434.174 633.746 426.909C633.939 426.428 633.506 425.658 633.362 425.033C633.554 420.414 634.516 416.036 636.777 411.946C637.69 410.262 638.941 408.627 638.364 406.51C640.721 401.843 643.078 397.176 645.386 392.509C646.444 390.392 648.128 388.516 647.406 385.87C647.984 384.859 648.032 383.849 647.503 382.887C648.032 381.876 648.224 380.866 647.551 379.856C647.984 378.845 647.984 377.883 647.551 376.873C647.936 373.264 647.887 369.656 647.214 366.095C647.503 365.326 647.406 364.652 646.925 364.027C647.022 363.642 647.022 363.305 646.877 362.968C647.118 362.343 646.974 361.862 646.396 361.477V361.332C645.29 357.772 646.877 353.634 643.943 349.882C642.116 352.913 639.518 354.5 637.065 356.232C636.44 356.425 635.815 356.617 635.189 356.81C630.379 357.724 628.792 361.669 627.157 365.518C625.762 368.79 625.858 372.494 624.078 375.67C621.818 379.615 621 383.945 620.904 388.42C620.904 390.873 618.403 392.99 620.038 395.636C620.327 398.619 617.922 401.073 618.355 404.056C617.393 406.029 616.431 408.049 615.421 410.022C612.679 414.352 610.13 418.73 609.456 423.974C608.446 432.057 609.985 433.886 618.066 433.886C618.739 434.222 619.413 434.126 620.038 433.693C620.375 433.837 620.712 433.934 621.048 433.934C622.203 434.752 622.732 435.762 622.203 437.253C621.241 440.14 620.423 443.027 619.509 445.914C618.98 447.598 620.231 447.598 621.241 447.838C620.904 448.656 620.615 449.474 620.279 450.244C620.76 450.725 621 451.254 621.144 451.831C620.856 451.302 620.567 450.821 620.279 450.244C619.75 451.398 618.739 452.601 618.739 453.756C618.643 460.492 615.661 466.698 615.661 473.434C611.765 475.022 611.909 479.496 609.456 482.094C604.839 483.297 600.414 485.51 595.411 483.922C595.123 482.816 594.353 482.094 593.439 481.517C592.237 478.389 591.034 475.214 592.141 471.75C593.824 468.671 595.508 465.592 597.239 462.512C600.125 457.316 600.029 452.457 595.604 448.127C593.151 445.721 591.034 443.123 590.842 439.515C593.007 436.147 592.958 432.827 590.457 429.652C588.245 426.861 582.906 427.15 582.425 430.47C581.703 435.618 578.721 440.525 580.26 445.962C580.356 446.683 580.453 447.357 580.549 448.031C579.972 450.581 579.587 453.179 578.336 455.584C574.969 459 575.931 462.945 576.845 466.891C576.605 468.19 576.46 469.489 576.028 470.691C575.691 471.75 575.21 472.327 574.055 472.231C542.07 436.387 513.932 395.3 484.639 337.95C463.62 379.038 443.226 411.754 421.63 440.236C420.956 440.429 420.283 440.862 419.754 441.584C419.321 442.209 419.177 442.834 419.177 443.412C372.04 504.418 318.65 545.987 239.815 608.918C75.4612 740.168 141.693 907.55 260.787 945.655C259.536 946.136 258.334 946.714 257.131 947.532C259.296 950.9 261.268 954.027 263.288 957.106C264.057 958.309 265.212 958.838 266.655 958.357C268.146 959.079 269.637 958.934 271.224 958.549C274.351 957.828 277.717 953.594 277.958 950.178C285.51 951.717 293.157 952.824 300.997 953.305C309.751 953.883 318.121 953.738 326.201 953.065C324.181 960.233 322.834 967.546 322.498 975.052C323.748 977.409 322.834 981.21 326.875 981.788C327.067 981.162 327.404 980.537 327.404 979.911C327.308 970.433 329.52 961.388 332.31 952.487C349.096 950.418 364.392 945.752 378.244 939.449C376.032 945.174 373.386 950.755 370.308 956.144C367.903 960.378 365.883 964.852 363.719 969.23C368.336 971.059 371.222 965.862 375.503 966.247C380.553 958.886 381.9 949.841 386.469 942.191C388.153 939.401 389.259 936.322 390.413 933.29C410.519 922.08 427.161 907.502 440.581 892.684C440.773 892.876 440.965 893.021 441.158 893.165C442.072 893.454 443.034 893.694 443.563 892.732C444.14 891.577 443.948 890.615 443.082 889.893C453.471 878.058 461.84 866.174 468.238 855.926C460.446 909.571 444.477 1005.41 424.468 1048.33H544.859C531.055 1018.79 519.223 964.034 510.613 915.345C510.998 914.575 511.431 913.853 511.815 913.083C515.279 909.09 514.942 904.567 510.901 902.018C509.988 901.44 508.978 900.911 508.016 900.382C507.342 896.437 506.717 892.588 506.092 888.787C507.054 887.391 507.823 885.9 508.497 884.312C511.142 881.041 511.863 877.095 512.777 873.198C541.108 911.64 591.66 958.357 668.33 953.45C764.143 947.291 841.245 859.198 825.758 757.921C826.768 757.825 827.778 757.729 828.836 757.488C830.519 757.104 832.299 757.152 834.031 757.007C837.301 757.2 839.802 755.42 841.197 752.966C843.266 749.357 844.997 745.412 846.007 741.371C847.691 734.876 850.673 729.872 858.08 728.092C854.665 723.425 853.607 719.047 858.224 714.909C859.475 713.802 858.705 712.311 857.743 711.397C856.493 710.146 855.05 709.136 853.655 708.029C853.799 707.74 853.896 707.452 853.896 707.115C855.771 703.41 857.503 699.561 861.303 697.3C862.265 696.723 862.746 695.76 862.698 694.51C862.409 687.389 860.004 684.839 852.404 683.636L852.308 683.588ZM691.513 493.208C691.513 493.208 691.417 493.16 691.321 493.112C691.417 493.112 691.465 493.112 691.561 493.064C691.561 493.112 691.561 493.16 691.465 493.208H691.513ZM707.819 566.964C707.819 566.964 707.819 566.723 707.819 566.579C707.915 566.627 707.963 566.723 708.059 566.772C707.963 566.82 707.915 566.916 707.819 566.964ZM806.278 673.533C804.883 676.275 803.488 679.065 802.093 681.856C801.804 682.193 801.564 682.53 801.371 682.963C799.592 684.31 798.101 682.963 796.561 682.241C793.05 676.66 789.25 671.031 785.066 665.498C788.529 666.412 791.992 666.123 795.503 665.787C799.255 665.45 803.103 665.017 806.422 667.567C806.71 669.587 805.604 671.512 806.326 673.533H806.278ZM826.287 692.874C826.287 692.874 826.383 692.874 826.431 692.874C826.431 692.874 826.431 692.97 826.479 693.018C826.431 693.018 826.383 692.97 826.287 692.922V692.874ZM842.881 719.576C842.881 719.576 842.64 719.191 842.544 718.999C842.737 719.047 842.881 719.143 843.073 719.191C843.025 719.335 842.929 719.432 842.881 719.528V719.576Z" fill="white"/>
<path fill-rule="evenodd" clip-rule="evenodd" d="M1112.88 172.091C1118.03 174.933 1118.78 174.557 1120.87 168.82C1121.36 167.426 1122.11 166.139 1122.75 164.798C1123.34 163.511 1124.47 162.224 1123.07 160.83C1121.89 159.651 1120.39 159.972 1118.89 160.24C1115.83 160.83 1113.58 162.761 1111.54 164.959C1108.33 168.445 1108.59 169.785 1112.88 172.144V172.091Z" fill="white"/>
<path fill-rule="evenodd" clip-rule="evenodd" d="M93.5253 604.875C90.8979 603.106 87.7341 602.033 86.9298 597.046C80.7096 607.02 81.7285 610.72 89.9327 612.597C92.0775 613.079 94.4905 613.508 95.8311 611.042C97.3861 608.2 95.563 606.269 93.5253 604.875Z" fill="white"/>
<path fill-rule="evenodd" clip-rule="evenodd" d="M568.886 283.732C571.513 285.18 577.465 284.322 578.538 282.231C579.61 280.193 577.144 275.206 574.248 273.491C571.406 271.828 569.1 272.418 567.438 275.26C565.561 278.585 566.205 282.177 568.886 283.732Z" fill="white"/>
<path fill-rule="evenodd" clip-rule="evenodd" d="M514.835 223.783C517.623 225.391 524.165 223.193 525.291 220.19C526.364 217.294 524.916 215.471 522.289 214.291C519.071 212.897 515.157 214.452 513.441 218.099C512.958 220.029 512.315 222.335 514.835 223.783Z" fill="white"/>
<path fill-rule="evenodd" clip-rule="evenodd" d="M573.82 1012.24C571.514 1011.17 565.347 1013.37 564.007 1015.94C562.291 1019.11 564.543 1020.34 566.849 1021.47C570.763 1023.34 573.927 1022.91 575.321 1020.29C576.662 1017.77 575.75 1013.16 573.82 1012.24Z" fill="white"/>
<path fill-rule="evenodd" clip-rule="evenodd" d="M109.183 974.922C107.145 975.19 107.521 977.067 107.467 978.461C107.306 983.555 107.95 988.381 111.971 992.081C114.17 992.832 115.564 992.188 115.403 989.829C115.135 985.593 113.741 981.571 112.4 977.549C111.918 976.048 110.899 974.707 109.237 974.922H109.183Z" fill="white"/>
<path fill-rule="evenodd" clip-rule="evenodd" d="M855.334 458.97C854.208 459.935 852.814 460.847 853.565 462.509C854.316 464.332 856.032 464.761 857.801 464.708C860.804 464.547 862.734 462.831 863.807 460.042C864.021 459.667 864.289 459.238 864.45 458.809C865.094 457.147 865.415 455.377 863.646 454.251C862.198 453.286 860.911 454.198 859.731 455.216C858.284 456.503 856.836 457.79 855.334 459.024V458.97Z" fill="white"/>
<path fill-rule="evenodd" clip-rule="evenodd" d="M939.415 174.128C942.043 175.147 944.242 174.128 945.743 171.715C946.976 169.624 946.547 164.262 945.099 163.296C943.705 162.385 939.684 164.422 938.289 166.782C936.842 169.141 937.378 173.377 939.415 174.128Z" fill="white"/>
<path fill-rule="evenodd" clip-rule="evenodd" d="M975.181 166.139C975.985 163.566 976.575 160.67 974.537 158.418C973.143 156.863 969.336 158.74 967.888 161.421C966.601 163.834 966.44 166.139 968.585 168.016C970.569 169.196 974.483 168.231 975.181 166.139Z" fill="white"/>
<path fill-rule="evenodd" clip-rule="evenodd" d="M898.93 9.2406C901.504 10.6884 903.971 9.61595 905.687 5.8624C907.081 3.82476 905.633 2.37696 903.327 1.25089C900.807 0.017585 898.501 0.0175852 897.107 2.85956C895.874 5.3798 896.303 7.68555 898.877 9.18697L898.93 9.2406Z" fill="white"/>
<path fill-rule="evenodd" clip-rule="evenodd" d="M75.5086 952.133C73.4174 950.846 69.5566 951.383 68.8595 953.259C67.8943 955.941 69.2348 958.085 71.2725 959.694C73.0956 961.142 76.2593 960.123 77.5463 957.764C78.5115 955.994 77.5463 953.42 75.455 952.133H75.5086Z" fill="white"/>
<path fill-rule="evenodd" clip-rule="evenodd" d="M770.666 655.549C771.578 657.855 773.347 657.855 775.546 657.319C779.728 656.353 780.693 652.493 782.999 649.919C782.731 649.49 782.517 649.061 782.248 648.578C779.246 649.436 776.243 650.24 773.24 651.206C771.256 651.849 769.647 653.029 770.666 655.549Z" fill="white"/>
<path fill-rule="evenodd" clip-rule="evenodd" d="M139.694 564.391C141.518 565.303 145.539 563.64 146.504 561.442C147.47 559.19 146.933 557.045 144.842 555.704C143.073 554.524 139.265 556.294 138.139 558.6C137.174 560.691 137.871 563.479 139.641 564.337L139.694 564.391Z" fill="white"/>
<path fill-rule="evenodd" clip-rule="evenodd" d="M854.478 545.247C855.818 543.639 854.639 539.671 852.655 538.759C850.134 537.633 848.258 538.813 847.185 541.065C845.952 543.585 846.81 545.837 848.633 547.714C851.314 548.465 853.03 546.91 854.478 545.247Z" fill="white"/>
<path fill-rule="evenodd" clip-rule="evenodd" d="M816.03 1027.69C821.124 1024.79 826.486 1024.58 828.416 1019C829.06 1018.68 829.65 1018.3 830.347 1018.2C830.615 1017.77 830.883 1017.39 831.151 1016.96C829.81 1016.27 828.47 1015.57 827.183 1014.93C823.966 1019.05 818.174 1020.93 816.03 1027.74V1027.69Z" fill="white"/>
<path fill-rule="evenodd" clip-rule="evenodd" d="M935.073 443.472C934.268 445.832 935.341 447.709 936.789 449.156C938.88 450.497 942.794 449.693 943.491 447.762C944.403 445.403 943.384 443.419 941.507 442.025C939.738 440.738 935.663 441.649 935.019 443.526L935.073 443.472Z" fill="white"/>
<path fill-rule="evenodd" clip-rule="evenodd" d="M808.416 638.335C805.842 640.212 801.981 640.051 799.461 643.537C803.483 643.43 806.378 641.124 809.703 642.25C811.204 643.269 812.974 643.269 814.636 643.161C818.175 642.947 819.248 640.856 817.532 637.746C815.601 634.153 812.223 634.367 808.362 638.335H808.416Z" fill="white"/>
<path fill-rule="evenodd" clip-rule="evenodd" d="M605.939 417.519C608.084 418.431 612.105 416.554 612.802 414.302C613.499 412.103 613.231 409.583 610.765 408.832C608.298 408.135 605.831 409.208 604.92 411.889C604.223 413.873 603.687 416.178 605.939 417.519Z" fill="white"/>
<path fill-rule="evenodd" clip-rule="evenodd" d="M765.734 286.628C768.307 287.701 770.023 285.931 771.149 283.947C772.383 281.749 771.31 277.727 769.541 277.352C766.699 276.815 765.734 279.014 764.768 280.783C763.535 283.196 762.945 285.449 765.734 286.628Z" fill="white"/>
<path fill-rule="evenodd" clip-rule="evenodd" d="M1060.71 485.406C1061.73 482.886 1060.44 480.848 1058.46 479.668C1056.47 478.542 1054.49 479.668 1053.31 481.33C1051.81 483.475 1052.45 485.567 1054.06 487.283C1056.1 488.462 1059.96 487.39 1060.71 485.406Z" fill="white"/>
<path fill-rule="evenodd" clip-rule="evenodd" d="M143.339 614.045C142.106 616.19 142.75 618.335 144.358 620.051C146.074 621.07 150.042 619.729 150.954 617.799C152.08 615.386 151.168 613.187 149.077 612.115C146.878 610.989 144.573 611.954 143.339 614.045Z" fill="white"/>
<path fill-rule="evenodd" clip-rule="evenodd" d="M54.3809 759.899C51.4853 758.934 49.126 761.025 47.6245 763.331C46.3912 765.315 47.1419 767.352 49.3941 768.157C52.2897 769.175 54.0592 767.459 55.2925 764.832C55.936 763.116 56.7939 760.703 54.3809 759.899Z" fill="white"/>
<path fill-rule="evenodd" clip-rule="evenodd" d="M929.441 191.771C930.352 189.733 930.245 187.267 927.939 185.873C925.633 184.478 923.649 185.175 922.47 187.535C921.344 189.733 921.719 191.825 923.864 193.487C926.116 194.238 928.368 194.13 929.441 191.771Z" fill="white"/>
<path fill-rule="evenodd" clip-rule="evenodd" d="M459.068 373.55C461.588 374.784 463.786 374.301 465.341 371.995C466.307 370.172 466.521 368.51 465.073 367.169C463.518 365.775 458.263 367.223 457.298 369.368C456.44 371.298 457.405 372.746 459.068 373.604V373.55Z" fill="white"/>
<path fill-rule="evenodd" clip-rule="evenodd" d="M1073.52 817.596C1069.66 818.454 1066.18 819.848 1064.89 825.585C1069.34 824.137 1072.93 823.977 1075.35 821.135C1075.99 820.437 1076.53 819.419 1076.04 818.4C1075.56 817.381 1074.54 817.327 1073.52 817.542V817.596Z" fill="white"/>
<path fill-rule="evenodd" clip-rule="evenodd" d="M808.898 1064.85C806.324 1064.15 799.675 1067.15 798.71 1069.46C798.281 1070.42 798.334 1071.34 799.514 1071.76C802.195 1072.78 808.576 1070.32 809.81 1067.85C810.238 1066.56 810.507 1065.33 808.898 1064.85Z" fill="white"/>
<path fill-rule="evenodd" clip-rule="evenodd" d="M309.193 435.697C309.676 433.499 308.764 432.319 308.067 431.032C307.477 429.96 306.995 428.833 306.351 427.815C305.654 426.742 304.635 426.045 303.295 426.581C302.276 426.957 301.954 427.922 301.74 428.887C300.989 432.909 302.437 434.249 309.247 435.697H309.193Z" fill="white"/>
<path fill-rule="evenodd" clip-rule="evenodd" d="M879.626 976.477C883.648 974.761 887.026 971.919 891.209 970.418C893.514 969.56 894.051 967.522 891.959 964.841C887.723 968.917 882.039 970.686 879.626 976.477Z" fill="white"/>
<path fill-rule="evenodd" clip-rule="evenodd" d="M883.755 61.3074C886.221 62.5407 889.921 61.79 890.404 59.9132C890.94 57.9828 889.975 56.5886 888.313 55.6771C886.06 54.3901 882.468 55.0872 881.878 57.0712C881.342 58.948 882.414 60.3422 883.701 61.3074H883.755Z" fill="white"/>
<path fill-rule="evenodd" clip-rule="evenodd" d="M987.085 509.911C991.965 508.41 997.488 508.141 1001.08 502.458C994.324 502.458 990.303 505.407 987.085 509.911Z" fill="white"/>
<path fill-rule="evenodd" clip-rule="evenodd" d="M788.307 616.458C790.72 618.657 793.509 615.493 796.083 613.027C794.689 610.774 792.758 609.809 790.399 608.683C789.112 611.311 785.734 614.099 788.307 616.458Z" fill="white"/>
<path fill-rule="evenodd" clip-rule="evenodd" d="M1098.62 812.769C1103.82 809.819 1108.81 809.39 1111.43 804.564C1106.13 804.672 1101.62 806.119 1098.62 812.769Z" fill="white"/>
<path fill-rule="evenodd" clip-rule="evenodd" d="M341.903 1059.06C339.186 1060.74 338.9 1063.08 341.045 1066.08C346.997 1064.47 347.104 1064.2 344.476 1057.55C343.619 1058.09 342.761 1058.57 341.956 1059.06H341.903Z" fill="white"/>
<path fill-rule="evenodd" clip-rule="evenodd" d="M821.822 1042.16C819.998 1041.25 817.854 1040.61 816.674 1042.81C815.441 1044.95 816.888 1046.45 818.712 1047.47C820.803 1048.22 822.787 1048.12 823.913 1046.13C825.039 1044.04 823.43 1042.97 821.822 1042.16Z" fill="white"/>
<path fill-rule="evenodd" clip-rule="evenodd" d="M9.55287 714.426C7.51523 713.675 6.4964 715.391 5.74569 717C4.56601 719.467 5.96018 721.129 7.72971 722.684C10.0355 723.166 10.5717 721.343 11.2688 719.896C12.2876 717.643 12.234 715.445 9.60649 714.48L9.55287 714.426Z" fill="white"/>
<path fill-rule="evenodd" clip-rule="evenodd" d="M158.784 642.894C160.821 643.806 163.503 644.02 164.897 642.036C166.452 639.891 163.771 639.409 162.645 638.39C160.661 637.532 158.408 635.87 156.907 638.604C155.995 640.213 157.175 642.197 158.784 642.894Z" fill="white"/>
<path fill-rule="evenodd" clip-rule="evenodd" d="M1076.04 699.411C1073.1 697.588 1069.99 697.534 1066.82 698.446C1062.32 699.143 1057.54 699.143 1053.58 702.414C1058.62 705.309 1064.73 706.382 1071.43 705.739C1072.88 705.47 1074.33 705.256 1075.78 704.934C1076.96 704.666 1078.3 704.183 1078.46 702.789C1078.62 701.127 1077.38 700.215 1076.1 699.411H1076.04Z" fill="white"/>
<path fill-rule="evenodd" clip-rule="evenodd" d="M1004.4 156.38C1001.94 155.629 1000.06 157.13 998.882 159.007C998.185 160.079 998.935 161.366 1000.6 162.224C1002.37 162.224 1004.67 162.761 1005.75 159.972C1006.34 158.417 1006.12 156.916 1004.4 156.38Z" fill="white"/>
<path fill-rule="evenodd" clip-rule="evenodd" d="M266.564 1041.63C265.652 1042.81 265.223 1044.58 266.939 1045.33C269.137 1046.29 271.229 1045.6 272.945 1043.72C273.749 1042.54 273.052 1041.36 272.194 1040.66C270.049 1038.95 268.011 1039.7 266.564 1041.63Z" fill="white"/>
<path fill-rule="evenodd" clip-rule="evenodd" d="M689.106 337.247C690.608 337.73 692.484 338.159 693.771 336.175C693.771 334.566 693.771 332.582 692.109 331.778C690.608 331.081 688.516 331.134 687.658 332.957C686.908 334.566 687.122 336.55 689.106 337.193V337.247Z" fill="white"/>
<path fill-rule="evenodd" clip-rule="evenodd" d="M726.588 556.562C725.944 557.795 726.588 558.868 728.143 559.565C729.966 559.779 732.379 560.691 733.558 558.171C734.363 556.508 732.861 555.543 731.467 555.007C729.483 554.256 727.606 554.471 726.588 556.562Z" fill="white"/>
<path fill-rule="evenodd" clip-rule="evenodd" d="M284.421 587.556C285.6 588.038 286.941 588.36 287.424 586.805C287.96 585.035 289.032 582.837 286.351 581.872C284.528 581.228 283.08 582.301 282.008 583.802C281.418 585.947 282.758 586.912 284.474 587.609L284.421 587.556Z" fill="white"/>
<path fill-rule="evenodd" clip-rule="evenodd" d="M984.565 332.743C982.902 331.939 981.079 332.1 980.275 334.03C979.632 335.531 980.275 336.926 981.723 337.73C983.331 338.695 984.94 338.641 986.495 336.765C986.71 335.263 986.334 333.601 984.618 332.797L984.565 332.743Z" fill="white"/>
<path fill-rule="evenodd" clip-rule="evenodd" d="M969.015 519.885C969.015 519.885 969.068 519.885 969.121 519.885C969.121 519.885 969.121 519.885 969.174 519.832C969.174 519.832 969.121 519.832 969.068 519.832C969.068 519.832 969.068 519.885 969.015 519.938V519.885Z" fill="white"/>
<path fill-rule="evenodd" clip-rule="evenodd" d="M959.577 528.355C962.634 525.46 966.441 523.369 969.015 519.883C964.779 519.722 961.883 522.725 958.344 524.227C958.237 525.782 958.559 527.122 959.631 528.355H959.577Z" fill="white"/>
<path fill-rule="evenodd" clip-rule="evenodd" d="M1181.2 673.029C1180.39 674.584 1180.88 675.924 1182.11 676.943C1183.88 678.391 1185.38 677.479 1186.56 675.978C1187.52 674.745 1186.83 673.565 1185.86 672.761C1184.31 671.474 1182.7 671.635 1181.2 673.029Z" fill="white"/>
<path fill-rule="evenodd" clip-rule="evenodd" d="M320.294 380.198C321.689 380.359 323.512 380.198 324.531 378.643C325.281 377.517 324.531 376.23 323.351 375.533C321.581 374.461 319.919 374.729 318.954 376.605C318.364 377.785 318.847 379.018 320.294 380.198Z" fill="white"/>
<path fill-rule="evenodd" clip-rule="evenodd" d="M167.042 1010.04C165.112 1009.03 163.182 1009.62 161.841 1011.22C160.929 1012.24 161.412 1013.48 162.27 1014.6C164.629 1015.73 165.755 1013.85 167.042 1012.51C167.739 1011.81 168.168 1010.63 167.042 1010.04Z" fill="white"/>
<path fill-rule="evenodd" clip-rule="evenodd" d="M915.66 707.884C915.124 708.688 915.07 709.707 916.25 710.458C918.395 710.779 920.486 710.458 921.826 708.42C922.255 707.776 922.094 706.865 921.397 706.597C919.199 705.685 917.054 705.685 915.606 707.884H915.66Z" fill="white"/>
<path fill-rule="evenodd" clip-rule="evenodd" d="M510.33 196.22C511.563 196.81 512.69 196.328 513.387 194.719C513.869 193.164 513.601 191.502 511.724 190.805C510.598 190.376 509.204 190.805 508.614 192.092C507.756 193.968 508.614 195.47 510.277 196.274L510.33 196.22Z" fill="white"/>
<path fill-rule="evenodd" clip-rule="evenodd" d="M695.971 349.098C691.252 349.098 688.357 349.313 685.944 352.745C690.019 353.603 692.7 352.906 695.971 349.098Z" fill="white"/>
<path fill-rule="evenodd" clip-rule="evenodd" d="M366.193 503.423C367.48 503.905 368.66 503.637 369.089 502.136C369.518 500.634 368.553 499.83 367.373 499.24C366.193 498.65 365.014 498.597 364.156 499.884C363.941 501.546 364.585 502.833 366.14 503.423H366.193Z" fill="white"/>
<path fill-rule="evenodd" clip-rule="evenodd" d="M48.6435 656.3C48.9652 654.745 48.1609 653.458 46.6594 652.761C45.6406 652.332 44.5145 652.439 44.3001 653.565C43.9783 655.12 44.8363 656.407 46.2841 657.158C47.3565 657.587 48.429 657.372 48.6435 656.3Z" fill="white"/>
<path fill-rule="evenodd" clip-rule="evenodd" d="M959.791 141.098C961.078 139.757 961.829 137.666 962.311 135.789C962.848 133.698 963.437 131.124 961.292 129.622C958.987 128.014 956.359 128.711 954.59 130.641C950.246 135.575 944.294 139.221 942.364 146.084C936.948 155.736 937.967 157.881 948.691 159.276C949.388 159.383 950.139 159.061 950.89 158.954C954.322 157.989 955.644 155.272 954.858 150.803C956.466 147.532 957.056 143.832 959.791 140.99V141.098Z" fill="white"/>
<path fill-rule="evenodd" clip-rule="evenodd" d="M379.224 288.023C379.921 288.183 380.725 288.023 380.94 287.218C381.476 285.341 380.886 283.947 379.063 283.25C377.99 282.821 377.293 283.411 376.703 284.323C376.703 286.146 377.24 287.594 379.224 288.076V288.023Z" fill="white"/>
<path fill-rule="evenodd" clip-rule="evenodd" d="M928.477 323.359C931.48 324.378 933.517 324.003 936.038 320.624C932.338 320.41 930.085 320.356 928.477 323.359Z" fill="white"/>
<path fill-rule="evenodd" clip-rule="evenodd" d="M13.0918 679.197C12.1266 678.66 11.0005 677.481 10.0353 679.036C9.39187 680.108 9.49911 681.342 10.6788 682.307C11.9121 682.95 13.1454 682.575 13.8961 681.61C14.5396 680.752 14.057 679.679 13.1454 679.197H13.0918Z" fill="white"/>
<path fill-rule="evenodd" clip-rule="evenodd" d="M542.773 379.341C541.808 380.789 542.344 382.076 543.792 382.88C544.489 383.256 545.186 382.88 545.562 382.183C546.259 380.896 545.83 379.931 544.704 379.18C544.06 378.752 543.202 378.751 542.827 379.341H542.773Z" fill="white"/>
<path fill-rule="evenodd" clip-rule="evenodd" d="M325.174 521.654C324.691 522.673 325.657 523.424 326.407 524.174C327.694 524.871 328.82 524.496 329.464 523.263C330.054 522.137 329.249 521.332 328.338 520.85C327.104 520.206 325.817 520.314 325.174 521.6V521.654Z" fill="white"/>
<path fill-rule="evenodd" clip-rule="evenodd" d="M840.215 695.925C839.84 696.837 839.893 697.748 840.751 698.392C841.663 699.035 842.521 698.874 843.111 697.909C843.54 697.105 843.915 696.086 842.789 695.496C841.931 695.013 841.019 695.174 840.215 695.979V695.925Z" fill="white"/>
<path fill-rule="evenodd" clip-rule="evenodd" d="M719.296 451.409C719.242 452.428 719.832 453.125 720.904 453.233C721.601 453.286 722.245 453.072 722.513 452.267C722.406 451.249 721.923 450.552 720.851 450.444C720.1 450.391 719.349 450.605 719.296 451.409Z" fill="white"/>
<path fill-rule="evenodd" clip-rule="evenodd" d="M605.617 1037.39C604.652 1037.18 603.74 1037.66 603.311 1038.57C602.936 1039.27 603.097 1039.91 603.901 1040.29C604.92 1040.61 605.885 1040.34 606.421 1039.59C607.011 1038.73 606.743 1037.71 605.617 1037.39Z" fill="white"/>
<path fill-rule="evenodd" clip-rule="evenodd" d="M320.132 1050.74C319.274 1050.64 319.006 1051.55 319.006 1052.3C319.006 1053.26 319.006 1054.28 320.186 1054.66C321.044 1054.66 321.473 1054.18 321.58 1053.43C321.794 1052.19 321.794 1050.9 320.186 1050.74H320.132Z" fill="white"/>
<path fill-rule="evenodd" clip-rule="evenodd" d="M508.025 972.294C507.596 972.991 507.918 973.689 508.722 973.957C509.687 974.332 510.545 974.064 511.349 973.42C511.618 972.723 511.564 971.973 510.974 971.544C509.794 970.686 508.722 971.115 508.078 972.241L508.025 972.294Z" fill="white"/>
<path fill-rule="evenodd" clip-rule="evenodd" d="M28.8575 914.167C28.3749 915.24 29.1256 915.99 29.7154 916.741C30.3589 917.331 31.056 917.438 31.4313 916.527C31.8067 915.508 31.4313 914.543 30.6806 913.846C30.0908 913.309 29.2328 913.309 28.8575 914.114V914.167Z" fill="white"/>
<path fill-rule="evenodd" clip-rule="evenodd" d="M394.344 1022.38C393.969 1023.13 394.183 1023.83 394.88 1024.2C396.006 1024.84 396.596 1024.04 397.079 1023.18C397.454 1022.48 397.347 1021.73 396.65 1021.36C395.577 1020.82 394.88 1021.52 394.398 1022.38H394.344Z" fill="white"/>
<path fill-rule="evenodd" clip-rule="evenodd" d="M0.544455 929.933C0.222722 930.63 0.43721 931.273 1.1343 931.649C1.99225 932.078 2.90383 932.346 3.44005 931.273C3.76178 930.576 3.5473 929.933 2.85021 929.504C1.99225 929.021 1.08068 928.807 0.544455 929.933Z" fill="white"/>
<path fill-rule="evenodd" clip-rule="evenodd" d="M28.9109 486.532C29.0181 486.049 28.321 485.191 27.7848 484.923C26.8196 484.387 25.8008 484.869 25.5863 485.942C25.4791 486.424 26.1762 487.068 26.4443 487.497C27.7312 487.872 28.75 487.711 28.9109 486.532Z" fill="white"/>
<path fill-rule="evenodd" clip-rule="evenodd" d="M1030.52 137.666C1029.77 138.042 1029.55 138.631 1030.14 139.328C1030.73 139.865 1031.49 140.079 1032.18 139.704C1032.88 139.328 1033.09 138.578 1032.56 137.934C1032.02 137.237 1031.22 137.344 1030.52 137.666Z" fill="white"/>
<path fill-rule="evenodd" clip-rule="evenodd" d="M526.632 978.032C526.417 978.515 526.632 979.265 526.632 979.748C527.543 980.338 528.187 980.177 528.723 979.641C529.259 979.051 529.259 978.354 528.723 977.764C527.919 976.799 527.061 977.013 526.578 978.032H526.632Z" fill="white"/>
<path fill-rule="evenodd" clip-rule="evenodd" d="M840.857 156.22C840.428 156.864 841.072 157.453 841.769 157.721C842.52 157.99 843.163 157.829 843.646 157.078C843.86 156.274 843.485 155.577 842.734 155.523C842.091 155.523 841.179 155.737 840.857 156.22Z" fill="white"/>
<path fill-rule="evenodd" clip-rule="evenodd" d="M75.6151 973.69C74.9717 973.368 74.1673 973.261 73.8992 974.172C73.6847 974.869 74.0065 975.513 74.7572 975.834C75.5615 975.834 76.205 975.566 76.3658 974.762C76.4195 974.44 75.9905 973.85 75.6151 973.636V973.69Z" fill="white"/>
<path fill-rule="evenodd" clip-rule="evenodd" d="M1050.04 84.4727C1049.61 85.0089 1049.45 85.706 1050.04 86.2958C1050.79 86.6176 1051.49 86.4567 1051.86 85.8132C1052.02 85.5451 1051.86 84.848 1051.65 84.5263C1051.22 83.7756 1050.52 83.8828 1050.04 84.4727Z" fill="white"/>
<path fill-rule="evenodd" clip-rule="evenodd" d="M86.555 620.801C86.555 620.801 86.2333 621.82 86.3942 622.034C86.8768 622.678 87.6275 622.678 88.0564 621.874C88.2173 621.605 87.8956 621.069 87.7883 620.694C87.3594 620.694 86.7695 620.533 86.555 620.801Z" fill="white"/>
<path fill-rule="evenodd" clip-rule="evenodd" d="M20.3308 605.304C19.6337 605.948 19.3656 606.806 19.8482 607.717C20.2235 607.717 20.9206 607.825 20.9206 607.717C21.0815 607.074 21.2423 606.377 21.1887 605.68C21.1887 605.036 20.7061 604.875 20.2771 605.251L20.3308 605.304Z" fill="white"/>
<path fill-rule="evenodd" clip-rule="evenodd" d="M890.243 434.732C890.672 434.732 891.208 434.785 891.584 434.624C892.12 434.356 892.174 433.766 891.745 433.338C891.155 432.748 890.404 432.801 889.975 433.552C889.814 433.82 890.136 434.356 890.243 434.785V434.732Z" fill="white"/>
<path fill-rule="evenodd" clip-rule="evenodd" d="M309.944 1066.24C309.944 1066.67 309.73 1067.26 309.944 1067.47C310.159 1067.74 310.909 1067.85 311.178 1067.69C311.821 1067.26 311.875 1066.56 311.178 1066.13C310.909 1065.97 310.373 1066.24 309.998 1066.29L309.944 1066.24Z" fill="white"/>
<path fill-rule="evenodd" clip-rule="evenodd" d="M46.9274 942.482C46.284 942.213 45.9086 942.642 46.1231 943.286C46.284 943.715 46.6057 944.09 46.8738 944.519C47.4636 944.519 47.8926 944.144 47.7318 943.554C47.6245 943.125 47.2492 942.589 46.8738 942.482H46.9274Z" fill="white"/>
<path fill-rule="evenodd" clip-rule="evenodd" d="M47.4643 936.53C47.1962 936.208 46.9281 935.725 46.6063 935.672C46.3382 935.672 45.802 936.047 45.6411 936.369C45.4266 936.905 45.7484 937.227 46.3382 937.227C46.7136 937.012 47.0353 936.798 47.4107 936.53H47.4643Z" fill="white"/>
<path fill-rule="evenodd" clip-rule="evenodd" d="M292.678 442.99C292.946 442.24 292.41 441.811 291.82 441.65C291.498 441.543 291.123 441.811 290.747 441.918C291.015 442.293 291.176 442.776 291.498 442.99C291.82 443.151 292.624 443.151 292.678 442.99Z" fill="white"/>
<path fill-rule="evenodd" clip-rule="evenodd" d="M395.526 1034.18C395.526 1034.55 396.008 1034.87 396.277 1035.25C396.92 1035.41 397.295 1035.09 397.134 1034.5C397.027 1034.07 396.652 1033.75 396.384 1033.32C396.062 1033.59 395.472 1033.91 395.472 1034.18H395.526Z" fill="white"/>
<path fill-rule="evenodd" clip-rule="evenodd" d="M78.3509 1048.87C77.8683 1049.51 77.9756 1050.15 78.6191 1050.58C78.8335 1050.74 79.3161 1050.53 79.8524 1050.42C79.5306 1049.78 79.2625 1049.19 78.9408 1048.6C78.9408 1048.6 78.4582 1048.65 78.2973 1048.81L78.3509 1048.87Z" fill="white"/>
<path fill-rule="evenodd" clip-rule="evenodd" d="M566.258 237.831C566.258 237.831 566.473 237.027 566.58 236.598C566.097 236.598 565.615 236.491 565.186 236.652C564.596 236.866 564.435 237.402 564.971 237.778C565.293 237.992 565.99 238.046 566.258 237.831Z" fill="white"/>
<path fill-rule="evenodd" clip-rule="evenodd" d="M502.234 163.511C502.341 163.136 502.18 162.546 501.912 162.331C501.698 162.117 501.161 162.224 500.572 162.224C500.84 162.921 501.108 163.565 501.322 164.208C501.644 163.994 502.18 163.833 502.234 163.565V163.511Z" fill="white"/>
<path fill-rule="evenodd" clip-rule="evenodd" d="M1010.03 978.784C1009.66 978.784 1009.12 979.159 1008.96 979.535C1008.75 980.125 1009.18 980.554 1009.82 980.339C1010.25 980.232 1010.62 979.91 1011.05 979.642C1010.73 979.32 1010.41 978.784 1010.09 978.73L1010.03 978.784Z" fill="white"/>
<path fill-rule="evenodd" clip-rule="evenodd" d="M192.458 1015.14C192.458 1015.14 192.726 1015.46 192.887 1015.62C193.101 1015.62 193.369 1015.57 193.584 1015.51C193.53 1015.3 193.476 1014.98 193.369 1014.87C192.834 1014.5 192.458 1014.6 192.458 1015.14Z" fill="white"/>
<path fill-rule="evenodd" clip-rule="evenodd" d="M10.5181 760.38C10.5181 760.38 10.6253 760.97 10.7326 761.024C11.3224 761.185 11.6978 760.863 11.805 760.273C11.805 760.059 11.7514 759.63 11.5905 759.63C11.0007 759.469 10.6253 759.791 10.5181 760.38Z" fill="white"/>
<path fill-rule="evenodd" clip-rule="evenodd" d="M318.791 490.231C318.791 490.231 318.952 489.963 319.059 489.803C318.898 489.642 318.791 489.428 318.63 489.374C317.934 489.213 317.72 489.535 318.202 490.071C318.309 490.231 318.63 490.285 318.791 490.231Z" fill="white"/>
<path fill-rule="evenodd" clip-rule="evenodd" d="M28.9647 661.072C28.5893 661.287 28.2676 661.555 27.8386 661.823C27.9459 662.037 27.9995 662.252 28.1067 662.466C28.4821 662.198 28.8574 661.984 29.1256 661.662C29.1792 661.555 29.0183 661.233 28.9647 661.019V661.072Z" fill="white"/>
<path fill-rule="evenodd" clip-rule="evenodd" d="M968.907 21.2503C968.907 21.2503 969.067 20.8217 969.014 20.7145C968.907 20.5002 968.639 20.2859 968.478 20.2859C967.781 20.2859 967.674 20.6609 968.264 21.1431C968.424 21.2503 968.692 21.1967 968.96 21.2503H968.907Z" fill="white"/>
<path fill-rule="evenodd" clip-rule="evenodd" d="M620.309 268.236C620.309 268.236 620.737 268.128 621.005 268.128C620.952 267.914 620.952 267.593 620.791 267.486C620.255 267.11 619.88 267.271 619.88 267.753C619.88 267.914 620.148 268.075 620.309 268.236Z" fill="white"/>
<path fill-rule="evenodd" clip-rule="evenodd" d="M969.174 519.83C969.817 519.937 970.031 519.83 969.656 519.509C969.656 519.509 969.388 519.723 969.174 519.83Z" fill="white"/>
<path fill-rule="evenodd" clip-rule="evenodd" d="M77.1706 484.333C77.4923 486.157 79.1546 485.835 80.4415 484.923C80.9241 484.119 80.7096 483.529 79.8517 483.1C78.6184 482.886 76.9025 483.154 77.1706 484.333Z" fill="white"/>
<path fill-rule="evenodd" clip-rule="evenodd" d="M347.05 438.165L346.675 438.755L346.46 439.452C347.747 439.506 347.747 439.023 347.05 438.165Z" fill="white"/>
<path fill-rule="evenodd" clip-rule="evenodd" d="M916.251 454.359L916.036 454.734L916.519 454.788L916.251 454.359Z" fill="white"/>
<path fill-rule="evenodd" clip-rule="evenodd" d="M719.833 557.85C720.154 557.957 720.744 556.992 721.173 556.455C720.53 556.348 719.511 555.866 719.296 556.134C718.814 556.67 719.135 557.689 719.833 557.85Z" fill="white"/>
</svg>
