<svg width="24" height="24" viewBox="0 0 24 24" fill="none" xmlns="http://www.w3.org/2000/svg">
<path d="M12 0.425934C5.376 0.425934 0 5.6526 0 12.0926C0 18.5326 5.376 23.7593 12 23.7593C18.624 23.7593 24 18.5326 24 12.0926C24 5.6526 18.624 0.425934 12 0.425934ZM17.568 8.35927C17.388 10.2026 16.608 14.6826 16.212 16.7476C16.044 17.6226 15.708 17.9143 15.396 17.9493C14.7 18.0076 14.172 17.5059 13.5 17.0743C12.444 16.3976 11.844 15.9776 10.824 15.3243C9.636 14.5659 10.404 14.1459 11.088 13.4693C11.268 13.2943 14.34 10.5759 14.4 10.3309C14.4083 10.2938 14.4072 10.2553 14.3968 10.2187C14.3863 10.1821 14.3668 10.1485 14.34 10.1209C14.268 10.0626 14.172 10.0859 14.088 10.0976C13.98 10.1209 12.3 11.2059 9.024 13.3526C8.544 13.6676 8.112 13.8309 7.728 13.8193C7.296 13.8076 6.48 13.5859 5.868 13.3876C5.112 13.1543 4.524 13.0259 4.572 12.6176C4.596 12.4076 4.896 12.1976 5.46 11.9759C8.964 10.4943 11.292 9.51427 12.456 9.0476C15.792 7.69427 16.476 7.46093 16.932 7.46093C17.028 7.46093 17.256 7.48427 17.4 7.60093C17.52 7.69427 17.556 7.8226 17.568 7.91593C17.556 7.98593 17.58 8.19593 17.568 8.35927Z" fill="white"/>
</svg>
